<?xml version="1.0" encoding="utf-8"?>
<!-- Generator: Adobe Illustrator 18.1.0, SVG Export Plug-In . SVG Version: 6.00 Build 0)  -->
<svg version="1.1" id="Layer_1" xmlns="http://www.w3.org/2000/svg" xmlns:xlink="http://www.w3.org/1999/xlink" x="0px" y="0px"
	 viewBox="0 0 163.4 170" enable-background="new 0 0 163.4 170" xml:space="preserve">
<g>
	<path d="M43.8,157.6c-0.1,0-0.2,0-0.2,0l-10.7-3.3c-0.3-0.1-0.5-0.4-0.6-0.7c0-0.3,0.1-0.6,0.4-0.8l14-7.4c0.2-0.1,0.4-0.1,0.6-0.1
		l10.7,3.3c0.3,0.1,0.5,0.4,0.6,0.7c0,0.3-0.1,0.6-0.4,0.8l-14,7.4C44,157.6,43.9,157.6,43.8,157.6z M35.2,153.3l8.5,2.6l12-6.3
		l-8.5-2.6L35.2,153.3z"/>
</g>
<g>
	<path d="M62.2,152.8c-0.2,0-0.4-0.1-0.5-0.2l-8.2-7.6c-0.2-0.1-0.3-0.3-0.3-0.6l-0.6-15.8c0-0.3,0.2-0.6,0.5-0.8
		c0.3-0.1,0.6-0.1,0.9,0.1l8.2,7.6c0.2,0.1,0.3,0.3,0.3,0.6L63,152c0,0.3-0.2,0.6-0.5,0.8C62.4,152.8,62.3,152.8,62.2,152.8z
		 M54.8,144l6.5,6l-0.5-13.5l-6.5-6L54.8,144z"/>
</g>
<g>
	<path d="M28,130.1C28,130.1,28,130.1,28,130.1l-15.8-0.6c-0.2,0-0.4-0.1-0.6-0.3L4,121c-0.2-0.2-0.3-0.6-0.1-0.9
		c0.1-0.3,0.4-0.5,0.8-0.5l15.8,0.6c0.2,0,0.4,0.1,0.6,0.3l7.5,8.1c0.2,0.1,0.3,0.4,0.3,0.6C28.8,129.8,28.5,130.2,28,130.1
		C28,130.1,28,130.1,28,130.1z M12.6,127.9l13.5,0.5l-6-6.5l-13.5-0.5L12.6,127.9z"/>
</g>
<g>
	<path d="M14.8,61.9c-0.3,0-0.6-0.2-0.7-0.4l-7.4-14c-0.1-0.2-0.1-0.4-0.1-0.6L10,36.2c0.1-0.3,0.4-0.5,0.7-0.6
		c0.3,0,0.6,0.1,0.8,0.4l7.4,14c0.1,0.2,0.1,0.4,0.1,0.6l-3.3,10.7C15.5,61.7,15.2,61.9,14.8,61.9C14.9,61.9,14.8,61.9,14.8,61.9z
		 M8.3,47.1l6.3,12l2.6-8.5l-6.3-12L8.3,47.1z"/>
</g>
<g>
	<path d="M35,32.2c-0.1,0-0.2,0-0.3-0.1c-0.3-0.1-0.5-0.4-0.5-0.8l0.6-15.8c0-0.2,0.1-0.4,0.3-0.6l8.2-7.6c0.2-0.2,0.6-0.3,0.9-0.1
		c0.3,0.1,0.5,0.4,0.5,0.8L44,23.8c0,0.2-0.1,0.4-0.3,0.6L35.5,32C35.4,32.1,35.2,32.2,35,32.2z M36.4,15.9l-0.5,13.5l6.5-6
		l0.5-13.5L36.4,15.9z"/>
</g>
<g>
	<path d="M44.5,42.1c-0.1,0-0.3,0-0.4-0.1l-14-7.4c-0.3-0.2-0.5-0.5-0.4-0.8c0-0.3,0.3-0.6,0.6-0.7L41,29.8c0.2-0.1,0.4,0,0.6,0.1
		l14,7.4c0.3,0.2,0.5,0.5,0.4,0.8c0,0.3-0.3,0.6-0.6,0.7L44.8,42C44.7,42.1,44.6,42.1,44.5,42.1z M32.6,34.1l12,6.3l8.5-2.6l-12-6.3
		L32.6,34.1z"/>
</g>
<g>
	<path d="M25.1,144.7c-0.2,0-0.3,0-0.4-0.1l-9.3-6.1c-0.3-0.2-0.4-0.5-0.4-0.8c0.1-0.3,0.3-0.6,0.6-0.6l15.5-3.2
		c0.2,0,0.4,0,0.6,0.1L41,140c0.3,0.2,0.4,0.5,0.4,0.8c-0.1,0.3-0.3,0.6-0.6,0.6l-15.5,3.2C25.2,144.7,25.1,144.7,25.1,144.7z
		 M17.8,138.1l7.4,4.9l13.2-2.8l-7.4-4.9L17.8,138.1z"/>
</g>
<g>
	<path d="M44.1,145.1c-0.3,0-0.5-0.1-0.7-0.4l-5.8-9.6c-0.1-0.2-0.1-0.4-0.1-0.6l3.8-15.4c0.1-0.3,0.3-0.6,0.7-0.6
		c0.3-0.1,0.6,0.1,0.8,0.4l5.8,9.6c0.1,0.2,0.1,0.4,0.1,0.6l-3.8,15.4c-0.1,0.3-0.3,0.6-0.7,0.6C44.2,145.1,44.1,145.1,44.1,145.1z
		 M39.2,134.6l4.6,7.6l3.2-13.1l-4.6-7.6L39.2,134.6z"/>
</g>
<g>
	<path d="M23.6,44.7c-0.1,0-0.1,0-0.2,0c-0.3-0.1-0.6-0.3-0.6-0.6l-3.2-15.5c0-0.2,0-0.4,0.1-0.6l6.1-9.3c0.2-0.3,0.5-0.4,0.8-0.4
		c0.3,0.1,0.6,0.3,0.6,0.6l3.2,15.5c0,0.2,0,0.4-0.1,0.6l-6.1,9.3C24.1,44.6,23.9,44.7,23.6,44.7z M21.3,28.6L24,41.8l4.9-7.4
		l-2.8-13.2L21.3,28.6z"/>
</g>
<g>
	<path d="M35.3,52c-0.1,0-0.1,0-0.2,0l-15.4-3.8c-0.3-0.1-0.6-0.3-0.6-0.7c0-0.3,0.1-0.6,0.4-0.8l9.6-5.8c0.2-0.1,0.4-0.1,0.6-0.1
		l15.4,3.8c0.3,0.1,0.6,0.3,0.6,0.7c0,0.3-0.1,0.6-0.4,0.8l-9.6,5.8C35.6,52,35.5,52,35.3,52z M22,47.1l13.1,3.2l7.6-4.6l-13.1-3.2
		L22,47.1z"/>
</g>
<g>
	<path d="M51.2,21.7c-0.2,0-0.4-0.1-0.5-0.2c-0.2-0.2-0.3-0.6-0.2-0.9l5-15c0.1-0.2,0.2-0.4,0.4-0.5l10-5C66-0.1,66.4,0,66.6,0.2
		s0.3,0.6,0.2,0.9l-5,15c-0.1,0.2-0.2,0.4-0.4,0.5l-10,5C51.4,21.6,51.3,21.7,51.2,21.7z M56.8,6.4l-4.2,12.8l7.9-4l4.2-12.8
		L56.8,6.4z"/>
</g>
<g>
	<path d="M57.7,33.8c-0.2,0-0.4-0.1-0.6-0.2L45.7,22.7c-0.2-0.2-0.3-0.6-0.2-0.9c0.1-0.3,0.4-0.5,0.7-0.5L57.4,21
		c0.2,0,0.4,0.1,0.6,0.2l11.4,10.9c0.2,0.2,0.3,0.6,0.2,0.9s-0.4,0.5-0.7,0.5L57.7,33.8C57.7,33.8,57.7,33.8,57.7,33.8z M48.2,22.9
		l9.8,9.3l8.9-0.2l-9.8-9.3L48.2,22.9z"/>
</g>
<g>
	<path d="M119.6,157.6c-0.1,0-0.3,0-0.4-0.1l-14-7.4c-0.3-0.2-0.5-0.5-0.4-0.8c0-0.3,0.3-0.6,0.6-0.7l10.7-3.3
		c0.2-0.1,0.4,0,0.6,0.1l14,7.4c0.3,0.2,0.5,0.5,0.4,0.8c0,0.3-0.3,0.6-0.6,0.7l-10.7,3.3C119.8,157.6,119.7,157.6,119.6,157.6z
		 M107.7,149.6l12,6.3l8.5-2.6l-12-6.3L107.7,149.6z"/>
</g>
<g>
	<path d="M101.2,152.8c-0.1,0-0.2,0-0.3-0.1c-0.3-0.1-0.5-0.4-0.5-0.8l0.6-15.8c0-0.2,0.1-0.4,0.3-0.6l8.2-7.6
		c0.2-0.2,0.6-0.3,0.9-0.1c0.3,0.1,0.5,0.4,0.5,0.8l-0.6,15.8c0,0.2-0.1,0.4-0.3,0.6l-8.2,7.6C101.6,152.7,101.4,152.8,101.2,152.8z
		 M102.6,136.6l-0.5,13.5l6.5-6l0.5-13.5L102.6,136.6z"/>
</g>
<g>
	<path d="M135.4,130.1c-0.3,0-0.6-0.2-0.7-0.5c-0.1-0.3-0.1-0.6,0.1-0.9l7.6-8.2c0.1-0.2,0.3-0.3,0.6-0.3l15.8-0.6
		c0.3,0,0.6,0.2,0.8,0.5c0.1,0.3,0.1,0.6-0.1,0.9l-7.6,8.2c-0.1,0.2-0.3,0.3-0.6,0.3L135.4,130.1
		C135.4,130.1,135.4,130.1,135.4,130.1z M143.3,121.9l-6,6.5l13.5-0.5l6-6.5L143.3,121.9z"/>
</g>
<g>
	<path d="M132.8,134.5c-0.3,0-0.6-0.2-0.7-0.4l-7.4-14c-0.1-0.2-0.1-0.4-0.1-0.6l3.3-10.7c0.1-0.3,0.4-0.5,0.7-0.6
		c0.3,0,0.6,0.1,0.8,0.4l7.4,14c0.1,0.2,0.1,0.4,0.1,0.6l-3.3,10.7C133.5,134.3,133.2,134.5,132.8,134.5
		C132.9,134.5,132.9,134.5,132.8,134.5z M126.3,119.7l6.3,12l2.6-8.5l-6.3-12L126.3,119.7z"/>
</g>
<g>
	<path d="M148.5,61.9C148.5,61.9,148.5,61.9,148.5,61.9c-0.4,0-0.7-0.3-0.8-0.6l-3.3-10.7c-0.1-0.2,0-0.4,0.1-0.6l7.4-14
		c0.2-0.3,0.5-0.5,0.8-0.4c0.3,0,0.6,0.3,0.7,0.6l3.3,10.7c0.1,0.2,0,0.4-0.1,0.6l-7.4,14C149.1,61.8,148.8,61.9,148.5,61.9z
		 M146.1,50.5l2.6,8.5l6.3-12l-2.6-8.5L146.1,50.5z"/>
</g>
<g>
	<path d="M128.4,32.2c-0.2,0-0.4-0.1-0.5-0.2l-8.2-7.6c-0.2-0.1-0.3-0.3-0.3-0.6L118.8,8c0-0.3,0.2-0.6,0.5-0.8
		c0.3-0.1,0.6-0.1,0.9,0.1l8.2,7.6c0.2,0.1,0.3,0.3,0.3,0.6l0.6,15.8c0,0.3-0.2,0.6-0.5,0.8C128.6,32.1,128.5,32.2,128.4,32.2z
		 M121,23.4l6.5,6L127,15.9l-6.5-6L121,23.4z"/>
</g>
<g>
	<path d="M118.8,42.1c-0.1,0-0.2,0-0.2,0l-10.7-3.3c-0.3-0.1-0.5-0.4-0.6-0.7s0.1-0.6,0.4-0.8l14-7.4c0.2-0.1,0.4-0.1,0.6-0.1
		l10.7,3.3c0.3,0.1,0.5,0.4,0.6,0.7c0,0.3-0.1,0.6-0.4,0.8l-14,7.4C119.1,42,119,42.1,118.8,42.1z M110.3,37.8l8.5,2.6l12-6.3
		l-8.5-2.6L110.3,37.8z"/>
</g>
<g>
	<path d="M138.3,144.7c-0.1,0-0.1,0-0.2,0l-15.5-3.2c-0.3-0.1-0.6-0.3-0.6-0.6c-0.1-0.3,0.1-0.6,0.4-0.8l9.3-6.1
		c0.2-0.1,0.4-0.2,0.6-0.1l15.5,3.2c0.3,0.1,0.6,0.3,0.6,0.6s-0.1,0.6-0.4,0.8l-9.3,6.1C138.6,144.6,138.4,144.7,138.3,144.7z
		 M124.9,140.3l13.2,2.8l7.4-4.9l-13.2-2.8L124.9,140.3z"/>
</g>
<g>
	<path d="M119.3,145.1c0,0-0.1,0-0.1,0c-0.3,0-0.6-0.3-0.7-0.6l-3.8-15.4c-0.1-0.2,0-0.4,0.1-0.6l5.8-9.6c0.2-0.3,0.5-0.4,0.8-0.4
		c0.3,0,0.6,0.3,0.7,0.6l3.8,15.4c0.1,0.2,0,0.4-0.1,0.6l-5.8,9.6C119.8,145,119.6,145.1,119.3,145.1z M116.4,129.1l3.2,13.1
		l4.6-7.6l-3.2-13.1L116.4,129.1z"/>
</g>
<g>
	<path d="M139.8,44.7c-0.3,0-0.5-0.1-0.7-0.4l-6.1-9.3c-0.1-0.2-0.2-0.4-0.1-0.6l3.2-15.5c0.1-0.3,0.3-0.6,0.6-0.6
		c0.3-0.1,0.6,0.1,0.8,0.4l6.1,9.3c0.1,0.2,0.2,0.4,0.1,0.6l-3.2,15.5c-0.1,0.3-0.3,0.6-0.6,0.6C139.9,44.7,139.8,44.7,139.8,44.7z
		 M134.5,34.4l4.9,7.4l2.8-13.2l-4.9-7.4L134.5,34.4z"/>
</g>
<g>
	<path d="M128.1,52c-0.1,0-0.3,0-0.4-0.1l-9.6-5.8c-0.3-0.2-0.4-0.5-0.4-0.8c0-0.3,0.3-0.6,0.6-0.7l15.4-3.8c0.2-0.1,0.4,0,0.6,0.1
		l9.6,5.8c0.3,0.2,0.4,0.5,0.4,0.8c0,0.3-0.3,0.6-0.6,0.7L128.3,52C128.2,52,128.1,52,128.1,52z M120.6,45.7l7.6,4.6l13.1-3.2
		l-7.6-4.6L120.6,45.7z"/>
</g>
<g>
	<path d="M112.2,21.7c-0.1,0-0.2,0-0.4-0.1l-10-5c-0.2-0.1-0.3-0.3-0.4-0.5l-5-15c-0.1-0.3,0-0.7,0.2-0.9C97,0,97.3-0.1,97.6,0.1
		l10,5c0.2,0.1,0.3,0.3,0.4,0.5l5,15c0.1,0.3,0,0.7-0.2,0.9C112.6,21.6,112.4,21.7,112.2,21.7z M102.9,15.2l7.9,4l-4.2-12.8l-7.9-4
		L102.9,15.2z"/>
</g>
<g>
	<path d="M105.7,33.8C105.7,33.8,105.7,33.8,105.7,33.8l-11.2-0.2c-0.3,0-0.6-0.2-0.7-0.5s0-0.7,0.2-0.9l11.4-10.9
		c0.2-0.1,0.4-0.2,0.6-0.2l11.2,0.2c0.3,0,0.6,0.2,0.7,0.5c0.1,0.3,0,0.7-0.2,0.9l-11.4,10.9C106.1,33.7,105.9,33.8,105.7,33.8z
		 M96.5,32l8.9,0.2l9.8-9.3l-8.9-0.2L96.5,32z"/>
</g>
<g>
	<path d="M30.5,134.5C30.5,134.5,30.5,134.5,30.5,134.5c-0.4,0-0.7-0.3-0.8-0.6l-3.3-10.7c-0.1-0.2,0-0.4,0.1-0.6l7.4-14
		c0.2-0.3,0.5-0.5,0.8-0.4c0.3,0,0.6,0.3,0.7,0.6l3.3,10.7c0.1,0.2,0,0.4-0.1,0.6l-7.4,14C31.1,134.4,30.8,134.5,30.5,134.5z
		 M28.1,123.1l2.6,8.5l6.3-12l-2.6-8.5L28.1,123.1z"/>
</g>
<g>
	<path d="M24.4,65.9H12.7c-0.3,0-0.6-0.2-0.7-0.5c-0.1-0.3-0.1-0.6,0.1-0.9l7.1-7.7c0.1-0.2,0.3-0.3,0.6-0.3l15.8-0.6
		c0.3,0,0.6,0.2,0.8,0.5c0.1,0.3,0.1,0.6-0.1,0.9l-7.6,8.2c-0.1,0.2-0.3,0.3-0.6,0.3L24.4,65.9C24.4,65.9,24.4,65.9,24.4,65.9z
		 M14.6,64.3h9.8l3.4-0.1l6-6.5l-13.5,0.5L14.6,64.3z"/>
</g>
<g>
	<path d="M17.5,113.9c-0.1,0-0.2,0-0.3,0l-15-5c-0.2-0.1-0.4-0.2-0.5-0.4l-1.6-3.1c-0.1-0.3-0.1-0.5,0-0.8s0.4-0.4,0.7-0.4h12.5
		c0.3,0,0.6,0.2,0.7,0.4l4.1,8.1c0.1,0.3,0.1,0.6-0.1,0.9C17.9,113.8,17.7,113.9,17.5,113.9z M3,107.5l12.8,4.2l-3-5.9H2.2L3,107.5z
		"/>
</g>
<g>
	<path d="M18.7,118.8c-0.1,0-0.2,0-0.3-0.1c-0.3-0.1-0.5-0.4-0.5-0.7l-0.2-11.2c0-0.2,0.1-0.4,0.2-0.6l1.8-1.9
		c0.2-0.2,0.4-0.2,0.6-0.2h9.4c0.4,0,0.8,0.4,0.8,0.8l0,1.6c0,0.2-0.1,0.4-0.2,0.6l-10.9,11.4C19.2,118.8,18.9,118.8,18.7,118.8z
		 M19.3,107.2l0.2,8.9l9.3-9.8l0-0.5h-8.2L19.3,107.2z"/>
</g>
<g>
	<path d="M10.6,65.9H0.8c-0.2,0-0.4-0.1-0.6-0.3C0.1,65.5,0,65.2,0,65l0.6-10.3c0-0.3,0.2-0.6,0.5-0.7c0.3-0.1,0.7,0,0.9,0.2
		l9.2,10.3c0.2,0.2,0.3,0.6,0.1,0.9C11.2,65.7,10.9,65.9,10.6,65.9z M1.7,64.3h7.2l-6.7-7.5L1.7,64.3z"/>
</g>
<g>
	<path d="M150.7,65.9H139l-3.7-0.1c-0.2,0-0.4-0.1-0.6-0.3l-7.6-8.2c-0.2-0.2-0.3-0.6-0.1-0.9c0.1-0.3,0.4-0.5,0.8-0.5l15.8,0.6
		c0.2,0,0.4,0.1,0.6,0.3l7.1,7.7c0.2,0.2,0.3,0.6,0.1,0.9C151.3,65.7,151,65.9,150.7,65.9z M135.7,64.1l3.4,0.1l9.8,0l-5.7-6.1
		l-13.5-0.5L135.7,64.1z"/>
</g>
<g>
	<path d="M145.9,113.9c-0.2,0-0.5-0.1-0.6-0.3c-0.2-0.2-0.3-0.6-0.1-0.9l4.1-8.1c0.1-0.3,0.4-0.4,0.7-0.4h12.5
		c0.3,0,0.5,0.1,0.7,0.4c0.1,0.2,0.2,0.5,0,0.8l-1.6,3.1c-0.1,0.2-0.3,0.3-0.5,0.4l-15,5C146.1,113.9,146,113.9,145.9,113.9z
		 M150.5,105.8l-3,5.9l12.8-4.2l0.8-1.7H150.5z"/>
</g>
<g>
	<path d="M144.7,118.8c-0.2,0-0.4-0.1-0.6-0.2l-10.9-11.4c-0.1-0.2-0.2-0.4-0.2-0.6l0-1.6c0-0.4,0.4-0.8,0.8-0.8h9.4
		c0.2,0,0.4,0.1,0.6,0.2l1.8,1.9c0.1,0.2,0.2,0.4,0.2,0.6l-0.2,11.2c0,0.3-0.2,0.6-0.5,0.7C144.8,118.8,144.7,118.8,144.7,118.8z
		 M134.5,106.3l9.3,9.8l0.2-8.9l-1.3-1.4h-8.2L134.5,106.3z"/>
</g>
<g>
	<path d="M162.6,65.9h-9.8c-0.3,0-0.6-0.2-0.7-0.5c-0.1-0.3-0.1-0.6,0.1-0.9l9.2-10.3c0.2-0.2,0.6-0.3,0.9-0.2
		c0.3,0.1,0.5,0.4,0.5,0.7l0.6,10.3c0,0.2-0.1,0.4-0.2,0.6C163,65.8,162.8,65.9,162.6,65.9z M154.6,64.3h7.2l-0.4-7.5L154.6,64.3z"
		/>
</g>
<g>
	<path d="M94.9,58.5H68.5c-0.4,0-0.8-0.4-0.8-0.8l0-5.3c-0.8-0.3-1.4-1.1-1.4-2c0-1.2,1-2.2,2.2-2.2c1.2,0,2.2,1,2.2,2.2
		c0,0.4-0.1,0.8-0.4,1.2l2.6,2.6h4.4l2.6-2.6c-0.2-0.4-0.4-0.8-0.4-1.2c0-1.2,1-2.2,2.2-2.2c1.2,0,2.2,1,2.2,2.2
		c0,0.4-0.1,0.8-0.4,1.2l2.6,2.6h4.4l2.6-2.6c-0.2-0.4-0.4-0.8-0.4-1.2c0-1.2,1-2.2,2.2-2.2c1.2,0,2.2,1,2.2,2.2
		c0,0.9-0.6,1.7-1.4,2v5.3C95.7,58.2,95.3,58.5,94.9,58.5z M69.3,56.9h24.8v-4l-2.7,2.7c-0.2,0.2-0.4,0.2-0.6,0.2h-5
		c-0.2,0-0.5-0.1-0.6-0.3l-3.4-3.4c0,0-0.1-0.1-0.1-0.1c0,0-0.1,0.1-0.1,0.1l-3.4,3.4c-0.2,0.2-0.4,0.2-0.6,0.2h-5
		c-0.2,0-0.5-0.1-0.6-0.3l-2.7-2.7L69.3,56.9z M81.7,49.8c-0.3,0-0.6,0.2-0.6,0.6c0,0.2,0.1,0.4,0.3,0.5c0.1,0.1,0.2,0.1,0.3,0.2
		c0.1-0.1,0.2-0.2,0.3-0.2c0.2-0.1,0.3-0.3,0.3-0.5C82.2,50.1,82,49.8,81.7,49.8z M94.9,49.8c-0.3,0-0.6,0.2-0.6,0.6
		c0,0.2,0.1,0.4,0.3,0.5c0,0,0.1,0.1,0.1,0.1c0,0,0.1,0,0.1,0c0.3,0,0.6-0.2,0.6-0.6C95.5,50.1,95.2,49.8,94.9,49.8z M68.5,49.8
		c-0.3,0-0.6,0.2-0.6,0.6c0,0.3,0.2,0.6,0.6,0.6c0,0,0.1,0,0.1,0c0,0,0.1-0.1,0.1-0.1c0.2-0.1,0.3-0.3,0.3-0.5
		C69,50.1,68.8,49.8,68.5,49.8z"/>
</g>
<g>
	<path d="M81.3,144.3c-0.4,0-0.8-0.4-0.8-0.8v-3.1c0-0.4,0.4-0.8,0.8-0.8s0.8,0.4,0.8,0.8v3.1C82.1,144,81.7,144.3,81.3,144.3z"/>
</g>
<g>
	<path d="M81.3,157.2c-0.4,0-0.8-0.4-0.8-0.8v-9.1c0-0.4,0.4-0.8,0.8-0.8s0.8,0.4,0.8,0.8v9.1C82.1,156.8,81.7,157.2,81.3,157.2z"/>
</g>
<g>
	<path d="M73.3,157.2H71c-0.4,0-0.8-0.4-0.8-0.8s0.4-0.8,0.8-0.8h2.3c0.4,0,0.8,0.4,0.8,0.8S73.8,157.2,73.3,157.2z"/>
</g>
<g>
	<path d="M91.5,157.2h-2.3c-0.4,0-0.8-0.4-0.8-0.8s0.4-0.8,0.8-0.8h2.3c0.4,0,0.8,0.4,0.8,0.8S91.9,157.2,91.5,157.2z"/>
</g>
<g>
	<path d="M81.3,167.4c-0.4,0-0.8-0.4-0.8-0.8v-2.3c0-0.4,0.4-0.8,0.8-0.8s0.8,0.4,0.8,0.8v2.3C82.1,167,81.7,167.4,81.3,167.4z"/>
</g>
<g>
	<path d="M71.6,147.5c-0.2,0-0.4-0.1-0.6-0.2l-2-2c-0.3-0.3-0.3-0.8,0-1.1s0.8-0.3,1.1,0l2,2c0.3,0.3,0.3,0.8,0,1.1
		C72,147.5,71.8,147.5,71.6,147.5z"/>
</g>
<g>
	<path d="M68.4,146.7c-0.2,0-0.4-0.1-0.6-0.2l-2.4-2.4c-0.3-0.3-0.3-0.8,0-1.1l2.4-2.4c0.3-0.3,0.8-0.3,1.1,0l2.4,2.4
		c0.3,0.3,0.3,0.8,0,1.1l-2.4,2.4C68.8,146.7,68.6,146.7,68.4,146.7z M67.2,143.5l1.3,1.3l1.3-1.3l-1.3-1.3L67.2,143.5z"/>
</g>
<g>
	<path d="M90.9,147.5c-0.2,0-0.4-0.1-0.6-0.2c-0.3-0.3-0.3-0.8,0-1.1l2-2c0.3-0.3,0.8-0.3,1.1,0c0.3,0.3,0.3,0.8,0,1.1l-2,2
		C91.3,147.5,91.1,147.5,90.9,147.5z"/>
</g>
<g>
	<path d="M94.1,146.7L94.1,146.7c-0.2,0-0.4-0.1-0.6-0.2l-2.4-2.4c-0.3-0.3-0.3-0.8,0-1.1l2.4-2.4c0.2-0.2,0.4-0.2,0.6-0.2
		c0,0,0,0,0,0c0.2,0,0.4,0.1,0.6,0.2l2.4,2.4c0.2,0.2,0.2,0.4,0.2,0.6c0,0.2-0.1,0.4-0.2,0.6l-2.4,2.4
		C94.5,146.6,94.3,146.7,94.1,146.7z M92.8,143.5l1.3,1.3l1.3-1.3l-1.3-1.3L92.8,143.5z"/>
</g>
<g>
	<path d="M84.7,170h-6.9c-0.1,0-0.3,0-0.4-0.1l-6-3.4c-0.1-0.1-0.2-0.2-0.3-0.3l-3.4-6c-0.1-0.1-0.1-0.3-0.1-0.4v-6.9
		c0-0.1,0-0.3,0.1-0.4l3.4-6c0.1-0.1,0.2-0.2,0.3-0.3l6-3.4c0.1-0.1,0.3-0.1,0.4-0.1h6.9c0.1,0,0.3,0,0.4,0.1l6,3.4
		c0.1,0.1,0.2,0.2,0.3,0.3l3.4,6c0.1,0.1,0.1,0.3,0.1,0.4v6.9c0,0.1,0,0.3-0.1,0.4l-3.4,6c-0.1,0.1-0.2,0.2-0.3,0.3l-6,3.4
		C85,170,84.8,170,84.7,170z M78,168.4h6.4l5.6-3.2l3.2-5.6v-6.4l-3.2-5.6l-5.6-3.2H78l-5.6,3.2l-3.2,5.6v6.4l3.2,5.6L78,168.4z"/>
</g>
<g>
	<path d="M84,144.3h-5.5c-0.3,0-0.6-0.2-0.7-0.4l-2.8-4.8c-0.1-0.3-0.1-0.6,0-0.8l2.8-4.8c0.1-0.3,0.4-0.4,0.7-0.4H84
		c0.3,0,0.6,0.2,0.7,0.4l2.8,4.8c0.1,0.3,0.1,0.6,0,0.8l-2.8,4.8C84.6,144.2,84.3,144.3,84,144.3z M79,142.7h4.6l2.3-4l-2.3-4H79
		l-2.3,4L79,142.7z"/>
</g>
<g>
	<path d="M124,66.4H38.4c-0.4,0-0.8-0.4-0.8-0.8c0-0.4,0.4-0.8,0.8-0.8H124c0.4,0,0.8,0.4,0.8,0.8C124.8,66,124.4,66.4,124,66.4z"/>
</g>
<g>
	<path d="M124.5,104.4H38.9c-0.4,0-0.8-0.4-0.8-0.8s0.4-0.8,0.8-0.8h85.6c0.4,0,0.8,0.4,0.8,0.8S124.9,104.4,124.5,104.4z"/>
</g>
<g>
	<g>
		<path d="M10.9,92.3l-3.5-6.9H3.7v6.9H2V76.7h6c2.7,0,4.6,1.6,4.6,4.3c0,2.3-1.4,3.8-3.4,4.2l3.7,7.1H10.9z M7.8,78.2H3.7v5.7h4.2
			c1.8,0,3.1-0.9,3.1-2.8C10.9,79.2,9.6,78.2,7.8,78.2z"/>
	</g>
	<g>
		<path d="M21.5,92.4c-3.1,0-5.4-2.2-5.4-5.3V76.7h1.7V87c0,2.4,1.5,3.9,3.8,3.9s3.8-1.6,3.8-3.9V76.7H27v10.4
			C27,90.2,24.7,92.4,21.5,92.4z"/>
	</g>
	<g>
		<path d="M41.2,92.3l-8.3-12.5v12.5h-1.7V76.7h1.6l8.3,12.4V76.7h1.7v15.6H41.2z"/>
	</g>
	<g>
		<path d="M61.8,92.3l-1.2-3.5h-6.8l-1.2,3.5h-1.8l5.7-15.6h1.4l5.7,15.6H61.8z M57.2,79.1l-2.9,8.2H60L57.2,79.1z"/>
	</g>
	<g>
		<path d="M76,92.3l-8.3-12.5v12.5H66V76.7h1.6l8.3,12.4V76.7h1.7v15.6H76z"/>
	</g>
	<g>
		<path d="M87.5,92.3V76.7h9.7v1.5h-8v5.5H96v1.5h-6.8v5.6h8v1.5H87.5z"/>
	</g>
	<g>
		<path d="M112.3,92.3V80.4l-4.3,9.4h-1.4l-4.3-9.4v11.8h-1.7V76.7h1.7l5.1,11l4.9-11h1.7v15.6H112.3z"/>
	</g>
	<g>
		<path d="M124.2,85.9h-4.1v6.4h-1.7V76.7h5.8c2.8,0,4.8,1.8,4.8,4.6S127.1,85.9,124.2,85.9z M124.1,78.2h-4v6.2h4
			c1.9,0,3.3-1,3.3-3.1C127.4,79.2,126,78.2,124.1,78.2z"/>
	</g>
	<g>
		<path d="M132.2,92.3V76.7h1.7v15.6H132.2z"/>
	</g>
	<g>
		<path d="M147.3,92.3l-3.5-6.9H140v6.9h-1.7V76.7h6c2.7,0,4.6,1.6,4.6,4.3c0,2.3-1.4,3.8-3.4,4.2l3.7,7.1H147.3z M144.2,78.2H140
			v5.7h4.2c1.8,0,3.1-0.9,3.1-2.8C147.3,79.2,146,78.2,144.2,78.2z"/>
	</g>
	<g>
		<path d="M152.7,92.3V76.7h9.7v1.5h-8v5.5h6.8v1.5h-6.8v5.6h8v1.5H152.7z"/>
	</g>
</g>
</svg>
