<?xml version="1.0" encoding="utf-8"?>
<!-- Generator: Adobe Illustrator 19.0.0, SVG Export Plug-In . SVG Version: 6.00 Build 0)  -->
<svg version="1.1" id="Layer_1" xmlns="http://www.w3.org/2000/svg" xmlns:xlink="http://www.w3.org/1999/xlink" x="0px" y="0px"
	 viewBox="0 0 434 300" style="enable-background:new 0 0 434 300;" xml:space="preserve">
<style type="text/css">
	.st0{fill:#F2633E;}
</style>
<g>
	<path class="st0" d="M150.5,129.5L150.5,129.5c0-14.1-11.5-25.6-25.6-25.6H60.4c-1.1,0-2,0.9-2,2v18.4V194c0,1.1,0.9,2,2,2h16.4
		c1.1,0,2-0.9,2-2v-16.4c0-1.1,0.9-2,2-2h44c14.1,0,25.6-11.4,25.6-25.6h0V129.5z M130,150c0,2.8-2.3,5.1-5.1,5.1h-44
		c-1.1,0-2-0.9-2-2v-26.6c0-1.1,0.9-2,2-2h44c2.8,0,5.1,2.3,5.1,5.1V150z"/>
	<path class="st0" d="M233.9,104h-41c-14.1,0-25.6,11.4-25.6,25.6h0V194c0,1.1,0.9,2,2,2h16.4c1.1,0,2-0.9,2-2v-16.4
		c0-1.1,0.9-2,2-2h47.1c1.1,0,2,0.9,2,2V194c0,1.1,0.9,2,2,2h16.4c1.1,0,2-0.9,2-2v-64.4C259.5,115.4,248,104,233.9,104z M239,153.1
		c0,1.1-0.9,2-2,2h-47.1c-1.1,0-2-0.9-2-2v-23.5v0c0-2.8,2.3-5.1,5.1-5.1h41l0,0c2.8,0,5.1,2.3,5.1,5.1V153.1z"/>
	<path id="XMLID_1_" class="st0" d="M349.4,195.1c0.6,0.6,1.4,0.9,2.2,0.9h3.6h0h18.4c1.1,0,2-0.9,2-2v-88c0-1.1-0.9-2-2-2h-16.4
		c-1.1,0-2,0.9-2,2v53.2c0,1.1-0.9,2-2.1,2c-0.5,0-1-0.2-1.4-0.6l-41.9-55.8c-0.6-0.6-1.4-0.9-2.2-0.9H304h0h-18.4c-1.1,0-2,0.9-2,2
		v88c0,1.1,0.9,2,2,2h16.4c1.1,0,2-0.9,2-2v-53.2c0-1.1,0.9-2,2.1-2c0.5,0,1,0.2,1.4,0.6L349.4,195.1z"/>
</g>
</svg>
