<?xml version="1.0" encoding="utf-8"?>
<!-- Generator: Adobe Illustrator 21.0.0, SVG Export Plug-In . SVG Version: 6.00 Build 0)  -->
<svg version="1.1" id="Layer_1" xmlns="http://www.w3.org/2000/svg" xmlns:xlink="http://www.w3.org/1999/xlink" x="0px" y="0px"
	 viewBox="0 0 222 163" style="enable-background:new 0 0 222 163;" xml:space="preserve">
<style type="text/css">
	.st0{opacity:0.17;}
</style>
<title>europe</title>
<polygon class="st0" points="79,10.5 81.7,10.5 83.1,12.9 81.7,15.2 79,15.2 77.7,12.9 "/>
<polygon class="st0" points="88,10.5 90.7,10.5 92.1,12.9 90.7,15.2 88,15.2 86.7,12.9 "/>
<polygon class="st0" points="74.5,13.1 77.2,13.1 78.6,15.5 77.2,17.8 74.5,17.8 73.2,15.5 "/>
<polygon class="st0" points="83.5,13.1 86.2,13.1 87.6,15.5 86.2,17.8 83.5,17.8 82.2,15.5 "/>
<polygon class="st0" points="92.5,13.1 95.2,13.1 96.6,15.5 95.2,17.8 92.5,17.8 91.2,15.5 "/>
<polygon class="st0" points="79,15.7 81.7,15.7 83.1,18.1 81.7,20.4 79,20.4 77.7,18.1 "/>
<polygon class="st0" points="173.7,18.4 176.4,18.4 177.7,20.7 176.4,23 173.7,23 172.3,20.7 "/>
<polygon class="st0" points="182.7,18.4 185.4,18.4 186.7,20.7 185.4,23 182.7,23 181.3,20.7 "/>
<polygon class="st0" points="169.2,21 171.9,21 173.2,23.3 171.9,25.6 169.2,25.6 167.8,23.3 "/>
<polygon class="st0" points="178.2,21 180.9,21 182.2,23.3 180.9,25.6 178.2,25.6 176.8,23.3 "/>
<polygon class="st0" points="164.6,23.5 167.4,23.5 168.7,25.9 167.4,28.2 164.6,28.2 163.3,25.9 "/>
<polygon class="st0" points="200.7,23.5 203.4,23.5 204.8,25.9 203.4,28.2 200.7,28.2 199.4,25.9 "/>
<polygon class="st0" points="160.1,26.2 162.9,26.2 164.2,28.5 162.9,30.8 160.1,30.8 158.8,28.5 "/>
<polygon class="st0" points="169.2,26.2 171.9,26.2 173.2,28.5 171.9,30.8 169.2,30.8 167.8,28.5 "/>
<polygon class="st0" points="205.2,26.2 207.9,26.2 209.3,28.5 207.9,30.8 205.2,30.8 203.9,28.5 "/>
<polygon class="st0" points="101.6,28.8 104.2,28.8 105.6,31.1 104.2,33.5 101.6,33.5 100.2,31.1 "/>
<polygon class="st0" points="164.6,28.8 167.4,28.8 168.7,31.1 167.4,33.5 164.6,33.5 163.3,31.1 "/>
<polygon class="st0" points="200.7,28.8 203.4,28.8 204.8,31.1 203.4,33.5 200.7,33.5 199.4,31.1 "/>
<polygon class="st0" points="97.1,31.4 99.8,31.4 101.1,33.7 99.8,36 97.1,36 95.7,33.7 "/>
<polygon class="st0" points="106.1,31.4 108.8,31.4 110.1,33.7 108.8,36 106.1,36 104.7,33.7 "/>
<polygon class="st0" points="115.1,31.4 117.8,31.4 119.1,33.7 117.8,36 115.1,36 113.7,33.7 "/>
<polygon class="st0" points="205.2,31.4 207.9,31.4 209.3,33.7 207.9,36 205.2,36 203.9,33.7 "/>
<polygon class="st0" points="92.5,34 95.2,34 96.6,36.3 95.2,38.6 92.5,38.6 91.2,36.3 "/>
<polygon class="st0" points="101.6,34 104.2,34 105.6,36.3 104.2,38.6 101.6,38.6 100.2,36.3 "/>
<polygon class="st0" points="110.6,34 113.3,34 114.6,36.3 113.3,38.6 110.6,38.6 109.2,36.3 "/>
<polygon class="st0" points="119.6,34 122.3,34 123.6,36.3 122.3,38.6 119.6,38.6 118.2,36.3 "/>
<polygon class="st0" points="128.6,34 131.3,34 132.6,36.3 131.3,38.6 128.6,38.6 127.2,36.3 "/>
<polygon class="st0" points="191.7,34 194.4,34 195.7,36.3 194.4,38.6 191.7,38.6 190.3,36.3 "/>
<polygon class="st0" points="200.7,34 203.4,34 204.8,36.3 203.4,38.6 200.7,38.6 199.4,36.3 "/>
<polygon class="st0" points="88,36.6 90.7,36.6 92.1,38.9 90.7,41.2 88,41.2 86.7,38.9 "/>
<polygon class="st0" points="97.1,36.6 99.8,36.6 101.1,38.9 99.8,41.2 97.1,41.2 95.7,38.9 "/>
<polygon class="st0" points="106.1,36.6 108.8,36.6 110.1,38.9 108.8,41.2 106.1,41.2 104.7,38.9 "/>
<polygon class="st0" points="115.1,36.6 117.8,36.6 119.1,38.9 117.8,41.2 115.1,41.2 113.7,38.9 "/>
<polygon class="st0" points="124.1,36.6 126.8,36.6 128.1,38.9 126.8,41.2 124.1,41.2 122.7,38.9 "/>
<polygon class="st0" points="133.1,36.6 135.8,36.6 137.2,38.9 135.8,41.2 133.1,41.2 131.8,38.9 "/>
<polygon class="st0" points="151.1,36.6 153.8,36.6 155.2,38.9 153.8,41.2 151.1,41.2 149.8,38.9 "/>
<polygon class="st0" points="169.2,36.6 171.9,36.6 173.2,38.9 171.9,41.2 169.2,41.2 167.8,38.9 "/>
<polygon class="st0" points="178.2,36.6 180.9,36.6 182.2,38.9 180.9,41.2 178.2,41.2 176.8,38.9 "/>
<polygon class="st0" points="187.2,36.6 189.9,36.6 191.2,38.9 189.9,41.2 187.2,41.2 185.8,38.9 "/>
<polygon class="st0" points="196.2,36.6 198.9,36.6 200.2,38.9 198.9,41.2 196.2,41.2 194.8,38.9 "/>
<polygon class="st0" points="205.2,36.6 207.9,36.6 209.3,38.9 207.9,41.2 205.2,41.2 203.9,38.9 "/>
<polygon class="st0" points="83.5,39.2 86.2,39.2 87.6,41.5 86.2,43.8 83.5,43.8 82.2,41.5 "/>
<polygon class="st0" points="92.5,39.2 95.2,39.2 96.6,41.5 95.2,43.8 92.5,43.8 91.2,41.5 "/>
<polygon class="st0" points="101.6,39.2 104.2,39.2 105.6,41.5 104.2,43.8 101.6,43.8 100.2,41.5 "/>
<polygon class="st0" points="110.6,39.2 113.3,39.2 114.6,41.5 113.3,43.8 110.6,43.8 109.2,41.5 "/>
<polygon class="st0" points="119.6,39.2 122.3,39.2 123.6,41.5 122.3,43.8 119.6,43.8 118.2,41.5 "/>
<polygon class="st0" points="128.6,39.2 131.3,39.2 132.6,41.5 131.3,43.8 128.6,43.8 127.2,41.5 "/>
<polygon class="st0" points="137.6,39.2 140.3,39.2 141.7,41.5 140.3,43.8 137.6,43.8 136.2,41.5 "/>
<polygon class="st0" points="155.6,39.2 158.3,39.2 159.7,41.5 158.3,43.8 155.6,43.8 154.3,41.5 "/>
<polygon class="st0" points="164.6,39.2 167.4,39.2 168.7,41.5 167.4,43.8 164.6,43.8 163.3,41.5 "/>
<polygon class="st0" points="173.7,39.2 176.4,39.2 177.7,41.5 176.4,43.8 173.7,43.8 172.3,41.5 "/>
<polygon class="st0" points="182.7,39.2 185.4,39.2 186.7,41.5 185.4,43.8 182.7,43.8 181.3,41.5 "/>
<polygon class="st0" points="191.7,39.2 194.4,39.2 195.7,41.5 194.4,43.8 191.7,43.8 190.3,41.5 "/>
<polygon class="st0" points="200.7,39.2 203.4,39.2 204.8,41.5 203.4,43.8 200.7,43.8 199.4,41.5 "/>
<polygon class="st0" points="209.7,39.2 212.4,39.2 213.8,41.5 212.4,43.8 209.7,43.8 208.4,41.5 "/>
<polygon class="st0" points="79,41.8 81.7,41.8 83.1,44.1 81.7,46.4 79,46.4 77.7,44.1 "/>
<polygon class="st0" points="88,41.8 90.7,41.8 92.1,44.1 90.7,46.4 88,46.4 86.7,44.1 "/>
<polygon class="st0" points="97.1,41.8 99.8,41.8 101.1,44.1 99.8,46.4 97.1,46.4 95.7,44.1 "/>
<polygon class="st0" points="106.1,41.8 108.8,41.8 110.1,44.1 108.8,46.4 106.1,46.4 104.7,44.1 "/>
<polygon class="st0" points="115.1,41.8 117.8,41.8 119.1,44.1 117.8,46.4 115.1,46.4 113.7,44.1 "/>
<polygon class="st0" points="124.1,41.8 126.8,41.8 128.1,44.1 126.8,46.4 124.1,46.4 122.7,44.1 "/>
<polygon class="st0" points="133.1,41.8 135.8,41.8 137.2,44.1 135.8,46.4 133.1,46.4 131.8,44.1 "/>
<polygon class="st0" points="142.1,41.8 144.8,41.8 146.2,44.1 144.8,46.4 142.1,46.4 140.8,44.1 "/>
<polygon class="st0" points="151.1,41.8 153.8,41.8 155.2,44.1 153.8,46.4 151.1,46.4 149.8,44.1 "/>
<polygon class="st0" points="160.1,41.8 162.9,41.8 164.2,44.1 162.9,46.4 160.1,46.4 158.8,44.1 "/>
<polygon class="st0" points="169.2,41.8 171.9,41.8 173.2,44.1 171.9,46.4 169.2,46.4 167.8,44.1 "/>
<polygon class="st0" points="178.2,41.8 180.9,41.8 182.2,44.1 180.9,46.4 178.2,46.4 176.8,44.1 "/>
<polygon class="st0" points="187.2,41.8 189.9,41.8 191.2,44.1 189.9,46.4 187.2,46.4 185.8,44.1 "/>
<polygon class="st0" points="196.2,41.8 198.9,41.8 200.2,44.1 198.9,46.4 196.2,46.4 194.8,44.1 "/>
<polygon class="st0" points="205.2,41.8 207.9,41.8 209.3,44.1 207.9,46.4 205.2,46.4 203.9,44.1 "/>
<polygon class="st0" points="83.5,44.4 86.2,44.4 87.6,46.7 86.2,49 83.5,49 82.2,46.7 "/>
<polygon class="st0" points="92.5,44.4 95.2,44.4 96.6,46.7 95.2,49 92.5,49 91.2,46.7 "/>
<polygon class="st0" points="101.6,44.4 104.2,44.4 105.6,46.7 104.2,49 101.6,49 100.2,46.7 "/>
<polygon class="st0" points="110.6,44.4 113.3,44.4 114.6,46.7 113.3,49 110.6,49 109.2,46.7 "/>
<polygon class="st0" points="119.6,44.4 122.3,44.4 123.6,46.7 122.3,49 119.6,49 118.2,46.7 "/>
<polygon class="st0" points="137.6,44.4 140.3,44.4 141.7,46.7 140.3,49 137.6,49 136.2,46.7 "/>
<polygon class="st0" points="146.6,44.4 149.3,44.4 150.7,46.7 149.3,49 146.6,49 145.3,46.7 "/>
<polygon class="st0" points="155.6,44.4 158.3,44.4 159.7,46.7 158.3,49 155.6,49 154.3,46.7 "/>
<polygon class="st0" points="164.6,44.4 167.4,44.4 168.7,46.7 167.4,49 164.6,49 163.3,46.7 "/>
<polygon class="st0" points="173.7,44.4 176.4,44.4 177.7,46.7 176.4,49 173.7,49 172.3,46.7 "/>
<polygon class="st0" points="182.7,44.4 185.4,44.4 186.7,46.7 185.4,49 182.7,49 181.3,46.7 "/>
<polygon class="st0" points="191.7,44.4 194.4,44.4 195.7,46.7 194.4,49 191.7,49 190.3,46.7 "/>
<polygon class="st0" points="200.7,44.4 203.4,44.4 204.8,46.7 203.4,49 200.7,49 199.4,46.7 "/>
<polygon class="st0" points="79,47 81.7,47 83.1,49.3 81.7,51.7 79,51.7 77.7,49.3 "/>
<polygon class="st0" points="88,47 90.7,47 92.1,49.3 90.7,51.7 88,51.7 86.7,49.3 "/>
<polygon class="st0" points="97.1,47 99.8,47 101.1,49.3 99.8,51.7 97.1,51.7 95.7,49.3 "/>
<polygon class="st0" points="106.1,47 108.8,47 110.1,49.3 108.8,51.7 106.1,51.7 104.7,49.3 "/>
<polygon class="st0" points="115.1,47 117.8,47 119.1,49.3 117.8,51.7 115.1,51.7 113.7,49.3 "/>
<polygon class="st0" points="124.1,47 126.8,47 128.1,49.3 126.8,51.7 124.1,51.7 122.7,49.3 "/>
<polygon class="st0" points="142.1,47 144.8,47 146.2,49.3 144.8,51.7 142.1,51.7 140.8,49.3 "/>
<polygon class="st0" points="151.1,47 153.8,47 155.2,49.3 153.8,51.7 151.1,51.7 149.8,49.3 "/>
<polygon class="st0" points="160.1,47 162.9,47 164.2,49.3 162.9,51.7 160.1,51.7 158.8,49.3 "/>
<polygon class="st0" points="169.2,47 171.9,47 173.2,49.3 171.9,51.7 169.2,51.7 167.8,49.3 "/>
<polygon class="st0" points="178.2,47 180.9,47 182.2,49.3 180.9,51.7 178.2,51.7 176.8,49.3 "/>
<polygon class="st0" points="187.2,47 189.9,47 191.2,49.3 189.9,51.7 187.2,51.7 185.8,49.3 "/>
<polygon class="st0" points="196.2,47 198.9,47 200.2,49.3 198.9,51.7 196.2,51.7 194.8,49.3 "/>
<polygon class="st0" points="205.2,47 207.9,47 209.3,49.3 207.9,51.7 205.2,51.7 203.9,49.3 "/>
<polygon class="st0" points="74.5,49.6 77.2,49.6 78.6,51.9 77.2,54.3 74.5,54.3 73.2,51.9 "/>
<polygon class="st0" points="83.5,49.6 86.2,49.6 87.6,51.9 86.2,54.3 83.5,54.3 82.2,51.9 "/>
<polygon class="st0" points="92.5,49.6 95.2,49.6 96.6,51.9 95.2,54.3 92.5,54.3 91.2,51.9 "/>
<polygon class="st0" points="101.6,49.6 104.2,49.6 105.6,51.9 104.2,54.3 101.6,54.3 100.2,51.9 "/>
<polygon class="st0" points="110.6,49.6 113.3,49.6 114.6,51.9 113.3,54.3 110.6,54.3 109.2,51.9 "/>
<polygon class="st0" points="119.6,49.6 122.3,49.6 123.6,51.9 122.3,54.3 119.6,54.3 118.2,51.9 "/>
<polygon class="st0" points="128.6,49.6 131.3,49.6 132.6,51.9 131.3,54.3 128.6,54.3 127.2,51.9 "/>
<polygon class="st0" points="137.6,49.6 140.3,49.6 141.7,51.9 140.3,54.3 137.6,54.3 136.2,51.9 "/>
<polygon class="st0" points="146.6,49.6 149.3,49.6 150.7,51.9 149.3,54.3 146.6,54.3 145.3,51.9 "/>
<polygon class="st0" points="155.6,49.6 158.3,49.6 159.7,51.9 158.3,54.3 155.6,54.3 154.3,51.9 "/>
<polygon class="st0" points="164.6,49.6 167.4,49.6 168.7,51.9 167.4,54.3 164.6,54.3 163.3,51.9 "/>
<polygon class="st0" points="173.7,49.6 176.4,49.6 177.7,51.9 176.4,54.3 173.7,54.3 172.3,51.9 "/>
<polygon class="st0" points="182.7,49.6 185.4,49.6 186.7,51.9 185.4,54.3 182.7,54.3 181.3,51.9 "/>
<polygon class="st0" points="191.7,49.6 194.4,49.6 195.7,51.9 194.4,54.3 191.7,54.3 190.3,51.9 "/>
<polygon class="st0" points="70,52.2 72.7,52.2 74.1,54.5 72.7,56.9 70,56.9 68.7,54.5 "/>
<polygon class="st0" points="79,52.2 81.7,52.2 83.1,54.5 81.7,56.9 79,56.9 77.7,54.5 "/>
<polygon class="st0" points="88,52.2 90.7,52.2 92.1,54.5 90.7,56.9 88,56.9 86.7,54.5 "/>
<polygon class="st0" points="106.1,52.2 108.8,52.2 110.1,54.5 108.8,56.9 106.1,56.9 104.7,54.5 "/>
<polygon class="st0" points="115.1,52.2 117.8,52.2 119.1,54.5 117.8,56.9 115.1,56.9 113.7,54.5 "/>
<polygon class="st0" points="124.1,52.2 126.8,52.2 128.1,54.5 126.8,56.9 124.1,56.9 122.7,54.5 "/>
<polygon class="st0" points="133.1,52.2 135.8,52.2 137.2,54.5 135.8,56.9 133.1,56.9 131.8,54.5 "/>
<polygon class="st0" points="142.1,52.2 144.8,52.2 146.2,54.5 144.8,56.9 142.1,56.9 140.8,54.5 "/>
<polygon class="st0" points="151.1,52.2 153.8,52.2 155.2,54.5 153.8,56.9 151.1,56.9 149.8,54.5 "/>
<polygon class="st0" points="160.1,52.2 162.9,52.2 164.2,54.5 162.9,56.9 160.1,56.9 158.8,54.5 "/>
<polygon class="st0" points="169.2,52.2 171.9,52.2 173.2,54.5 171.9,56.9 169.2,56.9 167.8,54.5 "/>
<polygon class="st0" points="178.2,52.2 180.9,52.2 182.2,54.5 180.9,56.9 178.2,56.9 176.8,54.5 "/>
<polygon class="st0" points="187.2,52.2 189.9,52.2 191.2,54.5 189.9,56.9 187.2,56.9 185.8,54.5 "/>
<polygon class="st0" points="196.2,52.2 198.9,52.2 200.2,54.5 198.9,56.9 196.2,56.9 194.8,54.5 "/>
<polygon class="st0" points="65.5,54.8 68.2,54.8 69.6,57.1 68.2,59.5 65.5,59.5 64.1,57.1 "/>
<polygon class="st0" points="74.5,54.8 77.2,54.8 78.6,57.1 77.2,59.5 74.5,59.5 73.2,57.1 "/>
<polygon class="st0" points="83.5,54.8 86.2,54.8 87.6,57.1 86.2,59.5 83.5,59.5 82.2,57.1 "/>
<polygon class="st0" points="101.6,54.8 104.2,54.8 105.6,57.1 104.2,59.5 101.6,59.5 100.2,57.1 "/>
<polygon class="st0" points="110.6,54.8 113.3,54.8 114.6,57.1 113.3,59.5 110.6,59.5 109.2,57.1 "/>
<polygon class="st0" points="119.6,54.8 122.3,54.8 123.6,57.1 122.3,59.5 119.6,59.5 118.2,57.1 "/>
<polygon class="st0" points="128.6,54.8 131.3,54.8 132.6,57.1 131.3,59.5 128.6,59.5 127.2,57.1 "/>
<polygon class="st0" points="137.6,54.8 140.3,54.8 141.7,57.1 140.3,59.5 137.6,59.5 136.2,57.1 "/>
<polygon class="st0" points="146.6,54.8 149.3,54.8 150.7,57.1 149.3,59.5 146.6,59.5 145.3,57.1 "/>
<polygon class="st0" points="155.6,54.8 158.3,54.8 159.7,57.1 158.3,59.5 155.6,59.5 154.3,57.1 "/>
<polygon class="st0" points="164.6,54.8 167.4,54.8 168.7,57.1 167.4,59.5 164.6,59.5 163.3,57.1 "/>
<polygon class="st0" points="173.7,54.8 176.4,54.8 177.7,57.1 176.4,59.5 173.7,59.5 172.3,57.1 "/>
<polygon class="st0" points="182.7,54.8 185.4,54.8 186.7,57.1 185.4,59.5 182.7,59.5 181.3,57.1 "/>
<polygon class="st0" points="191.7,54.8 194.4,54.8 195.7,57.1 194.4,59.5 191.7,59.5 190.3,57.1 "/>
<polygon class="st0" points="61,57.4 63.7,57.4 65.1,59.7 63.7,62.1 61,62.1 59.6,59.7 "/>
<polygon class="st0" points="70,57.4 72.7,57.4 74.1,59.7 72.7,62.1 70,62.1 68.7,59.7 "/>
<polygon class="st0" points="79,57.4 81.7,57.4 83.1,59.7 81.7,62.1 79,62.1 77.7,59.7 "/>
<polygon class="st0" points="88,57.4 90.7,57.4 92.1,59.7 90.7,62.1 88,62.1 86.7,59.7 "/>
<polygon class="st0" points="106.1,57.4 108.8,57.4 110.1,59.7 108.8,62.1 106.1,62.1 104.7,59.7 "/>
<polygon class="st0" points="115.1,57.4 117.8,57.4 119.1,59.7 117.8,62.1 115.1,62.1 113.7,59.7 "/>
<polygon class="st0" points="124.1,57.4 126.8,57.4 128.1,59.7 126.8,62.1 124.1,62.1 122.7,59.7 "/>
<polygon class="st0" points="133.1,57.4 135.8,57.4 137.2,59.7 135.8,62.1 133.1,62.1 131.8,59.7 "/>
<polygon class="st0" points="142.1,57.4 144.8,57.4 146.2,59.7 144.8,62.1 142.1,62.1 140.8,59.7 "/>
<polygon class="st0" points="151.1,57.4 153.8,57.4 155.2,59.7 153.8,62.1 151.1,62.1 149.8,59.7 "/>
<polygon class="st0" points="160.1,57.4 162.9,57.4 164.2,59.7 162.9,62.1 160.1,62.1 158.8,59.7 "/>
<polygon class="st0" points="169.2,57.4 171.9,57.4 173.2,59.7 171.9,62.1 169.2,62.1 167.8,59.7 "/>
<polygon class="st0" points="178.2,57.4 180.9,57.4 182.2,59.7 180.9,62.1 178.2,62.1 176.8,59.7 "/>
<polygon class="st0" points="187.2,57.4 189.9,57.4 191.2,59.7 189.9,62.1 187.2,62.1 185.8,59.7 "/>
<polygon class="st0" points="65.5,60 68.2,60 69.6,62.3 68.2,64.7 65.5,64.7 64.1,62.3 "/>
<polygon class="st0" points="74.5,60 77.2,60 78.6,62.3 77.2,64.7 74.5,64.7 73.2,62.3 "/>
<polygon class="st0" points="83.5,60 86.2,60 87.6,62.3 86.2,64.7 83.5,64.7 82.2,62.3 "/>
<polygon class="st0" points="101.6,60 104.2,60 105.6,62.3 104.2,64.7 101.6,64.7 100.2,62.3 "/>
<polygon class="st0" points="110.6,60 113.3,60 114.6,62.3 113.3,64.7 110.6,64.7 109.2,62.3 "/>
<polygon class="st0" points="119.6,60 122.3,60 123.6,62.3 122.3,64.7 119.6,64.7 118.2,62.3 "/>
<polygon class="st0" points="128.6,60 131.3,60 132.6,62.3 131.3,64.7 128.6,64.7 127.2,62.3 "/>
<polygon class="st0" points="137.6,60 140.3,60 141.7,62.3 140.3,64.7 137.6,64.7 136.2,62.3 "/>
<polygon class="st0" points="146.6,60 149.3,60 150.7,62.3 149.3,64.7 146.6,64.7 145.3,62.3 "/>
<polygon class="st0" points="155.6,60 158.3,60 159.7,62.3 158.3,64.7 155.6,64.7 154.3,62.3 "/>
<polygon class="st0" points="164.6,60 167.4,60 168.7,62.3 167.4,64.7 164.6,64.7 163.3,62.3 "/>
<polygon class="st0" points="173.7,60 176.4,60 177.7,62.3 176.4,64.7 173.7,64.7 172.3,62.3 "/>
<polygon class="st0" points="182.7,60 185.4,60 186.7,62.3 185.4,64.7 182.7,64.7 181.3,62.3 "/>
<polygon class="st0" points="61,62.6 63.7,62.6 65.1,64.9 63.7,67.3 61,67.3 59.6,64.9 "/>
<polygon class="st0" points="70,62.6 72.7,62.6 74.1,64.9 72.7,67.3 70,67.3 68.7,64.9 "/>
<polygon class="st0" points="79,62.6 81.7,62.6 83.1,64.9 81.7,67.3 79,67.3 77.7,64.9 "/>
<polygon class="st0" points="88,62.6 90.7,62.6 92.1,64.9 90.7,67.3 88,67.3 86.7,64.9 "/>
<polygon class="st0" points="106.1,62.6 108.8,62.6 110.1,64.9 108.8,67.3 106.1,67.3 104.7,64.9 "/>
<polygon class="st0" points="115.1,62.6 117.8,62.6 119.1,64.9 117.8,67.3 115.1,67.3 113.7,64.9 "/>
<polygon class="st0" points="124.1,62.6 126.8,62.6 128.1,64.9 126.8,67.3 124.1,67.3 122.7,64.9 "/>
<polygon class="st0" points="133.1,62.6 135.8,62.6 137.2,64.9 135.8,67.3 133.1,67.3 131.8,64.9 "/>
<polygon class="st0" points="142.1,62.6 144.8,62.6 146.2,64.9 144.8,67.3 142.1,67.3 140.8,64.9 "/>
<polygon class="st0" points="151.1,62.6 153.8,62.6 155.2,64.9 153.8,67.3 151.1,67.3 149.8,64.9 "/>
<polygon class="st0" points="160.1,62.6 162.9,62.6 164.2,64.9 162.9,67.3 160.1,67.3 158.8,64.9 "/>
<polygon class="st0" points="169.2,62.6 171.9,62.6 173.2,64.9 171.9,67.3 169.2,67.3 167.8,64.9 "/>
<polygon class="st0" points="178.2,62.6 180.9,62.6 182.2,64.9 180.9,67.3 178.2,67.3 176.8,64.9 "/>
<polygon class="st0" points="187.2,62.6 189.9,62.6 191.2,64.9 189.9,67.3 187.2,67.3 185.8,64.9 "/>
<polygon class="st0" points="65.5,65.2 68.2,65.2 69.6,67.5 68.2,69.9 65.5,69.9 64.1,67.5 "/>
<polygon class="st0" points="74.5,65.2 77.2,65.2 78.6,67.5 77.2,69.9 74.5,69.9 73.2,67.5 "/>
<polygon class="st0" points="83.5,65.2 86.2,65.2 87.6,67.5 86.2,69.9 83.5,69.9 82.2,67.5 "/>
<polygon class="st0" points="101.6,65.2 104.2,65.2 105.6,67.5 104.2,69.9 101.6,69.9 100.2,67.5 "/>
<polygon class="st0" points="110.6,65.2 113.3,65.2 114.6,67.5 113.3,69.9 110.6,69.9 109.2,67.5 "/>
<polygon class="st0" points="119.6,65.2 122.3,65.2 123.6,67.5 122.3,69.9 119.6,69.9 118.2,67.5 "/>
<polygon class="st0" points="128.6,65.2 131.3,65.2 132.6,67.5 131.3,69.9 128.6,69.9 127.2,67.5 "/>
<polygon class="st0" points="137.6,65.2 140.3,65.2 141.7,67.5 140.3,69.9 137.6,69.9 136.2,67.5 "/>
<polygon class="st0" points="146.6,65.2 149.3,65.2 150.7,67.5 149.3,69.9 146.6,69.9 145.3,67.5 "/>
<polygon class="st0" points="155.6,65.2 158.3,65.2 159.7,67.5 158.3,69.9 155.6,69.9 154.3,67.5 "/>
<polygon class="st0" points="164.6,65.2 167.4,65.2 168.7,67.5 167.4,69.9 164.6,69.9 163.3,67.5 "/>
<polygon class="st0" points="173.7,65.2 176.4,65.2 177.7,67.5 176.4,69.9 173.7,69.9 172.3,67.5 "/>
<polygon class="st0" points="182.7,65.2 185.4,65.2 186.7,67.5 185.4,69.9 182.7,69.9 181.3,67.5 "/>
<polygon class="st0" points="79,67.8 81.7,67.8 83.1,70.1 81.7,72.5 79,72.5 77.7,70.1 "/>
<polygon class="st0" points="88,67.8 90.7,67.8 92.1,70.1 90.7,72.5 88,72.5 86.7,70.1 "/>
<polygon class="st0" points="106.1,67.8 108.8,67.8 110.1,70.1 108.8,72.5 106.1,72.5 104.7,70.1 "/>
<polygon class="st0" points="115.1,67.8 117.8,67.8 119.1,70.1 117.8,72.5 115.1,72.5 113.7,70.1 "/>
<polygon class="st0" points="124.1,67.8 126.8,67.8 128.1,70.1 126.8,72.5 124.1,72.5 122.7,70.1 "/>
<polygon class="st0" points="133.1,67.8 135.8,67.8 137.2,70.1 135.8,72.5 133.1,72.5 131.8,70.1 "/>
<polygon class="st0" points="142.1,67.8 144.8,67.8 146.2,70.1 144.8,72.5 142.1,72.5 140.8,70.1 "/>
<polygon class="st0" points="151.1,67.8 153.8,67.8 155.2,70.1 153.8,72.5 151.1,72.5 149.8,70.1 "/>
<polygon class="st0" points="160.1,67.8 162.9,67.8 164.2,70.1 162.9,72.5 160.1,72.5 158.8,70.1 "/>
<polygon class="st0" points="169.2,67.8 171.9,67.8 173.2,70.1 171.9,72.5 169.2,72.5 167.8,70.1 "/>
<polygon class="st0" points="178.2,67.8 180.9,67.8 182.2,70.1 180.9,72.5 178.2,72.5 176.8,70.1 "/>
<polygon class="st0" points="187.2,67.8 189.9,67.8 191.2,70.1 189.9,72.5 187.2,72.5 185.8,70.1 "/>
<polygon class="st0" points="83.5,70.4 86.2,70.4 87.6,72.7 86.2,75.1 83.5,75.1 82.2,72.7 "/>
<polygon class="st0" points="101.6,70.4 104.2,70.4 105.6,72.7 104.2,75.1 101.6,75.1 100.2,72.7 "/>
<polygon class="st0" points="110.6,70.4 113.3,70.4 114.6,72.7 113.3,75.1 110.6,75.1 109.2,72.7 "/>
<polygon class="st0" points="119.6,70.4 122.3,70.4 123.6,72.7 122.3,75.1 119.6,75.1 118.2,72.7 "/>
<polygon class="st0" points="128.6,70.4 131.3,70.4 132.6,72.7 131.3,75.1 128.6,75.1 127.2,72.7 "/>
<polygon class="st0" points="137.6,70.4 140.3,70.4 141.7,72.7 140.3,75.1 137.6,75.1 136.2,72.7 "/>
<polygon class="st0" points="146.6,70.4 149.3,70.4 150.7,72.7 149.3,75.1 146.6,75.1 145.3,72.7 "/>
<polygon class="st0" points="155.6,70.4 158.3,70.4 159.7,72.7 158.3,75.1 155.6,75.1 154.3,72.7 "/>
<polygon class="st0" points="164.6,70.4 167.4,70.4 168.7,72.7 167.4,75.1 164.6,75.1 163.3,72.7 "/>
<polygon class="st0" points="173.7,70.4 176.4,70.4 177.7,72.7 176.4,75.1 173.7,75.1 172.3,72.7 "/>
<polygon class="st0" points="182.7,70.4 185.4,70.4 186.7,72.7 185.4,75.1 182.7,75.1 181.3,72.7 "/>
<polygon class="st0" points="34,73 36.7,73 38,75.3 36.7,77.7 34,77.7 32.6,75.3 "/>
<polygon class="st0" points="70,73 72.7,73 74.1,75.3 72.7,77.7 70,77.7 68.7,75.3 "/>
<polygon class="st0" points="106.1,73 108.8,73 110.1,75.3 108.8,77.7 106.1,77.7 104.7,75.3 "/>
<polygon class="st0" points="115.1,73 117.8,73 119.1,75.3 117.8,77.7 115.1,77.7 113.7,75.3 "/>
<polygon class="st0" points="124.1,73 126.8,73 128.1,75.3 126.8,77.7 124.1,77.7 122.7,75.3 "/>
<polygon class="st0" points="133.1,73 135.8,73 137.2,75.3 135.8,77.7 133.1,77.7 131.8,75.3 "/>
<polygon class="st0" points="142.1,73 144.8,73 146.2,75.3 144.8,77.7 142.1,77.7 140.8,75.3 "/>
<polygon class="st0" points="151.1,73 153.8,73 155.2,75.3 153.8,77.7 151.1,77.7 149.8,75.3 "/>
<polygon class="st0" points="160.1,73 162.9,73 164.2,75.3 162.9,77.7 160.1,77.7 158.8,75.3 "/>
<polygon class="st0" points="169.2,73 171.9,73 173.2,75.3 171.9,77.7 169.2,77.7 167.8,75.3 "/>
<polygon class="st0" points="178.2,73 180.9,73 182.2,75.3 180.9,77.7 178.2,77.7 176.8,75.3 "/>
<polygon class="st0" points="187.2,73 189.9,73 191.2,75.3 189.9,77.7 187.2,77.7 185.8,75.3 "/>
<polygon class="st0" points="38.5,75.6 41.2,75.6 42.5,77.9 41.2,80.3 38.5,80.3 37.1,77.9 "/>
<polygon class="st0" points="29.5,70.4 32.2,70.4 33.5,72.7 32.2,75.1 29.5,75.1 28.1,72.7 "/>
<polygon class="st0" points="74.5,75.6 77.2,75.6 78.6,77.9 77.2,80.3 74.5,80.3 73.2,77.9 "/>
<polygon class="st0" points="101.6,75.6 104.2,75.6 105.6,77.9 104.2,80.3 101.6,80.3 100.2,77.9 "/>
<polygon class="st0" points="110.6,75.6 113.3,75.6 114.6,77.9 113.3,80.3 110.6,80.3 109.2,77.9 "/>
<polygon class="st0" points="119.6,75.6 122.3,75.6 123.6,77.9 122.3,80.3 119.6,80.3 118.2,77.9 "/>
<polygon class="st0" points="128.6,75.6 131.3,75.6 132.6,77.9 131.3,80.3 128.6,80.3 127.2,77.9 "/>
<polygon class="st0" points="137.6,75.6 140.3,75.6 141.7,77.9 140.3,80.3 137.6,80.3 136.2,77.9 "/>
<polygon class="st0" points="146.6,75.6 149.3,75.6 150.7,77.9 149.3,80.3 146.6,80.3 145.3,77.9 "/>
<polygon class="st0" points="155.6,75.6 158.3,75.6 159.7,77.9 158.3,80.3 155.6,80.3 154.3,77.9 "/>
<polygon class="st0" points="164.6,75.6 167.4,75.6 168.7,77.9 167.4,80.3 164.6,80.3 163.3,77.9 "/>
<polygon class="st0" points="173.7,75.6 176.4,75.6 177.7,77.9 176.4,80.3 173.7,80.3 172.3,77.9 "/>
<polygon class="st0" points="182.7,75.6 185.4,75.6 186.7,77.9 185.4,80.3 182.7,80.3 181.3,77.9 "/>
<polygon class="st0" points="24.9,78.2 27.6,78.2 29,80.5 27.6,82.9 24.9,82.9 23.6,80.5 "/>
<polygon class="st0" points="34,78.2 36.7,78.2 38,80.5 36.7,82.9 34,82.9 32.6,80.5 "/>
<polygon class="st0" points="34,67.8 36.7,67.8 38,70.1 36.7,72.5 34,72.5 32.6,70.1 "/>
<polygon class="st0" points="70,78.2 72.7,78.2 74.1,80.5 72.7,82.9 70,82.9 68.7,80.5 "/>
<polygon class="st0" points="79,78.2 81.7,78.2 83.1,80.5 81.7,82.9 79,82.9 77.7,80.5 "/>
<polygon class="st0" points="88,78.2 90.7,78.2 92.1,80.5 90.7,82.9 88,82.9 86.7,80.5 "/>
<polygon class="st0" points="97.1,78.2 99.8,78.2 101.1,80.5 99.8,82.9 97.1,82.9 95.7,80.5 "/>
<polygon class="st0" points="106.1,78.2 108.8,78.2 110.1,80.5 108.8,82.9 106.1,82.9 104.7,80.5 "/>
<polygon class="st0" points="115.1,78.2 117.8,78.2 119.1,80.5 117.8,82.9 115.1,82.9 113.7,80.5 "/>
<polygon class="st0" points="124.1,78.2 126.8,78.2 128.1,80.5 126.8,82.9 124.1,82.9 122.7,80.5 "/>
<polygon class="st0" points="133.1,78.2 135.8,78.2 137.2,80.5 135.8,82.9 133.1,82.9 131.8,80.5 "/>
<polygon class="st0" points="142.1,78.2 144.8,78.2 146.2,80.5 144.8,82.9 142.1,82.9 140.8,80.5 "/>
<polygon class="st0" points="151.1,78.2 153.8,78.2 155.2,80.5 153.8,82.9 151.1,82.9 149.8,80.5 "/>
<polygon class="st0" points="160.1,78.2 162.9,78.2 164.2,80.5 162.9,82.9 160.1,82.9 158.8,80.5 "/>
<polygon class="st0" points="169.2,78.2 171.9,78.2 173.2,80.5 171.9,82.9 169.2,82.9 167.8,80.5 "/>
<polygon class="st0" points="178.2,78.2 180.9,78.2 182.2,80.5 180.9,82.9 178.2,82.9 176.8,80.5 "/>
<polygon class="st0" points="187.2,78.2 189.9,78.2 191.2,80.5 189.9,82.9 187.2,82.9 185.8,80.5 "/>
<polygon class="st0" points="20.4,80.8 23.1,80.8 24.5,83.1 23.1,85.5 20.4,85.5 19.1,83.1 "/>
<polygon class="st0" points="38.5,80.8 41.2,80.8 42.5,83.1 41.2,85.5 38.5,85.5 37.1,83.1 "/>
<polygon class="st0" points="65.5,80.8 68.2,80.8 69.6,83.1 68.2,85.5 65.5,85.5 64.1,83.1 "/>
<polygon class="st0" points="74.5,80.8 77.2,80.8 78.6,83.1 77.2,85.5 74.5,85.5 73.2,83.1 "/>
<polygon class="st0" points="83.5,80.8 86.2,80.8 87.6,83.1 86.2,85.5 83.5,85.5 82.2,83.1 "/>
<polygon class="st0" points="92.5,80.8 95.2,80.8 96.6,83.1 95.2,85.5 92.5,85.5 91.2,83.1 "/>
<polygon class="st0" points="101.6,80.8 104.2,80.8 105.6,83.1 104.2,85.5 101.6,85.5 100.2,83.1 "/>
<polygon class="st0" points="110.6,80.8 113.3,80.8 114.6,83.1 113.3,85.5 110.6,85.5 109.2,83.1 "/>
<polygon class="st0" points="119.6,80.8 122.3,80.8 123.6,83.1 122.3,85.5 119.6,85.5 118.2,83.1 "/>
<polygon class="st0" points="128.6,80.8 131.3,80.8 132.6,83.1 131.3,85.5 128.6,85.5 127.2,83.1 "/>
<polygon class="st0" points="137.6,80.8 140.3,80.8 141.7,83.1 140.3,85.5 137.6,85.5 136.2,83.1 "/>
<polygon class="st0" points="146.6,80.8 149.3,80.8 150.7,83.1 149.3,85.5 146.6,85.5 145.3,83.1 "/>
<polygon class="st0" points="155.6,80.8 158.3,80.8 159.7,83.1 158.3,85.5 155.6,85.5 154.3,83.1 "/>
<polygon class="st0" points="164.6,80.8 167.4,80.8 168.7,83.1 167.4,85.5 164.6,85.5 163.3,83.1 "/>
<polygon class="st0" points="173.7,80.8 176.4,80.8 177.7,83.1 176.4,85.5 173.7,85.5 172.3,83.1 "/>
<polygon class="st0" points="182.7,80.8 185.4,80.8 186.7,83.1 185.4,85.5 182.7,85.5 181.3,83.1 "/>
<polygon class="st0" points="24.9,83.4 27.6,83.4 29,85.7 27.6,88.1 24.9,88.1 23.6,85.7 "/>
<polygon class="st0" points="34,83.4 36.7,83.4 38,85.7 36.7,88.1 34,88.1 32.6,85.7 "/>
<polygon class="st0" points="43,83.4 45.7,83.4 47,85.7 45.7,88.1 43,88.1 41.6,85.7 "/>
<polygon class="st0" points="61,83.4 63.7,83.4 65.1,85.7 63.7,88.1 61,88.1 59.6,85.7 "/>
<polygon class="st0" points="70,83.4 72.7,83.4 74.1,85.7 72.7,88.1 70,88.1 68.7,85.7 "/>
<polygon class="st0" points="79,83.4 81.7,83.4 83.1,85.7 81.7,88.1 79,88.1 77.7,85.7 "/>
<polygon class="st0" points="88,83.4 90.7,83.4 92.1,85.7 90.7,88.1 88,88.1 86.7,85.7 "/>
<polygon class="st0" points="97.1,83.4 99.8,83.4 101.1,85.7 99.8,88.1 97.1,88.1 95.7,85.7 "/>
<polygon class="st0" points="106.1,83.4 108.8,83.4 110.1,85.7 108.8,88.1 106.1,88.1 104.7,85.7 "/>
<polygon class="st0" points="115.1,83.4 117.8,83.4 119.1,85.7 117.8,88.1 115.1,88.1 113.7,85.7 "/>
<polygon class="st0" points="124.1,83.4 126.8,83.4 128.1,85.7 126.8,88.1 124.1,88.1 122.7,85.7 "/>
<polygon class="st0" points="133.1,83.4 135.8,83.4 137.2,85.7 135.8,88.1 133.1,88.1 131.8,85.7 "/>
<polygon class="st0" points="142.1,83.4 144.8,83.4 146.2,85.7 144.8,88.1 142.1,88.1 140.8,85.7 "/>
<polygon class="st0" points="151.1,83.4 153.8,83.4 155.2,85.7 153.8,88.1 151.1,88.1 149.8,85.7 "/>
<polygon class="st0" points="160.1,83.4 162.9,83.4 164.2,85.7 162.9,88.1 160.1,88.1 158.8,85.7 "/>
<polygon class="st0" points="169.2,83.4 171.9,83.4 173.2,85.7 171.9,88.1 169.2,88.1 167.8,85.7 "/>
<polygon class="st0" points="178.2,83.4 180.9,83.4 182.2,85.7 180.9,88.1 178.2,88.1 176.8,85.7 "/>
<polygon class="st0" points="187.2,83.4 189.9,83.4 191.2,85.7 189.9,88.1 187.2,88.1 185.8,85.7 "/>
<polygon class="st0" points="20.4,86 23.1,86 24.5,88.3 23.1,90.7 20.4,90.7 19.1,88.3 "/>
<polygon class="st0" points="38.5,86 41.2,86 42.5,88.3 41.2,90.7 38.5,90.7 37.1,88.3 "/>
<polygon class="st0" points="56.5,86 59.2,86 60.5,88.3 59.2,90.7 56.5,90.7 55.1,88.3 "/>
<polygon class="st0" points="65.5,86 68.2,86 69.6,88.3 68.2,90.7 65.5,90.7 64.1,88.3 "/>
<polygon class="st0" points="74.5,86 77.2,86 78.6,88.3 77.2,90.7 74.5,90.7 73.2,88.3 "/>
<polygon class="st0" points="83.5,86 86.2,86 87.6,88.3 86.2,90.7 83.5,90.7 82.2,88.3 "/>
<polygon class="st0" points="92.5,86 95.2,86 96.6,88.3 95.2,90.7 92.5,90.7 91.2,88.3 "/>
<polygon class="st0" points="101.6,86 104.2,86 105.6,88.3 104.2,90.7 101.6,90.7 100.2,88.3 "/>
<polygon class="st0" points="110.6,86 113.3,86 114.6,88.3 113.3,90.7 110.6,90.7 109.2,88.3 "/>
<polygon class="st0" points="119.6,86 122.3,86 123.6,88.3 122.3,90.7 119.6,90.7 118.2,88.3 "/>
<polygon class="st0" points="128.6,86 131.3,86 132.6,88.3 131.3,90.7 128.6,90.7 127.2,88.3 "/>
<polygon class="st0" points="137.6,86 140.3,86 141.7,88.3 140.3,90.7 137.6,90.7 136.2,88.3 "/>
<polygon class="st0" points="146.6,86 149.3,86 150.7,88.3 149.3,90.7 146.6,90.7 145.3,88.3 "/>
<polygon class="st0" points="155.6,86 158.3,86 159.7,88.3 158.3,90.7 155.6,90.7 154.3,88.3 "/>
<polygon class="st0" points="164.6,86 167.4,86 168.7,88.3 167.4,90.7 164.6,90.7 163.3,88.3 "/>
<polygon class="st0" points="173.7,86 176.4,86 177.7,88.3 176.4,90.7 173.7,90.7 172.3,88.3 "/>
<polygon class="st0" points="182.7,86 185.4,86 186.7,88.3 185.4,90.7 182.7,90.7 181.3,88.3 "/>
<polygon class="st0" points="191.7,86 194.4,86 195.7,88.3 194.4,90.7 191.7,90.7 190.3,88.3 "/>
<polygon class="st0" points="34,88.6 36.7,88.6 38,90.9 36.7,93.3 34,93.3 32.6,90.9 "/>
<polygon class="st0" points="52,88.6 54.7,88.6 56,90.9 54.7,93.3 52,93.3 50.6,90.9 "/>
<polygon class="st0" points="61,88.6 63.7,88.6 65.1,90.9 63.7,93.3 61,93.3 59.6,90.9 "/>
<polygon class="st0" points="70,88.6 72.7,88.6 74.1,90.9 72.7,93.3 70,93.3 68.7,90.9 "/>
<polygon class="st0" points="79,88.6 81.7,88.6 83.1,90.9 81.7,93.3 79,93.3 77.7,90.9 "/>
<polygon class="st0" points="88,88.6 90.7,88.6 92.1,90.9 90.7,93.3 88,93.3 86.7,90.9 "/>
<polygon class="st0" points="97.1,88.6 99.8,88.6 101.1,90.9 99.8,93.3 97.1,93.3 95.7,90.9 "/>
<polygon class="st0" points="106.1,88.6 108.8,88.6 110.1,90.9 108.8,93.3 106.1,93.3 104.7,90.9 "/>
<polygon class="st0" points="115.1,88.6 117.8,88.6 119.1,90.9 117.8,93.3 115.1,93.3 113.7,90.9 "/>
<polygon class="st0" points="124.1,88.6 126.8,88.6 128.1,90.9 126.8,93.3 124.1,93.3 122.7,90.9 "/>
<polygon class="st0" points="133.1,88.6 135.8,88.6 137.2,90.9 135.8,93.3 133.1,93.3 131.8,90.9 "/>
<polygon class="st0" points="142.1,88.6 144.8,88.6 146.2,90.9 144.8,93.3 142.1,93.3 140.8,90.9 "/>
<polygon class="st0" points="151.1,88.6 153.8,88.6 155.2,90.9 153.8,93.3 151.1,93.3 149.8,90.9 "/>
<polygon class="st0" points="160.1,88.6 162.9,88.6 164.2,90.9 162.9,93.3 160.1,93.3 158.8,90.9 "/>
<polygon class="st0" points="169.2,88.6 171.9,88.6 173.2,90.9 171.9,93.3 169.2,93.3 167.8,90.9 "/>
<polygon class="st0" points="178.2,88.6 180.9,88.6 182.2,90.9 180.9,93.3 178.2,93.3 176.8,90.9 "/>
<polygon class="st0" points="187.2,88.6 189.9,88.6 191.2,90.9 189.9,93.3 187.2,93.3 185.8,90.9 "/>
<polygon class="st0" points="196.2,88.6 198.9,88.6 200.2,90.9 198.9,93.3 196.2,93.3 194.8,90.9 "/>
<polygon class="st0" points="47.5,91.2 50.2,91.2 51.5,93.5 50.2,95.9 47.5,95.9 46.1,93.5 "/>
<polygon class="st0" points="56.5,91.2 59.2,91.2 60.5,93.5 59.2,95.9 56.5,95.9 55.1,93.5 "/>
<polygon class="st0" points="65.5,91.2 68.2,91.2 69.6,93.5 68.2,95.9 65.5,95.9 64.1,93.5 "/>
<polygon class="st0" points="74.5,91.2 77.2,91.2 78.6,93.5 77.2,95.9 74.5,95.9 73.2,93.5 "/>
<polygon class="st0" points="83.5,91.2 86.2,91.2 87.6,93.5 86.2,95.9 83.5,95.9 82.2,93.5 "/>
<polygon class="st0" points="92.5,91.2 95.2,91.2 96.6,93.5 95.2,95.9 92.5,95.9 91.2,93.5 "/>
<polygon class="st0" points="101.6,91.2 104.2,91.2 105.6,93.5 104.2,95.9 101.6,95.9 100.2,93.5 "/>
<polygon class="st0" points="110.6,91.2 113.3,91.2 114.6,93.5 113.3,95.9 110.6,95.9 109.2,93.5 "/>
<polygon class="st0" points="119.6,91.2 122.3,91.2 123.6,93.5 122.3,95.9 119.6,95.9 118.2,93.5 "/>
<polygon class="st0" points="128.6,91.2 131.3,91.2 132.6,93.5 131.3,95.9 128.6,95.9 127.2,93.5 "/>
<polygon class="st0" points="137.6,91.2 140.3,91.2 141.7,93.5 140.3,95.9 137.6,95.9 136.2,93.5 "/>
<polygon class="st0" points="146.6,91.2 149.3,91.2 150.7,93.5 149.3,95.9 146.6,95.9 145.3,93.5 "/>
<polygon class="st0" points="155.6,91.2 158.3,91.2 159.7,93.5 158.3,95.9 155.6,95.9 154.3,93.5 "/>
<polygon class="st0" points="164.6,91.2 167.4,91.2 168.7,93.5 167.4,95.9 164.6,95.9 163.3,93.5 "/>
<polygon class="st0" points="173.7,91.2 176.4,91.2 177.7,93.5 176.4,95.9 173.7,95.9 172.3,93.5 "/>
<polygon class="st0" points="182.7,91.2 185.4,91.2 186.7,93.5 185.4,95.9 182.7,95.9 181.3,93.5 "/>
<polygon class="st0" points="191.7,91.2 194.4,91.2 195.7,93.5 194.4,95.9 191.7,95.9 190.3,93.5 "/>
<polygon class="st0" points="200.7,91.2 203.4,91.2 204.8,93.5 203.4,95.9 200.7,95.9 199.4,93.5 "/>
<polygon class="st0" points="52,93.8 54.7,93.8 56,96.2 54.7,98.5 52,98.5 50.6,96.2 "/>
<polygon class="st0" points="61,93.8 63.7,93.8 65.1,96.2 63.7,98.5 61,98.5 59.6,96.2 "/>
<polygon class="st0" points="70,93.8 72.7,93.8 74.1,96.2 72.7,98.5 70,98.5 68.7,96.2 "/>
<polygon class="st0" points="79,93.8 81.7,93.8 83.1,96.2 81.7,98.5 79,98.5 77.7,96.2 "/>
<polygon class="st0" points="88,93.8 90.7,93.8 92.1,96.2 90.7,98.5 88,98.5 86.7,96.2 "/>
<polygon class="st0" points="97.1,93.8 99.8,93.8 101.1,96.2 99.8,98.5 97.1,98.5 95.7,96.2 "/>
<polygon class="st0" points="106.1,93.8 108.8,93.8 110.1,96.2 108.8,98.5 106.1,98.5 104.7,96.2 "/>
<polygon class="st0" points="115.1,93.8 117.8,93.8 119.1,96.2 117.8,98.5 115.1,98.5 113.7,96.2 "/>
<polygon class="st0" points="124.1,93.8 126.8,93.8 128.1,96.2 126.8,98.5 124.1,98.5 122.7,96.2 "/>
<polygon class="st0" points="133.1,93.8 135.8,93.8 137.2,96.2 135.8,98.5 133.1,98.5 131.8,96.2 "/>
<polygon class="st0" points="142.1,93.8 144.8,93.8 146.2,96.2 144.8,98.5 142.1,98.5 140.8,96.2 "/>
<polygon class="st0" points="151.1,93.8 153.8,93.8 155.2,96.2 153.8,98.5 151.1,98.5 149.8,96.2 "/>
<polygon class="st0" points="160.1,93.8 162.9,93.8 164.2,96.2 162.9,98.5 160.1,98.5 158.8,96.2 "/>
<polygon class="st0" points="169.2,93.8 171.9,93.8 173.2,96.2 171.9,98.5 169.2,98.5 167.8,96.2 "/>
<polygon class="st0" points="178.2,93.8 180.9,93.8 182.2,96.2 180.9,98.5 178.2,98.5 176.8,96.2 "/>
<polygon class="st0" points="38.5,96.4 41.2,96.4 42.5,98.8 41.2,101.1 38.5,101.1 37.1,98.8 "/>
<polygon class="st0" points="47.5,96.4 50.2,96.4 51.5,98.8 50.2,101.1 47.5,101.1 46.1,98.8 "/>
<polygon class="st0" points="56.5,96.4 59.2,96.4 60.5,98.8 59.2,101.1 56.5,101.1 55.1,98.8 "/>
<polygon class="st0" points="65.5,96.4 68.2,96.4 69.6,98.8 68.2,101.1 65.5,101.1 64.1,98.8 "/>
<polygon class="st0" points="74.5,96.4 77.2,96.4 78.6,98.8 77.2,101.1 74.5,101.1 73.2,98.8 "/>
<polygon class="st0" points="83.5,96.4 86.2,96.4 87.6,98.8 86.2,101.1 83.5,101.1 82.2,98.8 "/>
<polygon class="st0" points="92.5,96.4 95.2,96.4 96.6,98.8 95.2,101.1 92.5,101.1 91.2,98.8 "/>
<polygon class="st0" points="101.6,96.4 104.2,96.4 105.6,98.8 104.2,101.1 101.6,101.1 100.2,98.8 "/>
<polygon class="st0" points="110.6,96.4 113.3,96.4 114.6,98.8 113.3,101.1 110.6,101.1 109.2,98.8 "/>
<polygon class="st0" points="119.6,96.4 122.3,96.4 123.6,98.8 122.3,101.1 119.6,101.1 118.2,98.8 "/>
<polygon class="st0" points="128.6,96.4 131.3,96.4 132.6,98.8 131.3,101.1 128.6,101.1 127.2,98.8 "/>
<polygon class="st0" points="137.6,96.4 140.3,96.4 141.7,98.8 140.3,101.1 137.6,101.1 136.2,98.8 "/>
<polygon class="st0" points="146.6,96.4 149.3,96.4 150.7,98.8 149.3,101.1 146.6,101.1 145.3,98.8 "/>
<polygon class="st0" points="155.6,96.4 158.3,96.4 159.7,98.8 158.3,101.1 155.6,101.1 154.3,98.8 "/>
<polygon class="st0" points="164.6,96.4 167.4,96.4 168.7,98.8 167.4,101.1 164.6,101.1 163.3,98.8 "/>
<polygon class="st0" points="173.7,96.4 176.4,96.4 177.7,98.8 176.4,101.1 173.7,101.1 172.3,98.8 "/>
<polygon class="st0" points="34,99 36.7,99 38,101.3 36.7,103.7 34,103.7 32.6,101.3 "/>
<polygon class="st0" points="43,99 45.7,99 47,101.3 45.7,103.7 43,103.7 41.6,101.3 "/>
<polygon class="st0" points="52,99 54.7,99 56,101.3 54.7,103.7 52,103.7 50.6,101.3 "/>
<polygon class="st0" points="61,99 63.7,99 65.1,101.3 63.7,103.7 61,103.7 59.6,101.3 "/>
<polygon class="st0" points="70,99 72.7,99 74.1,101.3 72.7,103.7 70,103.7 68.7,101.3 "/>
<polygon class="st0" points="79,99 81.7,99 83.1,101.3 81.7,103.7 79,103.7 77.7,101.3 "/>
<polygon class="st0" points="88,99 90.7,99 92.1,101.3 90.7,103.7 88,103.7 86.7,101.3 "/>
<polygon class="st0" points="97.1,99 99.8,99 101.1,101.3 99.8,103.7 97.1,103.7 95.7,101.3 "/>
<polygon class="st0" points="106.1,99 108.8,99 110.1,101.3 108.8,103.7 106.1,103.7 104.7,101.3 "/>
<polygon class="st0" points="115.1,99 117.8,99 119.1,101.3 117.8,103.7 115.1,103.7 113.7,101.3 "/>
<polygon class="st0" points="124.1,99 126.8,99 128.1,101.3 126.8,103.7 124.1,103.7 122.7,101.3 "/>
<polygon class="st0" points="133.1,99 135.8,99 137.2,101.3 135.8,103.7 133.1,103.7 131.8,101.3 "/>
<polygon class="st0" points="142.1,99 144.8,99 146.2,101.3 144.8,103.7 142.1,103.7 140.8,101.3 "/>
<polygon class="st0" points="151.1,99 153.8,99 155.2,101.3 153.8,103.7 151.1,103.7 149.8,101.3 "/>
<polygon class="st0" points="160.1,99 162.9,99 164.2,101.3 162.9,103.7 160.1,103.7 158.8,101.3 "/>
<polygon class="st0" points="169.2,99 171.9,99 173.2,101.3 171.9,103.7 169.2,103.7 167.8,101.3 "/>
<polygon class="st0" points="178.2,99 180.9,99 182.2,101.3 180.9,103.7 178.2,103.7 176.8,101.3 "/>
<polygon class="st0" points="38.5,101.6 41.2,101.6 42.5,103.9 41.2,106.3 38.5,106.3 37.1,103.9 "/>
<polygon class="st0" points="47.5,101.6 50.2,101.6 51.5,103.9 50.2,106.3 47.5,106.3 46.1,103.9 "/>
<polygon class="st0" points="56.5,101.6 59.2,101.6 60.5,103.9 59.2,106.3 56.5,106.3 55.1,103.9 "/>
<polygon class="st0" points="65.5,101.6 68.2,101.6 69.6,103.9 68.2,106.3 65.5,106.3 64.1,103.9 "/>
<polygon class="st0" points="74.5,101.6 77.2,101.6 78.6,103.9 77.2,106.3 74.5,106.3 73.2,103.9 "/>
<polygon class="st0" points="83.5,101.6 86.2,101.6 87.6,103.9 86.2,106.3 83.5,106.3 82.2,103.9 "/>
<polygon class="st0" points="92.5,101.6 95.2,101.6 96.6,103.9 95.2,106.3 92.5,106.3 91.2,103.9 "/>
<polygon class="st0" points="101.6,101.6 104.2,101.6 105.6,103.9 104.2,106.3 101.6,106.3 100.2,103.9 "/>
<polygon class="st0" points="110.6,101.6 113.3,101.6 114.6,103.9 113.3,106.3 110.6,106.3 109.2,103.9 "/>
<polygon class="st0" points="119.6,101.6 122.3,101.6 123.6,103.9 122.3,106.3 119.6,106.3 118.2,103.9 "/>
<polygon class="st0" points="128.6,101.6 131.3,101.6 132.6,103.9 131.3,106.3 128.6,106.3 127.2,103.9 "/>
<polygon class="st0" points="137.6,101.6 140.3,101.6 141.7,103.9 140.3,106.3 137.6,106.3 136.2,103.9 "/>
<polygon class="st0" points="146.6,101.6 149.3,101.6 150.7,103.9 149.3,106.3 146.6,106.3 145.3,103.9 "/>
<polygon class="st0" points="155.6,101.6 158.3,101.6 159.7,103.9 158.3,106.3 155.6,106.3 154.3,103.9 "/>
<polygon class="st0" points="164.6,101.6 167.4,101.6 168.7,103.9 167.4,106.3 164.6,106.3 163.3,103.9 "/>
<polygon class="st0" points="173.7,101.6 176.4,101.6 177.7,103.9 176.4,106.3 173.7,106.3 172.3,103.9 "/>
<polygon class="st0" points="43,104.2 45.7,104.2 47,106.6 45.7,108.9 43,108.9 41.6,106.6 "/>
<polygon class="st0" points="52,104.2 54.7,104.2 56,106.6 54.7,108.9 52,108.9 50.6,106.6 "/>
<polygon class="st0" points="61,104.2 63.7,104.2 65.1,106.6 63.7,108.9 61,108.9 59.6,106.6 "/>
<polygon class="st0" points="70,104.2 72.7,104.2 74.1,106.6 72.7,108.9 70,108.9 68.7,106.6 "/>
<polygon class="st0" points="79,104.2 81.7,104.2 83.1,106.6 81.7,108.9 79,108.9 77.7,106.6 "/>
<polygon class="st0" points="88,104.2 90.7,104.2 92.1,106.6 90.7,108.9 88,108.9 86.7,106.6 "/>
<polygon class="st0" points="97.1,104.2 99.8,104.2 101.1,106.6 99.8,108.9 97.1,108.9 95.7,106.6 "/>
<polygon class="st0" points="106.1,104.2 108.8,104.2 110.1,106.6 108.8,108.9 106.1,108.9 104.7,106.6 "/>
<polygon class="st0" points="115.1,104.2 117.8,104.2 119.1,106.6 117.8,108.9 115.1,108.9 113.7,106.6 "/>
<polygon class="st0" points="124.1,104.2 126.8,104.2 128.1,106.6 126.8,108.9 124.1,108.9 122.7,106.6 "/>
<polygon class="st0" points="133.1,104.2 135.8,104.2 137.2,106.6 135.8,108.9 133.1,108.9 131.8,106.6 "/>
<polygon class="st0" points="142.1,104.2 144.8,104.2 146.2,106.6 144.8,108.9 142.1,108.9 140.8,106.6 "/>
<polygon class="st0" points="151.1,104.2 153.8,104.2 155.2,106.6 153.8,108.9 151.1,108.9 149.8,106.6 "/>
<polygon class="st0" points="160.1,104.2 162.9,104.2 164.2,106.6 162.9,108.9 160.1,108.9 158.8,106.6 "/>
<polygon class="st0" points="169.2,104.2 171.9,104.2 173.2,106.6 171.9,108.9 169.2,108.9 167.8,106.6 "/>
<polygon class="st0" points="178.2,104.2 180.9,104.2 182.2,106.6 180.9,108.9 178.2,108.9 176.8,106.6 "/>
<polygon class="st0" points="38.5,106.8 41.2,106.8 42.5,109.2 41.2,111.5 38.5,111.5 37.1,109.2 "/>
<polygon class="st0" points="47.5,106.8 50.2,106.8 51.5,109.2 50.2,111.5 47.5,111.5 46.1,109.2 "/>
<polygon class="st0" points="56.5,106.8 59.2,106.8 60.5,109.2 59.2,111.5 56.5,111.5 55.1,109.2 "/>
<polygon class="st0" points="65.5,106.8 68.2,106.8 69.6,109.2 68.2,111.5 65.5,111.5 64.1,109.2 "/>
<polygon class="st0" points="74.5,106.8 77.2,106.8 78.6,109.2 77.2,111.5 74.5,111.5 73.2,109.2 "/>
<polygon class="st0" points="83.5,106.8 86.2,106.8 87.6,109.2 86.2,111.5 83.5,111.5 82.2,109.2 "/>
<polygon class="st0" points="92.5,106.8 95.2,106.8 96.6,109.2 95.2,111.5 92.5,111.5 91.2,109.2 "/>
<polygon class="st0" points="101.6,106.8 104.2,106.8 105.6,109.2 104.2,111.5 101.6,111.5 100.2,109.2 "/>
<polygon class="st0" points="110.6,106.8 113.3,106.8 114.6,109.2 113.3,111.5 110.6,111.5 109.2,109.2 "/>
<polygon class="st0" points="119.6,106.8 122.3,106.8 123.6,109.2 122.3,111.5 119.6,111.5 118.2,109.2 "/>
<polygon class="st0" points="128.6,106.8 131.3,106.8 132.6,109.2 131.3,111.5 128.6,111.5 127.2,109.2 "/>
<polygon class="st0" points="137.6,106.8 140.3,106.8 141.7,109.2 140.3,111.5 137.6,111.5 136.2,109.2 "/>
<polygon class="st0" points="155.6,106.8 158.3,106.8 159.7,109.2 158.3,111.5 155.6,111.5 154.3,109.2 "/>
<polygon class="st0" points="164.6,106.8 167.4,106.8 168.7,109.2 167.4,111.5 164.6,111.5 163.3,109.2 "/>
<polygon class="st0" points="173.7,106.8 176.4,106.8 177.7,109.2 176.4,111.5 173.7,111.5 172.3,109.2 "/>
<polygon class="st0" points="43,109.4 45.7,109.4 47,111.8 45.7,114.1 43,114.1 41.6,111.8 "/>
<polygon class="st0" points="52,109.4 54.7,109.4 56,111.8 54.7,114.1 52,114.1 50.6,111.8 "/>
<polygon class="st0" points="61,109.4 63.7,109.4 65.1,111.8 63.7,114.1 61,114.1 59.6,111.8 "/>
<polygon class="st0" points="70,109.4 72.7,109.4 74.1,111.8 72.7,114.1 70,114.1 68.7,111.8 "/>
<polygon class="st0" points="79,109.4 81.7,109.4 83.1,111.8 81.7,114.1 79,114.1 77.7,111.8 "/>
<polygon class="st0" points="88,109.4 90.7,109.4 92.1,111.8 90.7,114.1 88,114.1 86.7,111.8 "/>
<polygon class="st0" points="97.1,109.4 99.8,109.4 101.1,111.8 99.8,114.1 97.1,114.1 95.7,111.8 "/>
<polygon class="st0" points="106.1,109.4 108.8,109.4 110.1,111.8 108.8,114.1 106.1,114.1 104.7,111.8 "/>
<polygon class="st0" points="115.1,109.4 117.8,109.4 119.1,111.8 117.8,114.1 115.1,114.1 113.7,111.8 "/>
<polygon class="st0" points="124.1,109.4 126.8,109.4 128.1,111.8 126.8,114.1 124.1,114.1 122.7,111.8 "/>
<polygon class="st0" points="142.1,109.4 144.8,109.4 146.2,111.8 144.8,114.1 142.1,114.1 140.8,111.8 "/>
<polygon class="st0" points="151.1,109.4 153.8,109.4 155.2,111.8 153.8,114.1 151.1,114.1 149.8,111.8 "/>
<polygon class="st0" points="160.1,109.4 162.9,109.4 164.2,111.8 162.9,114.1 160.1,114.1 158.8,111.8 "/>
<polygon class="st0" points="169.2,109.4 171.9,109.4 173.2,111.8 171.9,114.1 169.2,114.1 167.8,111.8 "/>
<polygon class="st0" points="38.5,112 41.2,112 42.5,114.4 41.2,116.7 38.5,116.7 37.1,114.4 "/>
<polygon class="st0" points="47.5,112 50.2,112 51.5,114.4 50.2,116.7 47.5,116.7 46.1,114.4 "/>
<polygon class="st0" points="56.5,112 59.2,112 60.5,114.4 59.2,116.7 56.5,116.7 55.1,114.4 "/>
<polygon class="st0" points="65.5,112 68.2,112 69.6,114.4 68.2,116.7 65.5,116.7 64.1,114.4 "/>
<polygon class="st0" points="74.5,112 77.2,112 78.6,114.4 77.2,116.7 74.5,116.7 73.2,114.4 "/>
<polygon class="st0" points="83.5,112 86.2,112 87.6,114.4 86.2,116.7 83.5,116.7 82.2,114.4 "/>
<polygon class="st0" points="92.5,112 95.2,112 96.6,114.4 95.2,116.7 92.5,116.7 91.2,114.4 "/>
<polygon class="st0" points="101.6,112 104.2,112 105.6,114.4 104.2,116.7 101.6,116.7 100.2,114.4 "/>
<polygon class="st0" points="110.6,112 113.3,112 114.6,114.4 113.3,116.7 110.6,116.7 109.2,114.4 "/>
<polygon class="st0" points="119.6,112 122.3,112 123.6,114.4 122.3,116.7 119.6,116.7 118.2,114.4 "/>
<polygon class="st0" points="137.6,112 140.3,112 141.7,114.4 140.3,116.7 137.6,116.7 136.2,114.4 "/>
<polygon class="st0" points="155.6,112 158.3,112 159.7,114.4 158.3,116.7 155.6,116.7 154.3,114.4 "/>
<polygon class="st0" points="164.6,112 167.4,112 168.7,114.4 167.4,116.7 164.6,116.7 163.3,114.4 "/>
<polygon class="st0" points="173.7,112 176.4,112 177.7,114.4 176.4,116.7 173.7,116.7 172.3,114.4 "/>
<polygon class="st0" points="24.9,114.6 27.6,114.6 29,117 27.6,119.3 24.9,119.3 23.6,117 "/>
<polygon class="st0" points="34,114.6 36.7,114.6 38,117 36.7,119.3 34,119.3 32.6,117 "/>
<polygon class="st0" points="43,114.6 45.7,114.6 47,117 45.7,119.3 43,119.3 41.6,117 "/>
<polygon class="st0" points="52,114.6 54.7,114.6 56,117 54.7,119.3 52,119.3 50.6,117 "/>
<polygon class="st0" points="61,114.6 63.7,114.6 65.1,117 63.7,119.3 61,119.3 59.6,117 "/>
<polygon class="st0" points="79,114.6 81.7,114.6 83.1,117 81.7,119.3 79,119.3 77.7,117 "/>
<polygon class="st0" points="88,114.6 90.7,114.6 92.1,117 90.7,119.3 88,119.3 86.7,117 "/>
<polygon class="st0" points="97.1,114.6 99.8,114.6 101.1,117 99.8,119.3 97.1,119.3 95.7,117 "/>
<polygon class="st0" points="106.1,114.6 108.8,114.6 110.1,117 108.8,119.3 106.1,119.3 104.7,117 "/>
<polygon class="st0" points="115.1,114.6 117.8,114.6 119.1,117 117.8,119.3 115.1,119.3 113.7,117 "/>
<polygon class="st0" points="160.1,114.6 162.9,114.6 164.2,117 162.9,119.3 160.1,119.3 158.8,117 "/>
<polygon class="st0" points="169.2,114.6 171.9,114.6 173.2,117 171.9,119.3 169.2,119.3 167.8,117 "/>
<polygon class="st0" points="20.4,117.2 23.1,117.2 24.5,119.6 23.1,121.9 20.4,121.9 19.1,119.6 "/>
<polygon class="st0" points="29.5,117.2 32.2,117.2 33.5,119.6 32.2,121.9 29.5,121.9 28.1,119.6 "/>
<polygon class="st0" points="38.5,117.2 41.2,117.2 42.5,119.6 41.2,121.9 38.5,121.9 37.1,119.6 "/>
<polygon class="st0" points="47.5,117.2 50.2,117.2 51.5,119.6 50.2,121.9 47.5,121.9 46.1,119.6 "/>
<polygon class="st0" points="65.5,117.2 68.2,117.2 69.6,119.6 68.2,121.9 65.5,121.9 64.1,119.6 "/>
<polygon class="st0" points="74.5,117.2 77.2,117.2 78.6,119.6 77.2,121.9 74.5,121.9 73.2,119.6 "/>
<polygon class="st0" points="83.5,117.2 86.2,117.2 87.6,119.6 86.2,121.9 83.5,121.9 82.2,119.6 "/>
<polygon class="st0" points="92.5,117.2 95.2,117.2 96.6,119.6 95.2,121.9 92.5,121.9 91.2,119.6 "/>
<polygon class="st0" points="101.6,117.2 104.2,117.2 105.6,119.6 104.2,121.9 101.6,121.9 100.2,119.6 "/>
<polygon class="st0" points="110.6,117.2 113.3,117.2 114.6,119.6 113.3,121.9 110.6,121.9 109.2,119.6 "/>
<polygon class="st0" points="119.6,117.2 122.3,117.2 123.6,119.6 122.3,121.9 119.6,121.9 118.2,119.6 "/>
<polygon class="st0" points="164.6,117.2 167.4,117.2 168.7,119.6 167.4,121.9 164.6,121.9 163.3,119.6 "/>
<polygon class="st0" points="173.7,117.2 176.4,117.2 177.7,119.6 176.4,121.9 173.7,121.9 172.3,119.6 "/>
<polygon class="st0" points="24.9,119.8 27.6,119.8 29,122.2 27.6,124.5 24.9,124.5 23.6,122.2 "/>
<polygon class="st0" points="34,119.8 36.7,119.8 38,122.2 36.7,124.5 34,124.5 32.6,122.2 "/>
<polygon class="st0" points="43,119.8 45.7,119.8 47,122.2 45.7,124.5 43,124.5 41.6,122.2 "/>
<polygon class="st0" points="79,119.8 81.7,119.8 83.1,122.2 81.7,124.5 79,124.5 77.7,122.2 "/>
<polygon class="st0" points="97.1,119.8 99.8,119.8 101.1,122.2 99.8,124.5 97.1,124.5 95.7,122.2 "/>
<polygon class="st0" points="106.1,119.8 108.8,119.8 110.1,122.2 108.8,124.5 106.1,124.5 104.7,122.2 "/>
<polygon class="st0" points="115.1,119.8 117.8,119.8 119.1,122.2 117.8,124.5 115.1,124.5 113.7,122.2 "/>
<polygon class="st0" points="160.1,119.8 162.9,119.8 164.2,122.2 162.9,124.5 160.1,124.5 158.8,122.2 "/>
<polygon class="st0" points="169.2,119.8 171.9,119.8 173.2,122.2 171.9,124.5 169.2,124.5 167.8,122.2 "/>
<polygon class="st0" points="178.2,119.8 180.9,119.8 182.2,122.2 180.9,124.5 178.2,124.5 176.8,122.2 "/>
<polygon class="st0" points="20.4,122.4 23.1,122.4 24.5,124.8 23.1,127.1 20.4,127.1 19.1,124.8 "/>
<polygon class="st0" points="29.5,122.4 32.2,122.4 33.5,124.8 32.2,127.1 29.5,127.1 28.1,124.8 "/>
<polygon class="st0" points="38.5,122.4 41.2,122.4 42.5,124.8 41.2,127.1 38.5,127.1 37.1,124.8 "/>
<polygon class="st0" points="47.5,122.4 50.2,122.4 51.5,124.8 50.2,127.1 47.5,127.1 46.1,124.8 "/>
<polygon class="st0" points="83.5,122.4 86.2,122.4 87.6,124.8 86.2,127.1 83.5,127.1 82.2,124.8 "/>
<polygon class="st0" points="101.6,122.4 104.2,122.4 105.6,124.8 104.2,127.1 101.6,127.1 100.2,124.8 "/>
<polygon class="st0" points="110.6,122.4 113.3,122.4 114.6,124.8 113.3,127.1 110.6,127.1 109.2,124.8 "/>
<polygon class="st0" points="119.6,122.4 122.3,122.4 123.6,124.8 122.3,127.1 119.6,127.1 118.2,124.8 "/>
<polygon class="st0" points="164.6,122.4 167.4,122.4 168.7,124.8 167.4,127.1 164.6,127.1 163.3,124.8 "/>
<polygon class="st0" points="173.7,122.4 176.4,122.4 177.7,124.8 176.4,127.1 173.7,127.1 172.3,124.8 "/>
<polygon class="st0" points="182.7,122.4 185.4,122.4 186.7,124.8 185.4,127.1 182.7,127.1 181.3,124.8 "/>
<polygon class="st0" points="15.9,125 18.6,125 20,127.4 18.6,129.7 15.9,129.7 14.6,127.4 "/>
<polygon class="st0" points="24.9,125 27.6,125 29,127.4 27.6,129.7 24.9,129.7 23.6,127.4 "/>
<polygon class="st0" points="34,125 36.7,125 38,127.4 36.7,129.7 34,129.7 32.6,127.4 "/>
<polygon class="st0" points="43,125 45.7,125 47,127.4 45.7,129.7 43,129.7 41.6,127.4 "/>
<polygon class="st0" points="70,125 72.7,125 74.1,127.4 72.7,129.7 70,129.7 68.7,127.4 "/>
<polygon class="st0" points="88,125 90.7,125 92.1,127.4 90.7,129.7 88,129.7 86.7,127.4 "/>
<polygon class="st0" points="97.1,125 99.8,125 101.1,127.4 99.8,129.7 97.1,129.7 95.7,127.4 "/>
<polygon class="st0" points="106.1,125 108.8,125 110.1,127.4 108.8,129.7 106.1,129.7 104.7,127.4 "/>
<polygon class="st0" points="160.1,125 162.9,125 164.2,127.4 162.9,129.7 160.1,129.7 158.8,127.4 "/>
<polygon class="st0" points="169.2,125 171.9,125 173.2,127.4 171.9,129.7 169.2,129.7 167.8,127.4 "/>
<polygon class="st0" points="178.2,125 180.9,125 182.2,127.4 180.9,129.7 178.2,129.7 176.8,127.4 "/>
<polygon class="st0" points="20.4,127.6 23.1,127.6 24.5,130 23.1,132.3 20.4,132.3 19.1,130 "/>
<polygon class="st0" points="29.5,127.6 32.2,127.6 33.5,130 32.2,132.3 29.5,132.3 28.1,130 "/>
<polygon class="st0" points="38.5,127.6 41.2,127.6 42.5,130 41.2,132.3 38.5,132.3 37.1,130 "/>
<polygon class="st0" points="65.5,127.6 68.2,127.6 69.6,130 68.2,132.3 65.5,132.3 64.1,130 "/>
<polygon class="st0" points="92.5,127.6 95.2,127.6 96.6,130 95.2,132.3 92.5,132.3 91.2,130 "/>
<polygon class="st0" points="101.6,127.6 104.2,127.6 105.6,130 104.2,132.3 101.6,132.3 100.2,130 "/>
<polygon class="st0" points="164.6,127.6 167.4,127.6 168.7,130 167.4,132.3 164.6,132.3 163.3,130 "/>
<polygon class="st0" points="173.7,127.6 176.4,127.6 177.7,130 176.4,132.3 173.7,132.3 172.3,130 "/>
<polygon class="st0" points="182.7,127.6 185.4,127.6 186.7,130 185.4,132.3 182.7,132.3 181.3,130 "/>
<polygon class="st0" points="15.9,130.2 18.6,130.2 20,132.6 18.6,134.9 15.9,134.9 14.6,132.6 "/>
<polygon class="st0" points="24.9,130.2 27.6,130.2 29,132.6 27.6,134.9 24.9,134.9 23.6,132.6 "/>
<polygon class="st0" points="34,130.2 36.7,130.2 38,132.6 36.7,134.9 34,134.9 32.6,132.6 "/>
<polygon class="st0" points="43,130.2 45.7,130.2 47,132.6 45.7,134.9 43,134.9 41.6,132.6 "/>
<polygon class="st0" points="88,130.2 90.7,130.2 92.1,132.6 90.7,134.9 88,134.9 86.7,132.6 "/>
<polygon class="st0" points="106.1,130.2 108.8,130.2 110.1,132.6 108.8,134.9 106.1,134.9 104.7,132.6 "/>
<polygon class="st0" points="20.4,132.8 23.1,132.8 24.5,135.2 23.1,137.5 20.4,137.5 19.1,135.2 "/>
<polygon class="st0" points="29.5,132.8 32.2,132.8 33.5,135.2 32.2,137.5 29.5,137.5 28.1,135.2 "/>
<polygon class="st0" points="38.5,132.8 41.2,132.8 42.5,135.2 41.2,137.5 38.5,137.5 37.1,135.2 "/>
<polygon class="st0" points="83.5,132.8 86.2,132.8 87.6,135.2 86.2,137.5 83.5,137.5 82.2,135.2 "/>
<polygon class="st0" points="110.6,132.8 113.3,132.8 114.6,135.2 113.3,137.5 110.6,137.5 109.2,135.2 "/>
<polygon class="st0" points="15.9,135.4 18.6,135.4 20,137.8 18.6,140.1 15.9,140.1 14.6,137.8 "/>
<polygon class="st0" points="24.9,135.4 27.6,135.4 29,137.8 27.6,140.1 24.9,140.1 23.6,137.8 "/>
<polygon class="st0" points="34,135.4 36.7,135.4 38,137.8 36.7,140.1 34,140.1 32.6,137.8 "/>
<polygon class="st0" points="106.1,135.4 108.8,135.4 110.1,137.8 108.8,140.1 106.1,140.1 104.7,137.8 "/>
<polygon class="st0" points="29.5,138 32.2,138 33.5,140.4 32.2,142.7 29.5,142.7 28.1,140.4 "/>
<polygon class="st0" points="83.5,138 86.2,138 87.6,140.4 86.2,142.7 83.5,142.7 82.2,140.4 "/>
<polygon class="st0" points="24.9,140.6 27.6,140.6 29,143 27.6,145.3 24.9,145.3 23.6,143 "/>
<polygon class="st0" points="83.5,143.2 86.2,143.2 87.6,145.6 86.2,147.9 83.5,147.9 82.2,145.6 "/>
<polygon class="st0" points="115.1,145.9 117.8,145.9 119.1,148.2 117.8,150.5 115.1,150.5 113.7,148.2 "/>
</svg>
