<svg id="Layer_1" data-name="Layer 1" xmlns="http://www.w3.org/2000/svg" viewBox="0 0 222 163"><defs><style>.cls-1{fill:#30e2ab;}</style></defs><title>europe</title><polygon class="cls-1" points="78.02 9.54 80.72 9.54 82.07 11.88 80.72 14.22 78.02 14.22 76.67 11.88 78.02 9.54"/><polygon class="cls-1" points="87.03 9.54 89.74 9.54 91.09 11.88 89.74 14.22 87.03 14.22 85.68 11.88 87.03 9.54"/><polygon class="cls-1" points="73.52 12.14 76.22 12.14 77.56 14.49 76.22 16.83 73.52 16.83 72.16 14.49 73.52 12.14"/><polygon class="cls-1" points="82.53 12.14 85.23 12.14 86.58 14.49 85.23 16.83 82.53 16.83 81.18 14.49 82.53 12.14"/><polygon class="cls-1" points="91.54 12.14 94.24 12.14 95.59 14.49 94.24 16.83 91.54 16.83 90.19 14.49 91.54 12.14"/><polygon class="cls-1" points="78.02 14.74 80.72 14.74 82.07 17.09 80.72 19.43 78.02 19.43 76.67 17.09 78.02 14.74"/><polygon class="cls-1" points="172.66 17.35 175.36 17.35 176.72 19.69 175.36 22.03 172.66 22.03 171.31 19.69 172.66 17.35"/><polygon class="cls-1" points="181.67 17.35 184.38 17.35 185.73 19.69 184.38 22.03 181.67 22.03 180.33 19.69 181.67 17.35"/><polygon class="cls-1" points="168.16 19.95 170.86 19.95 172.21 22.3 170.86 24.63 168.16 24.63 166.8 22.3 168.16 19.95"/><polygon class="cls-1" points="177.17 19.95 179.87 19.95 181.22 22.3 179.87 24.63 177.17 24.63 175.81 22.3 177.17 19.95"/><polygon class="cls-1" points="163.65 22.55 166.35 22.55 167.71 24.89 166.35 27.23 163.65 27.23 162.3 24.89 163.65 22.55"/><polygon class="cls-1" points="199.7 22.55 202.41 22.55 203.76 24.89 202.41 27.23 199.7 27.23 198.35 24.89 199.7 22.55"/><polygon class="cls-1" points="159.14 25.16 161.85 25.16 163.2 27.49 161.85 29.84 159.14 29.84 157.79 27.49 159.14 25.16"/><polygon class="cls-1" points="168.16 25.16 170.86 25.16 172.21 27.49 170.86 29.84 168.16 29.84 166.8 27.49 168.16 25.16"/><polygon class="cls-1" points="204.21 25.16 206.92 25.16 208.27 27.49 206.92 29.84 204.21 29.84 202.86 27.49 204.21 25.16"/><polygon class="cls-1" points="100.56 27.75 103.25 27.75 104.61 30.1 103.25 32.45 100.56 32.45 99.2 30.1 100.56 27.75"/><polygon class="cls-1" points="163.65 27.75 166.35 27.75 167.71 30.1 166.35 32.45 163.65 32.45 162.3 30.1 163.65 27.75"/><polygon class="cls-1" points="199.7 27.75 202.41 27.75 203.76 30.1 202.41 32.45 199.7 32.45 198.35 30.1 199.7 27.75"/><polygon class="cls-1" points="96.05 30.35 98.75 30.35 100.1 32.7 98.75 35.04 96.05 35.04 94.69 32.7 96.05 30.35"/><polygon class="cls-1" points="105.06 30.35 107.76 30.35 109.11 32.7 107.76 35.04 105.06 35.04 103.71 32.7 105.06 30.35"/><polygon class="cls-1" points="114.08 30.35 116.78 30.35 118.13 32.7 116.78 35.04 114.08 35.04 112.72 32.7 114.08 30.35"/><polygon class="cls-1" points="204.21 30.35 206.92 30.35 208.27 32.7 206.92 35.04 204.21 35.04 202.86 32.7 204.21 30.35"/><polygon class="cls-1" points="91.54 32.96 94.24 32.96 95.59 35.3 94.24 37.64 91.54 37.64 90.19 35.3 91.54 32.96"/><polygon class="cls-1" points="100.56 32.96 103.25 32.96 104.61 35.3 103.25 37.64 100.56 37.64 99.2 35.3 100.56 32.96"/><polygon class="cls-1" points="109.57 32.96 112.27 32.96 113.63 35.3 112.27 37.64 109.57 37.64 108.21 35.3 109.57 32.96"/><polygon class="cls-1" points="118.58 32.96 121.28 32.96 122.64 35.3 121.28 37.64 118.58 37.64 117.23 35.3 118.58 32.96"/><polygon class="cls-1" points="127.6 32.96 130.3 32.96 131.65 35.3 130.3 37.64 127.6 37.64 126.24 35.3 127.6 32.96"/><polygon class="cls-1" points="190.69 32.96 193.39 32.96 194.74 35.3 193.39 37.64 190.69 37.64 189.34 35.3 190.69 32.96"/><polygon class="cls-1" points="199.7 32.96 202.41 32.96 203.76 35.3 202.41 37.64 199.7 37.64 198.35 35.3 199.7 32.96"/><polygon class="cls-1" points="87.03 35.56 89.74 35.56 91.09 37.9 89.74 40.25 87.03 40.25 85.68 37.9 87.03 35.56"/><polygon class="cls-1" points="96.05 35.56 98.75 35.56 100.1 37.9 98.75 40.25 96.05 40.25 94.69 37.9 96.05 35.56"/><polygon class="cls-1" points="105.06 35.56 107.76 35.56 109.11 37.9 107.76 40.25 105.06 40.25 103.71 37.9 105.06 35.56"/><polygon class="cls-1" points="114.08 35.56 116.78 35.56 118.13 37.9 116.78 40.25 114.08 40.25 112.72 37.9 114.08 35.56"/><polygon class="cls-1" points="123.09 35.56 125.79 35.56 127.14 37.9 125.79 40.25 123.09 40.25 121.74 37.9 123.09 35.56"/><polygon class="cls-1" points="132.1 35.56 134.81 35.56 136.16 37.9 134.81 40.25 132.1 40.25 130.75 37.9 132.1 35.56"/><polygon class="cls-1" points="150.13 35.56 152.84 35.56 154.18 37.9 152.84 40.25 150.13 40.25 148.78 37.9 150.13 35.56"/><polygon class="cls-1" points="168.16 35.56 170.86 35.56 172.21 37.9 170.86 40.25 168.16 40.25 166.8 37.9 168.16 35.56"/><polygon class="cls-1" points="177.17 35.56 179.87 35.56 181.22 37.9 179.87 40.25 177.17 40.25 175.81 37.9 177.17 35.56"/><polygon class="cls-1" points="186.18 35.56 188.88 35.56 190.24 37.9 188.88 40.25 186.18 40.25 184.83 37.9 186.18 35.56"/><polygon class="cls-1" points="195.2 35.56 197.89 35.56 199.25 37.9 197.89 40.25 195.2 40.25 193.84 37.9 195.2 35.56"/><polygon class="cls-1" points="204.21 35.56 206.92 35.56 208.27 37.9 206.92 40.25 204.21 40.25 202.86 37.9 204.21 35.56"/><polygon class="cls-1" points="82.53 38.16 85.23 38.16 86.58 40.51 85.23 42.84 82.53 42.84 81.18 40.51 82.53 38.16"/><polygon class="cls-1" points="91.54 38.16 94.24 38.16 95.59 40.51 94.24 42.84 91.54 42.84 90.19 40.51 91.54 38.16"/><polygon class="cls-1" points="100.56 38.16 103.25 38.16 104.61 40.51 103.25 42.84 100.56 42.84 99.2 40.51 100.56 38.16"/><polygon class="cls-1" points="109.57 38.16 112.27 38.16 113.63 40.51 112.27 42.84 109.57 42.84 108.21 40.51 109.57 38.16"/><polygon class="cls-1" points="118.58 38.16 121.28 38.16 122.64 40.51 121.28 42.84 118.58 42.84 117.23 40.51 118.58 38.16"/><polygon class="cls-1" points="127.6 38.16 130.3 38.16 131.65 40.51 130.3 42.84 127.6 42.84 126.24 40.51 127.6 38.16"/><polygon class="cls-1" points="136.61 38.16 139.31 38.16 140.66 40.51 139.31 42.84 136.61 42.84 135.25 40.51 136.61 38.16"/><polygon class="cls-1" points="154.63 38.16 157.34 38.16 158.69 40.51 157.34 42.84 154.63 42.84 153.28 40.51 154.63 38.16"/><polygon class="cls-1" points="163.65 38.16 166.35 38.16 167.71 40.51 166.35 42.84 163.65 42.84 162.3 40.51 163.65 38.16"/><polygon class="cls-1" points="172.66 38.16 175.36 38.16 176.72 40.51 175.36 42.84 172.66 42.84 171.31 40.51 172.66 38.16"/><polygon class="cls-1" points="181.67 38.16 184.38 38.16 185.73 40.51 184.38 42.84 181.67 42.84 180.33 40.51 181.67 38.16"/><polygon class="cls-1" points="190.69 38.16 193.39 38.16 194.74 40.51 193.39 42.84 190.69 42.84 189.34 40.51 190.69 38.16"/><polygon class="cls-1" points="199.7 38.16 202.41 38.16 203.76 40.51 202.41 42.84 199.7 42.84 198.35 40.51 199.7 38.16"/><polygon class="cls-1" points="208.72 38.16 211.42 38.16 212.77 40.51 211.42 42.84 208.72 42.84 207.36 40.51 208.72 38.16"/><polygon class="cls-1" points="78.02 40.76 80.72 40.76 82.07 43.11 80.72 45.44 78.02 45.44 76.67 43.11 78.02 40.76"/><polygon class="cls-1" points="87.03 40.76 89.74 40.76 91.09 43.11 89.74 45.44 87.03 45.44 85.68 43.11 87.03 40.76"/><polygon class="cls-1" points="96.05 40.76 98.75 40.76 100.1 43.11 98.75 45.44 96.05 45.44 94.69 43.11 96.05 40.76"/><polygon class="cls-1" points="105.06 40.76 107.76 40.76 109.11 43.11 107.76 45.44 105.06 45.44 103.71 43.11 105.06 40.76"/><polygon class="cls-1" points="114.08 40.76 116.78 40.76 118.13 43.11 116.78 45.44 114.08 45.44 112.72 43.11 114.08 40.76"/><polygon class="cls-1" points="123.09 40.76 125.79 40.76 127.14 43.11 125.79 45.44 123.09 45.44 121.74 43.11 123.09 40.76"/><polygon class="cls-1" points="132.1 40.76 134.81 40.76 136.16 43.11 134.81 45.44 132.1 45.44 130.75 43.11 132.1 40.76"/><polygon class="cls-1" points="141.12 40.76 143.82 40.76 145.17 43.11 143.82 45.44 141.12 45.44 139.77 43.11 141.12 40.76"/><polygon class="cls-1" points="150.13 40.76 152.84 40.76 154.18 43.11 152.84 45.44 150.13 45.44 148.78 43.11 150.13 40.76"/><polygon class="cls-1" points="159.14 40.76 161.85 40.76 163.2 43.11 161.85 45.44 159.14 45.44 157.79 43.11 159.14 40.76"/><polygon class="cls-1" points="168.16 40.76 170.86 40.76 172.21 43.11 170.86 45.44 168.16 45.44 166.8 43.11 168.16 40.76"/><polygon class="cls-1" points="177.17 40.76 179.87 40.76 181.22 43.11 179.87 45.44 177.17 45.44 175.81 43.11 177.17 40.76"/><polygon class="cls-1" points="186.18 40.76 188.88 40.76 190.24 43.11 188.88 45.44 186.18 45.44 184.83 43.11 186.18 40.76"/><polygon class="cls-1" points="195.2 40.76 197.89 40.76 199.25 43.11 197.89 45.44 195.2 45.44 193.84 43.11 195.2 40.76"/><polygon class="cls-1" points="204.21 40.76 206.92 40.76 208.27 43.11 206.92 45.44 204.21 45.44 202.86 43.11 204.21 40.76"/><polygon class="cls-1" points="82.53 43.37 85.23 43.37 86.58 45.71 85.23 48.05 82.53 48.05 81.18 45.71 82.53 43.37"/><polygon class="cls-1" points="91.54 43.37 94.24 43.37 95.59 45.71 94.24 48.05 91.54 48.05 90.19 45.71 91.54 43.37"/><polygon class="cls-1" points="100.56 43.37 103.25 43.37 104.61 45.71 103.25 48.05 100.56 48.05 99.2 45.71 100.56 43.37"/><polygon class="cls-1" points="109.57 43.37 112.27 43.37 113.63 45.71 112.27 48.05 109.57 48.05 108.21 45.71 109.57 43.37"/><polygon class="cls-1" points="118.58 43.37 121.28 43.37 122.64 45.71 121.28 48.05 118.58 48.05 117.23 45.71 118.58 43.37"/><polygon class="cls-1" points="136.61 43.37 139.31 43.37 140.66 45.71 139.31 48.05 136.61 48.05 135.25 45.71 136.61 43.37"/><polygon class="cls-1" points="145.63 43.37 148.32 43.37 149.68 45.71 148.32 48.05 145.63 48.05 144.27 45.71 145.63 43.37"/><polygon class="cls-1" points="154.63 43.37 157.34 43.37 158.69 45.71 157.34 48.05 154.63 48.05 153.28 45.71 154.63 43.37"/><polygon class="cls-1" points="163.65 43.37 166.35 43.37 167.71 45.71 166.35 48.05 163.65 48.05 162.3 45.71 163.65 43.37"/><polygon class="cls-1" points="172.66 43.37 175.36 43.37 176.72 45.71 175.36 48.05 172.66 48.05 171.31 45.71 172.66 43.37"/><polygon class="cls-1" points="181.67 43.37 184.38 43.37 185.73 45.71 184.38 48.05 181.67 48.05 180.33 45.71 181.67 43.37"/><polygon class="cls-1" points="190.69 43.37 193.39 43.37 194.74 45.71 193.39 48.05 190.69 48.05 189.34 45.71 190.69 43.37"/><polygon class="cls-1" points="199.7 43.37 202.41 43.37 203.76 45.71 202.41 48.05 199.7 48.05 198.35 45.71 199.7 43.37"/><polygon class="cls-1" points="78.02 45.97 80.72 45.97 82.07 48.31 80.72 50.65 78.02 50.65 76.67 48.31 78.02 45.97"/><polygon class="cls-1" points="87.03 45.97 89.74 45.97 91.09 48.31 89.74 50.65 87.03 50.65 85.68 48.31 87.03 45.97"/><polygon class="cls-1" points="96.05 45.97 98.75 45.97 100.1 48.31 98.75 50.65 96.05 50.65 94.69 48.31 96.05 45.97"/><polygon class="cls-1" points="105.06 45.97 107.76 45.97 109.11 48.31 107.76 50.65 105.06 50.65 103.71 48.31 105.06 45.97"/><polygon class="cls-1" points="114.08 45.97 116.78 45.97 118.13 48.31 116.78 50.65 114.08 50.65 112.72 48.31 114.08 45.97"/><polygon class="cls-1" points="123.09 45.97 125.79 45.97 127.14 48.31 125.79 50.65 123.09 50.65 121.74 48.31 123.09 45.97"/><polygon class="cls-1" points="141.12 45.97 143.82 45.97 145.17 48.31 143.82 50.65 141.12 50.65 139.77 48.31 141.12 45.97"/><polygon class="cls-1" points="150.13 45.97 152.84 45.97 154.18 48.31 152.84 50.65 150.13 50.65 148.78 48.31 150.13 45.97"/><polygon class="cls-1" points="159.14 45.97 161.85 45.97 163.2 48.31 161.85 50.65 159.14 50.65 157.79 48.31 159.14 45.97"/><polygon class="cls-1" points="168.16 45.97 170.86 45.97 172.21 48.31 170.86 50.65 168.16 50.65 166.8 48.31 168.16 45.97"/><polygon class="cls-1" points="177.17 45.97 179.87 45.97 181.22 48.31 179.87 50.65 177.17 50.65 175.81 48.31 177.17 45.97"/><polygon class="cls-1" points="186.18 45.97 188.88 45.97 190.24 48.31 188.88 50.65 186.18 50.65 184.83 48.31 186.18 45.97"/><polygon class="cls-1" points="195.2 45.97 197.89 45.97 199.25 48.31 197.89 50.65 195.2 50.65 193.84 48.31 195.2 45.97"/><polygon class="cls-1" points="204.21 45.97 206.92 45.97 208.27 48.31 206.92 50.65 204.21 50.65 202.86 48.31 204.21 45.97"/><polygon class="cls-1" points="73.52 48.57 76.22 48.57 77.56 50.91 76.22 53.26 73.52 53.26 72.16 50.91 73.52 48.57"/><polygon class="cls-1" points="82.53 48.57 85.23 48.57 86.58 50.91 85.23 53.26 82.53 53.26 81.18 50.91 82.53 48.57"/><polygon class="cls-1" points="91.54 48.57 94.24 48.57 95.59 50.91 94.24 53.26 91.54 53.26 90.19 50.91 91.54 48.57"/><polygon class="cls-1" points="100.56 48.57 103.25 48.57 104.61 50.91 103.25 53.26 100.56 53.26 99.2 50.91 100.56 48.57"/><polygon class="cls-1" points="109.57 48.57 112.27 48.57 113.63 50.91 112.27 53.26 109.57 53.26 108.21 50.91 109.57 48.57"/><polygon class="cls-1" points="118.58 48.57 121.28 48.57 122.64 50.91 121.28 53.26 118.58 53.26 117.23 50.91 118.58 48.57"/><polygon class="cls-1" points="127.6 48.57 130.3 48.57 131.65 50.91 130.3 53.26 127.6 53.26 126.24 50.91 127.6 48.57"/><polygon class="cls-1" points="136.61 48.57 139.31 48.57 140.66 50.91 139.31 53.26 136.61 53.26 135.25 50.91 136.61 48.57"/><polygon class="cls-1" points="145.63 48.57 148.32 48.57 149.68 50.91 148.32 53.26 145.63 53.26 144.27 50.91 145.63 48.57"/><polygon class="cls-1" points="154.63 48.57 157.34 48.57 158.69 50.91 157.34 53.26 154.63 53.26 153.28 50.91 154.63 48.57"/><polygon class="cls-1" points="163.65 48.57 166.35 48.57 167.71 50.91 166.35 53.26 163.65 53.26 162.3 50.91 163.65 48.57"/><polygon class="cls-1" points="172.66 48.57 175.36 48.57 176.72 50.91 175.36 53.26 172.66 53.26 171.31 50.91 172.66 48.57"/><polygon class="cls-1" points="181.67 48.57 184.38 48.57 185.73 50.91 184.38 53.26 181.67 53.26 180.33 50.91 181.67 48.57"/><polygon class="cls-1" points="190.69 48.57 193.39 48.57 194.74 50.91 193.39 53.26 190.69 53.26 189.34 50.91 190.69 48.57"/><polygon class="cls-1" points="69.01 51.17 71.71 51.17 73.06 53.52 71.71 55.86 69.01 55.86 67.66 53.52 69.01 51.17"/><polygon class="cls-1" points="78.02 51.17 80.72 51.17 82.07 53.52 80.72 55.86 78.02 55.86 76.67 53.52 78.02 51.17"/><polygon class="cls-1" points="87.03 51.17 89.74 51.17 91.09 53.52 89.74 55.86 87.03 55.86 85.68 53.52 87.03 51.17"/><polygon class="cls-1" points="105.06 51.17 107.76 51.17 109.11 53.52 107.76 55.86 105.06 55.86 103.71 53.52 105.06 51.17"/><polygon class="cls-1" points="114.08 51.17 116.78 51.17 118.13 53.52 116.78 55.86 114.08 55.86 112.72 53.52 114.08 51.17"/><polygon class="cls-1" points="123.09 51.17 125.79 51.17 127.14 53.52 125.79 55.86 123.09 55.86 121.74 53.52 123.09 51.17"/><polygon class="cls-1" points="132.1 51.17 134.81 51.17 136.16 53.52 134.81 55.86 132.1 55.86 130.75 53.52 132.1 51.17"/><polygon class="cls-1" points="141.12 51.17 143.82 51.17 145.17 53.52 143.82 55.86 141.12 55.86 139.77 53.52 141.12 51.17"/><polygon class="cls-1" points="150.13 51.17 152.84 51.17 154.18 53.52 152.84 55.86 150.13 55.86 148.78 53.52 150.13 51.17"/><polygon class="cls-1" points="159.14 51.17 161.85 51.17 163.2 53.52 161.85 55.86 159.14 55.86 157.79 53.52 159.14 51.17"/><polygon class="cls-1" points="168.16 51.17 170.86 51.17 172.21 53.52 170.86 55.86 168.16 55.86 166.8 53.52 168.16 51.17"/><polygon class="cls-1" points="177.17 51.17 179.87 51.17 181.22 53.52 179.87 55.86 177.17 55.86 175.81 53.52 177.17 51.17"/><polygon class="cls-1" points="186.18 51.17 188.88 51.17 190.24 53.52 188.88 55.86 186.18 55.86 184.83 53.52 186.18 51.17"/><polygon class="cls-1" points="195.2 51.17 197.89 51.17 199.25 53.52 197.89 55.86 195.2 55.86 193.84 53.52 195.2 51.17"/><polygon class="cls-1" points="64.5 53.77 67.2 53.77 68.55 56.12 67.2 58.46 64.5 58.46 63.14 56.12 64.5 53.77"/><polygon class="cls-1" points="73.52 53.77 76.22 53.77 77.56 56.12 76.22 58.46 73.52 58.46 72.16 56.12 73.52 53.77"/><polygon class="cls-1" points="82.53 53.77 85.23 53.77 86.58 56.12 85.23 58.46 82.53 58.46 81.18 56.12 82.53 53.77"/><polygon class="cls-1" points="100.56 53.77 103.25 53.77 104.61 56.12 103.25 58.46 100.56 58.46 99.2 56.12 100.56 53.77"/><polygon class="cls-1" points="109.57 53.77 112.27 53.77 113.63 56.12 112.27 58.46 109.57 58.46 108.21 56.12 109.57 53.77"/><polygon class="cls-1" points="118.58 53.77 121.28 53.77 122.64 56.12 121.28 58.46 118.58 58.46 117.23 56.12 118.58 53.77"/><polygon class="cls-1" points="127.6 53.77 130.3 53.77 131.65 56.12 130.3 58.46 127.6 58.46 126.24 56.12 127.6 53.77"/><polygon class="cls-1" points="136.61 53.77 139.31 53.77 140.66 56.12 139.31 58.46 136.61 58.46 135.25 56.12 136.61 53.77"/><polygon class="cls-1" points="145.63 53.77 148.32 53.77 149.68 56.12 148.32 58.46 145.63 58.46 144.27 56.12 145.63 53.77"/><polygon class="cls-1" points="154.63 53.77 157.34 53.77 158.69 56.12 157.34 58.46 154.63 58.46 153.28 56.12 154.63 53.77"/><polygon class="cls-1" points="163.65 53.77 166.35 53.77 167.71 56.12 166.35 58.46 163.65 58.46 162.3 56.12 163.65 53.77"/><polygon class="cls-1" points="172.66 53.77 175.36 53.77 176.72 56.12 175.36 58.46 172.66 58.46 171.31 56.12 172.66 53.77"/><polygon class="cls-1" points="181.67 53.77 184.38 53.77 185.73 56.12 184.38 58.46 181.67 58.46 180.33 56.12 181.67 53.77"/><polygon class="cls-1" points="190.69 53.77 193.39 53.77 194.74 56.12 193.39 58.46 190.69 58.46 189.34 56.12 190.69 53.77"/><polygon class="cls-1" points="59.99 56.38 62.7 56.38 64.05 58.72 62.7 61.06 59.99 61.06 58.64 58.72 59.99 56.38"/><polygon class="cls-1" points="69.01 56.38 71.71 56.38 73.06 58.72 71.71 61.06 69.01 61.06 67.66 58.72 69.01 56.38"/><polygon class="cls-1" points="78.02 56.38 80.72 56.38 82.07 58.72 80.72 61.06 78.02 61.06 76.67 58.72 78.02 56.38"/><polygon class="cls-1" points="87.03 56.38 89.74 56.38 91.09 58.72 89.74 61.06 87.03 61.06 85.68 58.72 87.03 56.38"/><polygon class="cls-1" points="105.06 56.38 107.76 56.38 109.11 58.72 107.76 61.06 105.06 61.06 103.71 58.72 105.06 56.38"/><polygon class="cls-1" points="114.08 56.38 116.78 56.38 118.13 58.72 116.78 61.06 114.08 61.06 112.72 58.72 114.08 56.38"/><polygon class="cls-1" points="123.09 56.38 125.79 56.38 127.14 58.72 125.79 61.06 123.09 61.06 121.74 58.72 123.09 56.38"/><polygon class="cls-1" points="132.1 56.38 134.81 56.38 136.16 58.72 134.81 61.06 132.1 61.06 130.75 58.72 132.1 56.38"/><polygon class="cls-1" points="141.12 56.38 143.82 56.38 145.17 58.72 143.82 61.06 141.12 61.06 139.77 58.72 141.12 56.38"/><polygon class="cls-1" points="150.13 56.38 152.84 56.38 154.18 58.72 152.84 61.06 150.13 61.06 148.78 58.72 150.13 56.38"/><polygon class="cls-1" points="159.14 56.38 161.85 56.38 163.2 58.72 161.85 61.06 159.14 61.06 157.79 58.72 159.14 56.38"/><polygon class="cls-1" points="168.16 56.38 170.86 56.38 172.21 58.72 170.86 61.06 168.16 61.06 166.8 58.72 168.16 56.38"/><polygon class="cls-1" points="177.17 56.38 179.87 56.38 181.22 58.72 179.87 61.06 177.17 61.06 175.81 58.72 177.17 56.38"/><polygon class="cls-1" points="186.18 56.38 188.88 56.38 190.24 58.72 188.88 61.06 186.18 61.06 184.83 58.72 186.18 56.38"/><polygon class="cls-1" points="64.5 58.98 67.2 58.98 68.55 61.32 67.2 63.67 64.5 63.67 63.14 61.32 64.5 58.98"/><polygon class="cls-1" points="73.52 58.98 76.22 58.98 77.56 61.32 76.22 63.67 73.52 63.67 72.16 61.32 73.52 58.98"/><polygon class="cls-1" points="82.53 58.98 85.23 58.98 86.58 61.32 85.23 63.67 82.53 63.67 81.18 61.32 82.53 58.98"/><polygon class="cls-1" points="100.56 58.98 103.25 58.98 104.61 61.32 103.25 63.67 100.56 63.67 99.2 61.32 100.56 58.98"/><polygon class="cls-1" points="109.57 58.98 112.27 58.98 113.63 61.32 112.27 63.67 109.57 63.67 108.21 61.32 109.57 58.98"/><polygon class="cls-1" points="118.58 58.98 121.28 58.98 122.64 61.32 121.28 63.67 118.58 63.67 117.23 61.32 118.58 58.98"/><polygon class="cls-1" points="127.6 58.98 130.3 58.98 131.65 61.32 130.3 63.67 127.6 63.67 126.24 61.32 127.6 58.98"/><polygon class="cls-1" points="136.61 58.98 139.31 58.98 140.66 61.32 139.31 63.67 136.61 63.67 135.25 61.32 136.61 58.98"/><polygon class="cls-1" points="145.63 58.98 148.32 58.98 149.68 61.32 148.32 63.67 145.63 63.67 144.27 61.32 145.63 58.98"/><polygon class="cls-1" points="154.63 58.98 157.34 58.98 158.69 61.32 157.34 63.67 154.63 63.67 153.28 61.32 154.63 58.98"/><polygon class="cls-1" points="163.65 58.98 166.35 58.98 167.71 61.32 166.35 63.67 163.65 63.67 162.3 61.32 163.65 58.98"/><polygon class="cls-1" points="172.66 58.98 175.36 58.98 176.72 61.32 175.36 63.67 172.66 63.67 171.31 61.32 172.66 58.98"/><polygon class="cls-1" points="181.67 58.98 184.38 58.98 185.73 61.32 184.38 63.67 181.67 63.67 180.33 61.32 181.67 58.98"/><polygon class="cls-1" points="59.99 61.58 62.7 61.58 64.05 63.93 62.7 66.26 59.99 66.26 58.64 63.93 59.99 61.58"/><polygon class="cls-1" points="69.01 61.58 71.71 61.58 73.06 63.93 71.71 66.26 69.01 66.26 67.66 63.93 69.01 61.58"/><polygon class="cls-1" points="78.02 61.58 80.72 61.58 82.07 63.93 80.72 66.26 78.02 66.26 76.67 63.93 78.02 61.58"/><polygon class="cls-1" points="87.03 61.58 89.74 61.58 91.09 63.93 89.74 66.26 87.03 66.26 85.68 63.93 87.03 61.58"/><polygon class="cls-1" points="105.06 61.58 107.76 61.58 109.11 63.93 107.76 66.26 105.06 66.26 103.71 63.93 105.06 61.58"/><polygon class="cls-1" points="114.08 61.58 116.78 61.58 118.13 63.93 116.78 66.26 114.08 66.26 112.72 63.93 114.08 61.58"/><polygon class="cls-1" points="123.09 61.58 125.79 61.58 127.14 63.93 125.79 66.26 123.09 66.26 121.74 63.93 123.09 61.58"/><polygon class="cls-1" points="132.1 61.58 134.81 61.58 136.16 63.93 134.81 66.26 132.1 66.26 130.75 63.93 132.1 61.58"/><polygon class="cls-1" points="141.12 61.58 143.82 61.58 145.17 63.93 143.82 66.26 141.12 66.26 139.77 63.93 141.12 61.58"/><polygon class="cls-1" points="150.13 61.58 152.84 61.58 154.18 63.93 152.84 66.26 150.13 66.26 148.78 63.93 150.13 61.58"/><polygon class="cls-1" points="159.14 61.58 161.85 61.58 163.2 63.93 161.85 66.26 159.14 66.26 157.79 63.93 159.14 61.58"/><polygon class="cls-1" points="168.16 61.58 170.86 61.58 172.21 63.93 170.86 66.26 168.16 66.26 166.8 63.93 168.16 61.58"/><polygon class="cls-1" points="177.17 61.58 179.87 61.58 181.22 63.93 179.87 66.26 177.17 66.26 175.81 63.93 177.17 61.58"/><polygon class="cls-1" points="186.18 61.58 188.88 61.58 190.24 63.93 188.88 66.26 186.18 66.26 184.83 63.93 186.18 61.58"/><polygon class="cls-1" points="64.5 64.19 67.2 64.19 68.55 66.53 67.2 68.86 64.5 68.86 63.14 66.53 64.5 64.19"/><polygon class="cls-1" points="73.52 64.19 76.22 64.19 77.56 66.53 76.22 68.86 73.52 68.86 72.16 66.53 73.52 64.19"/><polygon class="cls-1" points="82.53 64.19 85.23 64.19 86.58 66.53 85.23 68.86 82.53 68.86 81.18 66.53 82.53 64.19"/><polygon class="cls-1" points="100.56 64.19 103.25 64.19 104.61 66.53 103.25 68.86 100.56 68.86 99.2 66.53 100.56 64.19"/><polygon class="cls-1" points="109.57 64.19 112.27 64.19 113.63 66.53 112.27 68.86 109.57 68.86 108.21 66.53 109.57 64.19"/><polygon class="cls-1" points="118.58 64.19 121.28 64.19 122.64 66.53 121.28 68.86 118.58 68.86 117.23 66.53 118.58 64.19"/><polygon class="cls-1" points="127.6 64.19 130.3 64.19 131.65 66.53 130.3 68.86 127.6 68.86 126.24 66.53 127.6 64.19"/><polygon class="cls-1" points="136.61 64.19 139.31 64.19 140.66 66.53 139.31 68.86 136.61 68.86 135.25 66.53 136.61 64.19"/><polygon class="cls-1" points="145.63 64.19 148.32 64.19 149.68 66.53 148.32 68.86 145.63 68.86 144.27 66.53 145.63 64.19"/><polygon class="cls-1" points="154.63 64.19 157.34 64.19 158.69 66.53 157.34 68.86 154.63 68.86 153.28 66.53 154.63 64.19"/><polygon class="cls-1" points="163.65 64.19 166.35 64.19 167.71 66.53 166.35 68.86 163.65 68.86 162.3 66.53 163.65 64.19"/><polygon class="cls-1" points="172.66 64.19 175.36 64.19 176.72 66.53 175.36 68.86 172.66 68.86 171.31 66.53 172.66 64.19"/><polygon class="cls-1" points="181.67 64.19 184.38 64.19 185.73 66.53 184.38 68.86 181.67 68.86 180.33 66.53 181.67 64.19"/><polygon class="cls-1" points="78.02 66.78 80.72 66.78 82.07 69.13 80.72 71.47 78.02 71.47 76.67 69.13 78.02 66.78"/><polygon class="cls-1" points="87.03 66.78 89.74 66.78 91.09 69.13 89.74 71.47 87.03 71.47 85.68 69.13 87.03 66.78"/><polygon class="cls-1" points="105.06 66.78 107.76 66.78 109.11 69.13 107.76 71.47 105.06 71.47 103.71 69.13 105.06 66.78"/><polygon class="cls-1" points="114.08 66.78 116.78 66.78 118.13 69.13 116.78 71.47 114.08 71.47 112.72 69.13 114.08 66.78"/><polygon class="cls-1" points="123.09 66.78 125.79 66.78 127.14 69.13 125.79 71.47 123.09 71.47 121.74 69.13 123.09 66.78"/><polygon class="cls-1" points="132.1 66.78 134.81 66.78 136.16 69.13 134.81 71.47 132.1 71.47 130.75 69.13 132.1 66.78"/><polygon class="cls-1" points="141.12 66.78 143.82 66.78 145.17 69.13 143.82 71.47 141.12 71.47 139.77 69.13 141.12 66.78"/><polygon class="cls-1" points="150.13 66.78 152.84 66.78 154.18 69.13 152.84 71.47 150.13 71.47 148.78 69.13 150.13 66.78"/><polygon class="cls-1" points="159.14 66.78 161.85 66.78 163.2 69.13 161.85 71.47 159.14 71.47 157.79 69.13 159.14 66.78"/><polygon class="cls-1" points="168.16 66.78 170.86 66.78 172.21 69.13 170.86 71.47 168.16 71.47 166.8 69.13 168.16 66.78"/><polygon class="cls-1" points="177.17 66.78 179.87 66.78 181.22 69.13 179.87 71.47 177.17 71.47 175.81 69.13 177.17 66.78"/><polygon class="cls-1" points="186.18 66.78 188.88 66.78 190.24 69.13 188.88 71.47 186.18 71.47 184.83 69.13 186.18 66.78"/><polygon class="cls-1" points="82.53 69.39 85.23 69.39 86.58 71.73 85.23 74.07 82.53 74.07 81.18 71.73 82.53 69.39"/><polygon class="cls-1" points="100.56 69.39 103.25 69.39 104.61 71.73 103.25 74.07 100.56 74.07 99.2 71.73 100.56 69.39"/><polygon class="cls-1" points="109.57 69.39 112.27 69.39 113.63 71.73 112.27 74.07 109.57 74.07 108.21 71.73 109.57 69.39"/><polygon class="cls-1" points="118.58 69.39 121.28 69.39 122.64 71.73 121.28 74.07 118.58 74.07 117.23 71.73 118.58 69.39"/><polygon class="cls-1" points="127.6 69.39 130.3 69.39 131.65 71.73 130.3 74.07 127.6 74.07 126.24 71.73 127.6 69.39"/><polygon class="cls-1" points="136.61 69.39 139.31 69.39 140.66 71.73 139.31 74.07 136.61 74.07 135.25 71.73 136.61 69.39"/><polygon class="cls-1" points="145.63 69.39 148.32 69.39 149.68 71.73 148.32 74.07 145.63 74.07 144.27 71.73 145.63 69.39"/><polygon class="cls-1" points="154.63 69.39 157.34 69.39 158.69 71.73 157.34 74.07 154.63 74.07 153.28 71.73 154.63 69.39"/><polygon class="cls-1" points="163.65 69.39 166.35 69.39 167.71 71.73 166.35 74.07 163.65 74.07 162.3 71.73 163.65 69.39"/><polygon class="cls-1" points="172.66 69.39 175.36 69.39 176.72 71.73 175.36 74.07 172.66 74.07 171.31 71.73 172.66 69.39"/><polygon class="cls-1" points="181.67 69.39 184.38 69.39 185.73 71.73 184.38 74.07 181.67 74.07 180.33 71.73 181.67 69.39"/><polygon class="cls-1" points="32.95 71.99 35.66 71.99 37.01 74.33 35.66 76.67 32.95 76.67 31.6 74.33 32.95 71.99"/><polygon class="cls-1" points="69.01 71.99 71.71 71.99 73.06 74.33 71.71 76.67 69.01 76.67 67.66 74.33 69.01 71.99"/><polygon class="cls-1" points="105.06 71.99 107.76 71.99 109.11 74.33 107.76 76.67 105.06 76.67 103.71 74.33 105.06 71.99"/><polygon class="cls-1" points="114.08 71.99 116.78 71.99 118.13 74.33 116.78 76.67 114.08 76.67 112.72 74.33 114.08 71.99"/><polygon class="cls-1" points="123.09 71.99 125.79 71.99 127.14 74.33 125.79 76.67 123.09 76.67 121.74 74.33 123.09 71.99"/><polygon class="cls-1" points="132.1 71.99 134.81 71.99 136.16 74.33 134.81 76.67 132.1 76.67 130.75 74.33 132.1 71.99"/><polygon class="cls-1" points="141.12 71.99 143.82 71.99 145.17 74.33 143.82 76.67 141.12 76.67 139.77 74.33 141.12 71.99"/><polygon class="cls-1" points="150.13 71.99 152.84 71.99 154.18 74.33 152.84 76.67 150.13 76.67 148.78 74.33 150.13 71.99"/><polygon class="cls-1" points="159.14 71.99 161.85 71.99 163.2 74.33 161.85 76.67 159.14 76.67 157.79 74.33 159.14 71.99"/><polygon class="cls-1" points="168.16 71.99 170.86 71.99 172.21 74.33 170.86 76.67 168.16 76.67 166.8 74.33 168.16 71.99"/><polygon class="cls-1" points="177.17 71.99 179.87 71.99 181.22 74.33 179.87 76.67 177.17 76.67 175.81 74.33 177.17 71.99"/><polygon class="cls-1" points="186.18 71.99 188.88 71.99 190.24 74.33 188.88 76.67 186.18 76.67 184.83 74.33 186.18 71.99"/><polygon class="cls-1" points="37.46 74.59 40.16 74.59 41.51 76.94 40.16 79.27 37.46 79.27 36.1 76.94 37.46 74.59"/><polygon class="cls-1" points="28.45 69.39 31.15 69.39 32.5 71.73 31.15 74.06 28.45 74.06 27.09 71.73 28.45 69.39"/><polygon class="cls-1" points="73.52 74.59 76.22 74.59 77.56 76.94 76.22 79.27 73.52 79.27 72.16 76.94 73.52 74.59"/><polygon class="cls-1" points="100.56 74.59 103.25 74.59 104.61 76.94 103.25 79.27 100.56 79.27 99.2 76.94 100.56 74.59"/><polygon class="cls-1" points="109.57 74.59 112.27 74.59 113.63 76.94 112.27 79.27 109.57 79.27 108.21 76.94 109.57 74.59"/><polygon class="cls-1" points="118.58 74.59 121.28 74.59 122.64 76.94 121.28 79.27 118.58 79.27 117.23 76.94 118.58 74.59"/><polygon class="cls-1" points="127.6 74.59 130.3 74.59 131.65 76.94 130.3 79.27 127.6 79.27 126.24 76.94 127.6 74.59"/><polygon class="cls-1" points="136.61 74.59 139.31 74.59 140.66 76.94 139.31 79.27 136.61 79.27 135.25 76.94 136.61 74.59"/><polygon class="cls-1" points="145.63 74.59 148.32 74.59 149.68 76.94 148.32 79.27 145.63 79.27 144.27 76.94 145.63 74.59"/><polygon class="cls-1" points="154.63 74.59 157.34 74.59 158.69 76.94 157.34 79.27 154.63 79.27 153.28 76.94 154.63 74.59"/><polygon class="cls-1" points="163.65 74.59 166.35 74.59 167.71 76.94 166.35 79.27 163.65 79.27 162.3 76.94 163.65 74.59"/><polygon class="cls-1" points="172.66 74.59 175.36 74.59 176.72 76.94 175.36 79.27 172.66 79.27 171.31 76.94 172.66 74.59"/><polygon class="cls-1" points="181.67 74.59 184.38 74.59 185.73 76.94 184.38 79.27 181.67 79.27 180.33 76.94 181.67 74.59"/><polygon class="cls-1" points="23.94 77.19 26.64 77.19 28 79.53 26.64 81.88 23.94 81.88 22.59 79.53 23.94 77.19"/><polygon class="cls-1" points="32.95 77.19 35.66 77.19 37.01 79.53 35.66 81.88 32.95 81.88 31.6 79.53 32.95 77.19"/><polygon class="cls-1" points="32.95 66.78 35.66 66.78 37.01 69.13 35.66 71.47 32.95 71.47 31.6 69.13 32.95 66.78"/><polygon class="cls-1" points="69.01 77.19 71.71 77.19 73.06 79.53 71.71 81.88 69.01 81.88 67.66 79.53 69.01 77.19"/><polygon class="cls-1" points="78.02 77.19 80.72 77.19 82.07 79.53 80.72 81.88 78.02 81.88 76.67 79.53 78.02 77.19"/><polygon class="cls-1" points="87.03 77.19 89.74 77.19 91.09 79.53 89.74 81.88 87.03 81.88 85.68 79.53 87.03 77.19"/><polygon class="cls-1" points="96.05 77.19 98.75 77.19 100.1 79.53 98.75 81.88 96.05 81.88 94.69 79.53 96.05 77.19"/><polygon class="cls-1" points="105.06 77.19 107.76 77.19 109.11 79.53 107.76 81.88 105.06 81.88 103.71 79.53 105.06 77.19"/><polygon class="cls-1" points="114.08 77.19 116.78 77.19 118.13 79.53 116.78 81.88 114.08 81.88 112.72 79.53 114.08 77.19"/><polygon class="cls-1" points="123.09 77.19 125.79 77.19 127.14 79.53 125.79 81.88 123.09 81.88 121.74 79.53 123.09 77.19"/><polygon class="cls-1" points="132.1 77.19 134.81 77.19 136.16 79.53 134.81 81.88 132.1 81.88 130.75 79.53 132.1 77.19"/><polygon class="cls-1" points="141.12 77.19 143.82 77.19 145.17 79.53 143.82 81.88 141.12 81.88 139.77 79.53 141.12 77.19"/><polygon class="cls-1" points="150.13 77.19 152.84 77.19 154.18 79.53 152.84 81.88 150.13 81.88 148.78 79.53 150.13 77.19"/><polygon class="cls-1" points="159.14 77.19 161.85 77.19 163.2 79.53 161.85 81.88 159.14 81.88 157.79 79.53 159.14 77.19"/><polygon class="cls-1" points="168.16 77.19 170.86 77.19 172.21 79.53 170.86 81.88 168.16 81.88 166.8 79.53 168.16 77.19"/><polygon class="cls-1" points="177.17 77.19 179.87 77.19 181.22 79.53 179.87 81.88 177.17 81.88 175.81 79.53 177.17 77.19"/><polygon class="cls-1" points="186.18 77.19 188.88 77.19 190.24 79.53 188.88 81.88 186.18 81.88 184.83 79.53 186.18 77.19"/><polygon class="cls-1" points="19.43 79.79 22.13 79.79 23.48 82.14 22.13 84.48 19.43 84.48 18.08 82.14 19.43 79.79"/><polygon class="cls-1" points="37.46 79.79 40.16 79.79 41.51 82.14 40.16 84.48 37.46 84.48 36.1 82.14 37.46 79.79"/><polygon class="cls-1" points="64.5 79.79 67.2 79.79 68.55 82.14 67.2 84.48 64.5 84.48 63.14 82.14 64.5 79.79"/><polygon class="cls-1" points="73.52 79.79 76.22 79.79 77.56 82.14 76.22 84.48 73.52 84.48 72.16 82.14 73.52 79.79"/><polygon class="cls-1" points="82.53 79.79 85.23 79.79 86.58 82.14 85.23 84.48 82.53 84.48 81.18 82.14 82.53 79.79"/><polygon class="cls-1" points="91.54 79.79 94.24 79.79 95.59 82.14 94.24 84.48 91.54 84.48 90.19 82.14 91.54 79.79"/><polygon class="cls-1" points="100.56 79.79 103.25 79.79 104.61 82.14 103.25 84.48 100.56 84.48 99.2 82.14 100.56 79.79"/><polygon class="cls-1" points="109.57 79.79 112.27 79.79 113.63 82.14 112.27 84.48 109.57 84.48 108.21 82.14 109.57 79.79"/><polygon class="cls-1" points="118.58 79.79 121.28 79.79 122.64 82.14 121.28 84.48 118.58 84.48 117.23 82.14 118.58 79.79"/><polygon class="cls-1" points="127.6 79.79 130.3 79.79 131.65 82.14 130.3 84.48 127.6 84.48 126.24 82.14 127.6 79.79"/><polygon class="cls-1" points="136.61 79.79 139.31 79.79 140.66 82.14 139.31 84.48 136.61 84.48 135.25 82.14 136.61 79.79"/><polygon class="cls-1" points="145.63 79.79 148.32 79.79 149.68 82.14 148.32 84.48 145.63 84.48 144.27 82.14 145.63 79.79"/><polygon class="cls-1" points="154.63 79.79 157.34 79.79 158.69 82.14 157.34 84.48 154.63 84.48 153.28 82.14 154.63 79.79"/><polygon class="cls-1" points="163.65 79.79 166.35 79.79 167.71 82.14 166.35 84.48 163.65 84.48 162.3 82.14 163.65 79.79"/><polygon class="cls-1" points="172.66 79.79 175.36 79.79 176.72 82.14 175.36 84.48 172.66 84.48 171.31 82.14 172.66 79.79"/><polygon class="cls-1" points="181.67 79.79 184.38 79.79 185.73 82.14 184.38 84.48 181.67 84.48 180.33 82.14 181.67 79.79"/><polygon class="cls-1" points="23.94 82.4 26.64 82.4 28 84.74 26.64 87.08 23.94 87.08 22.59 84.74 23.94 82.4"/><polygon class="cls-1" points="32.95 82.4 35.66 82.4 37.01 84.74 35.66 87.08 32.95 87.08 31.6 84.74 32.95 82.4"/><polygon class="cls-1" points="41.97 82.4 44.67 82.4 46.02 84.74 44.67 87.08 41.97 87.08 40.62 84.74 41.97 82.4"/><polygon class="cls-1" points="59.99 82.4 62.7 82.4 64.05 84.74 62.7 87.08 59.99 87.08 58.64 84.74 59.99 82.4"/><polygon class="cls-1" points="69.01 82.4 71.71 82.4 73.06 84.74 71.71 87.08 69.01 87.08 67.66 84.74 69.01 82.4"/><polygon class="cls-1" points="78.02 82.4 80.72 82.4 82.07 84.74 80.72 87.08 78.02 87.08 76.67 84.74 78.02 82.4"/><polygon class="cls-1" points="87.03 82.4 89.74 82.4 91.09 84.74 89.74 87.08 87.03 87.08 85.68 84.74 87.03 82.4"/><polygon class="cls-1" points="96.05 82.4 98.75 82.4 100.1 84.74 98.75 87.08 96.05 87.08 94.69 84.74 96.05 82.4"/><polygon class="cls-1" points="105.06 82.4 107.76 82.4 109.11 84.74 107.76 87.08 105.06 87.08 103.71 84.74 105.06 82.4"/><polygon class="cls-1" points="114.08 82.4 116.78 82.4 118.13 84.74 116.78 87.08 114.08 87.08 112.72 84.74 114.08 82.4"/><polygon class="cls-1" points="123.09 82.4 125.79 82.4 127.14 84.74 125.79 87.08 123.09 87.08 121.74 84.74 123.09 82.4"/><polygon class="cls-1" points="132.1 82.4 134.81 82.4 136.16 84.74 134.81 87.08 132.1 87.08 130.75 84.74 132.1 82.4"/><polygon class="cls-1" points="141.12 82.4 143.82 82.4 145.17 84.74 143.82 87.08 141.12 87.08 139.77 84.74 141.12 82.4"/><polygon class="cls-1" points="150.13 82.4 152.84 82.4 154.18 84.74 152.84 87.08 150.13 87.08 148.78 84.74 150.13 82.4"/><polygon class="cls-1" points="159.14 82.4 161.85 82.4 163.2 84.74 161.85 87.08 159.14 87.08 157.79 84.74 159.14 82.4"/><polygon class="cls-1" points="168.16 82.4 170.86 82.4 172.21 84.74 170.86 87.08 168.16 87.08 166.8 84.74 168.16 82.4"/><polygon class="cls-1" points="177.17 82.4 179.87 82.4 181.22 84.74 179.87 87.08 177.17 87.08 175.81 84.74 177.17 82.4"/><polygon class="cls-1" points="186.18 82.4 188.88 82.4 190.24 84.74 188.88 87.08 186.18 87.08 184.83 84.74 186.18 82.4"/><polygon class="cls-1" points="19.43 85 22.13 85 23.48 87.34 22.13 89.68 19.43 89.68 18.08 87.34 19.43 85"/><polygon class="cls-1" points="37.46 85 40.16 85 41.51 87.34 40.16 89.68 37.46 89.68 36.1 87.34 37.46 85"/><polygon class="cls-1" points="55.49 85 58.19 85 59.55 87.34 58.19 89.68 55.49 89.68 54.14 87.34 55.49 85"/><polygon class="cls-1" points="64.5 85 67.2 85 68.55 87.34 67.2 89.68 64.5 89.68 63.14 87.34 64.5 85"/><polygon class="cls-1" points="73.52 85 76.22 85 77.56 87.34 76.22 89.68 73.52 89.68 72.16 87.34 73.52 85"/><polygon class="cls-1" points="82.53 85 85.23 85 86.58 87.34 85.23 89.68 82.53 89.68 81.18 87.34 82.53 85"/><polygon class="cls-1" points="91.54 85 94.24 85 95.59 87.34 94.24 89.68 91.54 89.68 90.19 87.34 91.54 85"/><polygon class="cls-1" points="100.56 85 103.25 85 104.61 87.34 103.25 89.68 100.56 89.68 99.2 87.34 100.56 85"/><polygon class="cls-1" points="109.57 85 112.27 85 113.63 87.34 112.27 89.68 109.57 89.68 108.21 87.34 109.57 85"/><polygon class="cls-1" points="118.58 85 121.28 85 122.64 87.34 121.28 89.68 118.58 89.68 117.23 87.34 118.58 85"/><polygon class="cls-1" points="127.6 85 130.3 85 131.65 87.34 130.3 89.68 127.6 89.68 126.24 87.34 127.6 85"/><polygon class="cls-1" points="136.61 85 139.31 85 140.66 87.34 139.31 89.68 136.61 89.68 135.25 87.34 136.61 85"/><polygon class="cls-1" points="145.63 85 148.32 85 149.68 87.34 148.32 89.68 145.63 89.68 144.27 87.34 145.63 85"/><polygon class="cls-1" points="154.63 85 157.34 85 158.69 87.34 157.34 89.68 154.63 89.68 153.28 87.34 154.63 85"/><polygon class="cls-1" points="163.65 85 166.35 85 167.71 87.34 166.35 89.68 163.65 89.68 162.3 87.34 163.65 85"/><polygon class="cls-1" points="172.66 85 175.36 85 176.72 87.34 175.36 89.68 172.66 89.68 171.31 87.34 172.66 85"/><polygon class="cls-1" points="181.67 85 184.38 85 185.73 87.34 184.38 89.68 181.67 89.68 180.33 87.34 181.67 85"/><polygon class="cls-1" points="190.69 85 193.39 85 194.74 87.34 193.39 89.68 190.69 89.68 189.34 87.34 190.69 85"/><polygon class="cls-1" points="32.95 87.6 35.66 87.6 37.01 89.94 35.66 92.28 32.95 92.28 31.6 89.94 32.95 87.6"/><polygon class="cls-1" points="50.98 87.6 53.68 87.6 55.04 89.94 53.68 92.28 50.98 92.28 49.63 89.94 50.98 87.6"/><polygon class="cls-1" points="59.99 87.6 62.7 87.6 64.05 89.94 62.7 92.28 59.99 92.28 58.64 89.94 59.99 87.6"/><polygon class="cls-1" points="69.01 87.6 71.71 87.6 73.06 89.94 71.71 92.28 69.01 92.28 67.66 89.94 69.01 87.6"/><polygon class="cls-1" points="78.02 87.6 80.72 87.6 82.07 89.94 80.72 92.28 78.02 92.28 76.67 89.94 78.02 87.6"/><polygon class="cls-1" points="87.03 87.6 89.74 87.6 91.09 89.94 89.74 92.28 87.03 92.28 85.68 89.94 87.03 87.6"/><polygon class="cls-1" points="96.05 87.6 98.75 87.6 100.1 89.94 98.75 92.28 96.05 92.28 94.69 89.94 96.05 87.6"/><polygon class="cls-1" points="105.06 87.6 107.76 87.6 109.11 89.94 107.76 92.28 105.06 92.28 103.71 89.94 105.06 87.6"/><polygon class="cls-1" points="114.08 87.6 116.78 87.6 118.13 89.94 116.78 92.28 114.08 92.28 112.72 89.94 114.08 87.6"/><polygon class="cls-1" points="123.09 87.6 125.79 87.6 127.14 89.94 125.79 92.28 123.09 92.28 121.74 89.94 123.09 87.6"/><polygon class="cls-1" points="132.1 87.6 134.81 87.6 136.16 89.94 134.81 92.28 132.1 92.28 130.75 89.94 132.1 87.6"/><polygon class="cls-1" points="141.12 87.6 143.82 87.6 145.17 89.94 143.82 92.28 141.12 92.28 139.77 89.94 141.12 87.6"/><polygon class="cls-1" points="150.13 87.6 152.84 87.6 154.18 89.94 152.84 92.28 150.13 92.28 148.78 89.94 150.13 87.6"/><polygon class="cls-1" points="159.14 87.6 161.85 87.6 163.2 89.94 161.85 92.28 159.14 92.28 157.79 89.94 159.14 87.6"/><polygon class="cls-1" points="168.16 87.6 170.86 87.6 172.21 89.94 170.86 92.28 168.16 92.28 166.8 89.94 168.16 87.6"/><polygon class="cls-1" points="177.17 87.6 179.87 87.6 181.22 89.94 179.87 92.28 177.17 92.28 175.81 89.94 177.17 87.6"/><polygon class="cls-1" points="186.18 87.6 188.88 87.6 190.24 89.94 188.88 92.28 186.18 92.28 184.83 89.94 186.18 87.6"/><polygon class="cls-1" points="195.2 87.6 197.89 87.6 199.25 89.94 197.89 92.28 195.2 92.28 193.84 89.94 195.2 87.6"/><polygon class="cls-1" points="46.47 90.21 49.18 90.21 50.53 92.54 49.18 94.89 46.47 94.89 45.12 92.54 46.47 90.21"/><polygon class="cls-1" points="55.49 90.21 58.19 90.21 59.55 92.54 58.19 94.89 55.49 94.89 54.14 92.54 55.49 90.21"/><polygon class="cls-1" points="64.5 90.21 67.2 90.21 68.55 92.54 67.2 94.89 64.5 94.89 63.14 92.54 64.5 90.21"/><polygon class="cls-1" points="73.52 90.21 76.22 90.21 77.56 92.54 76.22 94.89 73.52 94.89 72.16 92.54 73.52 90.21"/><polygon class="cls-1" points="82.53 90.21 85.23 90.21 86.58 92.54 85.23 94.89 82.53 94.89 81.18 92.54 82.53 90.21"/><polygon class="cls-1" points="91.54 90.21 94.24 90.21 95.59 92.54 94.24 94.89 91.54 94.89 90.19 92.54 91.54 90.21"/><polygon class="cls-1" points="100.56 90.21 103.25 90.21 104.61 92.54 103.25 94.89 100.56 94.89 99.2 92.54 100.56 90.21"/><polygon class="cls-1" points="109.57 90.21 112.27 90.21 113.63 92.54 112.27 94.89 109.57 94.89 108.21 92.54 109.57 90.21"/><polygon class="cls-1" points="118.58 90.21 121.28 90.21 122.64 92.54 121.28 94.89 118.58 94.89 117.23 92.54 118.58 90.21"/><polygon class="cls-1" points="127.6 90.21 130.3 90.21 131.65 92.54 130.3 94.89 127.6 94.89 126.24 92.54 127.6 90.21"/><polygon class="cls-1" points="136.61 90.21 139.31 90.21 140.66 92.54 139.31 94.89 136.61 94.89 135.25 92.54 136.61 90.21"/><polygon class="cls-1" points="145.63 90.21 148.32 90.21 149.68 92.54 148.32 94.89 145.63 94.89 144.27 92.54 145.63 90.21"/><polygon class="cls-1" points="154.63 90.21 157.34 90.21 158.69 92.54 157.34 94.89 154.63 94.89 153.28 92.54 154.63 90.21"/><polygon class="cls-1" points="163.65 90.21 166.35 90.21 167.71 92.54 166.35 94.89 163.65 94.89 162.3 92.54 163.65 90.21"/><polygon class="cls-1" points="172.66 90.21 175.36 90.21 176.72 92.54 175.36 94.89 172.66 94.89 171.31 92.54 172.66 90.21"/><polygon class="cls-1" points="181.67 90.21 184.38 90.21 185.73 92.54 184.38 94.89 181.67 94.89 180.33 92.54 181.67 90.21"/><polygon class="cls-1" points="190.69 90.21 193.39 90.21 194.74 92.54 193.39 94.89 190.69 94.89 189.34 92.54 190.69 90.21"/><polygon class="cls-1" points="199.7 90.21 202.41 90.21 203.76 92.54 202.41 94.89 199.7 94.89 198.35 92.54 199.7 90.21"/><polygon class="cls-1" points="50.98 92.81 53.68 92.81 55.04 95.15 53.68 97.49 50.98 97.49 49.63 95.15 50.98 92.81"/><polygon class="cls-1" points="59.99 92.81 62.7 92.81 64.05 95.15 62.7 97.49 59.99 97.49 58.64 95.15 59.99 92.81"/><polygon class="cls-1" points="69.01 92.81 71.71 92.81 73.06 95.15 71.71 97.49 69.01 97.49 67.66 95.15 69.01 92.81"/><polygon class="cls-1" points="78.02 92.81 80.72 92.81 82.07 95.15 80.72 97.49 78.02 97.49 76.67 95.15 78.02 92.81"/><polygon class="cls-1" points="87.03 92.81 89.74 92.81 91.09 95.15 89.74 97.49 87.03 97.49 85.68 95.15 87.03 92.81"/><polygon class="cls-1" points="96.05 92.81 98.75 92.81 100.1 95.15 98.75 97.49 96.05 97.49 94.69 95.15 96.05 92.81"/><polygon class="cls-1" points="105.06 92.81 107.76 92.81 109.11 95.15 107.76 97.49 105.06 97.49 103.71 95.15 105.06 92.81"/><polygon class="cls-1" points="114.08 92.81 116.78 92.81 118.13 95.15 116.78 97.49 114.08 97.49 112.72 95.15 114.08 92.81"/><polygon class="cls-1" points="123.09 92.81 125.79 92.81 127.14 95.15 125.79 97.49 123.09 97.49 121.74 95.15 123.09 92.81"/><polygon class="cls-1" points="132.1 92.81 134.81 92.81 136.16 95.15 134.81 97.49 132.1 97.49 130.75 95.15 132.1 92.81"/><polygon class="cls-1" points="141.12 92.81 143.82 92.81 145.17 95.15 143.82 97.49 141.12 97.49 139.77 95.15 141.12 92.81"/><polygon class="cls-1" points="150.13 92.81 152.84 92.81 154.18 95.15 152.84 97.49 150.13 97.49 148.78 95.15 150.13 92.81"/><polygon class="cls-1" points="159.14 92.81 161.85 92.81 163.2 95.15 161.85 97.49 159.14 97.49 157.79 95.15 159.14 92.81"/><polygon class="cls-1" points="168.16 92.81 170.86 92.81 172.21 95.15 170.86 97.49 168.16 97.49 166.8 95.15 168.16 92.81"/><polygon class="cls-1" points="177.17 92.81 179.87 92.81 181.22 95.15 179.87 97.49 177.17 97.49 175.81 95.15 177.17 92.81"/><polygon class="cls-1" points="37.46 95.41 40.16 95.41 41.51 97.75 40.16 100.1 37.46 100.1 36.1 97.75 37.46 95.41"/><polygon class="cls-1" points="46.47 95.41 49.18 95.41 50.53 97.75 49.18 100.1 46.47 100.1 45.12 97.75 46.47 95.41"/><polygon class="cls-1" points="55.49 95.41 58.19 95.41 59.55 97.75 58.19 100.1 55.49 100.1 54.14 97.75 55.49 95.41"/><polygon class="cls-1" points="64.5 95.41 67.2 95.41 68.55 97.75 67.2 100.1 64.5 100.1 63.14 97.75 64.5 95.41"/><polygon class="cls-1" points="73.52 95.41 76.22 95.41 77.56 97.75 76.22 100.1 73.52 100.1 72.16 97.75 73.52 95.41"/><polygon class="cls-1" points="82.53 95.41 85.23 95.41 86.58 97.75 85.23 100.1 82.53 100.1 81.18 97.75 82.53 95.41"/><polygon class="cls-1" points="91.54 95.41 94.24 95.41 95.59 97.75 94.24 100.1 91.54 100.1 90.19 97.75 91.54 95.41"/><polygon class="cls-1" points="100.56 95.41 103.25 95.41 104.61 97.75 103.25 100.1 100.56 100.1 99.2 97.75 100.56 95.41"/><polygon class="cls-1" points="109.57 95.41 112.27 95.41 113.63 97.75 112.27 100.1 109.57 100.1 108.21 97.75 109.57 95.41"/><polygon class="cls-1" points="118.58 95.41 121.28 95.41 122.64 97.75 121.28 100.1 118.58 100.1 117.23 97.75 118.58 95.41"/><polygon class="cls-1" points="127.6 95.41 130.3 95.41 131.65 97.75 130.3 100.1 127.6 100.1 126.24 97.75 127.6 95.41"/><polygon class="cls-1" points="136.61 95.41 139.31 95.41 140.66 97.75 139.31 100.1 136.61 100.1 135.25 97.75 136.61 95.41"/><polygon class="cls-1" points="145.63 95.41 148.32 95.41 149.68 97.75 148.32 100.1 145.63 100.1 144.27 97.75 145.63 95.41"/><polygon class="cls-1" points="154.63 95.41 157.34 95.41 158.69 97.75 157.34 100.1 154.63 100.1 153.28 97.75 154.63 95.41"/><polygon class="cls-1" points="163.65 95.41 166.35 95.41 167.71 97.75 166.35 100.1 163.65 100.1 162.3 97.75 163.65 95.41"/><polygon class="cls-1" points="172.66 95.41 175.36 95.41 176.72 97.75 175.36 100.1 172.66 100.1 171.31 97.75 172.66 95.41"/><polygon class="cls-1" points="32.95 98.01 35.66 98.01 37.01 100.35 35.66 102.69 32.95 102.69 31.6 100.35 32.95 98.01"/><polygon class="cls-1" points="41.97 98.01 44.67 98.01 46.02 100.35 44.67 102.69 41.97 102.69 40.62 100.35 41.97 98.01"/><polygon class="cls-1" points="50.98 98.01 53.68 98.01 55.04 100.35 53.68 102.69 50.98 102.69 49.63 100.35 50.98 98.01"/><polygon class="cls-1" points="59.99 98.01 62.7 98.01 64.05 100.35 62.7 102.69 59.99 102.69 58.64 100.35 59.99 98.01"/><polygon class="cls-1" points="69.01 98.01 71.71 98.01 73.06 100.35 71.71 102.69 69.01 102.69 67.66 100.35 69.01 98.01"/><polygon class="cls-1" points="78.02 98.01 80.72 98.01 82.07 100.35 80.72 102.69 78.02 102.69 76.67 100.35 78.02 98.01"/><polygon class="cls-1" points="87.03 98.01 89.74 98.01 91.09 100.35 89.74 102.69 87.03 102.69 85.68 100.35 87.03 98.01"/><polygon class="cls-1" points="96.05 98.01 98.75 98.01 100.1 100.35 98.75 102.69 96.05 102.69 94.69 100.35 96.05 98.01"/><polygon class="cls-1" points="105.06 98.01 107.76 98.01 109.11 100.35 107.76 102.69 105.06 102.69 103.71 100.35 105.06 98.01"/><polygon class="cls-1" points="114.08 98.01 116.78 98.01 118.13 100.35 116.78 102.69 114.08 102.69 112.72 100.35 114.08 98.01"/><polygon class="cls-1" points="123.09 98.01 125.79 98.01 127.14 100.35 125.79 102.69 123.09 102.69 121.74 100.35 123.09 98.01"/><polygon class="cls-1" points="132.1 98.01 134.81 98.01 136.16 100.35 134.81 102.69 132.1 102.69 130.75 100.35 132.1 98.01"/><polygon class="cls-1" points="141.12 98.01 143.82 98.01 145.17 100.35 143.82 102.69 141.12 102.69 139.77 100.35 141.12 98.01"/><polygon class="cls-1" points="150.13 98.01 152.84 98.01 154.18 100.35 152.84 102.69 150.13 102.69 148.78 100.35 150.13 98.01"/><polygon class="cls-1" points="159.14 98.01 161.85 98.01 163.2 100.35 161.85 102.69 159.14 102.69 157.79 100.35 159.14 98.01"/><polygon class="cls-1" points="168.16 98.01 170.86 98.01 172.21 100.35 170.86 102.69 168.16 102.69 166.8 100.35 168.16 98.01"/><polygon class="cls-1" points="177.17 98.01 179.87 98.01 181.22 100.35 179.87 102.69 177.17 102.69 175.81 100.35 177.17 98.01"/><polygon class="cls-1" points="37.46 100.61 40.16 100.61 41.51 102.95 40.16 105.29 37.46 105.29 36.1 102.95 37.46 100.61"/><polygon class="cls-1" points="46.47 100.61 49.18 100.61 50.53 102.95 49.18 105.29 46.47 105.29 45.12 102.95 46.47 100.61"/><polygon class="cls-1" points="55.49 100.61 58.19 100.61 59.55 102.95 58.19 105.29 55.49 105.29 54.14 102.95 55.49 100.61"/><polygon class="cls-1" points="64.5 100.61 67.2 100.61 68.55 102.95 67.2 105.29 64.5 105.29 63.14 102.95 64.5 100.61"/><polygon class="cls-1" points="73.52 100.61 76.22 100.61 77.56 102.95 76.22 105.29 73.52 105.29 72.16 102.95 73.52 100.61"/><polygon class="cls-1" points="82.53 100.61 85.23 100.61 86.58 102.95 85.23 105.29 82.53 105.29 81.18 102.95 82.53 100.61"/><polygon class="cls-1" points="91.54 100.61 94.24 100.61 95.59 102.95 94.24 105.29 91.54 105.29 90.19 102.95 91.54 100.61"/><polygon class="cls-1" points="100.56 100.61 103.25 100.61 104.61 102.95 103.25 105.29 100.56 105.29 99.2 102.95 100.56 100.61"/><polygon class="cls-1" points="109.57 100.61 112.27 100.61 113.63 102.95 112.27 105.29 109.57 105.29 108.21 102.95 109.57 100.61"/><polygon class="cls-1" points="118.58 100.61 121.28 100.61 122.64 102.95 121.28 105.29 118.58 105.29 117.23 102.95 118.58 100.61"/><polygon class="cls-1" points="127.6 100.61 130.3 100.61 131.65 102.95 130.3 105.29 127.6 105.29 126.24 102.95 127.6 100.61"/><polygon class="cls-1" points="136.61 100.61 139.31 100.61 140.66 102.95 139.31 105.29 136.61 105.29 135.25 102.95 136.61 100.61"/><polygon class="cls-1" points="145.63 100.61 148.32 100.61 149.68 102.95 148.32 105.29 145.63 105.29 144.27 102.95 145.63 100.61"/><polygon class="cls-1" points="154.63 100.61 157.34 100.61 158.69 102.95 157.34 105.29 154.63 105.29 153.28 102.95 154.63 100.61"/><polygon class="cls-1" points="163.65 100.61 166.35 100.61 167.71 102.95 166.35 105.29 163.65 105.29 162.3 102.95 163.65 100.61"/><polygon class="cls-1" points="172.66 100.61 175.36 100.61 176.72 102.95 175.36 105.29 172.66 105.29 171.31 102.95 172.66 100.61"/><polygon class="cls-1" points="41.97 103.21 44.67 103.21 46.02 105.55 44.67 107.9 41.97 107.9 40.62 105.55 41.97 103.21"/><polygon class="cls-1" points="50.98 103.21 53.68 103.21 55.04 105.55 53.68 107.9 50.98 107.9 49.63 105.55 50.98 103.21"/><polygon class="cls-1" points="59.99 103.21 62.7 103.21 64.05 105.55 62.7 107.9 59.99 107.9 58.64 105.55 59.99 103.21"/><polygon class="cls-1" points="69.01 103.21 71.71 103.21 73.06 105.55 71.71 107.9 69.01 107.9 67.66 105.55 69.01 103.21"/><polygon class="cls-1" points="78.02 103.21 80.72 103.21 82.07 105.55 80.72 107.9 78.02 107.9 76.67 105.55 78.02 103.21"/><polygon class="cls-1" points="87.03 103.21 89.74 103.21 91.09 105.55 89.74 107.9 87.03 107.9 85.68 105.55 87.03 103.21"/><polygon class="cls-1" points="96.05 103.21 98.75 103.21 100.1 105.55 98.75 107.9 96.05 107.9 94.69 105.55 96.05 103.21"/><polygon class="cls-1" points="105.06 103.21 107.76 103.21 109.11 105.55 107.76 107.9 105.06 107.9 103.71 105.55 105.06 103.21"/><polygon class="cls-1" points="114.08 103.21 116.78 103.21 118.13 105.55 116.78 107.9 114.08 107.9 112.72 105.55 114.08 103.21"/><polygon class="cls-1" points="123.09 103.21 125.79 103.21 127.14 105.55 125.79 107.9 123.09 107.9 121.74 105.55 123.09 103.21"/><polygon class="cls-1" points="132.1 103.21 134.81 103.21 136.16 105.55 134.81 107.9 132.1 107.9 130.75 105.55 132.1 103.21"/><polygon class="cls-1" points="141.12 103.21 143.82 103.21 145.17 105.55 143.82 107.9 141.12 107.9 139.77 105.55 141.12 103.21"/><polygon class="cls-1" points="150.13 103.21 152.84 103.21 154.18 105.55 152.84 107.9 150.13 107.9 148.78 105.55 150.13 103.21"/><polygon class="cls-1" points="159.14 103.21 161.85 103.21 163.2 105.55 161.85 107.9 159.14 107.9 157.79 105.55 159.14 103.21"/><polygon class="cls-1" points="168.16 103.21 170.86 103.21 172.21 105.55 170.86 107.9 168.16 107.9 166.8 105.55 168.16 103.21"/><polygon class="cls-1" points="177.17 103.21 179.87 103.21 181.22 105.55 179.87 107.9 177.17 107.9 175.81 105.55 177.17 103.21"/><polygon class="cls-1" points="37.46 105.81 40.16 105.81 41.51 108.16 40.16 110.5 37.46 110.5 36.1 108.16 37.46 105.81"/><polygon class="cls-1" points="46.47 105.81 49.18 105.81 50.53 108.16 49.18 110.5 46.47 110.5 45.12 108.16 46.47 105.81"/><polygon class="cls-1" points="55.49 105.81 58.19 105.81 59.55 108.16 58.19 110.5 55.49 110.5 54.14 108.16 55.49 105.81"/><polygon class="cls-1" points="64.5 105.81 67.2 105.81 68.55 108.16 67.2 110.5 64.5 110.5 63.14 108.16 64.5 105.81"/><polygon class="cls-1" points="73.52 105.81 76.22 105.81 77.56 108.16 76.22 110.5 73.52 110.5 72.16 108.16 73.52 105.81"/><polygon class="cls-1" points="82.53 105.81 85.23 105.81 86.58 108.16 85.23 110.5 82.53 110.5 81.18 108.16 82.53 105.81"/><polygon class="cls-1" points="91.54 105.81 94.24 105.81 95.59 108.16 94.24 110.5 91.54 110.5 90.19 108.16 91.54 105.81"/><polygon class="cls-1" points="100.56 105.81 103.25 105.81 104.61 108.16 103.25 110.5 100.56 110.5 99.2 108.16 100.56 105.81"/><polygon class="cls-1" points="109.57 105.81 112.27 105.81 113.63 108.16 112.27 110.5 109.57 110.5 108.21 108.16 109.57 105.81"/><polygon class="cls-1" points="118.58 105.81 121.28 105.81 122.64 108.16 121.28 110.5 118.58 110.5 117.23 108.16 118.58 105.81"/><polygon class="cls-1" points="127.6 105.81 130.3 105.81 131.65 108.16 130.3 110.5 127.6 110.5 126.24 108.16 127.6 105.81"/><polygon class="cls-1" points="136.61 105.81 139.31 105.81 140.66 108.16 139.31 110.5 136.61 110.5 135.25 108.16 136.61 105.81"/><polygon class="cls-1" points="154.63 105.81 157.34 105.81 158.69 108.16 157.34 110.5 154.63 110.5 153.28 108.16 154.63 105.81"/><polygon class="cls-1" points="163.65 105.81 166.35 105.81 167.71 108.16 166.35 110.5 163.65 110.5 162.3 108.16 163.65 105.81"/><polygon class="cls-1" points="172.66 105.81 175.36 105.81 176.72 108.16 175.36 110.5 172.66 110.5 171.31 108.16 172.66 105.81"/><polygon class="cls-1" points="41.97 108.42 44.67 108.42 46.02 110.76 44.67 113.1 41.97 113.1 40.62 110.76 41.97 108.42"/><polygon class="cls-1" points="50.98 108.42 53.68 108.42 55.04 110.76 53.68 113.1 50.98 113.1 49.63 110.76 50.98 108.42"/><polygon class="cls-1" points="59.99 108.42 62.7 108.42 64.05 110.76 62.7 113.1 59.99 113.1 58.64 110.76 59.99 108.42"/><polygon class="cls-1" points="69.01 108.42 71.71 108.42 73.06 110.76 71.71 113.1 69.01 113.1 67.66 110.76 69.01 108.42"/><polygon class="cls-1" points="78.02 108.42 80.72 108.42 82.07 110.76 80.72 113.1 78.02 113.1 76.67 110.76 78.02 108.42"/><polygon class="cls-1" points="87.03 108.42 89.74 108.42 91.09 110.76 89.74 113.1 87.03 113.1 85.68 110.76 87.03 108.42"/><polygon class="cls-1" points="96.05 108.42 98.75 108.42 100.1 110.76 98.75 113.1 96.05 113.1 94.69 110.76 96.05 108.42"/><polygon class="cls-1" points="105.06 108.42 107.76 108.42 109.11 110.76 107.76 113.1 105.06 113.1 103.71 110.76 105.06 108.42"/><polygon class="cls-1" points="114.08 108.42 116.78 108.42 118.13 110.76 116.78 113.1 114.08 113.1 112.72 110.76 114.08 108.42"/><polygon class="cls-1" points="123.09 108.42 125.79 108.42 127.14 110.76 125.79 113.1 123.09 113.1 121.74 110.76 123.09 108.42"/><polygon class="cls-1" points="141.12 108.42 143.82 108.42 145.17 110.76 143.82 113.1 141.12 113.1 139.77 110.76 141.12 108.42"/><polygon class="cls-1" points="150.13 108.42 152.84 108.42 154.18 110.76 152.84 113.1 150.13 113.1 148.78 110.76 150.13 108.42"/><polygon class="cls-1" points="159.14 108.42 161.85 108.42 163.2 110.76 161.85 113.1 159.14 113.1 157.79 110.76 159.14 108.42"/><polygon class="cls-1" points="168.16 108.42 170.86 108.42 172.21 110.76 170.86 113.1 168.16 113.1 166.8 110.76 168.16 108.42"/><polygon class="cls-1" points="37.46 111.02 40.16 111.02 41.51 113.36 40.16 115.7 37.46 115.7 36.1 113.36 37.46 111.02"/><polygon class="cls-1" points="46.47 111.02 49.18 111.02 50.53 113.36 49.18 115.7 46.47 115.7 45.12 113.36 46.47 111.02"/><polygon class="cls-1" points="55.49 111.02 58.19 111.02 59.55 113.36 58.19 115.7 55.49 115.7 54.14 113.36 55.49 111.02"/><polygon class="cls-1" points="64.5 111.02 67.2 111.02 68.55 113.36 67.2 115.7 64.5 115.7 63.14 113.36 64.5 111.02"/><polygon class="cls-1" points="73.52 111.02 76.22 111.02 77.56 113.36 76.22 115.7 73.52 115.7 72.16 113.36 73.52 111.02"/><polygon class="cls-1" points="82.53 111.02 85.23 111.02 86.58 113.36 85.23 115.7 82.53 115.7 81.18 113.36 82.53 111.02"/><polygon class="cls-1" points="91.54 111.02 94.24 111.02 95.59 113.36 94.24 115.7 91.54 115.7 90.19 113.36 91.54 111.02"/><polygon class="cls-1" points="100.56 111.02 103.25 111.02 104.61 113.36 103.25 115.7 100.56 115.7 99.2 113.36 100.56 111.02"/><polygon class="cls-1" points="109.57 111.02 112.27 111.02 113.63 113.36 112.27 115.7 109.57 115.7 108.21 113.36 109.57 111.02"/><polygon class="cls-1" points="118.58 111.02 121.28 111.02 122.64 113.36 121.28 115.7 118.58 115.7 117.23 113.36 118.58 111.02"/><polygon class="cls-1" points="136.61 111.02 139.31 111.02 140.66 113.36 139.31 115.7 136.61 115.7 135.25 113.36 136.61 111.02"/><polygon class="cls-1" points="154.63 111.02 157.34 111.02 158.69 113.36 157.34 115.7 154.63 115.7 153.28 113.36 154.63 111.02"/><polygon class="cls-1" points="163.65 111.02 166.35 111.02 167.71 113.36 166.35 115.7 163.65 115.7 162.3 113.36 163.65 111.02"/><polygon class="cls-1" points="172.66 111.02 175.36 111.02 176.72 113.36 175.36 115.7 172.66 115.7 171.31 113.36 172.66 111.02"/><polygon class="cls-1" points="23.94 113.62 26.64 113.62 28 115.96 26.64 118.3 23.94 118.3 22.59 115.96 23.94 113.62"/><polygon class="cls-1" points="32.95 113.62 35.66 113.62 37.01 115.96 35.66 118.3 32.95 118.3 31.6 115.96 32.95 113.62"/><polygon class="cls-1" points="41.97 113.62 44.67 113.62 46.02 115.96 44.67 118.3 41.97 118.3 40.62 115.96 41.97 113.62"/><polygon class="cls-1" points="50.98 113.62 53.68 113.62 55.04 115.96 53.68 118.3 50.98 118.3 49.63 115.96 50.98 113.62"/><polygon class="cls-1" points="59.99 113.62 62.7 113.62 64.05 115.96 62.7 118.3 59.99 118.3 58.64 115.96 59.99 113.62"/><polygon class="cls-1" points="78.02 113.62 80.72 113.62 82.07 115.96 80.72 118.3 78.02 118.3 76.67 115.96 78.02 113.62"/><polygon class="cls-1" points="87.03 113.62 89.74 113.62 91.09 115.96 89.74 118.3 87.03 118.3 85.68 115.96 87.03 113.62"/><polygon class="cls-1" points="96.05 113.62 98.75 113.62 100.1 115.96 98.75 118.3 96.05 118.3 94.69 115.96 96.05 113.62"/><polygon class="cls-1" points="105.06 113.62 107.76 113.62 109.11 115.96 107.76 118.3 105.06 118.3 103.71 115.96 105.06 113.62"/><polygon class="cls-1" points="114.08 113.62 116.78 113.62 118.13 115.96 116.78 118.3 114.08 118.3 112.72 115.96 114.08 113.62"/><polygon class="cls-1" points="159.14 113.62 161.85 113.62 163.2 115.96 161.85 118.3 159.14 118.3 157.79 115.96 159.14 113.62"/><polygon class="cls-1" points="168.16 113.62 170.86 113.62 172.21 115.96 170.86 118.3 168.16 118.3 166.8 115.96 168.16 113.62"/><polygon class="cls-1" points="19.43 116.22 22.13 116.22 23.48 118.57 22.13 120.91 19.43 120.91 18.08 118.57 19.43 116.22"/><polygon class="cls-1" points="28.45 116.22 31.15 116.22 32.5 118.57 31.15 120.91 28.45 120.91 27.09 118.57 28.45 116.22"/><polygon class="cls-1" points="37.46 116.22 40.16 116.22 41.51 118.57 40.16 120.91 37.46 120.91 36.1 118.57 37.46 116.22"/><polygon class="cls-1" points="46.47 116.22 49.18 116.22 50.53 118.57 49.18 120.91 46.47 120.91 45.12 118.57 46.47 116.22"/><polygon class="cls-1" points="64.5 116.22 67.2 116.22 68.55 118.57 67.2 120.91 64.5 120.91 63.14 118.57 64.5 116.22"/><polygon class="cls-1" points="73.52 116.22 76.22 116.22 77.56 118.57 76.22 120.91 73.52 120.91 72.16 118.57 73.52 116.22"/><polygon class="cls-1" points="82.53 116.22 85.23 116.22 86.58 118.57 85.23 120.91 82.53 120.91 81.18 118.57 82.53 116.22"/><polygon class="cls-1" points="91.54 116.22 94.24 116.22 95.59 118.57 94.24 120.91 91.54 120.91 90.19 118.57 91.54 116.22"/><polygon class="cls-1" points="100.56 116.22 103.25 116.22 104.61 118.57 103.25 120.91 100.56 120.91 99.2 118.57 100.56 116.22"/><polygon class="cls-1" points="109.57 116.22 112.27 116.22 113.63 118.57 112.27 120.91 109.57 120.91 108.21 118.57 109.57 116.22"/><polygon class="cls-1" points="118.58 116.22 121.28 116.22 122.64 118.57 121.28 120.91 118.58 120.91 117.23 118.57 118.58 116.22"/><polygon class="cls-1" points="163.65 116.22 166.35 116.22 167.71 118.57 166.35 120.91 163.65 120.91 162.3 118.57 163.65 116.22"/><polygon class="cls-1" points="172.66 116.22 175.36 116.22 176.72 118.57 175.36 120.91 172.66 120.91 171.31 118.57 172.66 116.22"/><polygon class="cls-1" points="23.94 118.83 26.64 118.83 28 121.16 26.64 123.51 23.94 123.51 22.59 121.16 23.94 118.83"/><polygon class="cls-1" points="32.95 118.83 35.66 118.83 37.01 121.16 35.66 123.51 32.95 123.51 31.6 121.16 32.95 118.83"/><polygon class="cls-1" points="41.97 118.83 44.67 118.83 46.02 121.16 44.67 123.51 41.97 123.51 40.62 121.16 41.97 118.83"/><polygon class="cls-1" points="78.02 118.83 80.72 118.83 82.07 121.16 80.72 123.51 78.02 123.51 76.67 121.16 78.02 118.83"/><polygon class="cls-1" points="96.05 118.83 98.75 118.83 100.1 121.16 98.75 123.51 96.05 123.51 94.69 121.16 96.05 118.83"/><polygon class="cls-1" points="105.06 118.83 107.76 118.83 109.11 121.16 107.76 123.51 105.06 123.51 103.71 121.16 105.06 118.83"/><polygon class="cls-1" points="114.08 118.83 116.78 118.83 118.13 121.16 116.78 123.51 114.08 123.51 112.72 121.16 114.08 118.83"/><polygon class="cls-1" points="159.14 118.83 161.85 118.83 163.2 121.16 161.85 123.51 159.14 123.51 157.79 121.16 159.14 118.83"/><polygon class="cls-1" points="168.16 118.83 170.86 118.83 172.21 121.16 170.86 123.51 168.16 123.51 166.8 121.16 168.16 118.83"/><polygon class="cls-1" points="177.17 118.83 179.87 118.83 181.22 121.16 179.87 123.51 177.17 123.51 175.81 121.16 177.17 118.83"/><polygon class="cls-1" points="19.43 121.43 22.13 121.43 23.48 123.77 22.13 126.11 19.43 126.11 18.08 123.77 19.43 121.43"/><polygon class="cls-1" points="28.45 121.43 31.15 121.43 32.5 123.77 31.15 126.11 28.45 126.11 27.09 123.77 28.45 121.43"/><polygon class="cls-1" points="37.46 121.43 40.16 121.43 41.51 123.77 40.16 126.11 37.46 126.11 36.1 123.77 37.46 121.43"/><polygon class="cls-1" points="46.47 121.43 49.18 121.43 50.53 123.77 49.18 126.11 46.47 126.11 45.12 123.77 46.47 121.43"/><polygon class="cls-1" points="82.53 121.43 85.23 121.43 86.58 123.77 85.23 126.11 82.53 126.11 81.18 123.77 82.53 121.43"/><polygon class="cls-1" points="100.56 121.43 103.25 121.43 104.61 123.77 103.25 126.11 100.56 126.11 99.2 123.77 100.56 121.43"/><polygon class="cls-1" points="109.57 121.43 112.27 121.43 113.63 123.77 112.27 126.11 109.57 126.11 108.21 123.77 109.57 121.43"/><polygon class="cls-1" points="118.58 121.43 121.28 121.43 122.64 123.77 121.28 126.11 118.58 126.11 117.23 123.77 118.58 121.43"/><polygon class="cls-1" points="163.65 121.43 166.35 121.43 167.71 123.77 166.35 126.11 163.65 126.11 162.3 123.77 163.65 121.43"/><polygon class="cls-1" points="172.66 121.43 175.36 121.43 176.72 123.77 175.36 126.11 172.66 126.11 171.31 123.77 172.66 121.43"/><polygon class="cls-1" points="181.67 121.43 184.38 121.43 185.73 123.77 184.38 126.11 181.67 126.11 180.33 123.77 181.67 121.43"/><polygon class="cls-1" points="14.93 124.03 17.63 124.03 18.98 126.37 17.63 128.71 14.93 128.71 13.58 126.37 14.93 124.03"/><polygon class="cls-1" points="23.94 124.03 26.64 124.03 28 126.37 26.64 128.71 23.94 128.71 22.59 126.37 23.94 124.03"/><polygon class="cls-1" points="32.95 124.03 35.66 124.03 37.01 126.37 35.66 128.71 32.95 128.71 31.6 126.37 32.95 124.03"/><polygon class="cls-1" points="41.97 124.03 44.67 124.03 46.02 126.37 44.67 128.71 41.97 128.71 40.62 126.37 41.97 124.03"/><polygon class="cls-1" points="69.01 124.03 71.71 124.03 73.06 126.37 71.71 128.71 69.01 128.71 67.66 126.37 69.01 124.03"/><polygon class="cls-1" points="87.03 124.03 89.74 124.03 91.09 126.37 89.74 128.71 87.03 128.71 85.68 126.37 87.03 124.03"/><polygon class="cls-1" points="96.05 124.03 98.75 124.03 100.1 126.37 98.75 128.71 96.05 128.71 94.69 126.37 96.05 124.03"/><polygon class="cls-1" points="105.06 124.03 107.76 124.03 109.11 126.37 107.76 128.71 105.06 128.71 103.71 126.37 105.06 124.03"/><polygon class="cls-1" points="159.14 124.03 161.85 124.03 163.2 126.37 161.85 128.71 159.14 128.71 157.79 126.37 159.14 124.03"/><polygon class="cls-1" points="168.16 124.03 170.86 124.03 172.21 126.37 170.86 128.71 168.16 128.71 166.8 126.37 168.16 124.03"/><polygon class="cls-1" points="177.17 124.03 179.87 124.03 181.22 126.37 179.87 128.71 177.17 128.71 175.81 126.37 177.17 124.03"/><polygon class="cls-1" points="19.43 126.63 22.13 126.63 23.48 128.97 22.13 131.31 19.43 131.31 18.08 128.97 19.43 126.63"/><polygon class="cls-1" points="28.45 126.63 31.15 126.63 32.5 128.97 31.15 131.31 28.45 131.31 27.09 128.97 28.45 126.63"/><polygon class="cls-1" points="37.46 126.63 40.16 126.63 41.51 128.97 40.16 131.31 37.46 131.31 36.1 128.97 37.46 126.63"/><polygon class="cls-1" points="64.5 126.63 67.2 126.63 68.55 128.97 67.2 131.31 64.5 131.31 63.14 128.97 64.5 126.63"/><polygon class="cls-1" points="91.54 126.63 94.24 126.63 95.59 128.97 94.24 131.31 91.54 131.31 90.19 128.97 91.54 126.63"/><polygon class="cls-1" points="100.56 126.63 103.25 126.63 104.61 128.97 103.25 131.31 100.56 131.31 99.2 128.97 100.56 126.63"/><polygon class="cls-1" points="163.65 126.63 166.35 126.63 167.71 128.97 166.35 131.31 163.65 131.31 162.3 128.97 163.65 126.63"/><polygon class="cls-1" points="172.66 126.63 175.36 126.63 176.72 128.97 175.36 131.31 172.66 131.31 171.31 128.97 172.66 126.63"/><polygon class="cls-1" points="181.67 126.63 184.38 126.63 185.73 128.97 184.38 131.31 181.67 131.31 180.33 128.97 181.67 126.63"/><polygon class="cls-1" points="14.93 129.24 17.63 129.24 18.98 131.57 17.63 133.91 14.93 133.91 13.58 131.57 14.93 129.24"/><polygon class="cls-1" points="23.94 129.24 26.64 129.24 28 131.57 26.64 133.91 23.94 133.91 22.59 131.57 23.94 129.24"/><polygon class="cls-1" points="32.95 129.24 35.66 129.24 37.01 131.57 35.66 133.91 32.95 133.91 31.6 131.57 32.95 129.24"/><polygon class="cls-1" points="41.97 129.24 44.67 129.24 46.02 131.57 44.67 133.91 41.97 133.91 40.62 131.57 41.97 129.24"/><polygon class="cls-1" points="87.03 129.24 89.74 129.24 91.09 131.57 89.74 133.91 87.03 133.91 85.68 131.57 87.03 129.24"/><polygon class="cls-1" points="105.06 129.24 107.76 129.24 109.11 131.57 107.76 133.91 105.06 133.91 103.71 131.57 105.06 129.24"/><polygon class="cls-1" points="19.43 131.84 22.13 131.84 23.48 134.18 22.13 136.52 19.43 136.52 18.08 134.18 19.43 131.84"/><polygon class="cls-1" points="28.45 131.84 31.15 131.84 32.5 134.18 31.15 136.52 28.45 136.52 27.09 134.18 28.45 131.84"/><polygon class="cls-1" points="37.46 131.84 40.16 131.84 41.51 134.18 40.16 136.52 37.46 136.52 36.1 134.18 37.46 131.84"/><polygon class="cls-1" points="82.53 131.84 85.23 131.84 86.58 134.18 85.23 136.52 82.53 136.52 81.18 134.18 82.53 131.84"/><polygon class="cls-1" points="109.57 131.84 112.27 131.84 113.63 134.18 112.27 136.52 109.57 136.52 108.21 134.18 109.57 131.84"/><polygon class="cls-1" points="14.93 134.44 17.63 134.44 18.98 136.78 17.63 139.12 14.93 139.12 13.58 136.78 14.93 134.44"/><polygon class="cls-1" points="23.94 134.44 26.64 134.44 28 136.78 26.64 139.12 23.94 139.12 22.59 136.78 23.94 134.44"/><polygon class="cls-1" points="32.95 134.44 35.66 134.44 37.01 136.78 35.66 139.12 32.95 139.12 31.6 136.78 32.95 134.44"/><polygon class="cls-1" points="105.06 134.44 107.76 134.44 109.11 136.78 107.76 139.12 105.06 139.12 103.71 136.78 105.06 134.44"/><polygon class="cls-1" points="28.45 137.04 31.15 137.04 32.5 139.38 31.15 141.72 28.45 141.72 27.09 139.38 28.45 137.04"/><polygon class="cls-1" points="82.53 137.04 85.23 137.04 86.58 139.38 85.23 141.72 82.53 141.72 81.18 139.38 82.53 137.04"/><polygon class="cls-1" points="23.94 139.64 26.64 139.64 28 141.98 26.64 144.33 23.94 144.33 22.59 141.98 23.94 139.64"/><polygon class="cls-1" points="82.53 142.24 85.23 142.24 86.58 144.59 85.23 146.93 82.53 146.93 81.18 144.59 82.53 142.24"/><polygon class="cls-1" points="114.08 144.85 116.78 144.85 118.13 147.19 116.78 149.53 114.08 149.53 112.72 147.19 114.08 144.85"/></svg>