<?xml version="1.0" encoding="UTF-8"?>
<svg width="29px" height="34px" viewBox="0 0 29 34" version="1.1" xmlns="http://www.w3.org/2000/svg" xmlns:xlink="http://www.w3.org/1999/xlink">
    <!-- Generator: Sketch 42 (36781) - http://www.bohemiancoding.com/sketch -->
    <title>Facebook</title>
    <desc>Created with Sketch.</desc>
    <defs></defs>
    <g id="Page-1" stroke="none" stroke-width="1" fill="none" fill-rule="evenodd">
        <g id="v0.3---Form" transform="translate(-1269.000000, -14.000000)">
            <g id="Facebook" transform="translate(1269.000000, 14.000000)">
                <polygon id="Polygon-Copy-6" fill="#3C5C99" points="14.5 -3.55271368e-14 29 8.3715789 29 25.1147367 14.5 33.4863156 2.91766611e-13 25.1147367 2.82884827e-13 8.3715789"></polygon>
                <path d="M15.4907744,26.1996193 L15.4907744,17.8979667 L18.4391408,17.8979667 L18.8805502,14.6626073 L15.4907744,14.6626073 L15.4907744,12.5969734 C15.4907744,11.6602613 15.7659541,11.0219445 17.1872345,11.0219445 L18.9999534,11.0211413 L18.9999534,8.12747059 C18.6863607,8.08811294 17.6103722,8 16.3585509,8 C13.7450233,8 11.9558451,9.50771923 11.9558451,12.2766503 L11.9558451,14.6626073 L9,14.6626073 L9,17.8979667 L11.9558451,17.8979667 L11.9558451,26.1996193 L15.4907744,26.1996193 Z" id="Fill-1" fill="#FFFFFF"></path>
            </g>
        </g>
    </g>
</svg>