<?xml version="1.0" encoding="utf-8"?>
<!-- Generator: Adobe Illustrator 21.0.0, SVG Export Plug-In . SVG Version: 6.00 Build 0)  -->
<svg version="1.1" id="Layer_1" xmlns="http://www.w3.org/2000/svg" xmlns:xlink="http://www.w3.org/1999/xlink" x="0px" y="0px"
	 viewBox="0 0 165 269" style="enable-background:new 0 0 165 269;" xml:space="preserve">
<style type="text/css">
	.st0{opacity:0.17;}
</style>
<title>south-america</title>
<polygon class="st0" points="79.7,10.1 82.4,10.1 83.7,12.4 82.4,14.8 79.7,14.8 78.3,12.4 "/>
<polygon class="st0" points="75.2,12.7 77.9,12.7 79.2,15 77.9,17.4 75.2,17.4 73.8,15 "/>
<polygon class="st0" points="79.7,20.5 82.4,20.5 83.7,22.8 82.4,25.2 79.7,25.2 78.3,22.8 "/>
<polygon class="st0" points="75.2,23.1 77.9,23.1 79.2,25.4 77.9,27.8 75.2,27.8 73.8,25.4 "/>
<polygon class="st0" points="84.2,23.1 86.9,23.1 88.2,25.4 86.9,27.8 84.2,27.8 82.8,25.4 "/>
<polygon class="st0" points="79.7,25.7 82.4,25.7 83.7,28 82.4,30.4 79.7,30.4 78.3,28 "/>
<polygon class="st0" points="75.2,28.3 77.9,28.3 79.2,30.6 77.9,33 75.2,33 73.8,30.6 "/>
<polygon class="st0" points="43.6,30.9 46.3,30.9 47.7,33.2 46.3,35.6 43.6,35.6 42.3,33.2 "/>
<polygon class="st0" points="52.6,30.9 55.3,30.9 56.7,33.2 55.3,35.6 52.6,35.6 51.3,33.2 "/>
<polygon class="st0" points="39.1,33.5 41.8,33.5 43.2,35.8 41.8,38.2 39.1,38.2 37.8,35.8 "/>
<polygon class="st0" points="48.1,33.5 50.8,33.5 52.2,35.8 50.8,38.2 48.1,38.2 46.8,35.8 "/>
<polygon class="st0" points="57.2,33.5 59.9,33.5 61.2,35.8 59.9,38.2 57.2,38.2 55.8,35.8 "/>
<polygon class="st0" points="75.2,33.5 77.9,33.5 79.2,35.8 77.9,38.2 75.2,38.2 73.8,35.8 "/>
<polygon class="st0" points="34.6,36.1 37.3,36.1 38.7,38.5 37.3,40.8 34.6,40.8 33.3,38.5 "/>
<polygon class="st0" points="43.6,36.1 46.3,36.1 47.7,38.5 46.3,40.8 43.6,40.8 42.3,38.5 "/>
<polygon class="st0" points="52.6,36.1 55.3,36.1 56.7,38.5 55.3,40.8 52.6,40.8 51.3,38.5 "/>
<polygon class="st0" points="61.7,36.1 64.4,36.1 65.7,38.5 64.4,40.8 61.7,40.8 60.3,38.5 "/>
<polygon class="st0" points="70.7,36.1 73.4,36.1 74.7,38.5 73.4,40.8 70.7,40.8 69.3,38.5 "/>
<polygon class="st0" points="30.1,38.7 32.8,38.7 34.2,41 32.8,43.4 30.1,43.4 28.8,41 "/>
<polygon class="st0" points="39.1,38.7 41.8,38.7 43.2,41 41.8,43.4 39.1,43.4 37.8,41 "/>
<polygon class="st0" points="48.1,38.7 50.8,38.7 52.2,41 50.8,43.4 48.1,43.4 46.8,41 "/>
<polygon class="st0" points="57.2,38.7 59.9,38.7 61.2,41 59.9,43.4 57.2,43.4 55.8,41 "/>
<polygon class="st0" points="66.2,38.7 68.9,38.7 70.2,41 68.9,43.4 66.2,43.4 64.8,41 "/>
<polygon class="st0" points="75.2,38.7 77.9,38.7 79.2,41 77.9,43.4 75.2,43.4 73.8,41 "/>
<polygon class="st0" points="25.6,41.3 28.3,41.3 29.7,43.7 28.3,46 25.6,46 24.2,43.7 "/>
<polygon class="st0" points="34.6,41.3 37.3,41.3 38.7,43.7 37.3,46 34.6,46 33.3,43.7 "/>
<polygon class="st0" points="43.6,41.3 46.3,41.3 47.7,43.7 46.3,46 43.6,46 42.3,43.7 "/>
<polygon class="st0" points="52.6,41.3 55.3,41.3 56.7,43.7 55.3,46 52.6,46 51.3,43.7 "/>
<polygon class="st0" points="61.7,41.3 64.4,41.3 65.7,43.7 64.4,46 61.7,46 60.3,43.7 "/>
<polygon class="st0" points="70.7,41.3 73.4,41.3 74.7,43.7 73.4,46 70.7,46 69.3,43.7 "/>
<polygon class="st0" points="79.7,41.3 82.4,41.3 83.7,43.7 82.4,46 79.7,46 78.3,43.7 "/>
<polygon class="st0" points="30.1,43.9 32.8,43.9 34.2,46.3 32.8,48.6 30.1,48.6 28.8,46.3 "/>
<polygon class="st0" points="39.1,43.9 41.8,43.9 43.2,46.3 41.8,48.6 39.1,48.6 37.8,46.3 "/>
<polygon class="st0" points="48.1,43.9 50.8,43.9 52.2,46.3 50.8,48.6 48.1,48.6 46.8,46.3 "/>
<polygon class="st0" points="57.2,43.9 59.9,43.9 61.2,46.3 59.9,48.6 57.2,48.6 55.8,46.3 "/>
<polygon class="st0" points="66.2,43.9 68.9,43.9 70.2,46.3 68.9,48.6 66.2,48.6 64.8,46.3 "/>
<polygon class="st0" points="75.2,43.9 77.9,43.9 79.2,46.3 77.9,48.6 75.2,48.6 73.8,46.3 "/>
<polygon class="st0" points="25.6,46.5 28.3,46.5 29.7,48.9 28.3,51.2 25.6,51.2 24.2,48.9 "/>
<polygon class="st0" points="34.6,46.5 37.3,46.5 38.7,48.9 37.3,51.2 34.6,51.2 33.3,48.9 "/>
<polygon class="st0" points="43.6,46.5 46.3,46.5 47.7,48.9 46.3,51.2 43.6,51.2 42.3,48.9 "/>
<polygon class="st0" points="52.6,46.5 55.3,46.5 56.7,48.9 55.3,51.2 52.6,51.2 51.3,48.9 "/>
<polygon class="st0" points="61.7,46.5 64.4,46.5 65.7,48.9 64.4,51.2 61.7,51.2 60.3,48.9 "/>
<polygon class="st0" points="70.7,46.5 73.4,46.5 74.7,48.9 73.4,51.2 70.7,51.2 69.3,48.9 "/>
<polygon class="st0" points="79.7,46.5 82.4,46.5 83.7,48.9 82.4,51.2 79.7,51.2 78.3,48.9 "/>
<polygon class="st0" points="30.1,49.1 32.8,49.1 34.2,51.5 32.8,53.8 30.1,53.8 28.8,51.5 "/>
<polygon class="st0" points="39.1,49.1 41.8,49.1 43.2,51.5 41.8,53.8 39.1,53.8 37.8,51.5 "/>
<polygon class="st0" points="48.1,49.1 50.8,49.1 52.2,51.5 50.8,53.8 48.1,53.8 46.8,51.5 "/>
<polygon class="st0" points="57.2,49.1 59.9,49.1 61.2,51.5 59.9,53.8 57.2,53.8 55.8,51.5 "/>
<polygon class="st0" points="66.2,49.1 68.9,49.1 70.2,51.5 68.9,53.8 66.2,53.8 64.8,51.5 "/>
<polygon class="st0" points="75.2,49.1 77.9,49.1 79.2,51.5 77.9,53.8 75.2,53.8 73.8,51.5 "/>
<polygon class="st0" points="84.2,49.1 86.9,49.1 88.2,51.5 86.9,53.8 84.2,53.8 82.8,51.5 "/>
<polygon class="st0" points="93.2,49.1 95.9,49.1 97.3,51.5 95.9,53.8 93.2,53.8 91.8,51.5 "/>
<polygon class="st0" points="25.6,51.7 28.3,51.7 29.7,54.1 28.3,56.4 25.6,56.4 24.2,54.1 "/>
<polygon class="st0" points="34.6,51.7 37.3,51.7 38.7,54.1 37.3,56.4 34.6,56.4 33.3,54.1 "/>
<polygon class="st0" points="43.6,51.7 46.3,51.7 47.7,54.1 46.3,56.4 43.6,56.4 42.3,54.1 "/>
<polygon class="st0" points="52.6,51.7 55.3,51.7 56.7,54.1 55.3,56.4 52.6,56.4 51.3,54.1 "/>
<polygon class="st0" points="61.7,51.7 64.4,51.7 65.7,54.1 64.4,56.4 61.7,56.4 60.3,54.1 "/>
<polygon class="st0" points="70.7,51.7 73.4,51.7 74.7,54.1 73.4,56.4 70.7,56.4 69.3,54.1 "/>
<polygon class="st0" points="79.7,51.7 82.4,51.7 83.7,54.1 82.4,56.4 79.7,56.4 78.3,54.1 "/>
<polygon class="st0" points="88.7,51.7 91.4,51.7 92.8,54.1 91.4,56.4 88.7,56.4 87.3,54.1 "/>
<polygon class="st0" points="97.7,51.7 100.4,51.7 101.8,54.1 100.4,56.4 97.7,56.4 96.4,54.1 "/>
<polygon class="st0" points="30.1,54.3 32.8,54.3 34.2,56.7 32.8,59 30.1,59 28.8,56.7 "/>
<polygon class="st0" points="39.1,54.3 41.8,54.3 43.2,56.7 41.8,59 39.1,59 37.8,56.7 "/>
<polygon class="st0" points="48.1,54.3 50.8,54.3 52.2,56.7 50.8,59 48.1,59 46.8,56.7 "/>
<polygon class="st0" points="57.2,54.3 59.9,54.3 61.2,56.7 59.9,59 57.2,59 55.8,56.7 "/>
<polygon class="st0" points="66.2,54.3 68.9,54.3 70.2,56.7 68.9,59 66.2,59 64.8,56.7 "/>
<polygon class="st0" points="75.2,54.3 77.9,54.3 79.2,56.7 77.9,59 75.2,59 73.8,56.7 "/>
<polygon class="st0" points="84.2,54.3 86.9,54.3 88.2,56.7 86.9,59 84.2,59 82.8,56.7 "/>
<polygon class="st0" points="93.2,54.3 95.9,54.3 97.3,56.7 95.9,59 93.2,59 91.8,56.7 "/>
<polygon class="st0" points="102.2,54.3 104.9,54.3 106.3,56.7 104.9,59 102.2,59 100.9,56.7 "/>
<polygon class="st0" points="25.6,56.9 28.3,56.9 29.7,59.3 28.3,61.6 25.6,61.6 24.2,59.3 "/>
<polygon class="st0" points="34.6,56.9 37.3,56.9 38.7,59.3 37.3,61.6 34.6,61.6 33.3,59.3 "/>
<polygon class="st0" points="43.6,56.9 46.3,56.9 47.7,59.3 46.3,61.6 43.6,61.6 42.3,59.3 "/>
<polygon class="st0" points="52.6,56.9 55.3,56.9 56.7,59.3 55.3,61.6 52.6,61.6 51.3,59.3 "/>
<polygon class="st0" points="61.7,56.9 64.4,56.9 65.7,59.3 64.4,61.6 61.7,61.6 60.3,59.3 "/>
<polygon class="st0" points="70.7,56.9 73.4,56.9 74.7,59.3 73.4,61.6 70.7,61.6 69.3,59.3 "/>
<polygon class="st0" points="79.7,56.9 82.4,56.9 83.7,59.3 82.4,61.6 79.7,61.6 78.3,59.3 "/>
<polygon class="st0" points="88.7,56.9 91.4,56.9 92.8,59.3 91.4,61.6 88.7,61.6 87.3,59.3 "/>
<polygon class="st0" points="97.7,56.9 100.4,56.9 101.8,59.3 100.4,61.6 97.7,61.6 96.4,59.3 "/>
<polygon class="st0" points="21.1,59.5 23.8,59.5 25.1,61.9 23.8,64.2 21.1,64.2 19.7,61.9 "/>
<polygon class="st0" points="30.1,59.5 32.8,59.5 34.2,61.9 32.8,64.2 30.1,64.2 28.8,61.9 "/>
<polygon class="st0" points="39.1,59.5 41.8,59.5 43.2,61.9 41.8,64.2 39.1,64.2 37.8,61.9 "/>
<polygon class="st0" points="48.1,59.5 50.8,59.5 52.2,61.9 50.8,64.2 48.1,64.2 46.8,61.9 "/>
<polygon class="st0" points="57.2,59.5 59.9,59.5 61.2,61.9 59.9,64.2 57.2,64.2 55.8,61.9 "/>
<polygon class="st0" points="66.2,59.5 68.9,59.5 70.2,61.9 68.9,64.2 66.2,64.2 64.8,61.9 "/>
<polygon class="st0" points="75.2,59.5 77.9,59.5 79.2,61.9 77.9,64.2 75.2,64.2 73.8,61.9 "/>
<polygon class="st0" points="84.2,59.5 86.9,59.5 88.2,61.9 86.9,64.2 84.2,64.2 82.8,61.9 "/>
<polygon class="st0" points="93.2,59.5 95.9,59.5 97.3,61.9 95.9,64.2 93.2,64.2 91.8,61.9 "/>
<polygon class="st0" points="25.6,62.1 28.3,62.1 29.7,64.5 28.3,66.8 25.6,66.8 24.2,64.5 "/>
<polygon class="st0" points="34.6,62.1 37.3,62.1 38.7,64.5 37.3,66.8 34.6,66.8 33.3,64.5 "/>
<polygon class="st0" points="43.6,62.1 46.3,62.1 47.7,64.5 46.3,66.8 43.6,66.8 42.3,64.5 "/>
<polygon class="st0" points="52.6,62.1 55.3,62.1 56.7,64.5 55.3,66.8 52.6,66.8 51.3,64.5 "/>
<polygon class="st0" points="61.7,62.1 64.4,62.1 65.7,64.5 64.4,66.8 61.7,66.8 60.3,64.5 "/>
<polygon class="st0" points="70.7,62.1 73.4,62.1 74.7,64.5 73.4,66.8 70.7,66.8 69.3,64.5 "/>
<polygon class="st0" points="79.7,62.1 82.4,62.1 83.7,64.5 82.4,66.8 79.7,66.8 78.3,64.5 "/>
<polygon class="st0" points="88.7,62.1 91.4,62.1 92.8,64.5 91.4,66.8 88.7,66.8 87.3,64.5 "/>
<polygon class="st0" points="97.7,62.1 100.4,62.1 101.8,64.5 100.4,66.8 97.7,66.8 96.4,64.5 "/>
<polygon class="st0" points="21.1,64.7 23.8,64.7 25.1,67.1 23.8,69.4 21.1,69.4 19.7,67.1 "/>
<polygon class="st0" points="30.1,64.7 32.8,64.7 34.2,67.1 32.8,69.4 30.1,69.4 28.8,67.1 "/>
<polygon class="st0" points="39.1,64.7 41.8,64.7 43.2,67.1 41.8,69.4 39.1,69.4 37.8,67.1 "/>
<polygon class="st0" points="48.1,64.7 50.8,64.7 52.2,67.1 50.8,69.4 48.1,69.4 46.8,67.1 "/>
<polygon class="st0" points="57.2,64.7 59.9,64.7 61.2,67.1 59.9,69.4 57.2,69.4 55.8,67.1 "/>
<polygon class="st0" points="66.2,64.7 68.9,64.7 70.2,67.1 68.9,69.4 66.2,69.4 64.8,67.1 "/>
<polygon class="st0" points="75.2,64.7 77.9,64.7 79.2,67.1 77.9,69.4 75.2,69.4 73.8,67.1 "/>
<polygon class="st0" points="84.2,64.7 86.9,64.7 88.2,67.1 86.9,69.4 84.2,69.4 82.8,67.1 "/>
<polygon class="st0" points="93.2,64.7 95.9,64.7 97.3,67.1 95.9,69.4 93.2,69.4 91.8,67.1 "/>
<polygon class="st0" points="16.6,67.3 19.3,67.3 20.6,69.7 19.3,72 16.6,72 15.2,69.7 "/>
<polygon class="st0" points="25.6,67.3 28.3,67.3 29.7,69.7 28.3,72 25.6,72 24.2,69.7 "/>
<polygon class="st0" points="34.6,67.3 37.3,67.3 38.7,69.7 37.3,72 34.6,72 33.3,69.7 "/>
<polygon class="st0" points="43.6,67.3 46.3,67.3 47.7,69.7 46.3,72 43.6,72 42.3,69.7 "/>
<polygon class="st0" points="52.6,67.3 55.3,67.3 56.7,69.7 55.3,72 52.6,72 51.3,69.7 "/>
<polygon class="st0" points="61.7,67.3 64.4,67.3 65.7,69.7 64.4,72 61.7,72 60.3,69.7 "/>
<polygon class="st0" points="70.7,67.3 73.4,67.3 74.7,69.7 73.4,72 70.7,72 69.3,69.7 "/>
<polygon class="st0" points="79.7,67.3 82.4,67.3 83.7,69.7 82.4,72 79.7,72 78.3,69.7 "/>
<polygon class="st0" points="88.7,67.3 91.4,67.3 92.8,69.7 91.4,72 88.7,72 87.3,69.7 "/>
<polygon class="st0" points="97.7,67.3 100.4,67.3 101.8,69.7 100.4,72 97.7,72 96.4,69.7 "/>
<polygon class="st0" points="21.1,69.9 23.8,69.9 25.1,72.3 23.8,74.6 21.1,74.6 19.7,72.3 "/>
<polygon class="st0" points="30.1,69.9 32.8,69.9 34.2,72.3 32.8,74.6 30.1,74.6 28.8,72.3 "/>
<polygon class="st0" points="39.1,69.9 41.8,69.9 43.2,72.3 41.8,74.6 39.1,74.6 37.8,72.3 "/>
<polygon class="st0" points="48.1,69.9 50.8,69.9 52.2,72.3 50.8,74.6 48.1,74.6 46.8,72.3 "/>
<polygon class="st0" points="57.2,69.9 59.9,69.9 61.2,72.3 59.9,74.6 57.2,74.6 55.8,72.3 "/>
<polygon class="st0" points="66.2,69.9 68.9,69.9 70.2,72.3 68.9,74.6 66.2,74.6 64.8,72.3 "/>
<polygon class="st0" points="75.2,69.9 77.9,69.9 79.2,72.3 77.9,74.6 75.2,74.6 73.8,72.3 "/>
<polygon class="st0" points="84.2,69.9 86.9,69.9 88.2,72.3 86.9,74.6 84.2,74.6 82.8,72.3 "/>
<polygon class="st0" points="93.2,69.9 95.9,69.9 97.3,72.3 95.9,74.6 93.2,74.6 91.8,72.3 "/>
<polygon class="st0" points="16.6,72.5 19.3,72.5 20.6,74.9 19.3,77.2 16.6,77.2 15.2,74.9 "/>
<polygon class="st0" points="25.6,72.5 28.3,72.5 29.7,74.9 28.3,77.2 25.6,77.2 24.2,74.9 "/>
<polygon class="st0" points="34.6,72.5 37.3,72.5 38.7,74.9 37.3,77.2 34.6,77.2 33.3,74.9 "/>
<polygon class="st0" points="43.6,72.5 46.3,72.5 47.7,74.9 46.3,77.2 43.6,77.2 42.3,74.9 "/>
<polygon class="st0" points="52.6,72.5 55.3,72.5 56.7,74.9 55.3,77.2 52.6,77.2 51.3,74.9 "/>
<polygon class="st0" points="61.7,72.5 64.4,72.5 65.7,74.9 64.4,77.2 61.7,77.2 60.3,74.9 "/>
<polygon class="st0" points="70.7,72.5 73.4,72.5 74.7,74.9 73.4,77.2 70.7,77.2 69.3,74.9 "/>
<polygon class="st0" points="79.7,72.5 82.4,72.5 83.7,74.9 82.4,77.2 79.7,77.2 78.3,74.9 "/>
<polygon class="st0" points="88.7,72.5 91.4,72.5 92.8,74.9 91.4,77.2 88.7,77.2 87.3,74.9 "/>
<polygon class="st0" points="97.7,72.5 100.4,72.5 101.8,74.9 100.4,77.2 97.7,77.2 96.4,74.9 "/>
<polygon class="st0" points="12.1,75.1 14.8,75.1 16.1,77.5 14.8,79.8 12.1,79.8 10.7,77.5 "/>
<polygon class="st0" points="21.1,75.1 23.8,75.1 25.1,77.5 23.8,79.8 21.1,79.8 19.7,77.5 "/>
<polygon class="st0" points="30.1,75.1 32.8,75.1 34.2,77.5 32.8,79.8 30.1,79.8 28.8,77.5 "/>
<polygon class="st0" points="39.1,75.1 41.8,75.1 43.2,77.5 41.8,79.8 39.1,79.8 37.8,77.5 "/>
<polygon class="st0" points="48.1,75.1 50.8,75.1 52.2,77.5 50.8,79.8 48.1,79.8 46.8,77.5 "/>
<polygon class="st0" points="57.2,75.1 59.9,75.1 61.2,77.5 59.9,79.8 57.2,79.8 55.8,77.5 "/>
<polygon class="st0" points="66.2,75.1 68.9,75.1 70.2,77.5 68.9,79.8 66.2,79.8 64.8,77.5 "/>
<polygon class="st0" points="75.2,75.1 77.9,75.1 79.2,77.5 77.9,79.8 75.2,79.8 73.8,77.5 "/>
<polygon class="st0" points="84.2,75.1 86.9,75.1 88.2,77.5 86.9,79.8 84.2,79.8 82.8,77.5 "/>
<polygon class="st0" points="93.2,75.1 95.9,75.1 97.3,77.5 95.9,79.8 93.2,79.8 91.8,77.5 "/>
<polygon class="st0" points="16.6,77.7 19.3,77.7 20.6,80.1 19.3,82.4 16.6,82.4 15.2,80.1 "/>
<polygon class="st0" points="25.6,77.7 28.3,77.7 29.7,80.1 28.3,82.4 25.6,82.4 24.2,80.1 "/>
<polygon class="st0" points="34.6,77.7 37.3,77.7 38.7,80.1 37.3,82.4 34.6,82.4 33.3,80.1 "/>
<polygon class="st0" points="43.6,77.7 46.3,77.7 47.7,80.1 46.3,82.4 43.6,82.4 42.3,80.1 "/>
<polygon class="st0" points="52.6,77.7 55.3,77.7 56.7,80.1 55.3,82.4 52.6,82.4 51.3,80.1 "/>
<polygon class="st0" points="61.7,77.7 64.4,77.7 65.7,80.1 64.4,82.4 61.7,82.4 60.3,80.1 "/>
<polygon class="st0" points="70.7,77.7 73.4,77.7 74.7,80.1 73.4,82.4 70.7,82.4 69.3,80.1 "/>
<polygon class="st0" points="79.7,77.7 82.4,77.7 83.7,80.1 82.4,82.4 79.7,82.4 78.3,80.1 "/>
<polygon class="st0" points="88.7,77.7 91.4,77.7 92.8,80.1 91.4,82.4 88.7,82.4 87.3,80.1 "/>
<polygon class="st0" points="97.7,77.7 100.4,77.7 101.8,80.1 100.4,82.4 97.7,82.4 96.4,80.1 "/>
<polygon class="st0" points="124.8,77.7 127.4,77.7 128.8,80.1 127.4,82.4 124.8,82.4 123.4,80.1 "/>
<polygon class="st0" points="133.8,77.7 136.5,77.7 137.8,80.1 136.5,82.4 133.8,82.4 132.4,80.1 "/>
<polygon class="st0" points="21.1,80.3 23.8,80.3 25.1,82.7 23.8,85 21.1,85 19.7,82.7 "/>
<polygon class="st0" points="30.1,80.3 32.8,80.3 34.2,82.7 32.8,85 30.1,85 28.8,82.7 "/>
<polygon class="st0" points="39.1,80.3 41.8,80.3 43.2,82.7 41.8,85 39.1,85 37.8,82.7 "/>
<polygon class="st0" points="48.1,80.3 50.8,80.3 52.2,82.7 50.8,85 48.1,85 46.8,82.7 "/>
<polygon class="st0" points="57.2,80.3 59.9,80.3 61.2,82.7 59.9,85 57.2,85 55.8,82.7 "/>
<polygon class="st0" points="66.2,80.3 68.9,80.3 70.2,82.7 68.9,85 66.2,85 64.8,82.7 "/>
<polygon class="st0" points="75.2,80.3 77.9,80.3 79.2,82.7 77.9,85 75.2,85 73.8,82.7 "/>
<polygon class="st0" points="84.2,80.3 86.9,80.3 88.2,82.7 86.9,85 84.2,85 82.8,82.7 "/>
<polygon class="st0" points="93.2,80.3 95.9,80.3 97.3,82.7 95.9,85 93.2,85 91.8,82.7 "/>
<polygon class="st0" points="102.2,80.3 104.9,80.3 106.3,82.7 104.9,85 102.2,85 100.9,82.7 "/>
<polygon class="st0" points="111.2,80.3 113.9,80.3 115.3,82.7 113.9,85 111.2,85 109.9,82.7 "/>
<polygon class="st0" points="120.2,80.3 122.9,80.3 124.3,82.7 122.9,85 120.2,85 118.9,82.7 "/>
<polygon class="st0" points="129.2,80.3 132,80.3 133.3,82.7 132,85 129.2,85 127.9,82.7 "/>
<polygon class="st0" points="138.3,80.3 141,80.3 142.3,82.7 141,85 138.3,85 136.9,82.7 "/>
<polygon class="st0" points="16.6,82.9 19.3,82.9 20.6,85.3 19.3,87.6 16.6,87.6 15.2,85.3 "/>
<polygon class="st0" points="25.6,82.9 28.3,82.9 29.7,85.3 28.3,87.6 25.6,87.6 24.2,85.3 "/>
<polygon class="st0" points="34.6,82.9 37.3,82.9 38.7,85.3 37.3,87.6 34.6,87.6 33.3,85.3 "/>
<polygon class="st0" points="43.6,82.9 46.3,82.9 47.7,85.3 46.3,87.6 43.6,87.6 42.3,85.3 "/>
<polygon class="st0" points="52.6,82.9 55.3,82.9 56.7,85.3 55.3,87.6 52.6,87.6 51.3,85.3 "/>
<polygon class="st0" points="61.7,82.9 64.4,82.9 65.7,85.3 64.4,87.6 61.7,87.6 60.3,85.3 "/>
<polygon class="st0" points="70.7,82.9 73.4,82.9 74.7,85.3 73.4,87.6 70.7,87.6 69.3,85.3 "/>
<polygon class="st0" points="79.7,82.9 82.4,82.9 83.7,85.3 82.4,87.6 79.7,87.6 78.3,85.3 "/>
<polygon class="st0" points="88.7,82.9 91.4,82.9 92.8,85.3 91.4,87.6 88.7,87.6 87.3,85.3 "/>
<polygon class="st0" points="97.7,82.9 100.4,82.9 101.8,85.3 100.4,87.6 97.7,87.6 96.4,85.3 "/>
<polygon class="st0" points="106.7,82.9 109.4,82.9 110.8,85.3 109.4,87.6 106.7,87.6 105.4,85.3 "/>
<polygon class="st0" points="115.7,82.9 118.4,82.9 119.8,85.3 118.4,87.6 115.7,87.6 114.4,85.3 "/>
<polygon class="st0" points="124.8,82.9 127.4,82.9 128.8,85.3 127.4,87.6 124.8,87.6 123.4,85.3 "/>
<polygon class="st0" points="133.8,82.9 136.5,82.9 137.8,85.3 136.5,87.6 133.8,87.6 132.4,85.3 "/>
<polygon class="st0" points="142.8,82.9 145.5,82.9 146.8,85.3 145.5,87.6 142.8,87.6 141.4,85.3 "/>
<polygon class="st0" points="12.1,85.6 14.8,85.6 16.1,87.9 14.8,90.2 12.1,90.2 10.7,87.9 "/>
<polygon class="st0" points="21.1,85.6 23.8,85.6 25.1,87.9 23.8,90.2 21.1,90.2 19.7,87.9 "/>
<polygon class="st0" points="30.1,85.6 32.8,85.6 34.2,87.9 32.8,90.2 30.1,90.2 28.8,87.9 "/>
<polygon class="st0" points="39.1,85.6 41.8,85.6 43.2,87.9 41.8,90.2 39.1,90.2 37.8,87.9 "/>
<polygon class="st0" points="48.1,85.6 50.8,85.6 52.2,87.9 50.8,90.2 48.1,90.2 46.8,87.9 "/>
<polygon class="st0" points="57.2,85.6 59.9,85.6 61.2,87.9 59.9,90.2 57.2,90.2 55.8,87.9 "/>
<polygon class="st0" points="66.2,85.6 68.9,85.6 70.2,87.9 68.9,90.2 66.2,90.2 64.8,87.9 "/>
<polygon class="st0" points="75.2,85.6 77.9,85.6 79.2,87.9 77.9,90.2 75.2,90.2 73.8,87.9 "/>
<polygon class="st0" points="84.2,85.6 86.9,85.6 88.2,87.9 86.9,90.2 84.2,90.2 82.8,87.9 "/>
<polygon class="st0" points="93.2,85.6 95.9,85.6 97.3,87.9 95.9,90.2 93.2,90.2 91.8,87.9 "/>
<polygon class="st0" points="102.2,85.6 104.9,85.6 106.3,87.9 104.9,90.2 102.2,90.2 100.9,87.9 "/>
<polygon class="st0" points="111.2,85.6 113.9,85.6 115.3,87.9 113.9,90.2 111.2,90.2 109.9,87.9 "/>
<polygon class="st0" points="120.2,85.6 122.9,85.6 124.3,87.9 122.9,90.2 120.2,90.2 118.9,87.9 "/>
<polygon class="st0" points="129.2,85.6 132,85.6 133.3,87.9 132,90.2 129.2,90.2 127.9,87.9 "/>
<polygon class="st0" points="138.3,85.6 141,85.6 142.3,87.9 141,90.2 138.3,90.2 136.9,87.9 "/>
<polygon class="st0" points="147.3,85.6 150,85.6 151.3,87.9 150,90.2 147.3,90.2 145.9,87.9 "/>
<polygon class="st0" points="16.6,88.2 19.3,88.2 20.6,90.5 19.3,92.8 16.6,92.8 15.2,90.5 "/>
<polygon class="st0" points="25.6,88.2 28.3,88.2 29.7,90.5 28.3,92.8 25.6,92.8 24.2,90.5 "/>
<polygon class="st0" points="34.6,88.2 37.3,88.2 38.7,90.5 37.3,92.8 34.6,92.8 33.3,90.5 "/>
<polygon class="st0" points="43.6,88.2 46.3,88.2 47.7,90.5 46.3,92.8 43.6,92.8 42.3,90.5 "/>
<polygon class="st0" points="52.6,88.2 55.3,88.2 56.7,90.5 55.3,92.8 52.6,92.8 51.3,90.5 "/>
<polygon class="st0" points="61.7,88.2 64.4,88.2 65.7,90.5 64.4,92.8 61.7,92.8 60.3,90.5 "/>
<polygon class="st0" points="70.7,88.2 73.4,88.2 74.7,90.5 73.4,92.8 70.7,92.8 69.3,90.5 "/>
<polygon class="st0" points="79.7,88.2 82.4,88.2 83.7,90.5 82.4,92.8 79.7,92.8 78.3,90.5 "/>
<polygon class="st0" points="88.7,88.2 91.4,88.2 92.8,90.5 91.4,92.8 88.7,92.8 87.3,90.5 "/>
<polygon class="st0" points="97.7,88.2 100.4,88.2 101.8,90.5 100.4,92.8 97.7,92.8 96.4,90.5 "/>
<polygon class="st0" points="106.7,88.2 109.4,88.2 110.8,90.5 109.4,92.8 106.7,92.8 105.4,90.5 "/>
<polygon class="st0" points="115.7,88.2 118.4,88.2 119.8,90.5 118.4,92.8 115.7,92.8 114.4,90.5 "/>
<polygon class="st0" points="124.8,88.2 127.4,88.2 128.8,90.5 127.4,92.8 124.8,92.8 123.4,90.5 "/>
<polygon class="st0" points="133.8,88.2 136.5,88.2 137.8,90.5 136.5,92.8 133.8,92.8 132.4,90.5 "/>
<polygon class="st0" points="142.8,88.2 145.5,88.2 146.8,90.5 145.5,92.8 142.8,92.8 141.4,90.5 "/>
<polygon class="st0" points="151.8,88.2 154.5,88.2 155.8,90.5 154.5,92.8 151.8,92.8 150.4,90.5 "/>
<polygon class="st0" points="21.1,90.8 23.8,90.8 25.1,93.1 23.8,95.4 21.1,95.4 19.7,93.1 "/>
<polygon class="st0" points="30.1,90.8 32.8,90.8 34.2,93.1 32.8,95.4 30.1,95.4 28.8,93.1 "/>
<polygon class="st0" points="39.1,90.8 41.8,90.8 43.2,93.1 41.8,95.4 39.1,95.4 37.8,93.1 "/>
<polygon class="st0" points="48.1,90.8 50.8,90.8 52.2,93.1 50.8,95.4 48.1,95.4 46.8,93.1 "/>
<polygon class="st0" points="57.2,90.8 59.9,90.8 61.2,93.1 59.9,95.4 57.2,95.4 55.8,93.1 "/>
<polygon class="st0" points="66.2,90.8 68.9,90.8 70.2,93.1 68.9,95.4 66.2,95.4 64.8,93.1 "/>
<polygon class="st0" points="75.2,90.8 77.9,90.8 79.2,93.1 77.9,95.4 75.2,95.4 73.8,93.1 "/>
<polygon class="st0" points="84.2,90.8 86.9,90.8 88.2,93.1 86.9,95.4 84.2,95.4 82.8,93.1 "/>
<polygon class="st0" points="93.2,90.8 95.9,90.8 97.3,93.1 95.9,95.4 93.2,95.4 91.8,93.1 "/>
<polygon class="st0" points="102.2,90.8 104.9,90.8 106.3,93.1 104.9,95.4 102.2,95.4 100.9,93.1 "/>
<polygon class="st0" points="111.2,90.8 113.9,90.8 115.3,93.1 113.9,95.4 111.2,95.4 109.9,93.1 "/>
<polygon class="st0" points="120.2,90.8 122.9,90.8 124.3,93.1 122.9,95.4 120.2,95.4 118.9,93.1 "/>
<polygon class="st0" points="129.2,90.8 132,90.8 133.3,93.1 132,95.4 129.2,95.4 127.9,93.1 "/>
<polygon class="st0" points="138.3,90.8 141,90.8 142.3,93.1 141,95.4 138.3,95.4 136.9,93.1 "/>
<polygon class="st0" points="147.3,90.8 150,90.8 151.3,93.1 150,95.4 147.3,95.4 145.9,93.1 "/>
<polygon class="st0" points="156.3,90.8 159,90.8 160.4,93.1 159,95.4 156.3,95.4 154.9,93.1 "/>
<polygon class="st0" points="16.6,93.3 19.3,93.3 20.6,95.7 19.3,98 16.6,98 15.2,95.7 "/>
<polygon class="st0" points="25.6,93.3 28.3,93.3 29.7,95.7 28.3,98 25.6,98 24.2,95.7 "/>
<polygon class="st0" points="34.6,93.3 37.3,93.3 38.7,95.7 37.3,98 34.6,98 33.3,95.7 "/>
<polygon class="st0" points="43.6,93.3 46.3,93.3 47.7,95.7 46.3,98 43.6,98 42.3,95.7 "/>
<polygon class="st0" points="52.6,93.3 55.3,93.3 56.7,95.7 55.3,98 52.6,98 51.3,95.7 "/>
<polygon class="st0" points="61.7,93.3 64.4,93.3 65.7,95.7 64.4,98 61.7,98 60.3,95.7 "/>
<polygon class="st0" points="70.7,93.3 73.4,93.3 74.7,95.7 73.4,98 70.7,98 69.3,95.7 "/>
<polygon class="st0" points="79.7,93.3 82.4,93.3 83.7,95.7 82.4,98 79.7,98 78.3,95.7 "/>
<polygon class="st0" points="88.7,93.3 91.4,93.3 92.8,95.7 91.4,98 88.7,98 87.3,95.7 "/>
<polygon class="st0" points="97.7,93.3 100.4,93.3 101.8,95.7 100.4,98 97.7,98 96.4,95.7 "/>
<polygon class="st0" points="106.7,93.3 109.4,93.3 110.8,95.7 109.4,98 106.7,98 105.4,95.7 "/>
<polygon class="st0" points="115.7,93.3 118.4,93.3 119.8,95.7 118.4,98 115.7,98 114.4,95.7 "/>
<polygon class="st0" points="124.8,93.3 127.4,93.3 128.8,95.7 127.4,98 124.8,98 123.4,95.7 "/>
<polygon class="st0" points="133.8,93.3 136.5,93.3 137.8,95.7 136.5,98 133.8,98 132.4,95.7 "/>
<polygon class="st0" points="142.8,93.3 145.5,93.3 146.8,95.7 145.5,98 142.8,98 141.4,95.7 "/>
<polygon class="st0" points="151.8,93.3 154.5,93.3 155.8,95.7 154.5,98 151.8,98 150.4,95.7 "/>
<polygon class="st0" points="21.1,95.9 23.8,95.9 25.1,98.3 23.8,100.6 21.1,100.6 19.7,98.3 "/>
<polygon class="st0" points="30.1,95.9 32.8,95.9 34.2,98.3 32.8,100.6 30.1,100.6 28.8,98.3 "/>
<polygon class="st0" points="39.1,95.9 41.8,95.9 43.2,98.3 41.8,100.6 39.1,100.6 37.8,98.3 "/>
<polygon class="st0" points="48.1,95.9 50.8,95.9 52.2,98.3 50.8,100.6 48.1,100.6 46.8,98.3 "/>
<polygon class="st0" points="57.2,95.9 59.9,95.9 61.2,98.3 59.9,100.6 57.2,100.6 55.8,98.3 "/>
<polygon class="st0" points="66.2,95.9 68.9,95.9 70.2,98.3 68.9,100.6 66.2,100.6 64.8,98.3 "/>
<polygon class="st0" points="75.2,95.9 77.9,95.9 79.2,98.3 77.9,100.6 75.2,100.6 73.8,98.3 "/>
<polygon class="st0" points="84.2,95.9 86.9,95.9 88.2,98.3 86.9,100.6 84.2,100.6 82.8,98.3 "/>
<polygon class="st0" points="93.2,95.9 95.9,95.9 97.3,98.3 95.9,100.6 93.2,100.6 91.8,98.3 "/>
<polygon class="st0" points="102.2,95.9 104.9,95.9 106.3,98.3 104.9,100.6 102.2,100.6 100.9,98.3 "/>
<polygon class="st0" points="111.2,95.9 113.9,95.9 115.3,98.3 113.9,100.6 111.2,100.6 109.9,98.3 "/>
<polygon class="st0" points="120.2,95.9 122.9,95.9 124.3,98.3 122.9,100.6 120.2,100.6 118.9,98.3 "/>
<polygon class="st0" points="129.2,95.9 132,95.9 133.3,98.3 132,100.6 129.2,100.6 127.9,98.3 "/>
<polygon class="st0" points="138.3,95.9 141,95.9 142.3,98.3 141,100.6 138.3,100.6 136.9,98.3 "/>
<polygon class="st0" points="147.3,95.9 150,95.9 151.3,98.3 150,100.6 147.3,100.6 145.9,98.3 "/>
<polygon class="st0" points="156.3,95.9 159,95.9 160.4,98.3 159,100.6 156.3,100.6 154.9,98.3 "/>
<polygon class="st0" points="25.6,98.6 28.3,98.6 29.7,100.9 28.3,103.2 25.6,103.2 24.2,100.9 "/>
<polygon class="st0" points="34.6,98.6 37.3,98.6 38.7,100.9 37.3,103.2 34.6,103.2 33.3,100.9 "/>
<polygon class="st0" points="43.6,98.6 46.3,98.6 47.7,100.9 46.3,103.2 43.6,103.2 42.3,100.9 "/>
<polygon class="st0" points="52.6,98.6 55.3,98.6 56.7,100.9 55.3,103.2 52.6,103.2 51.3,100.9 "/>
<polygon class="st0" points="61.7,98.6 64.4,98.6 65.7,100.9 64.4,103.2 61.7,103.2 60.3,100.9 "/>
<polygon class="st0" points="70.7,98.6 73.4,98.6 74.7,100.9 73.4,103.2 70.7,103.2 69.3,100.9 "/>
<polygon class="st0" points="79.7,98.6 82.4,98.6 83.7,100.9 82.4,103.2 79.7,103.2 78.3,100.9 "/>
<polygon class="st0" points="88.7,98.6 91.4,98.6 92.8,100.9 91.4,103.2 88.7,103.2 87.3,100.9 "/>
<polygon class="st0" points="97.7,98.6 100.4,98.6 101.8,100.9 100.4,103.2 97.7,103.2 96.4,100.9 "/>
<polygon class="st0" points="106.7,98.6 109.4,98.6 110.8,100.9 109.4,103.2 106.7,103.2 105.4,100.9 "/>
<polygon class="st0" points="115.7,98.6 118.4,98.6 119.8,100.9 118.4,103.2 115.7,103.2 114.4,100.9 "/>
<polygon class="st0" points="124.8,98.6 127.4,98.6 128.8,100.9 127.4,103.2 124.8,103.2 123.4,100.9 "/>
<polygon class="st0" points="133.8,98.6 136.5,98.6 137.8,100.9 136.5,103.2 133.8,103.2 132.4,100.9 "/>
<polygon class="st0" points="142.8,98.6 145.5,98.6 146.8,100.9 145.5,103.2 142.8,103.2 141.4,100.9 "/>
<polygon class="st0" points="151.8,98.6 154.5,98.6 155.8,100.9 154.5,103.2 151.8,103.2 150.4,100.9 "/>
<polygon class="st0" points="21.1,101.2 23.8,101.2 25.1,103.5 23.8,105.8 21.1,105.8 19.7,103.5 "/>
<polygon class="st0" points="30.1,101.2 32.8,101.2 34.2,103.5 32.8,105.8 30.1,105.8 28.8,103.5 "/>
<polygon class="st0" points="39.1,101.2 41.8,101.2 43.2,103.5 41.8,105.8 39.1,105.8 37.8,103.5 "/>
<polygon class="st0" points="48.1,101.2 50.8,101.2 52.2,103.5 50.8,105.8 48.1,105.8 46.8,103.5 "/>
<polygon class="st0" points="57.2,101.2 59.9,101.2 61.2,103.5 59.9,105.8 57.2,105.8 55.8,103.5 "/>
<polygon class="st0" points="66.2,101.2 68.9,101.2 70.2,103.5 68.9,105.8 66.2,105.8 64.8,103.5 "/>
<polygon class="st0" points="75.2,101.2 77.9,101.2 79.2,103.5 77.9,105.8 75.2,105.8 73.8,103.5 "/>
<polygon class="st0" points="84.2,101.2 86.9,101.2 88.2,103.5 86.9,105.8 84.2,105.8 82.8,103.5 "/>
<polygon class="st0" points="93.2,101.2 95.9,101.2 97.3,103.5 95.9,105.8 93.2,105.8 91.8,103.5 "/>
<polygon class="st0" points="102.2,101.2 104.9,101.2 106.3,103.5 104.9,105.8 102.2,105.8 100.9,103.5 "/>
<polygon class="st0" points="111.2,101.2 113.9,101.2 115.3,103.5 113.9,105.8 111.2,105.8 109.9,103.5 "/>
<polygon class="st0" points="120.2,101.2 122.9,101.2 124.3,103.5 122.9,105.8 120.2,105.8 118.9,103.5 "/>
<polygon class="st0" points="129.2,101.2 132,101.2 133.3,103.5 132,105.8 129.2,105.8 127.9,103.5 "/>
<polygon class="st0" points="138.3,101.2 141,101.2 142.3,103.5 141,105.8 138.3,105.8 136.9,103.5 "/>
<polygon class="st0" points="147.3,101.2 150,101.2 151.3,103.5 150,105.8 147.3,105.8 145.9,103.5 "/>
<polygon class="st0" points="25.6,103.8 28.3,103.8 29.7,106.1 28.3,108.4 25.6,108.4 24.2,106.1 "/>
<polygon class="st0" points="34.6,103.8 37.3,103.8 38.7,106.1 37.3,108.4 34.6,108.4 33.3,106.1 "/>
<polygon class="st0" points="43.6,103.8 46.3,103.8 47.7,106.1 46.3,108.4 43.6,108.4 42.3,106.1 "/>
<polygon class="st0" points="52.6,103.8 55.3,103.8 56.7,106.1 55.3,108.4 52.6,108.4 51.3,106.1 "/>
<polygon class="st0" points="61.7,103.8 64.4,103.8 65.7,106.1 64.4,108.4 61.7,108.4 60.3,106.1 "/>
<polygon class="st0" points="70.7,103.8 73.4,103.8 74.7,106.1 73.4,108.4 70.7,108.4 69.3,106.1 "/>
<polygon class="st0" points="79.7,103.8 82.4,103.8 83.7,106.1 82.4,108.4 79.7,108.4 78.3,106.1 "/>
<polygon class="st0" points="88.7,103.8 91.4,103.8 92.8,106.1 91.4,108.4 88.7,108.4 87.3,106.1 "/>
<polygon class="st0" points="97.7,103.8 100.4,103.8 101.8,106.1 100.4,108.4 97.7,108.4 96.4,106.1 "/>
<polygon class="st0" points="106.7,103.8 109.4,103.8 110.8,106.1 109.4,108.4 106.7,108.4 105.4,106.1 "/>
<polygon class="st0" points="115.7,103.8 118.4,103.8 119.8,106.1 118.4,108.4 115.7,108.4 114.4,106.1 "/>
<polygon class="st0" points="124.8,103.8 127.4,103.8 128.8,106.1 127.4,108.4 124.8,108.4 123.4,106.1 "/>
<polygon class="st0" points="133.8,103.8 136.5,103.8 137.8,106.1 136.5,108.4 133.8,108.4 132.4,106.1 "/>
<polygon class="st0" points="142.8,103.8 145.5,103.8 146.8,106.1 145.5,108.4 142.8,108.4 141.4,106.1 "/>
<polygon class="st0" points="151.8,103.8 154.5,103.8 155.8,106.1 154.5,108.4 151.8,108.4 150.4,106.1 "/>
<polygon class="st0" points="30.1,106.4 32.8,106.4 34.2,108.7 32.8,111.1 30.1,111.1 28.8,108.7 "/>
<polygon class="st0" points="39.1,106.4 41.8,106.4 43.2,108.7 41.8,111.1 39.1,111.1 37.8,108.7 "/>
<polygon class="st0" points="48.1,106.4 50.8,106.4 52.2,108.7 50.8,111.1 48.1,111.1 46.8,108.7 "/>
<polygon class="st0" points="57.2,106.4 59.9,106.4 61.2,108.7 59.9,111.1 57.2,111.1 55.8,108.7 "/>
<polygon class="st0" points="66.2,106.4 68.9,106.4 70.2,108.7 68.9,111.1 66.2,111.1 64.8,108.7 "/>
<polygon class="st0" points="75.2,106.4 77.9,106.4 79.2,108.7 77.9,111.1 75.2,111.1 73.8,108.7 "/>
<polygon class="st0" points="84.2,106.4 86.9,106.4 88.2,108.7 86.9,111.1 84.2,111.1 82.8,108.7 "/>
<polygon class="st0" points="93.2,106.4 95.9,106.4 97.3,108.7 95.9,111.1 93.2,111.1 91.8,108.7 "/>
<polygon class="st0" points="102.2,106.4 104.9,106.4 106.3,108.7 104.9,111.1 102.2,111.1 100.9,108.7 "/>
<polygon class="st0" points="111.2,106.4 113.9,106.4 115.3,108.7 113.9,111.1 111.2,111.1 109.9,108.7 "/>
<polygon class="st0" points="120.2,106.4 122.9,106.4 124.3,108.7 122.9,111.1 120.2,111.1 118.9,108.7 "/>
<polygon class="st0" points="129.2,106.4 132,106.4 133.3,108.7 132,111.1 129.2,111.1 127.9,108.7 "/>
<polygon class="st0" points="138.3,106.4 141,106.4 142.3,108.7 141,111.1 138.3,111.1 136.9,108.7 "/>
<polygon class="st0" points="147.3,106.4 150,106.4 151.3,108.7 150,111.1 147.3,111.1 145.9,108.7 "/>
<polygon class="st0" points="25.6,109 28.3,109 29.7,111.3 28.3,113.7 25.6,113.7 24.2,111.3 "/>
<polygon class="st0" points="34.6,109 37.3,109 38.7,111.3 37.3,113.7 34.6,113.7 33.3,111.3 "/>
<polygon class="st0" points="43.6,109 46.3,109 47.7,111.3 46.3,113.7 43.6,113.7 42.3,111.3 "/>
<polygon class="st0" points="52.6,109 55.3,109 56.7,111.3 55.3,113.7 52.6,113.7 51.3,111.3 "/>
<polygon class="st0" points="61.7,109 64.4,109 65.7,111.3 64.4,113.7 61.7,113.7 60.3,111.3 "/>
<polygon class="st0" points="70.7,109 73.4,109 74.7,111.3 73.4,113.7 70.7,113.7 69.3,111.3 "/>
<polygon class="st0" points="79.7,109 82.4,109 83.7,111.3 82.4,113.7 79.7,113.7 78.3,111.3 "/>
<polygon class="st0" points="88.7,109 91.4,109 92.8,111.3 91.4,113.7 88.7,113.7 87.3,111.3 "/>
<polygon class="st0" points="97.7,109 100.4,109 101.8,111.3 100.4,113.7 97.7,113.7 96.4,111.3 "/>
<polygon class="st0" points="106.7,109 109.4,109 110.8,111.3 109.4,113.7 106.7,113.7 105.4,111.3 "/>
<polygon class="st0" points="115.7,109 118.4,109 119.8,111.3 118.4,113.7 115.7,113.7 114.4,111.3 "/>
<polygon class="st0" points="124.8,109 127.4,109 128.8,111.3 127.4,113.7 124.8,113.7 123.4,111.3 "/>
<polygon class="st0" points="133.8,109 136.5,109 137.8,111.3 136.5,113.7 133.8,113.7 132.4,111.3 "/>
<polygon class="st0" points="142.8,109 145.5,109 146.8,111.3 145.5,113.7 142.8,113.7 141.4,111.3 "/>
<polygon class="st0" points="30.1,111.6 32.8,111.6 34.2,113.9 32.8,116.2 30.1,116.2 28.8,113.9 "/>
<polygon class="st0" points="39.1,111.6 41.8,111.6 43.2,113.9 41.8,116.2 39.1,116.2 37.8,113.9 "/>
<polygon class="st0" points="48.1,111.6 50.8,111.6 52.2,113.9 50.8,116.2 48.1,116.2 46.8,113.9 "/>
<polygon class="st0" points="57.2,111.6 59.9,111.6 61.2,113.9 59.9,116.2 57.2,116.2 55.8,113.9 "/>
<polygon class="st0" points="66.2,111.6 68.9,111.6 70.2,113.9 68.9,116.2 66.2,116.2 64.8,113.9 "/>
<polygon class="st0" points="75.2,111.6 77.9,111.6 79.2,113.9 77.9,116.2 75.2,116.2 73.8,113.9 "/>
<polygon class="st0" points="84.2,111.6 86.9,111.6 88.2,113.9 86.9,116.2 84.2,116.2 82.8,113.9 "/>
<polygon class="st0" points="93.2,111.6 95.9,111.6 97.3,113.9 95.9,116.2 93.2,116.2 91.8,113.9 "/>
<polygon class="st0" points="102.2,111.6 104.9,111.6 106.3,113.9 104.9,116.2 102.2,116.2 100.9,113.9 "/>
<polygon class="st0" points="111.2,111.6 113.9,111.6 115.3,113.9 113.9,116.2 111.2,116.2 109.9,113.9 "/>
<polygon class="st0" points="120.2,111.6 122.9,111.6 124.3,113.9 122.9,116.2 120.2,116.2 118.9,113.9 "/>
<polygon class="st0" points="129.2,111.6 132,111.6 133.3,113.9 132,116.2 129.2,116.2 127.9,113.9 "/>
<polygon class="st0" points="138.3,111.6 141,111.6 142.3,113.9 141,116.2 138.3,116.2 136.9,113.9 "/>
<polygon class="st0" points="147.3,111.6 150,111.6 151.3,113.9 150,116.2 147.3,116.2 145.9,113.9 "/>
<polygon class="st0" points="34.6,114.2 37.3,114.2 38.7,116.5 37.3,118.8 34.6,118.8 33.3,116.5 "/>
<polygon class="st0" points="43.6,114.2 46.3,114.2 47.7,116.5 46.3,118.8 43.6,118.8 42.3,116.5 "/>
<polygon class="st0" points="52.6,114.2 55.3,114.2 56.7,116.5 55.3,118.8 52.6,118.8 51.3,116.5 "/>
<polygon class="st0" points="61.7,114.2 64.4,114.2 65.7,116.5 64.4,118.8 61.7,118.8 60.3,116.5 "/>
<polygon class="st0" points="70.7,114.2 73.4,114.2 74.7,116.5 73.4,118.8 70.7,118.8 69.3,116.5 "/>
<polygon class="st0" points="79.7,114.2 82.4,114.2 83.7,116.5 82.4,118.8 79.7,118.8 78.3,116.5 "/>
<polygon class="st0" points="88.7,114.2 91.4,114.2 92.8,116.5 91.4,118.8 88.7,118.8 87.3,116.5 "/>
<polygon class="st0" points="97.7,114.2 100.4,114.2 101.8,116.5 100.4,118.8 97.7,118.8 96.4,116.5 "/>
<polygon class="st0" points="106.7,114.2 109.4,114.2 110.8,116.5 109.4,118.8 106.7,118.8 105.4,116.5 "/>
<polygon class="st0" points="115.7,114.2 118.4,114.2 119.8,116.5 118.4,118.8 115.7,118.8 114.4,116.5 "/>
<polygon class="st0" points="124.8,114.2 127.4,114.2 128.8,116.5 127.4,118.8 124.8,118.8 123.4,116.5 "/>
<polygon class="st0" points="133.8,114.2 136.5,114.2 137.8,116.5 136.5,118.8 133.8,118.8 132.4,116.5 "/>
<polygon class="st0" points="142.8,114.2 145.5,114.2 146.8,116.5 145.5,118.8 142.8,118.8 141.4,116.5 "/>
<polygon class="st0" points="30.1,116.8 32.8,116.8 34.2,119.1 32.8,121.5 30.1,121.5 28.8,119.1 "/>
<polygon class="st0" points="39.1,116.8 41.8,116.8 43.2,119.1 41.8,121.5 39.1,121.5 37.8,119.1 "/>
<polygon class="st0" points="48.1,116.8 50.8,116.8 52.2,119.1 50.8,121.5 48.1,121.5 46.8,119.1 "/>
<polygon class="st0" points="57.2,116.8 59.9,116.8 61.2,119.1 59.9,121.5 57.2,121.5 55.8,119.1 "/>
<polygon class="st0" points="66.2,116.8 68.9,116.8 70.2,119.1 68.9,121.5 66.2,121.5 64.8,119.1 "/>
<polygon class="st0" points="75.2,116.8 77.9,116.8 79.2,119.1 77.9,121.5 75.2,121.5 73.8,119.1 "/>
<polygon class="st0" points="84.2,116.8 86.9,116.8 88.2,119.1 86.9,121.5 84.2,121.5 82.8,119.1 "/>
<polygon class="st0" points="93.2,116.8 95.9,116.8 97.3,119.1 95.9,121.5 93.2,121.5 91.8,119.1 "/>
<polygon class="st0" points="102.2,116.8 104.9,116.8 106.3,119.1 104.9,121.5 102.2,121.5 100.9,119.1 "/>
<polygon class="st0" points="111.2,116.8 113.9,116.8 115.3,119.1 113.9,121.5 111.2,121.5 109.9,119.1 "/>
<polygon class="st0" points="120.2,116.8 122.9,116.8 124.3,119.1 122.9,121.5 120.2,121.5 118.9,119.1 "/>
<polygon class="st0" points="129.2,116.8 132,116.8 133.3,119.1 132,121.5 129.2,121.5 127.9,119.1 "/>
<polygon class="st0" points="138.3,116.8 141,116.8 142.3,119.1 141,121.5 138.3,121.5 136.9,119.1 "/>
<polygon class="st0" points="34.6,119.4 37.3,119.4 38.7,121.7 37.3,124.1 34.6,124.1 33.3,121.7 "/>
<polygon class="st0" points="43.6,119.4 46.3,119.4 47.7,121.7 46.3,124.1 43.6,124.1 42.3,121.7 "/>
<polygon class="st0" points="52.6,119.4 55.3,119.4 56.7,121.7 55.3,124.1 52.6,124.1 51.3,121.7 "/>
<polygon class="st0" points="61.7,119.4 64.4,119.4 65.7,121.7 64.4,124.1 61.7,124.1 60.3,121.7 "/>
<polygon class="st0" points="70.7,119.4 73.4,119.4 74.7,121.7 73.4,124.1 70.7,124.1 69.3,121.7 "/>
<polygon class="st0" points="79.7,119.4 82.4,119.4 83.7,121.7 82.4,124.1 79.7,124.1 78.3,121.7 "/>
<polygon class="st0" points="88.7,119.4 91.4,119.4 92.8,121.7 91.4,124.1 88.7,124.1 87.3,121.7 "/>
<polygon class="st0" points="97.7,119.4 100.4,119.4 101.8,121.7 100.4,124.1 97.7,124.1 96.4,121.7 "/>
<polygon class="st0" points="106.7,119.4 109.4,119.4 110.8,121.7 109.4,124.1 106.7,124.1 105.4,121.7 "/>
<polygon class="st0" points="115.7,119.4 118.4,119.4 119.8,121.7 118.4,124.1 115.7,124.1 114.4,121.7 "/>
<polygon class="st0" points="124.8,119.4 127.4,119.4 128.8,121.7 127.4,124.1 124.8,124.1 123.4,121.7 "/>
<polygon class="st0" points="133.8,119.4 136.5,119.4 137.8,121.7 136.5,124.1 133.8,124.1 132.4,121.7 "/>
<polygon class="st0" points="142.8,119.4 145.5,119.4 146.8,121.7 145.5,124.1 142.8,124.1 141.4,121.7 "/>
<polygon class="st0" points="39.1,122 41.8,122 43.2,124.3 41.8,126.7 39.1,126.7 37.8,124.3 "/>
<polygon class="st0" points="48.1,122 50.8,122 52.2,124.3 50.8,126.7 48.1,126.7 46.8,124.3 "/>
<polygon class="st0" points="57.2,122 59.9,122 61.2,124.3 59.9,126.7 57.2,126.7 55.8,124.3 "/>
<polygon class="st0" points="66.2,122 68.9,122 70.2,124.3 68.9,126.7 66.2,126.7 64.8,124.3 "/>
<polygon class="st0" points="75.2,122 77.9,122 79.2,124.3 77.9,126.7 75.2,126.7 73.8,124.3 "/>
<polygon class="st0" points="84.2,122 86.9,122 88.2,124.3 86.9,126.7 84.2,126.7 82.8,124.3 "/>
<polygon class="st0" points="93.2,122 95.9,122 97.3,124.3 95.9,126.7 93.2,126.7 91.8,124.3 "/>
<polygon class="st0" points="102.2,122 104.9,122 106.3,124.3 104.9,126.7 102.2,126.7 100.9,124.3 "/>
<polygon class="st0" points="111.2,122 113.9,122 115.3,124.3 113.9,126.7 111.2,126.7 109.9,124.3 "/>
<polygon class="st0" points="120.2,122 122.9,122 124.3,124.3 122.9,126.7 120.2,126.7 118.9,124.3 "/>
<polygon class="st0" points="129.2,122 132,122 133.3,124.3 132,126.7 129.2,126.7 127.9,124.3 "/>
<polygon class="st0" points="138.3,122 141,122 142.3,124.3 141,126.7 138.3,126.7 136.9,124.3 "/>
<polygon class="st0" points="43.6,124.6 46.3,124.6 47.7,126.9 46.3,129.3 43.6,129.3 42.3,126.9 "/>
<polygon class="st0" points="52.6,124.6 55.3,124.6 56.7,126.9 55.3,129.3 52.6,129.3 51.3,126.9 "/>
<polygon class="st0" points="61.7,124.6 64.4,124.6 65.7,126.9 64.4,129.3 61.7,129.3 60.3,126.9 "/>
<polygon class="st0" points="70.7,124.6 73.4,124.6 74.7,126.9 73.4,129.3 70.7,129.3 69.3,126.9 "/>
<polygon class="st0" points="79.7,124.6 82.4,124.6 83.7,126.9 82.4,129.3 79.7,129.3 78.3,126.9 "/>
<polygon class="st0" points="88.7,124.6 91.4,124.6 92.8,126.9 91.4,129.3 88.7,129.3 87.3,126.9 "/>
<polygon class="st0" points="97.7,124.6 100.4,124.6 101.8,126.9 100.4,129.3 97.7,129.3 96.4,126.9 "/>
<polygon class="st0" points="106.7,124.6 109.4,124.6 110.8,126.9 109.4,129.3 106.7,129.3 105.4,126.9 "/>
<polygon class="st0" points="115.7,124.6 118.4,124.6 119.8,126.9 118.4,129.3 115.7,129.3 114.4,126.9 "/>
<polygon class="st0" points="124.8,124.6 127.4,124.6 128.8,126.9 127.4,129.3 124.8,129.3 123.4,126.9 "/>
<polygon class="st0" points="133.8,124.6 136.5,124.6 137.8,126.9 136.5,129.3 133.8,129.3 132.4,126.9 "/>
<polygon class="st0" points="142.8,124.6 145.5,124.6 146.8,126.9 145.5,129.3 142.8,129.3 141.4,126.9 "/>
<polygon class="st0" points="48.1,127.2 50.8,127.2 52.2,129.5 50.8,131.9 48.1,131.9 46.8,129.5 "/>
<polygon class="st0" points="57.2,127.2 59.9,127.2 61.2,129.5 59.9,131.9 57.2,131.9 55.8,129.5 "/>
<polygon class="st0" points="66.2,127.2 68.9,127.2 70.2,129.5 68.9,131.9 66.2,131.9 64.8,129.5 "/>
<polygon class="st0" points="75.2,127.2 77.9,127.2 79.2,129.5 77.9,131.9 75.2,131.9 73.8,129.5 "/>
<polygon class="st0" points="84.2,127.2 86.9,127.2 88.2,129.5 86.9,131.9 84.2,131.9 82.8,129.5 "/>
<polygon class="st0" points="93.2,127.2 95.9,127.2 97.3,129.5 95.9,131.9 93.2,131.9 91.8,129.5 "/>
<polygon class="st0" points="102.2,127.2 104.9,127.2 106.3,129.5 104.9,131.9 102.2,131.9 100.9,129.5 "/>
<polygon class="st0" points="111.2,127.2 113.9,127.2 115.3,129.5 113.9,131.9 111.2,131.9 109.9,129.5 "/>
<polygon class="st0" points="120.2,127.2 122.9,127.2 124.3,129.5 122.9,131.9 120.2,131.9 118.9,129.5 "/>
<polygon class="st0" points="129.2,127.2 132,127.2 133.3,129.5 132,131.9 129.2,131.9 127.9,129.5 "/>
<polygon class="st0" points="138.3,127.2 141,127.2 142.3,129.5 141,131.9 138.3,131.9 136.9,129.5 "/>
<polygon class="st0" points="52.6,129.8 55.3,129.8 56.7,132.1 55.3,134.5 52.6,134.5 51.3,132.1 "/>
<polygon class="st0" points="61.7,129.8 64.4,129.8 65.7,132.1 64.4,134.5 61.7,134.5 60.3,132.1 "/>
<polygon class="st0" points="70.7,129.8 73.4,129.8 74.7,132.1 73.4,134.5 70.7,134.5 69.3,132.1 "/>
<polygon class="st0" points="79.7,129.8 82.4,129.8 83.7,132.1 82.4,134.5 79.7,134.5 78.3,132.1 "/>
<polygon class="st0" points="88.7,129.8 91.4,129.8 92.8,132.1 91.4,134.5 88.7,134.5 87.3,132.1 "/>
<polygon class="st0" points="97.7,129.8 100.4,129.8 101.8,132.1 100.4,134.5 97.7,134.5 96.4,132.1 "/>
<polygon class="st0" points="106.7,129.8 109.4,129.8 110.8,132.1 109.4,134.5 106.7,134.5 105.4,132.1 "/>
<polygon class="st0" points="115.7,129.8 118.4,129.8 119.8,132.1 118.4,134.5 115.7,134.5 114.4,132.1 "/>
<polygon class="st0" points="124.8,129.8 127.4,129.8 128.8,132.1 127.4,134.5 124.8,134.5 123.4,132.1 "/>
<polygon class="st0" points="133.8,129.8 136.5,129.8 137.8,132.1 136.5,134.5 133.8,134.5 132.4,132.1 "/>
<polygon class="st0" points="142.8,129.8 145.5,129.8 146.8,132.1 145.5,134.5 142.8,134.5 141.4,132.1 "/>
<polygon class="st0" points="48.1,132.4 50.8,132.4 52.2,134.7 50.8,137.1 48.1,137.1 46.8,134.7 "/>
<polygon class="st0" points="57.2,132.4 59.9,132.4 61.2,134.7 59.9,137.1 57.2,137.1 55.8,134.7 "/>
<polygon class="st0" points="66.2,132.4 68.9,132.4 70.2,134.7 68.9,137.1 66.2,137.1 64.8,134.7 "/>
<polygon class="st0" points="75.2,132.4 77.9,132.4 79.2,134.7 77.9,137.1 75.2,137.1 73.8,134.7 "/>
<polygon class="st0" points="84.2,132.4 86.9,132.4 88.2,134.7 86.9,137.1 84.2,137.1 82.8,134.7 "/>
<polygon class="st0" points="93.2,132.4 95.9,132.4 97.3,134.7 95.9,137.1 93.2,137.1 91.8,134.7 "/>
<polygon class="st0" points="102.2,132.4 104.9,132.4 106.3,134.7 104.9,137.1 102.2,137.1 100.9,134.7 "/>
<polygon class="st0" points="111.2,132.4 113.9,132.4 115.3,134.7 113.9,137.1 111.2,137.1 109.9,134.7 "/>
<polygon class="st0" points="120.2,132.4 122.9,132.4 124.3,134.7 122.9,137.1 120.2,137.1 118.9,134.7 "/>
<polygon class="st0" points="129.2,132.4 132,132.4 133.3,134.7 132,137.1 129.2,137.1 127.9,134.7 "/>
<polygon class="st0" points="138.3,132.4 141,132.4 142.3,134.7 141,137.1 138.3,137.1 136.9,134.7 "/>
<polygon class="st0" points="52.6,135 55.3,135 56.7,137.3 55.3,139.7 52.6,139.7 51.3,137.3 "/>
<polygon class="st0" points="61.7,135 64.4,135 65.7,137.3 64.4,139.7 61.7,139.7 60.3,137.3 "/>
<polygon class="st0" points="70.7,135 73.4,135 74.7,137.3 73.4,139.7 70.7,139.7 69.3,137.3 "/>
<polygon class="st0" points="79.7,135 82.4,135 83.7,137.3 82.4,139.7 79.7,139.7 78.3,137.3 "/>
<polygon class="st0" points="88.7,135 91.4,135 92.8,137.3 91.4,139.7 88.7,139.7 87.3,137.3 "/>
<polygon class="st0" points="97.7,135 100.4,135 101.8,137.3 100.4,139.7 97.7,139.7 96.4,137.3 "/>
<polygon class="st0" points="106.7,135 109.4,135 110.8,137.3 109.4,139.7 106.7,139.7 105.4,137.3 "/>
<polygon class="st0" points="115.7,135 118.4,135 119.8,137.3 118.4,139.7 115.7,139.7 114.4,137.3 "/>
<polygon class="st0" points="124.8,135 127.4,135 128.8,137.3 127.4,139.7 124.8,139.7 123.4,137.3 "/>
<polygon class="st0" points="133.8,135 136.5,135 137.8,137.3 136.5,139.7 133.8,139.7 132.4,137.3 "/>
<polygon class="st0" points="142.8,135 145.5,135 146.8,137.3 145.5,139.7 142.8,139.7 141.4,137.3 "/>
<polygon class="st0" points="57.2,137.6 59.9,137.6 61.2,139.9 59.9,142.3 57.2,142.3 55.8,139.9 "/>
<polygon class="st0" points="66.2,137.6 68.9,137.6 70.2,139.9 68.9,142.3 66.2,142.3 64.8,139.9 "/>
<polygon class="st0" points="75.2,137.6 77.9,137.6 79.2,139.9 77.9,142.3 75.2,142.3 73.8,139.9 "/>
<polygon class="st0" points="84.2,137.6 86.9,137.6 88.2,139.9 86.9,142.3 84.2,142.3 82.8,139.9 "/>
<polygon class="st0" points="93.2,137.6 95.9,137.6 97.3,139.9 95.9,142.3 93.2,142.3 91.8,139.9 "/>
<polygon class="st0" points="102.2,137.6 104.9,137.6 106.3,139.9 104.9,142.3 102.2,142.3 100.9,139.9 "/>
<polygon class="st0" points="111.2,137.6 113.9,137.6 115.3,139.9 113.9,142.3 111.2,142.3 109.9,139.9 "/>
<polygon class="st0" points="120.2,137.6 122.9,137.6 124.3,139.9 122.9,142.3 120.2,142.3 118.9,139.9 "/>
<polygon class="st0" points="129.2,137.6 132,137.6 133.3,139.9 132,142.3 129.2,142.3 127.9,139.9 "/>
<polygon class="st0" points="138.3,137.6 141,137.6 142.3,139.9 141,142.3 138.3,142.3 136.9,139.9 "/>
<polygon class="st0" points="52.6,140.2 55.3,140.2 56.7,142.5 55.3,144.9 52.6,144.9 51.3,142.5 "/>
<polygon class="st0" points="61.7,140.2 64.4,140.2 65.7,142.5 64.4,144.9 61.7,144.9 60.3,142.5 "/>
<polygon class="st0" points="70.7,140.2 73.4,140.2 74.7,142.5 73.4,144.9 70.7,144.9 69.3,142.5 "/>
<polygon class="st0" points="79.7,140.2 82.4,140.2 83.7,142.5 82.4,144.9 79.7,144.9 78.3,142.5 "/>
<polygon class="st0" points="88.7,140.2 91.4,140.2 92.8,142.5 91.4,144.9 88.7,144.9 87.3,142.5 "/>
<polygon class="st0" points="97.7,140.2 100.4,140.2 101.8,142.5 100.4,144.9 97.7,144.9 96.4,142.5 "/>
<polygon class="st0" points="106.7,140.2 109.4,140.2 110.8,142.5 109.4,144.9 106.7,144.9 105.4,142.5 "/>
<polygon class="st0" points="115.7,140.2 118.4,140.2 119.8,142.5 118.4,144.9 115.7,144.9 114.4,142.5 "/>
<polygon class="st0" points="124.8,140.2 127.4,140.2 128.8,142.5 127.4,144.9 124.8,144.9 123.4,142.5 "/>
<polygon class="st0" points="133.8,140.2 136.5,140.2 137.8,142.5 136.5,144.9 133.8,144.9 132.4,142.5 "/>
<polygon class="st0" points="142.8,140.2 145.5,140.2 146.8,142.5 145.5,144.9 142.8,144.9 141.4,142.5 "/>
<polygon class="st0" points="57.2,142.8 59.9,142.8 61.2,145.1 59.9,147.5 57.2,147.5 55.8,145.1 "/>
<polygon class="st0" points="66.2,142.8 68.9,142.8 70.2,145.1 68.9,147.5 66.2,147.5 64.8,145.1 "/>
<polygon class="st0" points="75.2,142.8 77.9,142.8 79.2,145.1 77.9,147.5 75.2,147.5 73.8,145.1 "/>
<polygon class="st0" points="84.2,142.8 86.9,142.8 88.2,145.1 86.9,147.5 84.2,147.5 82.8,145.1 "/>
<polygon class="st0" points="93.2,142.8 95.9,142.8 97.3,145.1 95.9,147.5 93.2,147.5 91.8,145.1 "/>
<polygon class="st0" points="102.2,142.8 104.9,142.8 106.3,145.1 104.9,147.5 102.2,147.5 100.9,145.1 "/>
<polygon class="st0" points="111.2,142.8 113.9,142.8 115.3,145.1 113.9,147.5 111.2,147.5 109.9,145.1 "/>
<polygon class="st0" points="120.2,142.8 122.9,142.8 124.3,145.1 122.9,147.5 120.2,147.5 118.9,145.1 "/>
<polygon class="st0" points="129.2,142.8 132,142.8 133.3,145.1 132,147.5 129.2,147.5 127.9,145.1 "/>
<polygon class="st0" points="138.3,142.8 141,142.8 142.3,145.1 141,147.5 138.3,147.5 136.9,145.1 "/>
<polygon class="st0" points="52.6,145.4 55.3,145.4 56.7,147.7 55.3,150.1 52.6,150.1 51.3,147.7 "/>
<polygon class="st0" points="61.7,145.4 64.4,145.4 65.7,147.7 64.4,150.1 61.7,150.1 60.3,147.7 "/>
<polygon class="st0" points="70.7,145.4 73.4,145.4 74.7,147.7 73.4,150.1 70.7,150.1 69.3,147.7 "/>
<polygon class="st0" points="79.7,145.4 82.4,145.4 83.7,147.7 82.4,150.1 79.7,150.1 78.3,147.7 "/>
<polygon class="st0" points="88.7,145.4 91.4,145.4 92.8,147.7 91.4,150.1 88.7,150.1 87.3,147.7 "/>
<polygon class="st0" points="97.7,145.4 100.4,145.4 101.8,147.7 100.4,150.1 97.7,150.1 96.4,147.7 "/>
<polygon class="st0" points="106.7,145.4 109.4,145.4 110.8,147.7 109.4,150.1 106.7,150.1 105.4,147.7 "/>
<polygon class="st0" points="115.7,145.4 118.4,145.4 119.8,147.7 118.4,150.1 115.7,150.1 114.4,147.7 "/>
<polygon class="st0" points="124.8,145.4 127.4,145.4 128.8,147.7 127.4,150.1 124.8,150.1 123.4,147.7 "/>
<polygon class="st0" points="133.8,145.4 136.5,145.4 137.8,147.7 136.5,150.1 133.8,150.1 132.4,147.7 "/>
<polygon class="st0" points="57.2,148 59.9,148 61.2,150.3 59.9,152.7 57.2,152.7 55.8,150.3 "/>
<polygon class="st0" points="66.2,148 68.9,148 70.2,150.3 68.9,152.7 66.2,152.7 64.8,150.3 "/>
<polygon class="st0" points="75.2,148 77.9,148 79.2,150.3 77.9,152.7 75.2,152.7 73.8,150.3 "/>
<polygon class="st0" points="84.2,148 86.9,148 88.2,150.3 86.9,152.7 84.2,152.7 82.8,150.3 "/>
<polygon class="st0" points="93.2,148 95.9,148 97.3,150.3 95.9,152.7 93.2,152.7 91.8,150.3 "/>
<polygon class="st0" points="102.2,148 104.9,148 106.3,150.3 104.9,152.7 102.2,152.7 100.9,150.3 "/>
<polygon class="st0" points="111.2,148 113.9,148 115.3,150.3 113.9,152.7 111.2,152.7 109.9,150.3 "/>
<polygon class="st0" points="120.2,148 122.9,148 124.3,150.3 122.9,152.7 120.2,152.7 118.9,150.3 "/>
<polygon class="st0" points="129.2,148 132,148 133.3,150.3 132,152.7 129.2,152.7 127.9,150.3 "/>
<polygon class="st0" points="52.6,150.6 55.3,150.6 56.7,152.9 55.3,155.3 52.6,155.3 51.3,152.9 "/>
<polygon class="st0" points="61.7,150.6 64.4,150.6 65.7,152.9 64.4,155.3 61.7,155.3 60.3,152.9 "/>
<polygon class="st0" points="70.7,150.6 73.4,150.6 74.7,152.9 73.4,155.3 70.7,155.3 69.3,152.9 "/>
<polygon class="st0" points="79.7,150.6 82.4,150.6 83.7,152.9 82.4,155.3 79.7,155.3 78.3,152.9 "/>
<polygon class="st0" points="88.7,150.6 91.4,150.6 92.8,152.9 91.4,155.3 88.7,155.3 87.3,152.9 "/>
<polygon class="st0" points="97.7,150.6 100.4,150.6 101.8,152.9 100.4,155.3 97.7,155.3 96.4,152.9 "/>
<polygon class="st0" points="106.7,150.6 109.4,150.6 110.8,152.9 109.4,155.3 106.7,155.3 105.4,152.9 "/>
<polygon class="st0" points="115.7,150.6 118.4,150.6 119.8,152.9 118.4,155.3 115.7,155.3 114.4,152.9 "/>
<polygon class="st0" points="124.8,150.6 127.4,150.6 128.8,152.9 127.4,155.3 124.8,155.3 123.4,152.9 "/>
<polygon class="st0" points="57.2,153.2 59.9,153.2 61.2,155.5 59.9,157.9 57.2,157.9 55.8,155.5 "/>
<polygon class="st0" points="66.2,153.2 68.9,153.2 70.2,155.5 68.9,157.9 66.2,157.9 64.8,155.5 "/>
<polygon class="st0" points="75.2,153.2 77.9,153.2 79.2,155.5 77.9,157.9 75.2,157.9 73.8,155.5 "/>
<polygon class="st0" points="84.2,153.2 86.9,153.2 88.2,155.5 86.9,157.9 84.2,157.9 82.8,155.5 "/>
<polygon class="st0" points="93.2,153.2 95.9,153.2 97.3,155.5 95.9,157.9 93.2,157.9 91.8,155.5 "/>
<polygon class="st0" points="102.2,153.2 104.9,153.2 106.3,155.5 104.9,157.9 102.2,157.9 100.9,155.5 "/>
<polygon class="st0" points="111.2,153.2 113.9,153.2 115.3,155.5 113.9,157.9 111.2,157.9 109.9,155.5 "/>
<polygon class="st0" points="120.2,153.2 122.9,153.2 124.3,155.5 122.9,157.9 120.2,157.9 118.9,155.5 "/>
<polygon class="st0" points="52.6,155.8 55.3,155.8 56.7,158.1 55.3,160.5 52.6,160.5 51.3,158.1 "/>
<polygon class="st0" points="61.7,155.8 64.4,155.8 65.7,158.1 64.4,160.5 61.7,160.5 60.3,158.1 "/>
<polygon class="st0" points="70.7,155.8 73.4,155.8 74.7,158.1 73.4,160.5 70.7,160.5 69.3,158.1 "/>
<polygon class="st0" points="79.7,155.8 82.4,155.8 83.7,158.1 82.4,160.5 79.7,160.5 78.3,158.1 "/>
<polygon class="st0" points="88.7,155.8 91.4,155.8 92.8,158.1 91.4,160.5 88.7,160.5 87.3,158.1 "/>
<polygon class="st0" points="97.7,155.8 100.4,155.8 101.8,158.1 100.4,160.5 97.7,160.5 96.4,158.1 "/>
<polygon class="st0" points="106.7,155.8 109.4,155.8 110.8,158.1 109.4,160.5 106.7,160.5 105.4,158.1 "/>
<polygon class="st0" points="115.7,155.8 118.4,155.8 119.8,158.1 118.4,160.5 115.7,160.5 114.4,158.1 "/>
<polygon class="st0" points="57.2,158.4 59.9,158.4 61.2,160.8 59.9,163.1 57.2,163.1 55.8,160.8 "/>
<polygon class="st0" points="66.2,158.4 68.9,158.4 70.2,160.8 68.9,163.1 66.2,163.1 64.8,160.8 "/>
<polygon class="st0" points="75.2,158.4 77.9,158.4 79.2,160.8 77.9,163.1 75.2,163.1 73.8,160.8 "/>
<polygon class="st0" points="84.2,158.4 86.9,158.4 88.2,160.8 86.9,163.1 84.2,163.1 82.8,160.8 "/>
<polygon class="st0" points="93.2,158.4 95.9,158.4 97.3,160.8 95.9,163.1 93.2,163.1 91.8,160.8 "/>
<polygon class="st0" points="102.2,158.4 104.9,158.4 106.3,160.8 104.9,163.1 102.2,163.1 100.9,160.8 "/>
<polygon class="st0" points="111.2,158.4 113.9,158.4 115.3,160.8 113.9,163.1 111.2,163.1 109.9,160.8 "/>
<polygon class="st0" points="120.2,158.4 122.9,158.4 124.3,160.8 122.9,163.1 120.2,163.1 118.9,160.8 "/>
<polygon class="st0" points="52.6,161 55.3,161 56.7,163.4 55.3,165.7 52.6,165.7 51.3,163.4 "/>
<polygon class="st0" points="61.7,161 64.4,161 65.7,163.4 64.4,165.7 61.7,165.7 60.3,163.4 "/>
<polygon class="st0" points="70.7,161 73.4,161 74.7,163.4 73.4,165.7 70.7,165.7 69.3,163.4 "/>
<polygon class="st0" points="79.7,161 82.4,161 83.7,163.4 82.4,165.7 79.7,165.7 78.3,163.4 "/>
<polygon class="st0" points="88.7,161 91.4,161 92.8,163.4 91.4,165.7 88.7,165.7 87.3,163.4 "/>
<polygon class="st0" points="97.7,161 100.4,161 101.8,163.4 100.4,165.7 97.7,165.7 96.4,163.4 "/>
<polygon class="st0" points="106.7,161 109.4,161 110.8,163.4 109.4,165.7 106.7,165.7 105.4,163.4 "/>
<polygon class="st0" points="115.7,161 118.4,161 119.8,163.4 118.4,165.7 115.7,165.7 114.4,163.4 "/>
<polygon class="st0" points="57.2,163.6 59.9,163.6 61.2,165.9 59.9,168.3 57.2,168.3 55.8,165.9 "/>
<polygon class="st0" points="66.2,163.6 68.9,163.6 70.2,165.9 68.9,168.3 66.2,168.3 64.8,165.9 "/>
<polygon class="st0" points="75.2,163.6 77.9,163.6 79.2,165.9 77.9,168.3 75.2,168.3 73.8,165.9 "/>
<polygon class="st0" points="84.2,163.6 86.9,163.6 88.2,165.9 86.9,168.3 84.2,168.3 82.8,165.9 "/>
<polygon class="st0" points="93.2,163.6 95.9,163.6 97.3,165.9 95.9,168.3 93.2,168.3 91.8,165.9 "/>
<polygon class="st0" points="102.2,163.6 104.9,163.6 106.3,165.9 104.9,168.3 102.2,168.3 100.9,165.9 "/>
<polygon class="st0" points="111.2,163.6 113.9,163.6 115.3,165.9 113.9,168.3 111.2,168.3 109.9,165.9 "/>
<polygon class="st0" points="120.2,163.6 122.9,163.6 124.3,165.9 122.9,168.3 120.2,168.3 118.9,165.9 "/>
<polygon class="st0" points="52.6,166.2 55.3,166.2 56.7,168.6 55.3,170.9 52.6,170.9 51.3,168.6 "/>
<polygon class="st0" points="61.7,166.2 64.4,166.2 65.7,168.6 64.4,170.9 61.7,170.9 60.3,168.6 "/>
<polygon class="st0" points="70.7,166.2 73.4,166.2 74.7,168.6 73.4,170.9 70.7,170.9 69.3,168.6 "/>
<polygon class="st0" points="79.7,166.2 82.4,166.2 83.7,168.6 82.4,170.9 79.7,170.9 78.3,168.6 "/>
<polygon class="st0" points="88.7,166.2 91.4,166.2 92.8,168.6 91.4,170.9 88.7,170.9 87.3,168.6 "/>
<polygon class="st0" points="97.7,166.2 100.4,166.2 101.8,168.6 100.4,170.9 97.7,170.9 96.4,168.6 "/>
<polygon class="st0" points="106.7,166.2 109.4,166.2 110.8,168.6 109.4,170.9 106.7,170.9 105.4,168.6 "/>
<polygon class="st0" points="115.7,166.2 118.4,166.2 119.8,168.6 118.4,170.9 115.7,170.9 114.4,168.6 "/>
<polygon class="st0" points="57.2,168.8 59.9,168.8 61.2,171.1 59.9,173.5 57.2,173.5 55.8,171.1 "/>
<polygon class="st0" points="66.2,168.8 68.9,168.8 70.2,171.1 68.9,173.5 66.2,173.5 64.8,171.1 "/>
<polygon class="st0" points="75.2,168.8 77.9,168.8 79.2,171.1 77.9,173.5 75.2,173.5 73.8,171.1 "/>
<polygon class="st0" points="84.2,168.8 86.9,168.8 88.2,171.1 86.9,173.5 84.2,173.5 82.8,171.1 "/>
<polygon class="st0" points="93.2,168.8 95.9,168.8 97.3,171.1 95.9,173.5 93.2,173.5 91.8,171.1 "/>
<polygon class="st0" points="102.2,168.8 104.9,168.8 106.3,171.1 104.9,173.5 102.2,173.5 100.9,171.1 "/>
<polygon class="st0" points="111.2,168.8 113.9,168.8 115.3,171.1 113.9,173.5 111.2,173.5 109.9,171.1 "/>
<polygon class="st0" points="52.6,171.4 55.3,171.4 56.7,173.8 55.3,176.1 52.6,176.1 51.3,173.8 "/>
<polygon class="st0" points="61.7,171.4 64.4,171.4 65.7,173.8 64.4,176.1 61.7,176.1 60.3,173.8 "/>
<polygon class="st0" points="70.7,171.4 73.4,171.4 74.7,173.8 73.4,176.1 70.7,176.1 69.3,173.8 "/>
<polygon class="st0" points="79.7,171.4 82.4,171.4 83.7,173.8 82.4,176.1 79.7,176.1 78.3,173.8 "/>
<polygon class="st0" points="88.7,171.4 91.4,171.4 92.8,173.8 91.4,176.1 88.7,176.1 87.3,173.8 "/>
<polygon class="st0" points="97.7,171.4 100.4,171.4 101.8,173.8 100.4,176.1 97.7,176.1 96.4,173.8 "/>
<polygon class="st0" points="106.7,171.4 109.4,171.4 110.8,173.8 109.4,176.1 106.7,176.1 105.4,173.8 "/>
<polygon class="st0" points="115.7,171.4 118.4,171.4 119.8,173.8 118.4,176.1 115.7,176.1 114.4,173.8 "/>
<polygon class="st0" points="57.2,174 59.9,174 61.2,176.4 59.9,178.7 57.2,178.7 55.8,176.4 "/>
<polygon class="st0" points="66.2,174 68.9,174 70.2,176.4 68.9,178.7 66.2,178.7 64.8,176.4 "/>
<polygon class="st0" points="75.2,174 77.9,174 79.2,176.4 77.9,178.7 75.2,178.7 73.8,176.4 "/>
<polygon class="st0" points="84.2,174 86.9,174 88.2,176.4 86.9,178.7 84.2,178.7 82.8,176.4 "/>
<polygon class="st0" points="93.2,174 95.9,174 97.3,176.4 95.9,178.7 93.2,178.7 91.8,176.4 "/>
<polygon class="st0" points="102.2,174 104.9,174 106.3,176.4 104.9,178.7 102.2,178.7 100.9,176.4 "/>
<polygon class="st0" points="111.2,174 113.9,174 115.3,176.4 113.9,178.7 111.2,178.7 109.9,176.4 "/>
<polygon class="st0" points="52.6,176.6 55.3,176.6 56.7,179 55.3,181.3 52.6,181.3 51.3,179 "/>
<polygon class="st0" points="61.7,176.6 64.4,176.6 65.7,179 64.4,181.3 61.7,181.3 60.3,179 "/>
<polygon class="st0" points="70.7,176.6 73.4,176.6 74.7,179 73.4,181.3 70.7,181.3 69.3,179 "/>
<polygon class="st0" points="79.7,176.6 82.4,176.6 83.7,179 82.4,181.3 79.7,181.3 78.3,179 "/>
<polygon class="st0" points="88.7,176.6 91.4,176.6 92.8,179 91.4,181.3 88.7,181.3 87.3,179 "/>
<polygon class="st0" points="97.7,176.6 100.4,176.6 101.8,179 100.4,181.3 97.7,181.3 96.4,179 "/>
<polygon class="st0" points="106.7,176.6 109.4,176.6 110.8,179 109.4,181.3 106.7,181.3 105.4,179 "/>
<polygon class="st0" points="57.2,179.2 59.9,179.2 61.2,181.6 59.9,183.9 57.2,183.9 55.8,181.6 "/>
<polygon class="st0" points="66.2,179.2 68.9,179.2 70.2,181.6 68.9,183.9 66.2,183.9 64.8,181.6 "/>
<polygon class="st0" points="75.2,179.2 77.9,179.2 79.2,181.6 77.9,183.9 75.2,183.9 73.8,181.6 "/>
<polygon class="st0" points="84.2,179.2 86.9,179.2 88.2,181.6 86.9,183.9 84.2,183.9 82.8,181.6 "/>
<polygon class="st0" points="93.2,179.2 95.9,179.2 97.3,181.6 95.9,183.9 93.2,183.9 91.8,181.6 "/>
<polygon class="st0" points="102.2,179.2 104.9,179.2 106.3,181.6 104.9,183.9 102.2,183.9 100.9,181.6 "/>
<polygon class="st0" points="111.2,179.2 113.9,179.2 115.3,181.6 113.9,183.9 111.2,183.9 109.9,181.6 "/>
<polygon class="st0" points="61.7,181.8 64.4,181.8 65.7,184.2 64.4,186.5 61.7,186.5 60.3,184.2 "/>
<polygon class="st0" points="70.7,181.8 73.4,181.8 74.7,184.2 73.4,186.5 70.7,186.5 69.3,184.2 "/>
<polygon class="st0" points="79.7,181.8 82.4,181.8 83.7,184.2 82.4,186.5 79.7,186.5 78.3,184.2 "/>
<polygon class="st0" points="88.7,181.8 91.4,181.8 92.8,184.2 91.4,186.5 88.7,186.5 87.3,184.2 "/>
<polygon class="st0" points="97.7,181.8 100.4,181.8 101.8,184.2 100.4,186.5 97.7,186.5 96.4,184.2 "/>
<polygon class="st0" points="106.7,181.8 109.4,181.8 110.8,184.2 109.4,186.5 106.7,186.5 105.4,184.2 "/>
<polygon class="st0" points="57.2,184.4 59.9,184.4 61.2,186.8 59.9,189.1 57.2,189.1 55.8,186.8 "/>
<polygon class="st0" points="66.2,184.4 68.9,184.4 70.2,186.8 68.9,189.1 66.2,189.1 64.8,186.8 "/>
<polygon class="st0" points="75.2,184.4 77.9,184.4 79.2,186.8 77.9,189.1 75.2,189.1 73.8,186.8 "/>
<polygon class="st0" points="84.2,184.4 86.9,184.4 88.2,186.8 86.9,189.1 84.2,189.1 82.8,186.8 "/>
<polygon class="st0" points="93.2,184.4 95.9,184.4 97.3,186.8 95.9,189.1 93.2,189.1 91.8,186.8 "/>
<polygon class="st0" points="102.2,184.4 104.9,184.4 106.3,186.8 104.9,189.1 102.2,189.1 100.9,186.8 "/>
<polygon class="st0" points="61.7,187 64.4,187 65.7,189.4 64.4,191.7 61.7,191.7 60.3,189.4 "/>
<polygon class="st0" points="70.7,187 73.4,187 74.7,189.4 73.4,191.7 70.7,191.7 69.3,189.4 "/>
<polygon class="st0" points="79.7,187 82.4,187 83.7,189.4 82.4,191.7 79.7,191.7 78.3,189.4 "/>
<polygon class="st0" points="88.7,187 91.4,187 92.8,189.4 91.4,191.7 88.7,191.7 87.3,189.4 "/>
<polygon class="st0" points="97.7,187 100.4,187 101.8,189.4 100.4,191.7 97.7,191.7 96.4,189.4 "/>
<polygon class="st0" points="106.7,187 109.4,187 110.8,189.4 109.4,191.7 106.7,191.7 105.4,189.4 "/>
<polygon class="st0" points="57.2,189.6 59.9,189.6 61.2,192 59.9,194.3 57.2,194.3 55.8,192 "/>
<polygon class="st0" points="66.2,189.6 68.9,189.6 70.2,192 68.9,194.3 66.2,194.3 64.8,192 "/>
<polygon class="st0" points="75.2,189.6 77.9,189.6 79.2,192 77.9,194.3 75.2,194.3 73.8,192 "/>
<polygon class="st0" points="84.2,189.6 86.9,189.6 88.2,192 86.9,194.3 84.2,194.3 82.8,192 "/>
<polygon class="st0" points="93.2,189.6 95.9,189.6 97.3,192 95.9,194.3 93.2,194.3 91.8,192 "/>
<polygon class="st0" points="61.7,192.2 64.4,192.2 65.7,194.6 64.4,196.9 61.7,196.9 60.3,194.6 "/>
<polygon class="st0" points="70.7,192.2 73.4,192.2 74.7,194.6 73.4,196.9 70.7,196.9 69.3,194.6 "/>
<polygon class="st0" points="79.7,192.2 82.4,192.2 83.7,194.6 82.4,196.9 79.7,196.9 78.3,194.6 "/>
<polygon class="st0" points="88.7,192.2 91.4,192.2 92.8,194.6 91.4,196.9 88.7,196.9 87.3,194.6 "/>
<polygon class="st0" points="97.7,192.2 100.4,192.2 101.8,194.6 100.4,196.9 97.7,196.9 96.4,194.6 "/>
<polygon class="st0" points="57.2,194.8 59.9,194.8 61.2,197.2 59.9,199.5 57.2,199.5 55.8,197.2 "/>
<polygon class="st0" points="66.2,194.8 68.9,194.8 70.2,197.2 68.9,199.5 66.2,199.5 64.8,197.2 "/>
<polygon class="st0" points="75.2,194.8 77.9,194.8 79.2,197.2 77.9,199.5 75.2,199.5 73.8,197.2 "/>
<polygon class="st0" points="84.2,194.8 86.9,194.8 88.2,197.2 86.9,199.5 84.2,199.5 82.8,197.2 "/>
<polygon class="st0" points="93.2,194.8 95.9,194.8 97.3,197.2 95.9,199.5 93.2,199.5 91.8,197.2 "/>
<polygon class="st0" points="52.6,197.4 55.3,197.4 56.7,199.8 55.3,202.1 52.6,202.1 51.3,199.8 "/>
<polygon class="st0" points="61.7,197.4 64.4,197.4 65.7,199.8 64.4,202.1 61.7,202.1 60.3,199.8 "/>
<polygon class="st0" points="70.7,197.4 73.4,197.4 74.7,199.8 73.4,202.1 70.7,202.1 69.3,199.8 "/>
<polygon class="st0" points="79.7,197.4 82.4,197.4 83.7,199.8 82.4,202.1 79.7,202.1 78.3,199.8 "/>
<polygon class="st0" points="88.7,197.4 91.4,197.4 92.8,199.8 91.4,202.1 88.7,202.1 87.3,199.8 "/>
<polygon class="st0" points="97.7,197.4 100.4,197.4 101.8,199.8 100.4,202.1 97.7,202.1 96.4,199.8 "/>
<polygon class="st0" points="57.2,200 59.9,200 61.2,202.4 59.9,204.7 57.2,204.7 55.8,202.4 "/>
<polygon class="st0" points="66.2,200 68.9,200 70.2,202.4 68.9,204.7 66.2,204.7 64.8,202.4 "/>
<polygon class="st0" points="75.2,200 77.9,200 79.2,202.4 77.9,204.7 75.2,204.7 73.8,202.4 "/>
<polygon class="st0" points="84.2,200 86.9,200 88.2,202.4 86.9,204.7 84.2,204.7 82.8,202.4 "/>
<polygon class="st0" points="93.2,200 95.9,200 97.3,202.4 95.9,204.7 93.2,204.7 91.8,202.4 "/>
<polygon class="st0" points="61.7,202.6 64.4,202.6 65.7,205 64.4,207.3 61.7,207.3 60.3,205 "/>
<polygon class="st0" points="70.7,202.6 73.4,202.6 74.7,205 73.4,207.3 70.7,207.3 69.3,205 "/>
<polygon class="st0" points="79.7,202.6 82.4,202.6 83.7,205 82.4,207.3 79.7,207.3 78.3,205 "/>
<polygon class="st0" points="88.7,202.6 91.4,202.6 92.8,205 91.4,207.3 88.7,207.3 87.3,205 "/>
<polygon class="st0" points="57.2,205.2 59.9,205.2 61.2,207.6 59.9,209.9 57.2,209.9 55.8,207.6 "/>
<polygon class="st0" points="66.2,205.2 68.9,205.2 70.2,207.6 68.9,209.9 66.2,209.9 64.8,207.6 "/>
<polygon class="st0" points="75.2,205.2 77.9,205.2 79.2,207.6 77.9,209.9 75.2,209.9 73.8,207.6 "/>
<polygon class="st0" points="84.2,205.2 86.9,205.2 88.2,207.6 86.9,209.9 84.2,209.9 82.8,207.6 "/>
<polygon class="st0" points="61.7,207.8 64.4,207.8 65.7,210.2 64.4,212.5 61.7,212.5 60.3,210.2 "/>
<polygon class="st0" points="70.7,207.8 73.4,207.8 74.7,210.2 73.4,212.5 70.7,212.5 69.3,210.2 "/>
<polygon class="st0" points="79.7,207.8 82.4,207.8 83.7,210.2 82.4,212.5 79.7,212.5 78.3,210.2 "/>
<polygon class="st0" points="88.7,207.8 91.4,207.8 92.8,210.2 91.4,212.5 88.7,212.5 87.3,210.2 "/>
<polygon class="st0" points="57.2,210.4 59.9,210.4 61.2,212.8 59.9,215.1 57.2,215.1 55.8,212.8 "/>
<polygon class="st0" points="66.2,210.4 68.9,210.4 70.2,212.8 68.9,215.1 66.2,215.1 64.8,212.8 "/>
<polygon class="st0" points="75.2,210.4 77.9,210.4 79.2,212.8 77.9,215.1 75.2,215.1 73.8,212.8 "/>
<polygon class="st0" points="84.2,210.4 86.9,210.4 88.2,212.8 86.9,215.1 84.2,215.1 82.8,212.8 "/>
<polygon class="st0" points="61.7,213 64.4,213 65.7,215.4 64.4,217.7 61.7,217.7 60.3,215.4 "/>
<polygon class="st0" points="70.7,213 73.4,213 74.7,215.4 73.4,217.7 70.7,217.7 69.3,215.4 "/>
<polygon class="st0" points="79.7,213 82.4,213 83.7,215.4 82.4,217.7 79.7,217.7 78.3,215.4 "/>
<polygon class="st0" points="66.2,215.6 68.9,215.6 70.2,218 68.9,220.3 66.2,220.3 64.8,218 "/>
<polygon class="st0" points="75.2,215.6 77.9,215.6 79.2,218 77.9,220.3 75.2,220.3 73.8,218 "/>
<polygon class="st0" points="84.2,215.6 86.9,215.6 88.2,218 86.9,220.3 84.2,220.3 82.8,218 "/>
<polygon class="st0" points="61.7,218.2 64.4,218.2 65.7,220.6 64.4,222.9 61.7,222.9 60.3,220.6 "/>
<polygon class="st0" points="70.7,218.2 73.4,218.2 74.7,220.6 73.4,222.9 70.7,222.9 69.3,220.6 "/>
<polygon class="st0" points="79.7,218.2 82.4,218.2 83.7,220.6 82.4,222.9 79.7,222.9 78.3,220.6 "/>
<polygon class="st0" points="66.2,220.9 68.9,220.9 70.2,223.2 68.9,225.5 66.2,225.5 64.8,223.2 "/>
<polygon class="st0" points="75.2,220.9 77.9,220.9 79.2,223.2 77.9,225.5 75.2,225.5 73.8,223.2 "/>
<polygon class="st0" points="84.2,220.9 86.9,220.9 88.2,223.2 86.9,225.5 84.2,225.5 82.8,223.2 "/>
<polygon class="st0" points="70.7,223.4 73.4,223.4 74.7,225.8 73.4,228.1 70.7,228.1 69.3,225.8 "/>
<polygon class="st0" points="79.7,223.4 82.4,223.4 83.7,225.8 82.4,228.1 79.7,228.1 78.3,225.8 "/>
<polygon class="st0" points="66.2,226.1 68.9,226.1 70.2,228.4 68.9,230.7 66.2,230.7 64.8,228.4 "/>
<polygon class="st0" points="75.2,226.1 77.9,226.1 79.2,228.4 77.9,230.7 75.2,230.7 73.8,228.4 "/>
<polygon class="st0" points="61.7,228.6 64.4,228.6 65.7,231 64.4,233.3 61.7,233.3 60.3,231 "/>
<polygon class="st0" points="70.7,228.6 73.4,228.6 74.7,231 73.4,233.3 70.7,233.3 69.3,231 "/>
<polygon class="st0" points="79.7,228.6 82.4,228.6 83.7,231 82.4,233.3 79.7,233.3 78.3,231 "/>
<polygon class="st0" points="66.2,231.3 68.9,231.3 70.2,233.6 68.9,235.9 66.2,235.9 64.8,233.6 "/>
<polygon class="st0" points="75.2,231.3 77.9,231.3 79.2,233.6 77.9,235.9 75.2,235.9 73.8,233.6 "/>
<polygon class="st0" points="84.2,231.3 86.9,231.3 88.2,233.6 86.9,235.9 84.2,235.9 82.8,233.6 "/>
<polygon class="st0" points="70.7,233.9 73.4,233.9 74.7,236.2 73.4,238.6 70.7,238.6 69.3,236.2 "/>
<polygon class="st0" points="79.7,233.9 82.4,233.9 83.7,236.2 82.4,238.6 79.7,238.6 78.3,236.2 "/>
<polygon class="st0" points="66.2,236.5 68.9,236.5 70.2,238.8 68.9,241.1 66.2,241.1 64.8,238.8 "/>
<polygon class="st0" points="75.2,236.5 77.9,236.5 79.2,238.8 77.9,241.1 75.2,241.1 73.8,238.8 "/>
<polygon class="st0" points="84.2,236.5 86.9,236.5 88.2,238.8 86.9,241.1 84.2,241.1 82.8,238.8 "/>
<polygon class="st0" points="70.7,239.1 73.4,239.1 74.7,241.4 73.4,243.8 70.7,243.8 69.3,241.4 "/>
<polygon class="st0" points="79.7,239.1 82.4,239.1 83.7,241.4 82.4,243.8 79.7,243.8 78.3,241.4 "/>
<polygon class="st0" points="75.2,241.7 77.9,241.7 79.2,244 77.9,246.4 75.2,246.4 73.8,244 "/>
<polygon class="st0" points="84.2,241.7 86.9,241.7 88.2,244 86.9,246.4 84.2,246.4 82.8,244 "/>
<polygon class="st0" points="79.7,244.3 82.4,244.3 83.7,246.6 82.4,249 79.7,249 78.3,246.6 "/>
<polygon class="st0" points="75.2,246.9 77.9,246.9 79.2,249.2 77.9,251.6 75.2,251.6 73.8,249.2 "/>
<polygon class="st0" points="84.2,246.9 86.9,246.9 88.2,249.2 86.9,251.6 84.2,251.6 82.8,249.2 "/>
<polygon class="st0" points="79.7,249.5 82.4,249.5 83.7,251.8 82.4,254.2 79.7,254.2 78.3,251.8 "/>
<polygon class="st0" points="88.7,249.5 91.4,249.5 92.8,251.8 91.4,254.2 88.7,254.2 87.3,251.8 "/>
<polygon class="st0" points="84.2,252.1 86.9,252.1 88.2,254.4 86.9,256.8 84.2,256.8 82.8,254.4 "/>
<polygon class="st0" points="93.2,252.1 95.9,252.1 97.3,254.4 95.9,256.8 93.2,256.8 91.8,254.4 "/>
<polygon class="st0" points="88.7,254.7 91.4,254.7 92.8,257 91.4,259.4 88.7,259.4 87.3,257 "/>
<polygon class="st0" points="102.2,59.5 104.9,59.5 106.3,61.9 104.9,64.2 102.2,64.2 100.9,61.9 "/>
<polygon class="st0" points="106.7,62.1 109.4,62.1 110.8,64.5 109.4,66.8 106.7,66.8 105.4,64.5 "/>
<polygon class="st0" points="102.2,64.7 104.9,64.7 106.3,67.1 104.9,69.4 102.2,69.4 100.9,67.1 "/>
<polygon class="st0" points="106.7,67.3 109.4,67.3 110.8,69.7 109.4,72 106.7,72 105.4,69.7 "/>
<polygon class="st0" points="102.2,69.9 104.9,69.9 106.3,72.3 104.9,74.6 102.2,74.6 100.9,72.3 "/>
<polygon class="st0" points="111.2,69.9 113.9,69.9 115.3,72.3 113.9,74.6 111.2,74.6 109.9,72.3 "/>
<polygon class="st0" points="106.7,72.5 109.4,72.5 110.8,74.9 109.4,77.2 106.7,77.2 105.4,74.9 "/>
<polygon class="st0" points="115.7,72.5 118.4,72.5 119.8,74.9 118.4,77.2 115.7,77.2 114.4,74.9 "/>
<polygon class="st0" points="102.2,75.1 104.9,75.1 106.3,77.5 104.9,79.8 102.2,79.8 100.9,77.5 "/>
<polygon class="st0" points="111.2,75.1 113.9,75.1 115.3,77.5 113.9,79.8 111.2,79.8 109.9,77.5 "/>
<polygon class="st0" points="120.2,75.1 122.9,75.1 124.3,77.5 122.9,79.8 120.2,79.8 118.9,77.5 "/>
<polygon class="st0" points="106.7,77.7 109.4,77.7 110.8,80.1 109.4,82.4 106.7,82.4 105.4,80.1 "/>
<polygon class="st0" points="115.7,77.7 118.4,77.7 119.8,80.1 118.4,82.4 115.7,82.4 114.4,80.1 "/>
</svg>
