<svg id="Layer_1" data-name="Layer 1" xmlns="http://www.w3.org/2000/svg" viewBox="0 0 165 269"><defs><style>.cls-1{fill:#a2e576;}</style></defs><title>south-america</title><polygon class="cls-1" points="79.68 10.09 82.39 10.09 83.73 12.43 82.39 14.78 79.68 14.78 78.33 12.43 79.68 10.09"/><polygon class="cls-1" points="75.17 12.69 77.88 12.69 79.23 15.03 77.88 17.37 75.17 17.37 73.82 15.03 75.17 12.69"/><polygon class="cls-1" points="79.68 20.5 82.39 20.5 83.73 22.84 82.39 25.18 79.68 25.18 78.33 22.84 79.68 20.5"/><polygon class="cls-1" points="75.17 23.1 77.88 23.1 79.23 25.44 77.88 27.79 75.17 27.79 73.82 25.44 75.17 23.1"/><polygon class="cls-1" points="84.19 23.1 86.89 23.1 88.25 25.44 86.89 27.79 84.19 27.79 82.83 25.44 84.19 23.1"/><polygon class="cls-1" points="79.68 25.7 82.39 25.7 83.73 28.04 82.39 30.39 79.68 30.39 78.33 28.04 79.68 25.7"/><polygon class="cls-1" points="75.17 28.3 77.88 28.3 79.23 30.64 77.88 32.99 75.17 32.99 73.82 30.64 75.17 28.3"/><polygon class="cls-1" points="43.62 30.9 46.34 30.9 47.68 33.25 46.34 35.59 43.62 35.59 42.27 33.25 43.62 30.9"/><polygon class="cls-1" points="52.64 30.9 55.34 30.9 56.7 33.25 55.34 35.59 52.64 35.59 51.29 33.25 52.64 30.9"/><polygon class="cls-1" points="39.12 33.51 41.82 33.51 43.17 35.85 41.82 38.19 39.12 38.19 37.77 35.85 39.12 33.51"/><polygon class="cls-1" points="48.13 33.51 50.84 33.51 52.19 35.85 50.84 38.19 48.13 38.19 46.78 35.85 48.13 33.51"/><polygon class="cls-1" points="57.15 33.51 59.86 33.51 61.21 35.85 59.86 38.19 57.15 38.19 55.8 35.85 57.15 33.51"/><polygon class="cls-1" points="75.17 33.51 77.88 33.51 79.23 35.85 77.88 38.19 75.17 38.19 73.82 35.85 75.17 33.51"/><polygon class="cls-1" points="34.61 36.11 37.32 36.11 38.67 38.45 37.32 40.79 34.61 40.79 33.26 38.45 34.61 36.11"/><polygon class="cls-1" points="43.62 36.11 46.34 36.11 47.68 38.45 46.34 40.79 43.62 40.79 42.27 38.45 43.62 36.11"/><polygon class="cls-1" points="52.64 36.11 55.34 36.11 56.7 38.45 55.34 40.79 52.64 40.79 51.29 38.45 52.64 36.11"/><polygon class="cls-1" points="61.65 36.11 64.36 36.11 65.71 38.45 64.36 40.79 61.65 40.79 60.3 38.45 61.65 36.11"/><polygon class="cls-1" points="70.66 36.11 73.37 36.11 74.73 38.45 73.37 40.79 70.66 40.79 69.32 38.45 70.66 36.11"/><polygon class="cls-1" points="30.11 38.71 32.81 38.71 34.16 41.05 32.81 43.39 30.11 43.39 28.76 41.05 30.11 38.71"/><polygon class="cls-1" points="39.12 38.71 41.82 38.71 43.17 41.05 41.82 43.39 39.12 43.39 37.77 41.05 39.12 38.71"/><polygon class="cls-1" points="48.13 38.71 50.84 38.71 52.19 41.05 50.84 43.39 48.13 43.39 46.78 41.05 48.13 38.71"/><polygon class="cls-1" points="57.15 38.71 59.86 38.71 61.21 41.05 59.86 43.39 57.15 43.39 55.8 41.05 57.15 38.71"/><polygon class="cls-1" points="66.16 38.71 68.87 38.71 70.21 41.05 68.87 43.39 66.16 43.39 64.81 41.05 66.16 38.71"/><polygon class="cls-1" points="75.17 38.71 77.88 38.71 79.23 41.05 77.88 43.39 75.17 43.39 73.82 41.05 75.17 38.71"/><polygon class="cls-1" points="25.6 41.31 28.3 41.31 29.66 43.65 28.3 46 25.6 46 24.25 43.65 25.6 41.31"/><polygon class="cls-1" points="34.61 41.31 37.32 41.31 38.67 43.65 37.32 46 34.61 46 33.26 43.65 34.61 41.31"/><polygon class="cls-1" points="43.62 41.31 46.34 41.31 47.68 43.65 46.34 46 43.62 46 42.27 43.65 43.62 41.31"/><polygon class="cls-1" points="52.64 41.31 55.34 41.31 56.7 43.65 55.34 46 52.64 46 51.29 43.65 52.64 41.31"/><polygon class="cls-1" points="61.65 41.31 64.36 41.31 65.71 43.65 64.36 46 61.65 46 60.3 43.65 61.65 41.31"/><polygon class="cls-1" points="70.66 41.31 73.37 41.31 74.73 43.65 73.37 46 70.66 46 69.32 43.65 70.66 41.31"/><polygon class="cls-1" points="79.68 41.31 82.39 41.31 83.73 43.65 82.39 46 79.68 46 78.33 43.65 79.68 41.31"/><polygon class="cls-1" points="30.11 43.92 32.81 43.92 34.16 46.26 32.81 48.6 30.11 48.6 28.76 46.26 30.11 43.92"/><polygon class="cls-1" points="39.12 43.92 41.82 43.92 43.17 46.26 41.82 48.6 39.12 48.6 37.77 46.26 39.12 43.92"/><polygon class="cls-1" points="48.13 43.92 50.84 43.92 52.19 46.26 50.84 48.6 48.13 48.6 46.78 46.26 48.13 43.92"/><polygon class="cls-1" points="57.15 43.92 59.86 43.92 61.21 46.26 59.86 48.6 57.15 48.6 55.8 46.26 57.15 43.92"/><polygon class="cls-1" points="66.16 43.92 68.87 43.92 70.21 46.26 68.87 48.6 66.16 48.6 64.81 46.26 66.16 43.92"/><polygon class="cls-1" points="75.17 43.92 77.88 43.92 79.23 46.26 77.88 48.6 75.17 48.6 73.82 46.26 75.17 43.92"/><polygon class="cls-1" points="25.6 46.52 28.3 46.52 29.66 48.86 28.3 51.2 25.6 51.2 24.25 48.86 25.6 46.52"/><polygon class="cls-1" points="34.61 46.52 37.32 46.52 38.67 48.86 37.32 51.2 34.61 51.2 33.26 48.86 34.61 46.52"/><polygon class="cls-1" points="43.62 46.52 46.34 46.52 47.68 48.86 46.34 51.2 43.62 51.2 42.27 48.86 43.62 46.52"/><polygon class="cls-1" points="52.64 46.52 55.34 46.52 56.7 48.86 55.34 51.2 52.64 51.2 51.29 48.86 52.64 46.52"/><polygon class="cls-1" points="61.65 46.52 64.36 46.52 65.71 48.86 64.36 51.2 61.65 51.2 60.3 48.86 61.65 46.52"/><polygon class="cls-1" points="70.66 46.52 73.37 46.52 74.73 48.86 73.37 51.2 70.66 51.2 69.32 48.86 70.66 46.52"/><polygon class="cls-1" points="79.68 46.52 82.39 46.52 83.73 48.86 82.39 51.2 79.68 51.2 78.33 48.86 79.68 46.52"/><polygon class="cls-1" points="30.11 49.12 32.81 49.12 34.16 51.46 32.81 53.8 30.11 53.8 28.76 51.46 30.11 49.12"/><polygon class="cls-1" points="39.12 49.12 41.82 49.12 43.17 51.46 41.82 53.8 39.12 53.8 37.77 51.46 39.12 49.12"/><polygon class="cls-1" points="48.13 49.12 50.84 49.12 52.19 51.46 50.84 53.8 48.13 53.8 46.78 51.46 48.13 49.12"/><polygon class="cls-1" points="57.15 49.12 59.86 49.12 61.21 51.46 59.86 53.8 57.15 53.8 55.8 51.46 57.15 49.12"/><polygon class="cls-1" points="66.16 49.12 68.87 49.12 70.21 51.46 68.87 53.8 66.16 53.8 64.81 51.46 66.16 49.12"/><polygon class="cls-1" points="75.17 49.12 77.88 49.12 79.23 51.46 77.88 53.8 75.17 53.8 73.82 51.46 75.17 49.12"/><polygon class="cls-1" points="84.19 49.12 86.89 49.12 88.25 51.46 86.89 53.8 84.19 53.8 82.83 51.46 84.19 49.12"/><polygon class="cls-1" points="93.2 49.12 95.9 49.12 97.26 51.46 95.9 53.8 93.2 53.8 91.85 51.46 93.2 49.12"/><polygon class="cls-1" points="25.6 51.73 28.3 51.73 29.66 54.06 28.3 56.4 25.6 56.4 24.25 54.06 25.6 51.73"/><polygon class="cls-1" points="34.61 51.73 37.32 51.73 38.67 54.06 37.32 56.4 34.61 56.4 33.26 54.06 34.61 51.73"/><polygon class="cls-1" points="43.62 51.73 46.34 51.73 47.68 54.06 46.34 56.4 43.62 56.4 42.27 54.06 43.62 51.73"/><polygon class="cls-1" points="52.64 51.73 55.34 51.73 56.7 54.06 55.34 56.4 52.64 56.4 51.29 54.06 52.64 51.73"/><polygon class="cls-1" points="61.65 51.73 64.36 51.73 65.71 54.06 64.36 56.4 61.65 56.4 60.3 54.06 61.65 51.73"/><polygon class="cls-1" points="70.66 51.73 73.37 51.73 74.73 54.06 73.37 56.4 70.66 56.4 69.32 54.06 70.66 51.73"/><polygon class="cls-1" points="79.68 51.73 82.39 51.73 83.73 54.06 82.39 56.4 79.68 56.4 78.33 54.06 79.68 51.73"/><polygon class="cls-1" points="88.69 51.73 91.4 51.73 92.75 54.06 91.4 56.4 88.69 56.4 87.34 54.06 88.69 51.73"/><polygon class="cls-1" points="97.71 51.73 100.41 51.73 101.76 54.06 100.41 56.4 97.71 56.4 96.36 54.06 97.71 51.73"/><polygon class="cls-1" points="30.11 54.32 32.81 54.32 34.16 56.67 32.81 59.01 30.11 59.01 28.76 56.67 30.11 54.32"/><polygon class="cls-1" points="39.12 54.32 41.82 54.32 43.17 56.67 41.82 59.01 39.12 59.01 37.77 56.67 39.12 54.32"/><polygon class="cls-1" points="48.13 54.32 50.84 54.32 52.19 56.67 50.84 59.01 48.13 59.01 46.78 56.67 48.13 54.32"/><polygon class="cls-1" points="57.15 54.32 59.86 54.32 61.21 56.67 59.86 59.01 57.15 59.01 55.8 56.67 57.15 54.32"/><polygon class="cls-1" points="66.16 54.32 68.87 54.32 70.21 56.67 68.87 59.01 66.16 59.01 64.81 56.67 66.16 54.32"/><polygon class="cls-1" points="75.17 54.32 77.88 54.32 79.23 56.67 77.88 59.01 75.17 59.01 73.82 56.67 75.17 54.32"/><polygon class="cls-1" points="84.19 54.32 86.89 54.32 88.25 56.67 86.89 59.01 84.19 59.01 82.83 56.67 84.19 54.32"/><polygon class="cls-1" points="93.2 54.32 95.9 54.32 97.26 56.67 95.9 59.01 93.2 59.01 91.85 56.67 93.2 54.32"/><polygon class="cls-1" points="102.21 54.32 104.92 54.32 106.27 56.67 104.92 59.01 102.21 59.01 100.87 56.67 102.21 54.32"/><polygon class="cls-1" points="25.6 56.93 28.3 56.93 29.66 59.27 28.3 61.61 25.6 61.61 24.25 59.27 25.6 56.93"/><polygon class="cls-1" points="34.61 56.93 37.32 56.93 38.67 59.27 37.32 61.61 34.61 61.61 33.26 59.27 34.61 56.93"/><polygon class="cls-1" points="43.62 56.93 46.34 56.93 47.68 59.27 46.34 61.61 43.62 61.61 42.27 59.27 43.62 56.93"/><polygon class="cls-1" points="52.64 56.93 55.34 56.93 56.7 59.27 55.34 61.61 52.64 61.61 51.29 59.27 52.64 56.93"/><polygon class="cls-1" points="61.65 56.93 64.36 56.93 65.71 59.27 64.36 61.61 61.65 61.61 60.3 59.27 61.65 56.93"/><polygon class="cls-1" points="70.66 56.93 73.37 56.93 74.73 59.27 73.37 61.61 70.66 61.61 69.32 59.27 70.66 56.93"/><polygon class="cls-1" points="79.68 56.93 82.39 56.93 83.73 59.27 82.39 61.61 79.68 61.61 78.33 59.27 79.68 56.93"/><polygon class="cls-1" points="88.69 56.93 91.4 56.93 92.75 59.27 91.4 61.61 88.69 61.61 87.34 59.27 88.69 56.93"/><polygon class="cls-1" points="97.71 56.93 100.41 56.93 101.76 59.27 100.41 61.61 97.71 61.61 96.36 59.27 97.71 56.93"/><polygon class="cls-1" points="21.09 59.53 23.79 59.53 25.14 61.87 23.79 64.21 21.09 64.21 19.74 61.87 21.09 59.53"/><polygon class="cls-1" points="30.11 59.53 32.81 59.53 34.16 61.87 32.81 64.21 30.11 64.21 28.76 61.87 30.11 59.53"/><polygon class="cls-1" points="39.12 59.53 41.82 59.53 43.17 61.87 41.82 64.21 39.12 64.21 37.77 61.87 39.12 59.53"/><polygon class="cls-1" points="48.13 59.53 50.84 59.53 52.19 61.87 50.84 64.21 48.13 64.21 46.78 61.87 48.13 59.53"/><polygon class="cls-1" points="57.15 59.53 59.86 59.53 61.21 61.87 59.86 64.21 57.15 64.21 55.8 61.87 57.15 59.53"/><polygon class="cls-1" points="66.16 59.53 68.87 59.53 70.21 61.87 68.87 64.21 66.16 64.21 64.81 61.87 66.16 59.53"/><polygon class="cls-1" points="75.17 59.53 77.88 59.53 79.23 61.87 77.88 64.21 75.17 64.21 73.82 61.87 75.17 59.53"/><polygon class="cls-1" points="84.19 59.53 86.89 59.53 88.25 61.87 86.89 64.21 84.19 64.21 82.83 61.87 84.19 59.53"/><polygon class="cls-1" points="93.2 59.53 95.9 59.53 97.26 61.87 95.9 64.21 93.2 64.21 91.85 61.87 93.2 59.53"/><polygon class="cls-1" points="25.6 62.13 28.3 62.13 29.66 64.47 28.3 66.81 25.6 66.81 24.25 64.47 25.6 62.13"/><polygon class="cls-1" points="34.61 62.13 37.32 62.13 38.67 64.47 37.32 66.81 34.61 66.81 33.26 64.47 34.61 62.13"/><polygon class="cls-1" points="43.62 62.13 46.34 62.13 47.68 64.47 46.34 66.81 43.62 66.81 42.27 64.47 43.62 62.13"/><polygon class="cls-1" points="52.64 62.13 55.34 62.13 56.7 64.47 55.34 66.81 52.64 66.81 51.29 64.47 52.64 62.13"/><polygon class="cls-1" points="61.65 62.13 64.36 62.13 65.71 64.47 64.36 66.81 61.65 66.81 60.3 64.47 61.65 62.13"/><polygon class="cls-1" points="70.66 62.13 73.37 62.13 74.73 64.47 73.37 66.81 70.66 66.81 69.32 64.47 70.66 62.13"/><polygon class="cls-1" points="79.68 62.13 82.39 62.13 83.73 64.47 82.39 66.81 79.68 66.81 78.33 64.47 79.68 62.13"/><polygon class="cls-1" points="88.69 62.13 91.4 62.13 92.75 64.47 91.4 66.81 88.69 66.81 87.34 64.47 88.69 62.13"/><polygon class="cls-1" points="97.71 62.13 100.41 62.13 101.76 64.47 100.41 66.81 97.71 66.81 96.36 64.47 97.71 62.13"/><polygon class="cls-1" points="21.09 64.73 23.79 64.73 25.14 67.07 23.79 69.41 21.09 69.41 19.74 67.07 21.09 64.73"/><polygon class="cls-1" points="30.11 64.73 32.81 64.73 34.16 67.07 32.81 69.41 30.11 69.41 28.76 67.07 30.11 64.73"/><polygon class="cls-1" points="39.12 64.73 41.82 64.73 43.17 67.07 41.82 69.41 39.12 69.41 37.77 67.07 39.12 64.73"/><polygon class="cls-1" points="48.13 64.73 50.84 64.73 52.19 67.07 50.84 69.41 48.13 69.41 46.78 67.07 48.13 64.73"/><polygon class="cls-1" points="57.15 64.73 59.86 64.73 61.21 67.07 59.86 69.41 57.15 69.41 55.8 67.07 57.15 64.73"/><polygon class="cls-1" points="66.16 64.73 68.87 64.73 70.21 67.07 68.87 69.41 66.16 69.41 64.81 67.07 66.16 64.73"/><polygon class="cls-1" points="75.17 64.73 77.88 64.73 79.23 67.07 77.88 69.41 75.17 69.41 73.82 67.07 75.17 64.73"/><polygon class="cls-1" points="84.19 64.73 86.89 64.73 88.25 67.07 86.89 69.41 84.19 69.41 82.83 67.07 84.19 64.73"/><polygon class="cls-1" points="93.2 64.73 95.9 64.73 97.26 67.07 95.9 69.41 93.2 69.41 91.85 67.07 93.2 64.73"/><polygon class="cls-1" points="16.59 67.33 19.29 67.33 20.64 69.68 19.29 72.02 16.59 72.02 15.23 69.68 16.59 67.33"/><polygon class="cls-1" points="25.6 67.33 28.3 67.33 29.66 69.68 28.3 72.02 25.6 72.02 24.25 69.68 25.6 67.33"/><polygon class="cls-1" points="34.61 67.33 37.32 67.33 38.67 69.68 37.32 72.02 34.61 72.02 33.26 69.68 34.61 67.33"/><polygon class="cls-1" points="43.62 67.33 46.34 67.33 47.68 69.68 46.34 72.02 43.62 72.02 42.27 69.68 43.62 67.33"/><polygon class="cls-1" points="52.64 67.33 55.34 67.33 56.7 69.68 55.34 72.02 52.64 72.02 51.29 69.68 52.64 67.33"/><polygon class="cls-1" points="61.65 67.33 64.36 67.33 65.71 69.68 64.36 72.02 61.65 72.02 60.3 69.68 61.65 67.33"/><polygon class="cls-1" points="70.66 67.33 73.37 67.33 74.73 69.68 73.37 72.02 70.66 72.02 69.32 69.68 70.66 67.33"/><polygon class="cls-1" points="79.68 67.33 82.39 67.33 83.73 69.68 82.39 72.02 79.68 72.02 78.33 69.68 79.68 67.33"/><polygon class="cls-1" points="88.69 67.33 91.4 67.33 92.75 69.68 91.4 72.02 88.69 72.02 87.34 69.68 88.69 67.33"/><polygon class="cls-1" points="97.71 67.33 100.41 67.33 101.76 69.68 100.41 72.02 97.71 72.02 96.36 69.68 97.71 67.33"/><polygon class="cls-1" points="21.09 69.93 23.79 69.93 25.14 72.28 23.79 74.62 21.09 74.62 19.74 72.28 21.09 69.93"/><polygon class="cls-1" points="30.11 69.93 32.81 69.93 34.16 72.28 32.81 74.62 30.11 74.62 28.76 72.28 30.11 69.93"/><polygon class="cls-1" points="39.12 69.93 41.82 69.93 43.17 72.28 41.82 74.62 39.12 74.62 37.77 72.28 39.12 69.93"/><polygon class="cls-1" points="48.13 69.93 50.84 69.93 52.19 72.28 50.84 74.62 48.13 74.62 46.78 72.28 48.13 69.93"/><polygon class="cls-1" points="57.15 69.93 59.86 69.93 61.21 72.28 59.86 74.62 57.15 74.62 55.8 72.28 57.15 69.93"/><polygon class="cls-1" points="66.16 69.93 68.87 69.93 70.21 72.28 68.87 74.62 66.16 74.62 64.81 72.28 66.16 69.93"/><polygon class="cls-1" points="75.17 69.93 77.88 69.93 79.23 72.28 77.88 74.62 75.17 74.62 73.82 72.28 75.17 69.93"/><polygon class="cls-1" points="84.19 69.93 86.89 69.93 88.25 72.28 86.89 74.62 84.19 74.62 82.83 72.28 84.19 69.93"/><polygon class="cls-1" points="93.2 69.93 95.9 69.93 97.26 72.28 95.9 74.62 93.2 74.62 91.85 72.28 93.2 69.93"/><polygon class="cls-1" points="16.59 72.54 19.29 72.54 20.64 74.89 19.29 77.22 16.59 77.22 15.23 74.89 16.59 72.54"/><polygon class="cls-1" points="25.6 72.54 28.3 72.54 29.66 74.89 28.3 77.22 25.6 77.22 24.25 74.89 25.6 72.54"/><polygon class="cls-1" points="34.61 72.54 37.32 72.54 38.67 74.89 37.32 77.22 34.61 77.22 33.26 74.89 34.61 72.54"/><polygon class="cls-1" points="43.62 72.54 46.34 72.54 47.68 74.89 46.34 77.22 43.62 77.22 42.27 74.89 43.62 72.54"/><polygon class="cls-1" points="52.64 72.54 55.34 72.54 56.7 74.89 55.34 77.22 52.64 77.22 51.29 74.89 52.64 72.54"/><polygon class="cls-1" points="61.65 72.54 64.36 72.54 65.71 74.89 64.36 77.22 61.65 77.22 60.3 74.89 61.65 72.54"/><polygon class="cls-1" points="70.66 72.54 73.37 72.54 74.73 74.89 73.37 77.22 70.66 77.22 69.32 74.89 70.66 72.54"/><polygon class="cls-1" points="79.68 72.54 82.39 72.54 83.73 74.89 82.39 77.22 79.68 77.22 78.33 74.89 79.68 72.54"/><polygon class="cls-1" points="88.69 72.54 91.4 72.54 92.75 74.89 91.4 77.22 88.69 77.22 87.34 74.89 88.69 72.54"/><polygon class="cls-1" points="97.71 72.54 100.41 72.54 101.76 74.89 100.41 77.22 97.71 77.22 96.36 74.89 97.71 72.54"/><polygon class="cls-1" points="12.08 75.14 14.78 75.14 16.14 77.48 14.78 79.82 12.08 79.82 10.73 77.48 12.08 75.14"/><polygon class="cls-1" points="21.09 75.14 23.79 75.14 25.14 77.48 23.79 79.82 21.09 79.82 19.74 77.48 21.09 75.14"/><polygon class="cls-1" points="30.11 75.14 32.81 75.14 34.16 77.48 32.81 79.82 30.11 79.82 28.76 77.48 30.11 75.14"/><polygon class="cls-1" points="39.12 75.14 41.82 75.14 43.17 77.48 41.82 79.82 39.12 79.82 37.77 77.48 39.12 75.14"/><polygon class="cls-1" points="48.13 75.14 50.84 75.14 52.19 77.48 50.84 79.82 48.13 79.82 46.78 77.48 48.13 75.14"/><polygon class="cls-1" points="57.15 75.14 59.86 75.14 61.21 77.48 59.86 79.82 57.15 79.82 55.8 77.48 57.15 75.14"/><polygon class="cls-1" points="66.16 75.14 68.87 75.14 70.21 77.48 68.87 79.82 66.16 79.82 64.81 77.48 66.16 75.14"/><polygon class="cls-1" points="75.17 75.14 77.88 75.14 79.23 77.48 77.88 79.82 75.17 79.82 73.82 77.48 75.17 75.14"/><polygon class="cls-1" points="84.19 75.14 86.89 75.14 88.25 77.48 86.89 79.82 84.19 79.82 82.83 77.48 84.19 75.14"/><polygon class="cls-1" points="93.2 75.14 95.9 75.14 97.26 77.48 95.9 79.82 93.2 79.82 91.85 77.48 93.2 75.14"/><polygon class="cls-1" points="16.59 77.74 19.29 77.74 20.64 80.08 19.29 82.42 16.59 82.42 15.23 80.08 16.59 77.74"/><polygon class="cls-1" points="25.6 77.74 28.3 77.74 29.66 80.08 28.3 82.42 25.6 82.42 24.25 80.08 25.6 77.74"/><polygon class="cls-1" points="34.61 77.74 37.32 77.74 38.67 80.08 37.32 82.42 34.61 82.42 33.26 80.08 34.61 77.74"/><polygon class="cls-1" points="43.62 77.74 46.34 77.74 47.68 80.08 46.34 82.42 43.62 82.42 42.27 80.08 43.62 77.74"/><polygon class="cls-1" points="52.64 77.74 55.34 77.74 56.7 80.08 55.34 82.42 52.64 82.42 51.29 80.08 52.64 77.74"/><polygon class="cls-1" points="61.65 77.74 64.36 77.74 65.71 80.08 64.36 82.42 61.65 82.42 60.3 80.08 61.65 77.74"/><polygon class="cls-1" points="70.66 77.74 73.37 77.74 74.73 80.08 73.37 82.42 70.66 82.42 69.32 80.08 70.66 77.74"/><polygon class="cls-1" points="79.68 77.74 82.39 77.74 83.73 80.08 82.39 82.42 79.68 82.42 78.33 80.08 79.68 77.74"/><polygon class="cls-1" points="88.69 77.74 91.4 77.74 92.75 80.08 91.4 82.42 88.69 82.42 87.34 80.08 88.69 77.74"/><polygon class="cls-1" points="97.71 77.74 100.41 77.74 101.76 80.08 100.41 82.42 97.71 82.42 96.36 80.08 97.71 77.74"/><polygon class="cls-1" points="124.75 77.74 127.45 77.74 128.8 80.08 127.45 82.42 124.75 82.42 123.4 80.08 124.75 77.74"/><polygon class="cls-1" points="133.76 77.74 136.46 77.74 137.82 80.08 136.46 82.42 133.76 82.42 132.41 80.08 133.76 77.74"/><polygon class="cls-1" points="21.09 80.34 23.79 80.34 25.14 82.69 23.79 85.03 21.09 85.03 19.74 82.69 21.09 80.34"/><polygon class="cls-1" points="30.11 80.34 32.81 80.34 34.16 82.69 32.81 85.03 30.11 85.03 28.76 82.69 30.11 80.34"/><polygon class="cls-1" points="39.12 80.34 41.82 80.34 43.17 82.69 41.82 85.03 39.12 85.03 37.77 82.69 39.12 80.34"/><polygon class="cls-1" points="48.13 80.34 50.84 80.34 52.19 82.69 50.84 85.03 48.13 85.03 46.78 82.69 48.13 80.34"/><polygon class="cls-1" points="57.15 80.34 59.86 80.34 61.21 82.69 59.86 85.03 57.15 85.03 55.8 82.69 57.15 80.34"/><polygon class="cls-1" points="66.16 80.34 68.87 80.34 70.21 82.69 68.87 85.03 66.16 85.03 64.81 82.69 66.16 80.34"/><polygon class="cls-1" points="75.17 80.34 77.88 80.34 79.23 82.69 77.88 85.03 75.17 85.03 73.82 82.69 75.17 80.34"/><polygon class="cls-1" points="84.19 80.34 86.89 80.34 88.25 82.69 86.89 85.03 84.19 85.03 82.83 82.69 84.19 80.34"/><polygon class="cls-1" points="93.2 80.34 95.9 80.34 97.26 82.69 95.9 85.03 93.2 85.03 91.85 82.69 93.2 80.34"/><polygon class="cls-1" points="102.21 80.34 104.92 80.34 106.27 82.69 104.92 85.03 102.21 85.03 100.87 82.69 102.21 80.34"/><polygon class="cls-1" points="111.23 80.34 113.93 80.34 115.28 82.69 113.93 85.03 111.23 85.03 109.88 82.69 111.23 80.34"/><polygon class="cls-1" points="120.24 80.34 122.95 80.34 124.3 82.69 122.95 85.03 120.24 85.03 118.89 82.69 120.24 80.34"/><polygon class="cls-1" points="129.25 80.34 131.96 80.34 133.31 82.69 131.96 85.03 129.25 85.03 127.9 82.69 129.25 80.34"/><polygon class="cls-1" points="138.27 80.34 140.97 80.34 142.32 82.69 140.97 85.03 138.27 85.03 136.92 82.69 138.27 80.34"/><polygon class="cls-1" points="16.59 82.95 19.29 82.95 20.64 85.28 19.29 87.63 16.59 87.63 15.23 85.28 16.59 82.95"/><polygon class="cls-1" points="25.6 82.95 28.3 82.95 29.66 85.28 28.3 87.63 25.6 87.63 24.25 85.28 25.6 82.95"/><polygon class="cls-1" points="34.61 82.95 37.32 82.95 38.67 85.28 37.32 87.63 34.61 87.63 33.26 85.28 34.61 82.95"/><polygon class="cls-1" points="43.62 82.95 46.34 82.95 47.68 85.28 46.34 87.63 43.62 87.63 42.27 85.28 43.62 82.95"/><polygon class="cls-1" points="52.64 82.95 55.34 82.95 56.7 85.28 55.34 87.63 52.64 87.63 51.29 85.28 52.64 82.95"/><polygon class="cls-1" points="61.65 82.95 64.36 82.95 65.71 85.28 64.36 87.63 61.65 87.63 60.3 85.28 61.65 82.95"/><polygon class="cls-1" points="70.66 82.95 73.37 82.95 74.73 85.28 73.37 87.63 70.66 87.63 69.32 85.28 70.66 82.95"/><polygon class="cls-1" points="79.68 82.95 82.39 82.95 83.73 85.28 82.39 87.63 79.68 87.63 78.33 85.28 79.68 82.95"/><polygon class="cls-1" points="88.69 82.95 91.4 82.95 92.75 85.28 91.4 87.63 88.69 87.63 87.34 85.28 88.69 82.95"/><polygon class="cls-1" points="97.71 82.95 100.41 82.95 101.76 85.28 100.41 87.63 97.71 87.63 96.36 85.28 97.71 82.95"/><polygon class="cls-1" points="106.72 82.95 109.42 82.95 110.78 85.28 109.42 87.63 106.72 87.63 105.37 85.28 106.72 82.95"/><polygon class="cls-1" points="115.73 82.95 118.44 82.95 119.79 85.28 118.44 87.63 115.73 87.63 114.38 85.28 115.73 82.95"/><polygon class="cls-1" points="124.75 82.95 127.45 82.95 128.8 85.28 127.45 87.63 124.75 87.63 123.4 85.28 124.75 82.95"/><polygon class="cls-1" points="133.76 82.95 136.46 82.95 137.82 85.28 136.46 87.63 133.76 87.63 132.41 85.28 133.76 82.95"/><polygon class="cls-1" points="142.78 82.95 145.48 82.95 146.83 85.28 145.48 87.63 142.78 87.63 141.42 85.28 142.78 82.95"/><polygon class="cls-1" points="12.08 85.55 14.78 85.55 16.14 87.89 14.78 90.23 12.08 90.23 10.73 87.89 12.08 85.55"/><polygon class="cls-1" points="21.09 85.55 23.79 85.55 25.14 87.89 23.79 90.23 21.09 90.23 19.74 87.89 21.09 85.55"/><polygon class="cls-1" points="30.11 85.55 32.81 85.55 34.16 87.89 32.81 90.23 30.11 90.23 28.76 87.89 30.11 85.55"/><polygon class="cls-1" points="39.12 85.55 41.82 85.55 43.17 87.89 41.82 90.23 39.12 90.23 37.77 87.89 39.12 85.55"/><polygon class="cls-1" points="48.13 85.55 50.84 85.55 52.19 87.89 50.84 90.23 48.13 90.23 46.78 87.89 48.13 85.55"/><polygon class="cls-1" points="57.15 85.55 59.86 85.55 61.21 87.89 59.86 90.23 57.15 90.23 55.8 87.89 57.15 85.55"/><polygon class="cls-1" points="66.16 85.55 68.87 85.55 70.21 87.89 68.87 90.23 66.16 90.23 64.81 87.89 66.16 85.55"/><polygon class="cls-1" points="75.17 85.55 77.88 85.55 79.23 87.89 77.88 90.23 75.17 90.23 73.82 87.89 75.17 85.55"/><polygon class="cls-1" points="84.19 85.55 86.89 85.55 88.25 87.89 86.89 90.23 84.19 90.23 82.83 87.89 84.19 85.55"/><polygon class="cls-1" points="93.2 85.55 95.9 85.55 97.26 87.89 95.9 90.23 93.2 90.23 91.85 87.89 93.2 85.55"/><polygon class="cls-1" points="102.21 85.55 104.92 85.55 106.27 87.89 104.92 90.23 102.21 90.23 100.87 87.89 102.21 85.55"/><polygon class="cls-1" points="111.23 85.55 113.93 85.55 115.28 87.89 113.93 90.23 111.23 90.23 109.88 87.89 111.23 85.55"/><polygon class="cls-1" points="120.24 85.55 122.95 85.55 124.3 87.89 122.95 90.23 120.24 90.23 118.89 87.89 120.24 85.55"/><polygon class="cls-1" points="129.25 85.55 131.96 85.55 133.31 87.89 131.96 90.23 129.25 90.23 127.9 87.89 129.25 85.55"/><polygon class="cls-1" points="138.27 85.55 140.97 85.55 142.32 87.89 140.97 90.23 138.27 90.23 136.92 87.89 138.27 85.55"/><polygon class="cls-1" points="147.28 85.55 149.98 85.55 151.34 87.89 149.98 90.23 147.28 90.23 145.93 87.89 147.28 85.55"/><polygon class="cls-1" points="16.59 88.15 19.29 88.15 20.64 90.49 19.29 92.83 16.59 92.83 15.23 90.49 16.59 88.15"/><polygon class="cls-1" points="25.6 88.15 28.3 88.15 29.66 90.49 28.3 92.83 25.6 92.83 24.25 90.49 25.6 88.15"/><polygon class="cls-1" points="34.61 88.15 37.32 88.15 38.67 90.49 37.32 92.83 34.61 92.83 33.26 90.49 34.61 88.15"/><polygon class="cls-1" points="43.62 88.15 46.34 88.15 47.68 90.49 46.34 92.83 43.62 92.83 42.27 90.49 43.62 88.15"/><polygon class="cls-1" points="52.64 88.15 55.34 88.15 56.7 90.49 55.34 92.83 52.64 92.83 51.29 90.49 52.64 88.15"/><polygon class="cls-1" points="61.65 88.15 64.36 88.15 65.71 90.49 64.36 92.83 61.65 92.83 60.3 90.49 61.65 88.15"/><polygon class="cls-1" points="70.66 88.15 73.37 88.15 74.73 90.49 73.37 92.83 70.66 92.83 69.32 90.49 70.66 88.15"/><polygon class="cls-1" points="79.68 88.15 82.39 88.15 83.73 90.49 82.39 92.83 79.68 92.83 78.33 90.49 79.68 88.15"/><polygon class="cls-1" points="88.69 88.15 91.4 88.15 92.75 90.49 91.4 92.83 88.69 92.83 87.34 90.49 88.69 88.15"/><polygon class="cls-1" points="97.71 88.15 100.41 88.15 101.76 90.49 100.41 92.83 97.71 92.83 96.36 90.49 97.71 88.15"/><polygon class="cls-1" points="106.72 88.15 109.42 88.15 110.78 90.49 109.42 92.83 106.72 92.83 105.37 90.49 106.72 88.15"/><polygon class="cls-1" points="115.73 88.15 118.44 88.15 119.79 90.49 118.44 92.83 115.73 92.83 114.38 90.49 115.73 88.15"/><polygon class="cls-1" points="124.75 88.15 127.45 88.15 128.8 90.49 127.45 92.83 124.75 92.83 123.4 90.49 124.75 88.15"/><polygon class="cls-1" points="133.76 88.15 136.46 88.15 137.82 90.49 136.46 92.83 133.76 92.83 132.41 90.49 133.76 88.15"/><polygon class="cls-1" points="142.78 88.15 145.48 88.15 146.83 90.49 145.48 92.83 142.78 92.83 141.42 90.49 142.78 88.15"/><polygon class="cls-1" points="151.79 88.15 154.5 88.15 155.84 90.49 154.5 92.83 151.79 92.83 150.44 90.49 151.79 88.15"/><polygon class="cls-1" points="21.09 90.75 23.79 90.75 25.14 93.09 23.79 95.44 21.09 95.44 19.74 93.09 21.09 90.75"/><polygon class="cls-1" points="30.11 90.75 32.81 90.75 34.16 93.09 32.81 95.44 30.11 95.44 28.76 93.09 30.11 90.75"/><polygon class="cls-1" points="39.12 90.75 41.82 90.75 43.17 93.09 41.82 95.44 39.12 95.44 37.77 93.09 39.12 90.75"/><polygon class="cls-1" points="48.13 90.75 50.84 90.75 52.19 93.09 50.84 95.44 48.13 95.44 46.78 93.09 48.13 90.75"/><polygon class="cls-1" points="57.15 90.75 59.86 90.75 61.21 93.09 59.86 95.44 57.15 95.44 55.8 93.09 57.15 90.75"/><polygon class="cls-1" points="66.16 90.75 68.87 90.75 70.21 93.09 68.87 95.44 66.16 95.44 64.81 93.09 66.16 90.75"/><polygon class="cls-1" points="75.17 90.75 77.88 90.75 79.23 93.09 77.88 95.44 75.17 95.44 73.82 93.09 75.17 90.75"/><polygon class="cls-1" points="84.19 90.75 86.89 90.75 88.25 93.09 86.89 95.44 84.19 95.44 82.83 93.09 84.19 90.75"/><polygon class="cls-1" points="93.2 90.75 95.9 90.75 97.26 93.09 95.9 95.44 93.2 95.44 91.85 93.09 93.2 90.75"/><polygon class="cls-1" points="102.21 90.75 104.92 90.75 106.27 93.09 104.92 95.44 102.21 95.44 100.87 93.09 102.21 90.75"/><polygon class="cls-1" points="111.23 90.75 113.93 90.75 115.28 93.09 113.93 95.44 111.23 95.44 109.88 93.09 111.23 90.75"/><polygon class="cls-1" points="120.24 90.75 122.95 90.75 124.3 93.09 122.95 95.44 120.24 95.44 118.89 93.09 120.24 90.75"/><polygon class="cls-1" points="129.25 90.75 131.96 90.75 133.31 93.09 131.96 95.44 129.25 95.44 127.9 93.09 129.25 90.75"/><polygon class="cls-1" points="138.27 90.75 140.97 90.75 142.32 93.09 140.97 95.44 138.27 95.44 136.92 93.09 138.27 90.75"/><polygon class="cls-1" points="147.28 90.75 149.98 90.75 151.34 93.09 149.98 95.44 147.28 95.44 145.93 93.09 147.28 90.75"/><polygon class="cls-1" points="156.29 90.75 159 90.75 160.35 93.09 159 95.44 156.29 95.44 154.95 93.09 156.29 90.75"/><polygon class="cls-1" points="16.59 93.35 19.29 93.35 20.64 95.69 19.29 98.04 16.59 98.04 15.23 95.69 16.59 93.35"/><polygon class="cls-1" points="25.6 93.35 28.3 93.35 29.66 95.69 28.3 98.04 25.6 98.04 24.25 95.69 25.6 93.35"/><polygon class="cls-1" points="34.61 93.35 37.32 93.35 38.67 95.69 37.32 98.04 34.61 98.04 33.26 95.69 34.61 93.35"/><polygon class="cls-1" points="43.62 93.35 46.34 93.35 47.68 95.69 46.34 98.04 43.62 98.04 42.27 95.69 43.62 93.35"/><polygon class="cls-1" points="52.64 93.35 55.34 93.35 56.7 95.69 55.34 98.04 52.64 98.04 51.29 95.69 52.64 93.35"/><polygon class="cls-1" points="61.65 93.35 64.36 93.35 65.71 95.69 64.36 98.04 61.65 98.04 60.3 95.69 61.65 93.35"/><polygon class="cls-1" points="70.66 93.35 73.37 93.35 74.73 95.69 73.37 98.04 70.66 98.04 69.32 95.69 70.66 93.35"/><polygon class="cls-1" points="79.68 93.35 82.39 93.35 83.73 95.69 82.39 98.04 79.68 98.04 78.33 95.69 79.68 93.35"/><polygon class="cls-1" points="88.69 93.35 91.4 93.35 92.75 95.69 91.4 98.04 88.69 98.04 87.34 95.69 88.69 93.35"/><polygon class="cls-1" points="97.71 93.35 100.41 93.35 101.76 95.69 100.41 98.04 97.71 98.04 96.36 95.69 97.71 93.35"/><polygon class="cls-1" points="106.72 93.35 109.42 93.35 110.78 95.69 109.42 98.04 106.72 98.04 105.37 95.69 106.72 93.35"/><polygon class="cls-1" points="115.73 93.35 118.44 93.35 119.79 95.69 118.44 98.04 115.73 98.04 114.38 95.69 115.73 93.35"/><polygon class="cls-1" points="124.75 93.35 127.45 93.35 128.8 95.69 127.45 98.04 124.75 98.04 123.4 95.69 124.75 93.35"/><polygon class="cls-1" points="133.76 93.35 136.46 93.35 137.82 95.69 136.46 98.04 133.76 98.04 132.41 95.69 133.76 93.35"/><polygon class="cls-1" points="142.78 93.35 145.48 93.35 146.83 95.69 145.48 98.04 142.78 98.04 141.42 95.69 142.78 93.35"/><polygon class="cls-1" points="151.79 93.35 154.5 93.35 155.84 95.69 154.5 98.04 151.79 98.04 150.44 95.69 151.79 93.35"/><polygon class="cls-1" points="21.09 95.95 23.79 95.95 25.14 98.29 23.79 100.64 21.09 100.64 19.74 98.29 21.09 95.95"/><polygon class="cls-1" points="30.11 95.95 32.81 95.95 34.16 98.29 32.81 100.64 30.11 100.64 28.76 98.29 30.11 95.95"/><polygon class="cls-1" points="39.12 95.95 41.82 95.95 43.17 98.29 41.82 100.64 39.12 100.64 37.77 98.29 39.12 95.95"/><polygon class="cls-1" points="48.13 95.95 50.84 95.95 52.19 98.29 50.84 100.64 48.13 100.64 46.78 98.29 48.13 95.95"/><polygon class="cls-1" points="57.15 95.95 59.86 95.95 61.21 98.29 59.86 100.64 57.15 100.64 55.8 98.29 57.15 95.95"/><polygon class="cls-1" points="66.16 95.95 68.87 95.95 70.21 98.29 68.87 100.64 66.16 100.64 64.81 98.29 66.16 95.95"/><polygon class="cls-1" points="75.17 95.95 77.88 95.95 79.23 98.29 77.88 100.64 75.17 100.64 73.82 98.29 75.17 95.95"/><polygon class="cls-1" points="84.19 95.95 86.89 95.95 88.25 98.29 86.89 100.64 84.19 100.64 82.83 98.29 84.19 95.95"/><polygon class="cls-1" points="93.2 95.95 95.9 95.95 97.26 98.29 95.9 100.64 93.2 100.64 91.85 98.29 93.2 95.95"/><polygon class="cls-1" points="102.21 95.95 104.92 95.95 106.27 98.29 104.92 100.64 102.21 100.64 100.87 98.29 102.21 95.95"/><polygon class="cls-1" points="111.23 95.95 113.93 95.95 115.28 98.29 113.93 100.64 111.23 100.64 109.88 98.29 111.23 95.95"/><polygon class="cls-1" points="120.24 95.95 122.95 95.95 124.3 98.29 122.95 100.64 120.24 100.64 118.89 98.29 120.24 95.95"/><polygon class="cls-1" points="129.25 95.95 131.96 95.95 133.31 98.29 131.96 100.64 129.25 100.64 127.9 98.29 129.25 95.95"/><polygon class="cls-1" points="138.27 95.95 140.97 95.95 142.32 98.29 140.97 100.64 138.27 100.64 136.92 98.29 138.27 95.95"/><polygon class="cls-1" points="147.28 95.95 149.98 95.95 151.34 98.29 149.98 100.64 147.28 100.64 145.93 98.29 147.28 95.95"/><polygon class="cls-1" points="156.29 95.95 159 95.95 160.35 98.29 159 100.64 156.29 100.64 154.95 98.29 156.29 95.95"/><polygon class="cls-1" points="25.6 98.56 28.3 98.56 29.66 100.9 28.3 103.24 25.6 103.24 24.25 100.9 25.6 98.56"/><polygon class="cls-1" points="34.61 98.56 37.32 98.56 38.67 100.9 37.32 103.24 34.61 103.24 33.26 100.9 34.61 98.56"/><polygon class="cls-1" points="43.62 98.56 46.34 98.56 47.68 100.9 46.34 103.24 43.62 103.24 42.27 100.9 43.62 98.56"/><polygon class="cls-1" points="52.64 98.56 55.34 98.56 56.7 100.9 55.34 103.24 52.64 103.24 51.29 100.9 52.64 98.56"/><polygon class="cls-1" points="61.65 98.56 64.36 98.56 65.71 100.9 64.36 103.24 61.65 103.24 60.3 100.9 61.65 98.56"/><polygon class="cls-1" points="70.66 98.56 73.37 98.56 74.73 100.9 73.37 103.24 70.66 103.24 69.32 100.9 70.66 98.56"/><polygon class="cls-1" points="79.68 98.56 82.39 98.56 83.73 100.9 82.39 103.24 79.68 103.24 78.33 100.9 79.68 98.56"/><polygon class="cls-1" points="88.69 98.56 91.4 98.56 92.75 100.9 91.4 103.24 88.69 103.24 87.34 100.9 88.69 98.56"/><polygon class="cls-1" points="97.71 98.56 100.41 98.56 101.76 100.9 100.41 103.24 97.71 103.24 96.36 100.9 97.71 98.56"/><polygon class="cls-1" points="106.72 98.56 109.42 98.56 110.78 100.9 109.42 103.24 106.72 103.24 105.37 100.9 106.72 98.56"/><polygon class="cls-1" points="115.73 98.56 118.44 98.56 119.79 100.9 118.44 103.24 115.73 103.24 114.38 100.9 115.73 98.56"/><polygon class="cls-1" points="124.75 98.56 127.45 98.56 128.8 100.9 127.45 103.24 124.75 103.24 123.4 100.9 124.75 98.56"/><polygon class="cls-1" points="133.76 98.56 136.46 98.56 137.82 100.9 136.46 103.24 133.76 103.24 132.41 100.9 133.76 98.56"/><polygon class="cls-1" points="142.78 98.56 145.48 98.56 146.83 100.9 145.48 103.24 142.78 103.24 141.42 100.9 142.78 98.56"/><polygon class="cls-1" points="151.79 98.56 154.5 98.56 155.84 100.9 154.5 103.24 151.79 103.24 150.44 100.9 151.79 98.56"/><polygon class="cls-1" points="21.09 101.16 23.79 101.16 25.14 103.5 23.79 105.85 21.09 105.85 19.74 103.5 21.09 101.16"/><polygon class="cls-1" points="30.11 101.16 32.81 101.16 34.16 103.5 32.81 105.85 30.11 105.85 28.76 103.5 30.11 101.16"/><polygon class="cls-1" points="39.12 101.16 41.82 101.16 43.17 103.5 41.82 105.85 39.12 105.85 37.77 103.5 39.12 101.16"/><polygon class="cls-1" points="48.13 101.16 50.84 101.16 52.19 103.5 50.84 105.85 48.13 105.85 46.78 103.5 48.13 101.16"/><polygon class="cls-1" points="57.15 101.16 59.86 101.16 61.21 103.5 59.86 105.85 57.15 105.85 55.8 103.5 57.15 101.16"/><polygon class="cls-1" points="66.16 101.16 68.87 101.16 70.21 103.5 68.87 105.85 66.16 105.85 64.81 103.5 66.16 101.16"/><polygon class="cls-1" points="75.17 101.16 77.88 101.16 79.23 103.5 77.88 105.85 75.17 105.85 73.82 103.5 75.17 101.16"/><polygon class="cls-1" points="84.19 101.16 86.89 101.16 88.25 103.5 86.89 105.85 84.19 105.85 82.83 103.5 84.19 101.16"/><polygon class="cls-1" points="93.2 101.16 95.9 101.16 97.26 103.5 95.9 105.85 93.2 105.85 91.85 103.5 93.2 101.16"/><polygon class="cls-1" points="102.21 101.16 104.92 101.16 106.27 103.5 104.92 105.85 102.21 105.85 100.87 103.5 102.21 101.16"/><polygon class="cls-1" points="111.23 101.16 113.93 101.16 115.28 103.5 113.93 105.85 111.23 105.85 109.88 103.5 111.23 101.16"/><polygon class="cls-1" points="120.24 101.16 122.95 101.16 124.3 103.5 122.95 105.85 120.24 105.85 118.89 103.5 120.24 101.16"/><polygon class="cls-1" points="129.25 101.16 131.96 101.16 133.31 103.5 131.96 105.85 129.25 105.85 127.9 103.5 129.25 101.16"/><polygon class="cls-1" points="138.27 101.16 140.97 101.16 142.32 103.5 140.97 105.85 138.27 105.85 136.92 103.5 138.27 101.16"/><polygon class="cls-1" points="147.28 101.16 149.98 101.16 151.34 103.5 149.98 105.85 147.28 105.85 145.93 103.5 147.28 101.16"/><polygon class="cls-1" points="25.6 103.76 28.3 103.76 29.66 106.11 28.3 108.44 25.6 108.44 24.25 106.11 25.6 103.76"/><polygon class="cls-1" points="34.61 103.76 37.32 103.76 38.67 106.11 37.32 108.44 34.61 108.44 33.26 106.11 34.61 103.76"/><polygon class="cls-1" points="43.62 103.76 46.34 103.76 47.68 106.11 46.34 108.44 43.62 108.44 42.27 106.11 43.62 103.76"/><polygon class="cls-1" points="52.64 103.76 55.34 103.76 56.7 106.11 55.34 108.44 52.64 108.44 51.29 106.11 52.64 103.76"/><polygon class="cls-1" points="61.65 103.76 64.36 103.76 65.71 106.11 64.36 108.44 61.65 108.44 60.3 106.11 61.65 103.76"/><polygon class="cls-1" points="70.66 103.76 73.37 103.76 74.73 106.11 73.37 108.44 70.66 108.44 69.32 106.11 70.66 103.76"/><polygon class="cls-1" points="79.68 103.76 82.39 103.76 83.73 106.11 82.39 108.44 79.68 108.44 78.33 106.11 79.68 103.76"/><polygon class="cls-1" points="88.69 103.76 91.4 103.76 92.75 106.11 91.4 108.44 88.69 108.44 87.34 106.11 88.69 103.76"/><polygon class="cls-1" points="97.71 103.76 100.41 103.76 101.76 106.11 100.41 108.44 97.71 108.44 96.36 106.11 97.71 103.76"/><polygon class="cls-1" points="106.72 103.76 109.42 103.76 110.78 106.11 109.42 108.44 106.72 108.44 105.37 106.11 106.72 103.76"/><polygon class="cls-1" points="115.73 103.76 118.44 103.76 119.79 106.11 118.44 108.44 115.73 108.44 114.38 106.11 115.73 103.76"/><polygon class="cls-1" points="124.75 103.76 127.45 103.76 128.8 106.11 127.45 108.44 124.75 108.44 123.4 106.11 124.75 103.76"/><polygon class="cls-1" points="133.76 103.76 136.46 103.76 137.82 106.11 136.46 108.44 133.76 108.44 132.41 106.11 133.76 103.76"/><polygon class="cls-1" points="142.78 103.76 145.48 103.76 146.83 106.11 145.48 108.44 142.78 108.44 141.42 106.11 142.78 103.76"/><polygon class="cls-1" points="151.79 103.76 154.5 103.76 155.84 106.11 154.5 108.44 151.79 108.44 150.44 106.11 151.79 103.76"/><polygon class="cls-1" points="30.11 106.36 32.81 106.36 34.16 108.7 32.81 111.05 30.11 111.05 28.76 108.7 30.11 106.36"/><polygon class="cls-1" points="39.12 106.36 41.82 106.36 43.17 108.7 41.82 111.05 39.12 111.05 37.77 108.7 39.12 106.36"/><polygon class="cls-1" points="48.13 106.36 50.84 106.36 52.19 108.7 50.84 111.05 48.13 111.05 46.78 108.7 48.13 106.36"/><polygon class="cls-1" points="57.15 106.36 59.86 106.36 61.21 108.7 59.86 111.05 57.15 111.05 55.8 108.7 57.15 106.36"/><polygon class="cls-1" points="66.16 106.36 68.87 106.36 70.21 108.7 68.87 111.05 66.16 111.05 64.81 108.7 66.16 106.36"/><polygon class="cls-1" points="75.17 106.36 77.88 106.36 79.23 108.7 77.88 111.05 75.17 111.05 73.82 108.7 75.17 106.36"/><polygon class="cls-1" points="84.19 106.36 86.89 106.36 88.25 108.7 86.89 111.05 84.19 111.05 82.83 108.7 84.19 106.36"/><polygon class="cls-1" points="93.2 106.36 95.9 106.36 97.26 108.7 95.9 111.05 93.2 111.05 91.85 108.7 93.2 106.36"/><polygon class="cls-1" points="102.21 106.36 104.92 106.36 106.27 108.7 104.92 111.05 102.21 111.05 100.87 108.7 102.21 106.36"/><polygon class="cls-1" points="111.23 106.36 113.93 106.36 115.28 108.7 113.93 111.05 111.23 111.05 109.88 108.7 111.23 106.36"/><polygon class="cls-1" points="120.24 106.36 122.95 106.36 124.3 108.7 122.95 111.05 120.24 111.05 118.89 108.7 120.24 106.36"/><polygon class="cls-1" points="129.25 106.36 131.96 106.36 133.31 108.7 131.96 111.05 129.25 111.05 127.9 108.7 129.25 106.36"/><polygon class="cls-1" points="138.27 106.36 140.97 106.36 142.32 108.7 140.97 111.05 138.27 111.05 136.92 108.7 138.27 106.36"/><polygon class="cls-1" points="147.28 106.36 149.98 106.36 151.34 108.7 149.98 111.05 147.28 111.05 145.93 108.7 147.28 106.36"/><polygon class="cls-1" points="25.6 108.97 28.3 108.97 29.66 111.31 28.3 113.65 25.6 113.65 24.25 111.31 25.6 108.97"/><polygon class="cls-1" points="34.61 108.97 37.32 108.97 38.67 111.31 37.32 113.65 34.61 113.65 33.26 111.31 34.61 108.97"/><polygon class="cls-1" points="43.62 108.97 46.34 108.97 47.68 111.31 46.34 113.65 43.62 113.65 42.27 111.31 43.62 108.97"/><polygon class="cls-1" points="52.64 108.97 55.34 108.97 56.7 111.31 55.34 113.65 52.64 113.65 51.29 111.31 52.64 108.97"/><polygon class="cls-1" points="61.65 108.97 64.36 108.97 65.71 111.31 64.36 113.65 61.65 113.65 60.3 111.31 61.65 108.97"/><polygon class="cls-1" points="70.66 108.97 73.37 108.97 74.73 111.31 73.37 113.65 70.66 113.65 69.32 111.31 70.66 108.97"/><polygon class="cls-1" points="79.68 108.97 82.39 108.97 83.73 111.31 82.39 113.65 79.68 113.65 78.33 111.31 79.68 108.97"/><polygon class="cls-1" points="88.69 108.97 91.4 108.97 92.75 111.31 91.4 113.65 88.69 113.65 87.34 111.31 88.69 108.97"/><polygon class="cls-1" points="97.71 108.97 100.41 108.97 101.76 111.31 100.41 113.65 97.71 113.65 96.36 111.31 97.71 108.97"/><polygon class="cls-1" points="106.72 108.97 109.42 108.97 110.78 111.31 109.42 113.65 106.72 113.65 105.37 111.31 106.72 108.97"/><polygon class="cls-1" points="115.73 108.97 118.44 108.97 119.79 111.31 118.44 113.65 115.73 113.65 114.38 111.31 115.73 108.97"/><polygon class="cls-1" points="124.75 108.97 127.45 108.97 128.8 111.31 127.45 113.65 124.75 113.65 123.4 111.31 124.75 108.97"/><polygon class="cls-1" points="133.76 108.97 136.46 108.97 137.82 111.31 136.46 113.65 133.76 113.65 132.41 111.31 133.76 108.97"/><polygon class="cls-1" points="142.78 108.97 145.48 108.97 146.83 111.31 145.48 113.65 142.78 113.65 141.42 111.31 142.78 108.97"/><polygon class="cls-1" points="30.11 111.56 32.81 111.56 34.16 113.91 32.81 116.25 30.11 116.25 28.76 113.91 30.11 111.56"/><polygon class="cls-1" points="39.12 111.56 41.82 111.56 43.17 113.91 41.82 116.25 39.12 116.25 37.77 113.91 39.12 111.56"/><polygon class="cls-1" points="48.13 111.56 50.84 111.56 52.19 113.91 50.84 116.25 48.13 116.25 46.78 113.91 48.13 111.56"/><polygon class="cls-1" points="57.15 111.56 59.86 111.56 61.21 113.91 59.86 116.25 57.15 116.25 55.8 113.91 57.15 111.56"/><polygon class="cls-1" points="66.16 111.56 68.87 111.56 70.21 113.91 68.87 116.25 66.16 116.25 64.81 113.91 66.16 111.56"/><polygon class="cls-1" points="75.17 111.56 77.88 111.56 79.23 113.91 77.88 116.25 75.17 116.25 73.82 113.91 75.17 111.56"/><polygon class="cls-1" points="84.19 111.56 86.89 111.56 88.25 113.91 86.89 116.25 84.19 116.25 82.83 113.91 84.19 111.56"/><polygon class="cls-1" points="93.2 111.56 95.9 111.56 97.26 113.91 95.9 116.25 93.2 116.25 91.85 113.91 93.2 111.56"/><polygon class="cls-1" points="102.21 111.56 104.92 111.56 106.27 113.91 104.92 116.25 102.21 116.25 100.87 113.91 102.21 111.56"/><polygon class="cls-1" points="111.23 111.56 113.93 111.56 115.28 113.91 113.93 116.25 111.23 116.25 109.88 113.91 111.23 111.56"/><polygon class="cls-1" points="120.24 111.56 122.95 111.56 124.3 113.91 122.95 116.25 120.24 116.25 118.89 113.91 120.24 111.56"/><polygon class="cls-1" points="129.25 111.56 131.96 111.56 133.31 113.91 131.96 116.25 129.25 116.25 127.9 113.91 129.25 111.56"/><polygon class="cls-1" points="138.27 111.56 140.97 111.56 142.32 113.91 140.97 116.25 138.27 116.25 136.92 113.91 138.27 111.56"/><polygon class="cls-1" points="147.28 111.56 149.98 111.56 151.34 113.91 149.98 116.25 147.28 116.25 145.93 113.91 147.28 111.56"/><polygon class="cls-1" points="34.61 114.17 37.32 114.17 38.67 116.51 37.32 118.85 34.61 118.85 33.26 116.51 34.61 114.17"/><polygon class="cls-1" points="43.62 114.17 46.34 114.17 47.68 116.51 46.34 118.85 43.62 118.85 42.27 116.51 43.62 114.17"/><polygon class="cls-1" points="52.64 114.17 55.34 114.17 56.7 116.51 55.34 118.85 52.64 118.85 51.29 116.51 52.64 114.17"/><polygon class="cls-1" points="61.65 114.17 64.36 114.17 65.71 116.51 64.36 118.85 61.65 118.85 60.3 116.51 61.65 114.17"/><polygon class="cls-1" points="70.66 114.17 73.37 114.17 74.73 116.51 73.37 118.85 70.66 118.85 69.32 116.51 70.66 114.17"/><polygon class="cls-1" points="79.68 114.17 82.39 114.17 83.73 116.51 82.39 118.85 79.68 118.85 78.33 116.51 79.68 114.17"/><polygon class="cls-1" points="88.69 114.17 91.4 114.17 92.75 116.51 91.4 118.85 88.69 118.85 87.34 116.51 88.69 114.17"/><polygon class="cls-1" points="97.71 114.17 100.41 114.17 101.76 116.51 100.41 118.85 97.71 118.85 96.36 116.51 97.71 114.17"/><polygon class="cls-1" points="106.72 114.17 109.42 114.17 110.78 116.51 109.42 118.85 106.72 118.85 105.37 116.51 106.72 114.17"/><polygon class="cls-1" points="115.73 114.17 118.44 114.17 119.79 116.51 118.44 118.85 115.73 118.85 114.38 116.51 115.73 114.17"/><polygon class="cls-1" points="124.75 114.17 127.45 114.17 128.8 116.51 127.45 118.85 124.75 118.85 123.4 116.51 124.75 114.17"/><polygon class="cls-1" points="133.76 114.17 136.46 114.17 137.82 116.51 136.46 118.85 133.76 118.85 132.41 116.51 133.76 114.17"/><polygon class="cls-1" points="142.78 114.17 145.48 114.17 146.83 116.51 145.48 118.85 142.78 118.85 141.42 116.51 142.78 114.17"/><polygon class="cls-1" points="30.11 116.77 32.81 116.77 34.16 119.11 32.81 121.46 30.11 121.46 28.76 119.11 30.11 116.77"/><polygon class="cls-1" points="39.12 116.77 41.82 116.77 43.17 119.11 41.82 121.46 39.12 121.46 37.77 119.11 39.12 116.77"/><polygon class="cls-1" points="48.13 116.77 50.84 116.77 52.19 119.11 50.84 121.46 48.13 121.46 46.78 119.11 48.13 116.77"/><polygon class="cls-1" points="57.15 116.77 59.86 116.77 61.21 119.11 59.86 121.46 57.15 121.46 55.8 119.11 57.15 116.77"/><polygon class="cls-1" points="66.16 116.77 68.87 116.77 70.21 119.11 68.87 121.46 66.16 121.46 64.81 119.11 66.16 116.77"/><polygon class="cls-1" points="75.17 116.77 77.88 116.77 79.23 119.11 77.88 121.46 75.17 121.46 73.82 119.11 75.17 116.77"/><polygon class="cls-1" points="84.19 116.77 86.89 116.77 88.25 119.11 86.89 121.46 84.19 121.46 82.83 119.11 84.19 116.77"/><polygon class="cls-1" points="93.2 116.77 95.9 116.77 97.26 119.11 95.9 121.46 93.2 121.46 91.85 119.11 93.2 116.77"/><polygon class="cls-1" points="102.21 116.77 104.92 116.77 106.27 119.11 104.92 121.46 102.21 121.46 100.87 119.11 102.21 116.77"/><polygon class="cls-1" points="111.23 116.77 113.93 116.77 115.28 119.11 113.93 121.46 111.23 121.46 109.88 119.11 111.23 116.77"/><polygon class="cls-1" points="120.24 116.77 122.95 116.77 124.3 119.11 122.95 121.46 120.24 121.46 118.89 119.11 120.24 116.77"/><polygon class="cls-1" points="129.25 116.77 131.96 116.77 133.31 119.11 131.96 121.46 129.25 121.46 127.9 119.11 129.25 116.77"/><polygon class="cls-1" points="138.27 116.77 140.97 116.77 142.32 119.11 140.97 121.46 138.27 121.46 136.92 119.11 138.27 116.77"/><polygon class="cls-1" points="34.61 119.38 37.32 119.38 38.67 121.72 37.32 124.06 34.61 124.06 33.26 121.72 34.61 119.38"/><polygon class="cls-1" points="43.62 119.38 46.34 119.38 47.68 121.72 46.34 124.06 43.62 124.06 42.27 121.72 43.62 119.38"/><polygon class="cls-1" points="52.64 119.38 55.34 119.38 56.7 121.72 55.34 124.06 52.64 124.06 51.29 121.72 52.64 119.38"/><polygon class="cls-1" points="61.65 119.38 64.36 119.38 65.71 121.72 64.36 124.06 61.65 124.06 60.3 121.72 61.65 119.38"/><polygon class="cls-1" points="70.66 119.38 73.37 119.38 74.73 121.72 73.37 124.06 70.66 124.06 69.32 121.72 70.66 119.38"/><polygon class="cls-1" points="79.68 119.38 82.39 119.38 83.73 121.72 82.39 124.06 79.68 124.06 78.33 121.72 79.68 119.38"/><polygon class="cls-1" points="88.69 119.38 91.4 119.38 92.75 121.72 91.4 124.06 88.69 124.06 87.34 121.72 88.69 119.38"/><polygon class="cls-1" points="97.71 119.38 100.41 119.38 101.76 121.72 100.41 124.06 97.71 124.06 96.36 121.72 97.71 119.38"/><polygon class="cls-1" points="106.72 119.38 109.42 119.38 110.78 121.72 109.42 124.06 106.72 124.06 105.37 121.72 106.72 119.38"/><polygon class="cls-1" points="115.73 119.38 118.44 119.38 119.79 121.72 118.44 124.06 115.73 124.06 114.38 121.72 115.73 119.38"/><polygon class="cls-1" points="124.75 119.38 127.45 119.38 128.8 121.72 127.45 124.06 124.75 124.06 123.4 121.72 124.75 119.38"/><polygon class="cls-1" points="133.76 119.38 136.46 119.38 137.82 121.72 136.46 124.06 133.76 124.06 132.41 121.72 133.76 119.38"/><polygon class="cls-1" points="142.78 119.38 145.48 119.38 146.83 121.72 145.48 124.06 142.78 124.06 141.42 121.72 142.78 119.38"/><polygon class="cls-1" points="39.12 121.97 41.82 121.97 43.17 124.32 41.82 126.66 39.12 126.66 37.77 124.32 39.12 121.97"/><polygon class="cls-1" points="48.13 121.97 50.84 121.97 52.19 124.32 50.84 126.66 48.13 126.66 46.78 124.32 48.13 121.97"/><polygon class="cls-1" points="57.15 121.97 59.86 121.97 61.21 124.32 59.86 126.66 57.15 126.66 55.8 124.32 57.15 121.97"/><polygon class="cls-1" points="66.16 121.97 68.87 121.97 70.21 124.32 68.87 126.66 66.16 126.66 64.81 124.32 66.16 121.97"/><polygon class="cls-1" points="75.17 121.97 77.88 121.97 79.23 124.32 77.88 126.66 75.17 126.66 73.82 124.32 75.17 121.97"/><polygon class="cls-1" points="84.19 121.97 86.89 121.97 88.25 124.32 86.89 126.66 84.19 126.66 82.83 124.32 84.19 121.97"/><polygon class="cls-1" points="93.2 121.97 95.9 121.97 97.26 124.32 95.9 126.66 93.2 126.66 91.85 124.32 93.2 121.97"/><polygon class="cls-1" points="102.21 121.97 104.92 121.97 106.27 124.32 104.92 126.66 102.21 126.66 100.87 124.32 102.21 121.97"/><polygon class="cls-1" points="111.23 121.97 113.93 121.97 115.28 124.32 113.93 126.66 111.23 126.66 109.88 124.32 111.23 121.97"/><polygon class="cls-1" points="120.24 121.97 122.95 121.97 124.3 124.32 122.95 126.66 120.24 126.66 118.89 124.32 120.24 121.97"/><polygon class="cls-1" points="129.25 121.97 131.96 121.97 133.31 124.32 131.96 126.66 129.25 126.66 127.9 124.32 129.25 121.97"/><polygon class="cls-1" points="138.27 121.97 140.97 121.97 142.32 124.32 140.97 126.66 138.27 126.66 136.92 124.32 138.27 121.97"/><polygon class="cls-1" points="43.62 124.58 46.34 124.58 47.68 126.92 46.34 129.26 43.62 129.26 42.27 126.92 43.62 124.58"/><polygon class="cls-1" points="52.64 124.58 55.34 124.58 56.7 126.92 55.34 129.26 52.64 129.26 51.29 126.92 52.64 124.58"/><polygon class="cls-1" points="61.65 124.58 64.36 124.58 65.71 126.92 64.36 129.26 61.65 129.26 60.3 126.92 61.65 124.58"/><polygon class="cls-1" points="70.66 124.58 73.37 124.58 74.73 126.92 73.37 129.26 70.66 129.26 69.32 126.92 70.66 124.58"/><polygon class="cls-1" points="79.68 124.58 82.39 124.58 83.73 126.92 82.39 129.26 79.68 129.26 78.33 126.92 79.68 124.58"/><polygon class="cls-1" points="88.69 124.58 91.4 124.58 92.75 126.92 91.4 129.26 88.69 129.26 87.34 126.92 88.69 124.58"/><polygon class="cls-1" points="97.71 124.58 100.41 124.58 101.76 126.92 100.41 129.26 97.71 129.26 96.36 126.92 97.71 124.58"/><polygon class="cls-1" points="106.72 124.58 109.42 124.58 110.78 126.92 109.42 129.26 106.72 129.26 105.37 126.92 106.72 124.58"/><polygon class="cls-1" points="115.73 124.58 118.44 124.58 119.79 126.92 118.44 129.26 115.73 129.26 114.38 126.92 115.73 124.58"/><polygon class="cls-1" points="124.75 124.58 127.45 124.58 128.8 126.92 127.45 129.26 124.75 129.26 123.4 126.92 124.75 124.58"/><polygon class="cls-1" points="133.76 124.58 136.46 124.58 137.82 126.92 136.46 129.26 133.76 129.26 132.41 126.92 133.76 124.58"/><polygon class="cls-1" points="142.78 124.58 145.48 124.58 146.83 126.92 145.48 129.26 142.78 129.26 141.42 126.92 142.78 124.58"/><polygon class="cls-1" points="48.13 127.18 50.84 127.18 52.19 129.52 50.84 131.87 48.13 131.87 46.78 129.52 48.13 127.18"/><polygon class="cls-1" points="57.15 127.18 59.86 127.18 61.21 129.52 59.86 131.87 57.15 131.87 55.8 129.52 57.15 127.18"/><polygon class="cls-1" points="66.16 127.18 68.87 127.18 70.21 129.52 68.87 131.87 66.16 131.87 64.81 129.52 66.16 127.18"/><polygon class="cls-1" points="75.17 127.18 77.88 127.18 79.23 129.52 77.88 131.87 75.17 131.87 73.82 129.52 75.17 127.18"/><polygon class="cls-1" points="84.19 127.18 86.89 127.18 88.25 129.52 86.89 131.87 84.19 131.87 82.83 129.52 84.19 127.18"/><polygon class="cls-1" points="93.2 127.18 95.9 127.18 97.26 129.52 95.9 131.87 93.2 131.87 91.85 129.52 93.2 127.18"/><polygon class="cls-1" points="102.21 127.18 104.92 127.18 106.27 129.52 104.92 131.87 102.21 131.87 100.87 129.52 102.21 127.18"/><polygon class="cls-1" points="111.23 127.18 113.93 127.18 115.28 129.52 113.93 131.87 111.23 131.87 109.88 129.52 111.23 127.18"/><polygon class="cls-1" points="120.24 127.18 122.95 127.18 124.3 129.52 122.95 131.87 120.24 131.87 118.89 129.52 120.24 127.18"/><polygon class="cls-1" points="129.25 127.18 131.96 127.18 133.31 129.52 131.96 131.87 129.25 131.87 127.9 129.52 129.25 127.18"/><polygon class="cls-1" points="138.27 127.18 140.97 127.18 142.32 129.52 140.97 131.87 138.27 131.87 136.92 129.52 138.27 127.18"/><polygon class="cls-1" points="52.64 129.78 55.34 129.78 56.7 132.12 55.34 134.47 52.64 134.47 51.29 132.12 52.64 129.78"/><polygon class="cls-1" points="61.65 129.78 64.36 129.78 65.71 132.12 64.36 134.47 61.65 134.47 60.3 132.12 61.65 129.78"/><polygon class="cls-1" points="70.66 129.78 73.37 129.78 74.73 132.12 73.37 134.47 70.66 134.47 69.32 132.12 70.66 129.78"/><polygon class="cls-1" points="79.68 129.78 82.39 129.78 83.73 132.12 82.39 134.47 79.68 134.47 78.33 132.12 79.68 129.78"/><polygon class="cls-1" points="88.69 129.78 91.4 129.78 92.75 132.12 91.4 134.47 88.69 134.47 87.34 132.12 88.69 129.78"/><polygon class="cls-1" points="97.71 129.78 100.41 129.78 101.76 132.12 100.41 134.47 97.71 134.47 96.36 132.12 97.71 129.78"/><polygon class="cls-1" points="106.72 129.78 109.42 129.78 110.78 132.12 109.42 134.47 106.72 134.47 105.37 132.12 106.72 129.78"/><polygon class="cls-1" points="115.73 129.78 118.44 129.78 119.79 132.12 118.44 134.47 115.73 134.47 114.38 132.12 115.73 129.78"/><polygon class="cls-1" points="124.75 129.78 127.45 129.78 128.8 132.12 127.45 134.47 124.75 134.47 123.4 132.12 124.75 129.78"/><polygon class="cls-1" points="133.76 129.78 136.46 129.78 137.82 132.12 136.46 134.47 133.76 134.47 132.41 132.12 133.76 129.78"/><polygon class="cls-1" points="142.78 129.78 145.48 129.78 146.83 132.12 145.48 134.47 142.78 134.47 141.42 132.12 142.78 129.78"/><polygon class="cls-1" points="48.13 132.38 50.84 132.38 52.19 134.72 50.84 137.07 48.13 137.07 46.78 134.72 48.13 132.38"/><polygon class="cls-1" points="57.15 132.38 59.86 132.38 61.21 134.72 59.86 137.07 57.15 137.07 55.8 134.72 57.15 132.38"/><polygon class="cls-1" points="66.16 132.38 68.87 132.38 70.21 134.72 68.87 137.07 66.16 137.07 64.81 134.72 66.16 132.38"/><polygon class="cls-1" points="75.17 132.38 77.88 132.38 79.23 134.72 77.88 137.07 75.17 137.07 73.82 134.72 75.17 132.38"/><polygon class="cls-1" points="84.19 132.38 86.89 132.38 88.25 134.72 86.89 137.07 84.19 137.07 82.83 134.72 84.19 132.38"/><polygon class="cls-1" points="93.2 132.38 95.9 132.38 97.26 134.72 95.9 137.07 93.2 137.07 91.85 134.72 93.2 132.38"/><polygon class="cls-1" points="102.21 132.38 104.92 132.38 106.27 134.72 104.92 137.07 102.21 137.07 100.87 134.72 102.21 132.38"/><polygon class="cls-1" points="111.23 132.38 113.93 132.38 115.28 134.72 113.93 137.07 111.23 137.07 109.88 134.72 111.23 132.38"/><polygon class="cls-1" points="120.24 132.38 122.95 132.38 124.3 134.72 122.95 137.07 120.24 137.07 118.89 134.72 120.24 132.38"/><polygon class="cls-1" points="129.25 132.38 131.96 132.38 133.31 134.72 131.96 137.07 129.25 137.07 127.9 134.72 129.25 132.38"/><polygon class="cls-1" points="138.27 132.38 140.97 132.38 142.32 134.72 140.97 137.07 138.27 137.07 136.92 134.72 138.27 132.38"/><polygon class="cls-1" points="52.64 134.98 55.34 134.98 56.7 137.33 55.34 139.67 52.64 139.67 51.29 137.33 52.64 134.98"/><polygon class="cls-1" points="61.65 134.98 64.36 134.98 65.71 137.33 64.36 139.67 61.65 139.67 60.3 137.33 61.65 134.98"/><polygon class="cls-1" points="70.66 134.98 73.37 134.98 74.73 137.33 73.37 139.67 70.66 139.67 69.32 137.33 70.66 134.98"/><polygon class="cls-1" points="79.68 134.98 82.39 134.98 83.73 137.33 82.39 139.67 79.68 139.67 78.33 137.33 79.68 134.98"/><polygon class="cls-1" points="88.69 134.98 91.4 134.98 92.75 137.33 91.4 139.67 88.69 139.67 87.34 137.33 88.69 134.98"/><polygon class="cls-1" points="97.71 134.98 100.41 134.98 101.76 137.33 100.41 139.67 97.71 139.67 96.36 137.33 97.71 134.98"/><polygon class="cls-1" points="106.72 134.98 109.42 134.98 110.78 137.33 109.42 139.67 106.72 139.67 105.37 137.33 106.72 134.98"/><polygon class="cls-1" points="115.73 134.98 118.44 134.98 119.79 137.33 118.44 139.67 115.73 139.67 114.38 137.33 115.73 134.98"/><polygon class="cls-1" points="124.75 134.98 127.45 134.98 128.8 137.33 127.45 139.67 124.75 139.67 123.4 137.33 124.75 134.98"/><polygon class="cls-1" points="133.76 134.98 136.46 134.98 137.82 137.33 136.46 139.67 133.76 139.67 132.41 137.33 133.76 134.98"/><polygon class="cls-1" points="142.78 134.98 145.48 134.98 146.83 137.33 145.48 139.67 142.78 139.67 141.42 137.33 142.78 134.98"/><polygon class="cls-1" points="57.15 137.59 59.86 137.59 61.21 139.93 59.86 142.27 57.15 142.27 55.8 139.93 57.15 137.59"/><polygon class="cls-1" points="66.16 137.59 68.87 137.59 70.21 139.93 68.87 142.27 66.16 142.27 64.81 139.93 66.16 137.59"/><polygon class="cls-1" points="75.17 137.59 77.88 137.59 79.23 139.93 77.88 142.27 75.17 142.27 73.82 139.93 75.17 137.59"/><polygon class="cls-1" points="84.19 137.59 86.89 137.59 88.25 139.93 86.89 142.27 84.19 142.27 82.83 139.93 84.19 137.59"/><polygon class="cls-1" points="93.2 137.59 95.9 137.59 97.26 139.93 95.9 142.27 93.2 142.27 91.85 139.93 93.2 137.59"/><polygon class="cls-1" points="102.21 137.59 104.92 137.59 106.27 139.93 104.92 142.27 102.21 142.27 100.87 139.93 102.21 137.59"/><polygon class="cls-1" points="111.23 137.59 113.93 137.59 115.28 139.93 113.93 142.27 111.23 142.27 109.88 139.93 111.23 137.59"/><polygon class="cls-1" points="120.24 137.59 122.95 137.59 124.3 139.93 122.95 142.27 120.24 142.27 118.89 139.93 120.24 137.59"/><polygon class="cls-1" points="129.25 137.59 131.96 137.59 133.31 139.93 131.96 142.27 129.25 142.27 127.9 139.93 129.25 137.59"/><polygon class="cls-1" points="138.27 137.59 140.97 137.59 142.32 139.93 140.97 142.27 138.27 142.27 136.92 139.93 138.27 137.59"/><polygon class="cls-1" points="52.64 140.19 55.34 140.19 56.7 142.53 55.34 144.87 52.64 144.87 51.29 142.53 52.64 140.19"/><polygon class="cls-1" points="61.65 140.19 64.36 140.19 65.71 142.53 64.36 144.87 61.65 144.87 60.3 142.53 61.65 140.19"/><polygon class="cls-1" points="70.66 140.19 73.37 140.19 74.73 142.53 73.37 144.87 70.66 144.87 69.32 142.53 70.66 140.19"/><polygon class="cls-1" points="79.68 140.19 82.39 140.19 83.73 142.53 82.39 144.87 79.68 144.87 78.33 142.53 79.68 140.19"/><polygon class="cls-1" points="88.69 140.19 91.4 140.19 92.75 142.53 91.4 144.87 88.69 144.87 87.34 142.53 88.69 140.19"/><polygon class="cls-1" points="97.71 140.19 100.41 140.19 101.76 142.53 100.41 144.87 97.71 144.87 96.36 142.53 97.71 140.19"/><polygon class="cls-1" points="106.72 140.19 109.42 140.19 110.78 142.53 109.42 144.87 106.72 144.87 105.37 142.53 106.72 140.19"/><polygon class="cls-1" points="115.73 140.19 118.44 140.19 119.79 142.53 118.44 144.87 115.73 144.87 114.38 142.53 115.73 140.19"/><polygon class="cls-1" points="124.75 140.19 127.45 140.19 128.8 142.53 127.45 144.87 124.75 144.87 123.4 142.53 124.75 140.19"/><polygon class="cls-1" points="133.76 140.19 136.46 140.19 137.82 142.53 136.46 144.87 133.76 144.87 132.41 142.53 133.76 140.19"/><polygon class="cls-1" points="142.78 140.19 145.48 140.19 146.83 142.53 145.48 144.87 142.78 144.87 141.42 142.53 142.78 140.19"/><polygon class="cls-1" points="57.15 142.79 59.86 142.79 61.21 145.14 59.86 147.48 57.15 147.48 55.8 145.14 57.15 142.79"/><polygon class="cls-1" points="66.16 142.79 68.87 142.79 70.21 145.14 68.87 147.48 66.16 147.48 64.81 145.14 66.16 142.79"/><polygon class="cls-1" points="75.17 142.79 77.88 142.79 79.23 145.14 77.88 147.48 75.17 147.48 73.82 145.14 75.17 142.79"/><polygon class="cls-1" points="84.19 142.79 86.89 142.79 88.25 145.14 86.89 147.48 84.19 147.48 82.83 145.14 84.19 142.79"/><polygon class="cls-1" points="93.2 142.79 95.9 142.79 97.26 145.14 95.9 147.48 93.2 147.48 91.85 145.14 93.2 142.79"/><polygon class="cls-1" points="102.21 142.79 104.92 142.79 106.27 145.14 104.92 147.48 102.21 147.48 100.87 145.14 102.21 142.79"/><polygon class="cls-1" points="111.23 142.79 113.93 142.79 115.28 145.14 113.93 147.48 111.23 147.48 109.88 145.14 111.23 142.79"/><polygon class="cls-1" points="120.24 142.79 122.95 142.79 124.3 145.14 122.95 147.48 120.24 147.48 118.89 145.14 120.24 142.79"/><polygon class="cls-1" points="129.25 142.79 131.96 142.79 133.31 145.14 131.96 147.48 129.25 147.48 127.9 145.14 129.25 142.79"/><polygon class="cls-1" points="138.27 142.79 140.97 142.79 142.32 145.14 140.97 147.48 138.27 147.48 136.92 145.14 138.27 142.79"/><polygon class="cls-1" points="52.64 145.39 55.34 145.39 56.7 147.73 55.34 150.08 52.64 150.08 51.29 147.73 52.64 145.39"/><polygon class="cls-1" points="61.65 145.39 64.36 145.39 65.71 147.73 64.36 150.08 61.65 150.08 60.3 147.73 61.65 145.39"/><polygon class="cls-1" points="70.66 145.39 73.37 145.39 74.73 147.73 73.37 150.08 70.66 150.08 69.32 147.73 70.66 145.39"/><polygon class="cls-1" points="79.68 145.39 82.39 145.39 83.73 147.73 82.39 150.08 79.68 150.08 78.33 147.73 79.68 145.39"/><polygon class="cls-1" points="88.69 145.39 91.4 145.39 92.75 147.73 91.4 150.08 88.69 150.08 87.34 147.73 88.69 145.39"/><polygon class="cls-1" points="97.71 145.39 100.41 145.39 101.76 147.73 100.41 150.08 97.71 150.08 96.36 147.73 97.71 145.39"/><polygon class="cls-1" points="106.72 145.39 109.42 145.39 110.78 147.73 109.42 150.08 106.72 150.08 105.37 147.73 106.72 145.39"/><polygon class="cls-1" points="115.73 145.39 118.44 145.39 119.79 147.73 118.44 150.08 115.73 150.08 114.38 147.73 115.73 145.39"/><polygon class="cls-1" points="124.75 145.39 127.45 145.39 128.8 147.73 127.45 150.08 124.75 150.08 123.4 147.73 124.75 145.39"/><polygon class="cls-1" points="133.76 145.39 136.46 145.39 137.82 147.73 136.46 150.08 133.76 150.08 132.41 147.73 133.76 145.39"/><polygon class="cls-1" points="57.15 148 59.86 148 61.21 150.34 59.86 152.68 57.15 152.68 55.8 150.34 57.15 148"/><polygon class="cls-1" points="66.16 148 68.87 148 70.21 150.34 68.87 152.68 66.16 152.68 64.81 150.34 66.16 148"/><polygon class="cls-1" points="75.17 148 77.88 148 79.23 150.34 77.88 152.68 75.17 152.68 73.82 150.34 75.17 148"/><polygon class="cls-1" points="84.19 148 86.89 148 88.25 150.34 86.89 152.68 84.19 152.68 82.83 150.34 84.19 148"/><polygon class="cls-1" points="93.2 148 95.9 148 97.26 150.34 95.9 152.68 93.2 152.68 91.85 150.34 93.2 148"/><polygon class="cls-1" points="102.21 148 104.92 148 106.27 150.34 104.92 152.68 102.21 152.68 100.87 150.34 102.21 148"/><polygon class="cls-1" points="111.23 148 113.93 148 115.28 150.34 113.93 152.68 111.23 152.68 109.88 150.34 111.23 148"/><polygon class="cls-1" points="120.24 148 122.95 148 124.3 150.34 122.95 152.68 120.24 152.68 118.89 150.34 120.24 148"/><polygon class="cls-1" points="129.25 148 131.96 148 133.31 150.34 131.96 152.68 129.25 152.68 127.9 150.34 129.25 148"/><polygon class="cls-1" points="52.64 150.6 55.34 150.6 56.7 152.94 55.34 155.28 52.64 155.28 51.29 152.94 52.64 150.6"/><polygon class="cls-1" points="61.65 150.6 64.36 150.6 65.71 152.94 64.36 155.28 61.65 155.28 60.3 152.94 61.65 150.6"/><polygon class="cls-1" points="70.66 150.6 73.37 150.6 74.73 152.94 73.37 155.28 70.66 155.28 69.32 152.94 70.66 150.6"/><polygon class="cls-1" points="79.68 150.6 82.39 150.6 83.73 152.94 82.39 155.28 79.68 155.28 78.33 152.94 79.68 150.6"/><polygon class="cls-1" points="88.69 150.6 91.4 150.6 92.75 152.94 91.4 155.28 88.69 155.28 87.34 152.94 88.69 150.6"/><polygon class="cls-1" points="97.71 150.6 100.41 150.6 101.76 152.94 100.41 155.28 97.71 155.28 96.36 152.94 97.71 150.6"/><polygon class="cls-1" points="106.72 150.6 109.42 150.6 110.78 152.94 109.42 155.28 106.72 155.28 105.37 152.94 106.72 150.6"/><polygon class="cls-1" points="115.73 150.6 118.44 150.6 119.79 152.94 118.44 155.28 115.73 155.28 114.38 152.94 115.73 150.6"/><polygon class="cls-1" points="124.75 150.6 127.45 150.6 128.8 152.94 127.45 155.28 124.75 155.28 123.4 152.94 124.75 150.6"/><polygon class="cls-1" points="57.15 153.2 59.86 153.2 61.21 155.54 59.86 157.88 57.15 157.88 55.8 155.54 57.15 153.2"/><polygon class="cls-1" points="66.16 153.2 68.87 153.2 70.21 155.54 68.87 157.88 66.16 157.88 64.81 155.54 66.16 153.2"/><polygon class="cls-1" points="75.17 153.2 77.88 153.2 79.23 155.54 77.88 157.88 75.17 157.88 73.82 155.54 75.17 153.2"/><polygon class="cls-1" points="84.19 153.2 86.89 153.2 88.25 155.54 86.89 157.88 84.19 157.88 82.83 155.54 84.19 153.2"/><polygon class="cls-1" points="93.2 153.2 95.9 153.2 97.26 155.54 95.9 157.88 93.2 157.88 91.85 155.54 93.2 153.2"/><polygon class="cls-1" points="102.21 153.2 104.92 153.2 106.27 155.54 104.92 157.88 102.21 157.88 100.87 155.54 102.21 153.2"/><polygon class="cls-1" points="111.23 153.2 113.93 153.2 115.28 155.54 113.93 157.88 111.23 157.88 109.88 155.54 111.23 153.2"/><polygon class="cls-1" points="120.24 153.2 122.95 153.2 124.3 155.54 122.95 157.88 120.24 157.88 118.89 155.54 120.24 153.2"/><polygon class="cls-1" points="52.64 155.8 55.34 155.8 56.7 158.14 55.34 160.48 52.64 160.48 51.29 158.14 52.64 155.8"/><polygon class="cls-1" points="61.65 155.8 64.36 155.8 65.71 158.14 64.36 160.48 61.65 160.48 60.3 158.14 61.65 155.8"/><polygon class="cls-1" points="70.66 155.8 73.37 155.8 74.73 158.14 73.37 160.48 70.66 160.48 69.32 158.14 70.66 155.8"/><polygon class="cls-1" points="79.68 155.8 82.39 155.8 83.73 158.14 82.39 160.48 79.68 160.48 78.33 158.14 79.68 155.8"/><polygon class="cls-1" points="88.69 155.8 91.4 155.8 92.75 158.14 91.4 160.48 88.69 160.48 87.34 158.14 88.69 155.8"/><polygon class="cls-1" points="97.71 155.8 100.41 155.8 101.76 158.14 100.41 160.48 97.71 160.48 96.36 158.14 97.71 155.8"/><polygon class="cls-1" points="106.72 155.8 109.42 155.8 110.78 158.14 109.42 160.48 106.72 160.48 105.37 158.14 106.72 155.8"/><polygon class="cls-1" points="115.73 155.8 118.44 155.8 119.79 158.14 118.44 160.48 115.73 160.48 114.38 158.14 115.73 155.8"/><polygon class="cls-1" points="57.15 158.4 59.86 158.4 61.21 160.75 59.86 163.09 57.15 163.09 55.8 160.75 57.15 158.4"/><polygon class="cls-1" points="66.16 158.4 68.87 158.4 70.21 160.75 68.87 163.09 66.16 163.09 64.81 160.75 66.16 158.4"/><polygon class="cls-1" points="75.17 158.4 77.88 158.4 79.23 160.75 77.88 163.09 75.17 163.09 73.82 160.75 75.17 158.4"/><polygon class="cls-1" points="84.19 158.4 86.89 158.4 88.25 160.75 86.89 163.09 84.19 163.09 82.83 160.75 84.19 158.4"/><polygon class="cls-1" points="93.2 158.4 95.9 158.4 97.26 160.75 95.9 163.09 93.2 163.09 91.85 160.75 93.2 158.4"/><polygon class="cls-1" points="102.21 158.4 104.92 158.4 106.27 160.75 104.92 163.09 102.21 163.09 100.87 160.75 102.21 158.4"/><polygon class="cls-1" points="111.23 158.4 113.93 158.4 115.28 160.75 113.93 163.09 111.23 163.09 109.88 160.75 111.23 158.4"/><polygon class="cls-1" points="120.24 158.4 122.95 158.4 124.3 160.75 122.95 163.09 120.24 163.09 118.89 160.75 120.24 158.4"/><polygon class="cls-1" points="52.64 161.01 55.34 161.01 56.7 163.35 55.34 165.69 52.64 165.69 51.29 163.35 52.64 161.01"/><polygon class="cls-1" points="61.65 161.01 64.36 161.01 65.71 163.35 64.36 165.69 61.65 165.69 60.3 163.35 61.65 161.01"/><polygon class="cls-1" points="70.66 161.01 73.37 161.01 74.73 163.35 73.37 165.69 70.66 165.69 69.32 163.35 70.66 161.01"/><polygon class="cls-1" points="79.68 161.01 82.39 161.01 83.73 163.35 82.39 165.69 79.68 165.69 78.33 163.35 79.68 161.01"/><polygon class="cls-1" points="88.69 161.01 91.4 161.01 92.75 163.35 91.4 165.69 88.69 165.69 87.34 163.35 88.69 161.01"/><polygon class="cls-1" points="97.71 161.01 100.41 161.01 101.76 163.35 100.41 165.69 97.71 165.69 96.36 163.35 97.71 161.01"/><polygon class="cls-1" points="106.72 161.01 109.42 161.01 110.78 163.35 109.42 165.69 106.72 165.69 105.37 163.35 106.72 161.01"/><polygon class="cls-1" points="115.73 161.01 118.44 161.01 119.79 163.35 118.44 165.69 115.73 165.69 114.38 163.35 115.73 161.01"/><polygon class="cls-1" points="57.15 163.61 59.86 163.61 61.21 165.95 59.86 168.29 57.15 168.29 55.8 165.95 57.15 163.61"/><polygon class="cls-1" points="66.16 163.61 68.87 163.61 70.21 165.95 68.87 168.29 66.16 168.29 64.81 165.95 66.16 163.61"/><polygon class="cls-1" points="75.17 163.61 77.88 163.61 79.23 165.95 77.88 168.29 75.17 168.29 73.82 165.95 75.17 163.61"/><polygon class="cls-1" points="84.19 163.61 86.89 163.61 88.25 165.95 86.89 168.29 84.19 168.29 82.83 165.95 84.19 163.61"/><polygon class="cls-1" points="93.2 163.61 95.9 163.61 97.26 165.95 95.9 168.29 93.2 168.29 91.85 165.95 93.2 163.61"/><polygon class="cls-1" points="102.21 163.61 104.92 163.61 106.27 165.95 104.92 168.29 102.21 168.29 100.87 165.95 102.21 163.61"/><polygon class="cls-1" points="111.23 163.61 113.93 163.61 115.28 165.95 113.93 168.29 111.23 168.29 109.88 165.95 111.23 163.61"/><polygon class="cls-1" points="120.24 163.61 122.95 163.61 124.3 165.95 122.95 168.29 120.24 168.29 118.89 165.95 120.24 163.61"/><polygon class="cls-1" points="52.64 166.21 55.34 166.21 56.7 168.55 55.34 170.89 52.64 170.89 51.29 168.55 52.64 166.21"/><polygon class="cls-1" points="61.65 166.21 64.36 166.21 65.71 168.55 64.36 170.89 61.65 170.89 60.3 168.55 61.65 166.21"/><polygon class="cls-1" points="70.66 166.21 73.37 166.21 74.73 168.55 73.37 170.89 70.66 170.89 69.32 168.55 70.66 166.21"/><polygon class="cls-1" points="79.68 166.21 82.39 166.21 83.73 168.55 82.39 170.89 79.68 170.89 78.33 168.55 79.68 166.21"/><polygon class="cls-1" points="88.69 166.21 91.4 166.21 92.75 168.55 91.4 170.89 88.69 170.89 87.34 168.55 88.69 166.21"/><polygon class="cls-1" points="97.71 166.21 100.41 166.21 101.76 168.55 100.41 170.89 97.71 170.89 96.36 168.55 97.71 166.21"/><polygon class="cls-1" points="106.72 166.21 109.42 166.21 110.78 168.55 109.42 170.89 106.72 170.89 105.37 168.55 106.72 166.21"/><polygon class="cls-1" points="115.73 166.21 118.44 166.21 119.79 168.55 118.44 170.89 115.73 170.89 114.38 168.55 115.73 166.21"/><polygon class="cls-1" points="57.15 168.81 59.86 168.81 61.21 171.15 59.86 173.49 57.15 173.49 55.8 171.15 57.15 168.81"/><polygon class="cls-1" points="66.16 168.81 68.87 168.81 70.21 171.15 68.87 173.49 66.16 173.49 64.81 171.15 66.16 168.81"/><polygon class="cls-1" points="75.17 168.81 77.88 168.81 79.23 171.15 77.88 173.49 75.17 173.49 73.82 171.15 75.17 168.81"/><polygon class="cls-1" points="84.19 168.81 86.89 168.81 88.25 171.15 86.89 173.49 84.19 173.49 82.83 171.15 84.19 168.81"/><polygon class="cls-1" points="93.2 168.81 95.9 168.81 97.26 171.15 95.9 173.49 93.2 173.49 91.85 171.15 93.2 168.81"/><polygon class="cls-1" points="102.21 168.81 104.92 168.81 106.27 171.15 104.92 173.49 102.21 173.49 100.87 171.15 102.21 168.81"/><polygon class="cls-1" points="111.23 168.81 113.93 168.81 115.28 171.15 113.93 173.49 111.23 173.49 109.88 171.15 111.23 168.81"/><polygon class="cls-1" points="52.64 171.41 55.34 171.41 56.7 173.75 55.34 176.1 52.64 176.1 51.29 173.75 52.64 171.41"/><polygon class="cls-1" points="61.65 171.41 64.36 171.41 65.71 173.75 64.36 176.1 61.65 176.1 60.3 173.75 61.65 171.41"/><polygon class="cls-1" points="70.66 171.41 73.37 171.41 74.73 173.75 73.37 176.1 70.66 176.1 69.32 173.75 70.66 171.41"/><polygon class="cls-1" points="79.68 171.41 82.39 171.41 83.73 173.75 82.39 176.1 79.68 176.1 78.33 173.75 79.68 171.41"/><polygon class="cls-1" points="88.69 171.41 91.4 171.41 92.75 173.75 91.4 176.1 88.69 176.1 87.34 173.75 88.69 171.41"/><polygon class="cls-1" points="97.71 171.41 100.41 171.41 101.76 173.75 100.41 176.1 97.71 176.1 96.36 173.75 97.71 171.41"/><polygon class="cls-1" points="106.72 171.41 109.42 171.41 110.78 173.75 109.42 176.1 106.72 176.1 105.37 173.75 106.72 171.41"/><polygon class="cls-1" points="115.73 171.41 118.44 171.41 119.79 173.75 118.44 176.1 115.73 176.1 114.38 173.75 115.73 171.41"/><polygon class="cls-1" points="57.15 174.01 59.86 174.01 61.21 176.36 59.86 178.69 57.15 178.69 55.8 176.36 57.15 174.01"/><polygon class="cls-1" points="66.16 174.01 68.87 174.01 70.21 176.36 68.87 178.69 66.16 178.69 64.81 176.36 66.16 174.01"/><polygon class="cls-1" points="75.17 174.01 77.88 174.01 79.23 176.36 77.88 178.69 75.17 178.69 73.82 176.36 75.17 174.01"/><polygon class="cls-1" points="84.19 174.01 86.89 174.01 88.25 176.36 86.89 178.69 84.19 178.69 82.83 176.36 84.19 174.01"/><polygon class="cls-1" points="93.2 174.01 95.9 174.01 97.26 176.36 95.9 178.69 93.2 178.69 91.85 176.36 93.2 174.01"/><polygon class="cls-1" points="102.21 174.01 104.92 174.01 106.27 176.36 104.92 178.69 102.21 178.69 100.87 176.36 102.21 174.01"/><polygon class="cls-1" points="111.23 174.01 113.93 174.01 115.28 176.36 113.93 178.69 111.23 178.69 109.88 176.36 111.23 174.01"/><polygon class="cls-1" points="52.64 176.61 55.34 176.61 56.7 178.96 55.34 181.3 52.64 181.3 51.29 178.96 52.64 176.61"/><polygon class="cls-1" points="61.65 176.61 64.36 176.61 65.71 178.96 64.36 181.3 61.65 181.3 60.3 178.96 61.65 176.61"/><polygon class="cls-1" points="70.66 176.61 73.37 176.61 74.73 178.96 73.37 181.3 70.66 181.3 69.32 178.96 70.66 176.61"/><polygon class="cls-1" points="79.68 176.61 82.39 176.61 83.73 178.96 82.39 181.3 79.68 181.3 78.33 178.96 79.68 176.61"/><polygon class="cls-1" points="88.69 176.61 91.4 176.61 92.75 178.96 91.4 181.3 88.69 181.3 87.34 178.96 88.69 176.61"/><polygon class="cls-1" points="97.71 176.61 100.41 176.61 101.76 178.96 100.41 181.3 97.71 181.3 96.36 178.96 97.71 176.61"/><polygon class="cls-1" points="106.72 176.61 109.42 176.61 110.78 178.96 109.42 181.3 106.72 181.3 105.37 178.96 106.72 176.61"/><polygon class="cls-1" points="57.15 179.22 59.86 179.22 61.21 181.56 59.86 183.9 57.15 183.9 55.8 181.56 57.15 179.22"/><polygon class="cls-1" points="66.16 179.22 68.87 179.22 70.21 181.56 68.87 183.9 66.16 183.9 64.81 181.56 66.16 179.22"/><polygon class="cls-1" points="75.17 179.22 77.88 179.22 79.23 181.56 77.88 183.9 75.17 183.9 73.82 181.56 75.17 179.22"/><polygon class="cls-1" points="84.19 179.22 86.89 179.22 88.25 181.56 86.89 183.9 84.19 183.9 82.83 181.56 84.19 179.22"/><polygon class="cls-1" points="93.2 179.22 95.9 179.22 97.26 181.56 95.9 183.9 93.2 183.9 91.85 181.56 93.2 179.22"/><polygon class="cls-1" points="102.21 179.22 104.92 179.22 106.27 181.56 104.92 183.9 102.21 183.9 100.87 181.56 102.21 179.22"/><polygon class="cls-1" points="111.23 179.22 113.93 179.22 115.28 181.56 113.93 183.9 111.23 183.9 109.88 181.56 111.23 179.22"/><polygon class="cls-1" points="61.65 181.82 64.36 181.82 65.71 184.16 64.36 186.51 61.65 186.51 60.3 184.16 61.65 181.82"/><polygon class="cls-1" points="70.66 181.82 73.37 181.82 74.73 184.16 73.37 186.51 70.66 186.51 69.32 184.16 70.66 181.82"/><polygon class="cls-1" points="79.68 181.82 82.39 181.82 83.73 184.16 82.39 186.51 79.68 186.51 78.33 184.16 79.68 181.82"/><polygon class="cls-1" points="88.69 181.82 91.4 181.82 92.75 184.16 91.4 186.51 88.69 186.51 87.34 184.16 88.69 181.82"/><polygon class="cls-1" points="97.71 181.82 100.41 181.82 101.76 184.16 100.41 186.51 97.71 186.51 96.36 184.16 97.71 181.82"/><polygon class="cls-1" points="106.72 181.82 109.42 181.82 110.78 184.16 109.42 186.51 106.72 186.51 105.37 184.16 106.72 181.82"/><polygon class="cls-1" points="57.15 184.42 59.86 184.42 61.21 186.77 59.86 189.11 57.15 189.11 55.8 186.77 57.15 184.42"/><polygon class="cls-1" points="66.16 184.42 68.87 184.42 70.21 186.77 68.87 189.11 66.16 189.11 64.81 186.77 66.16 184.42"/><polygon class="cls-1" points="75.17 184.42 77.88 184.42 79.23 186.77 77.88 189.11 75.17 189.11 73.82 186.77 75.17 184.42"/><polygon class="cls-1" points="84.19 184.42 86.89 184.42 88.25 186.77 86.89 189.11 84.19 189.11 82.83 186.77 84.19 184.42"/><polygon class="cls-1" points="93.2 184.42 95.9 184.42 97.26 186.77 95.9 189.11 93.2 189.11 91.85 186.77 93.2 184.42"/><polygon class="cls-1" points="102.21 184.42 104.92 184.42 106.27 186.77 104.92 189.11 102.21 189.11 100.87 186.77 102.21 184.42"/><polygon class="cls-1" points="61.65 187.03 64.36 187.03 65.71 189.37 64.36 191.71 61.65 191.71 60.3 189.37 61.65 187.03"/><polygon class="cls-1" points="70.66 187.03 73.37 187.03 74.73 189.37 73.37 191.71 70.66 191.71 69.32 189.37 70.66 187.03"/><polygon class="cls-1" points="79.68 187.03 82.39 187.03 83.73 189.37 82.39 191.71 79.68 191.71 78.33 189.37 79.68 187.03"/><polygon class="cls-1" points="88.69 187.03 91.4 187.03 92.75 189.37 91.4 191.71 88.69 191.71 87.34 189.37 88.69 187.03"/><polygon class="cls-1" points="97.71 187.03 100.41 187.03 101.76 189.37 100.41 191.71 97.71 191.71 96.36 189.37 97.71 187.03"/><polygon class="cls-1" points="106.72 187.03 109.42 187.03 110.78 189.37 109.42 191.71 106.72 191.71 105.37 189.37 106.72 187.03"/><polygon class="cls-1" points="57.15 189.63 59.86 189.63 61.21 191.97 59.86 194.31 57.15 194.31 55.8 191.97 57.15 189.63"/><polygon class="cls-1" points="66.16 189.63 68.87 189.63 70.21 191.97 68.87 194.31 66.16 194.31 64.81 191.97 66.16 189.63"/><polygon class="cls-1" points="75.17 189.63 77.88 189.63 79.23 191.97 77.88 194.31 75.17 194.31 73.82 191.97 75.17 189.63"/><polygon class="cls-1" points="84.19 189.63 86.89 189.63 88.25 191.97 86.89 194.31 84.19 194.31 82.83 191.97 84.19 189.63"/><polygon class="cls-1" points="93.2 189.63 95.9 189.63 97.26 191.97 95.9 194.31 93.2 194.31 91.85 191.97 93.2 189.63"/><polygon class="cls-1" points="61.65 192.23 64.36 192.23 65.71 194.57 64.36 196.92 61.65 196.92 60.3 194.57 61.65 192.23"/><polygon class="cls-1" points="70.66 192.23 73.37 192.23 74.73 194.57 73.37 196.92 70.66 196.92 69.32 194.57 70.66 192.23"/><polygon class="cls-1" points="79.68 192.23 82.39 192.23 83.73 194.57 82.39 196.92 79.68 196.92 78.33 194.57 79.68 192.23"/><polygon class="cls-1" points="88.69 192.23 91.4 192.23 92.75 194.57 91.4 196.92 88.69 196.92 87.34 194.57 88.69 192.23"/><polygon class="cls-1" points="97.71 192.23 100.41 192.23 101.76 194.57 100.41 196.92 97.71 196.92 96.36 194.57 97.71 192.23"/><polygon class="cls-1" points="57.15 194.83 59.86 194.83 61.21 197.17 59.86 199.51 57.15 199.51 55.8 197.17 57.15 194.83"/><polygon class="cls-1" points="66.16 194.83 68.87 194.83 70.21 197.17 68.87 199.51 66.16 199.51 64.81 197.17 66.16 194.83"/><polygon class="cls-1" points="75.17 194.83 77.88 194.83 79.23 197.17 77.88 199.51 75.17 199.51 73.82 197.17 75.17 194.83"/><polygon class="cls-1" points="84.19 194.83 86.89 194.83 88.25 197.17 86.89 199.51 84.19 199.51 82.83 197.17 84.19 194.83"/><polygon class="cls-1" points="93.2 194.83 95.9 194.83 97.26 197.17 95.9 199.51 93.2 199.51 91.85 197.17 93.2 194.83"/><polygon class="cls-1" points="52.64 197.43 55.34 197.43 56.7 199.77 55.34 202.12 52.64 202.12 51.29 199.77 52.64 197.43"/><polygon class="cls-1" points="61.65 197.43 64.36 197.43 65.71 199.77 64.36 202.12 61.65 202.12 60.3 199.77 61.65 197.43"/><polygon class="cls-1" points="70.66 197.43 73.37 197.43 74.73 199.77 73.37 202.12 70.66 202.12 69.32 199.77 70.66 197.43"/><polygon class="cls-1" points="79.68 197.43 82.39 197.43 83.73 199.77 82.39 202.12 79.68 202.12 78.33 199.77 79.68 197.43"/><polygon class="cls-1" points="88.69 197.43 91.4 197.43 92.75 199.77 91.4 202.12 88.69 202.12 87.34 199.77 88.69 197.43"/><polygon class="cls-1" points="97.71 197.43 100.41 197.43 101.76 199.77 100.41 202.12 97.71 202.12 96.36 199.77 97.71 197.43"/><polygon class="cls-1" points="57.15 200.03 59.86 200.03 61.21 202.38 59.86 204.72 57.15 204.72 55.8 202.38 57.15 200.03"/><polygon class="cls-1" points="66.16 200.03 68.87 200.03 70.21 202.38 68.87 204.72 66.16 204.72 64.81 202.38 66.16 200.03"/><polygon class="cls-1" points="75.17 200.03 77.88 200.03 79.23 202.38 77.88 204.72 75.17 204.72 73.82 202.38 75.17 200.03"/><polygon class="cls-1" points="84.19 200.03 86.89 200.03 88.25 202.38 86.89 204.72 84.19 204.72 82.83 202.38 84.19 200.03"/><polygon class="cls-1" points="93.2 200.03 95.9 200.03 97.26 202.38 95.9 204.72 93.2 204.72 91.85 202.38 93.2 200.03"/><polygon class="cls-1" points="61.65 202.64 64.36 202.64 65.71 204.98 64.36 207.32 61.65 207.32 60.3 204.98 61.65 202.64"/><polygon class="cls-1" points="70.66 202.64 73.37 202.64 74.73 204.98 73.37 207.32 70.66 207.32 69.32 204.98 70.66 202.64"/><polygon class="cls-1" points="79.68 202.64 82.39 202.64 83.73 204.98 82.39 207.32 79.68 207.32 78.33 204.98 79.68 202.64"/><polygon class="cls-1" points="88.69 202.64 91.4 202.64 92.75 204.98 91.4 207.32 88.69 207.32 87.34 204.98 88.69 202.64"/><polygon class="cls-1" points="57.15 205.24 59.86 205.24 61.21 207.58 59.86 209.92 57.15 209.92 55.8 207.58 57.15 205.24"/><polygon class="cls-1" points="66.16 205.24 68.87 205.24 70.21 207.58 68.87 209.92 66.16 209.92 64.81 207.58 66.16 205.24"/><polygon class="cls-1" points="75.17 205.24 77.88 205.24 79.23 207.58 77.88 209.92 75.17 209.92 73.82 207.58 75.17 205.24"/><polygon class="cls-1" points="84.19 205.24 86.89 205.24 88.25 207.58 86.89 209.92 84.19 209.92 82.83 207.58 84.19 205.24"/><polygon class="cls-1" points="61.65 207.84 64.36 207.84 65.71 210.18 64.36 212.52 61.65 212.52 60.3 210.18 61.65 207.84"/><polygon class="cls-1" points="70.66 207.84 73.37 207.84 74.73 210.18 73.37 212.52 70.66 212.52 69.32 210.18 70.66 207.84"/><polygon class="cls-1" points="79.68 207.84 82.39 207.84 83.73 210.18 82.39 212.52 79.68 212.52 78.33 210.18 79.68 207.84"/><polygon class="cls-1" points="88.69 207.84 91.4 207.84 92.75 210.18 91.4 212.52 88.69 212.52 87.34 210.18 88.69 207.84"/><polygon class="cls-1" points="57.15 210.44 59.86 210.44 61.21 212.79 59.86 215.13 57.15 215.13 55.8 212.79 57.15 210.44"/><polygon class="cls-1" points="66.16 210.44 68.87 210.44 70.21 212.79 68.87 215.13 66.16 215.13 64.81 212.79 66.16 210.44"/><polygon class="cls-1" points="75.17 210.44 77.88 210.44 79.23 212.79 77.88 215.13 75.17 215.13 73.82 212.79 75.17 210.44"/><polygon class="cls-1" points="84.19 210.44 86.89 210.44 88.25 212.79 86.89 215.13 84.19 215.13 82.83 212.79 84.19 210.44"/><polygon class="cls-1" points="61.65 213.04 64.36 213.04 65.71 215.39 64.36 217.73 61.65 217.73 60.3 215.39 61.65 213.04"/><polygon class="cls-1" points="70.66 213.04 73.37 213.04 74.73 215.39 73.37 217.73 70.66 217.73 69.32 215.39 70.66 213.04"/><polygon class="cls-1" points="79.68 213.04 82.39 213.04 83.73 215.39 82.39 217.73 79.68 217.73 78.33 215.39 79.68 213.04"/><polygon class="cls-1" points="66.16 215.65 68.87 215.65 70.21 217.99 68.87 220.33 66.16 220.33 64.81 217.99 66.16 215.65"/><polygon class="cls-1" points="75.17 215.65 77.88 215.65 79.23 217.99 77.88 220.33 75.17 220.33 73.82 217.99 75.17 215.65"/><polygon class="cls-1" points="84.19 215.65 86.89 215.65 88.25 217.99 86.89 220.33 84.19 220.33 82.83 217.99 84.19 215.65"/><polygon class="cls-1" points="61.65 218.25 64.36 218.25 65.71 220.59 64.36 222.93 61.65 222.93 60.3 220.59 61.65 218.25"/><polygon class="cls-1" points="70.66 218.25 73.37 218.25 74.73 220.59 73.37 222.93 70.66 222.93 69.32 220.59 70.66 218.25"/><polygon class="cls-1" points="79.68 218.25 82.39 218.25 83.73 220.59 82.39 222.93 79.68 222.93 78.33 220.59 79.68 218.25"/><polygon class="cls-1" points="66.16 220.85 68.87 220.85 70.21 223.19 68.87 225.53 66.16 225.53 64.81 223.19 66.16 220.85"/><polygon class="cls-1" points="75.17 220.85 77.88 220.85 79.23 223.19 77.88 225.53 75.17 225.53 73.82 223.19 75.17 220.85"/><polygon class="cls-1" points="84.19 220.85 86.89 220.85 88.25 223.19 86.89 225.53 84.19 225.53 82.83 223.19 84.19 220.85"/><polygon class="cls-1" points="70.66 223.45 73.37 223.45 74.73 225.8 73.37 228.14 70.66 228.14 69.32 225.8 70.66 223.45"/><polygon class="cls-1" points="79.68 223.45 82.39 223.45 83.73 225.8 82.39 228.14 79.68 228.14 78.33 225.8 79.68 223.45"/><polygon class="cls-1" points="66.16 226.05 68.87 226.05 70.21 228.4 68.87 230.74 66.16 230.74 64.81 228.4 66.16 226.05"/><polygon class="cls-1" points="75.17 226.05 77.88 226.05 79.23 228.4 77.88 230.74 75.17 230.74 73.82 228.4 75.17 226.05"/><polygon class="cls-1" points="61.65 228.65 64.36 228.65 65.71 230.99 64.36 233.34 61.65 233.34 60.3 230.99 61.65 228.65"/><polygon class="cls-1" points="70.66 228.65 73.37 228.65 74.73 230.99 73.37 233.34 70.66 233.34 69.32 230.99 70.66 228.65"/><polygon class="cls-1" points="79.68 228.65 82.39 228.65 83.73 230.99 82.39 233.34 79.68 233.34 78.33 230.99 79.68 228.65"/><polygon class="cls-1" points="66.16 231.26 68.87 231.26 70.21 233.6 68.87 235.94 66.16 235.94 64.81 233.6 66.16 231.26"/><polygon class="cls-1" points="75.17 231.26 77.88 231.26 79.23 233.6 77.88 235.94 75.17 235.94 73.82 233.6 75.17 231.26"/><polygon class="cls-1" points="84.19 231.26 86.89 231.26 88.25 233.6 86.89 235.94 84.19 235.94 82.83 233.6 84.19 231.26"/><polygon class="cls-1" points="70.66 233.86 73.37 233.86 74.73 236.2 73.37 238.55 70.66 238.55 69.32 236.2 70.66 233.86"/><polygon class="cls-1" points="79.68 233.86 82.39 233.86 83.73 236.2 82.39 238.55 79.68 238.55 78.33 236.2 79.68 233.86"/><polygon class="cls-1" points="66.16 236.46 68.87 236.46 70.21 238.8 68.87 241.14 66.16 241.14 64.81 238.8 66.16 236.46"/><polygon class="cls-1" points="75.17 236.46 77.88 236.46 79.23 238.8 77.88 241.14 75.17 241.14 73.82 238.8 75.17 236.46"/><polygon class="cls-1" points="84.19 236.46 86.89 236.46 88.25 238.8 86.89 241.14 84.19 241.14 82.83 238.8 84.19 236.46"/><polygon class="cls-1" points="70.66 239.07 73.37 239.07 74.73 241.41 73.37 243.75 70.66 243.75 69.32 241.41 70.66 239.07"/><polygon class="cls-1" points="79.68 239.07 82.39 239.07 83.73 241.41 82.39 243.75 79.68 243.75 78.33 241.41 79.68 239.07"/><polygon class="cls-1" points="75.17 241.67 77.88 241.67 79.23 244 77.88 246.35 75.17 246.35 73.82 244 75.17 241.67"/><polygon class="cls-1" points="84.19 241.67 86.89 241.67 88.25 244 86.89 246.35 84.19 246.35 82.83 244 84.19 241.67"/><polygon class="cls-1" points="79.68 244.27 82.39 244.27 83.73 246.61 82.39 248.96 79.68 248.96 78.33 246.61 79.68 244.27"/><polygon class="cls-1" points="75.17 246.87 77.88 246.87 79.23 249.21 77.88 251.56 75.17 251.56 73.82 249.21 75.17 246.87"/><polygon class="cls-1" points="84.19 246.87 86.89 246.87 88.25 249.21 86.89 251.56 84.19 251.56 82.83 249.21 84.19 246.87"/><polygon class="cls-1" points="79.68 249.47 82.39 249.47 83.73 251.82 82.39 254.16 79.68 254.16 78.33 251.82 79.68 249.47"/><polygon class="cls-1" points="88.69 249.47 91.4 249.47 92.75 251.82 91.4 254.16 88.69 254.16 87.34 251.82 88.69 249.47"/><polygon class="cls-1" points="84.19 252.07 86.89 252.07 88.25 254.41 86.89 256.76 84.19 256.76 82.83 254.41 84.19 252.07"/><polygon class="cls-1" points="93.2 252.07 95.9 252.07 97.26 254.41 95.9 256.76 93.2 256.76 91.85 254.41 93.2 252.07"/><polygon class="cls-1" points="88.69 254.68 91.4 254.68 92.75 257.02 91.4 259.36 88.69 259.36 87.34 257.02 88.69 254.68"/><polygon class="cls-1" points="102.21 59.53 104.92 59.53 106.27 61.87 104.92 64.21 102.21 64.21 100.87 61.87 102.21 59.53"/><polygon class="cls-1" points="106.72 62.13 109.42 62.13 110.78 64.47 109.42 66.81 106.72 66.81 105.37 64.47 106.72 62.13"/><polygon class="cls-1" points="102.21 64.73 104.92 64.73 106.27 67.07 104.92 69.41 102.21 69.41 100.87 67.07 102.21 64.73"/><polygon class="cls-1" points="106.72 67.33 109.42 67.33 110.78 69.68 109.42 72.02 106.72 72.02 105.37 69.68 106.72 67.33"/><polygon class="cls-1" points="102.21 69.93 104.92 69.93 106.27 72.28 104.92 74.62 102.21 74.62 100.87 72.28 102.21 69.93"/><polygon class="cls-1" points="111.23 69.93 113.93 69.93 115.28 72.28 113.93 74.62 111.23 74.62 109.88 72.28 111.23 69.93"/><polygon class="cls-1" points="106.72 72.54 109.42 72.54 110.78 74.89 109.42 77.22 106.72 77.22 105.37 74.89 106.72 72.54"/><polygon class="cls-1" points="115.73 72.54 118.44 72.54 119.79 74.89 118.44 77.22 115.73 77.22 114.38 74.89 115.73 72.54"/><polygon class="cls-1" points="102.21 75.14 104.92 75.14 106.27 77.48 104.92 79.82 102.21 79.82 100.87 77.48 102.21 75.14"/><polygon class="cls-1" points="111.23 75.14 113.93 75.14 115.28 77.48 113.93 79.82 111.23 79.82 109.88 77.48 111.23 75.14"/><polygon class="cls-1" points="120.24 75.14 122.95 75.14 124.3 77.48 122.95 79.82 120.24 79.82 118.89 77.48 120.24 75.14"/><polygon class="cls-1" points="106.72 77.74 109.42 77.74 110.78 80.08 109.42 82.42 106.72 82.42 105.37 80.08 106.72 77.74"/><polygon class="cls-1" points="115.73 77.74 118.44 77.74 119.79 80.08 118.44 82.42 115.73 82.42 114.38 80.08 115.73 77.74"/></svg>