<?xml version="1.0" encoding="UTF-8"?>
<svg width="29px" height="34px" viewBox="0 0 29 34" version="1.1" xmlns="http://www.w3.org/2000/svg" xmlns:xlink="http://www.w3.org/1999/xlink">
    <!-- Generator: Sketch 42 (36781) - http://www.bohemiancoding.com/sketch -->
    <title>Twitter</title>
    <desc>Created with Sketch.</desc>
    <defs></defs>
    <g id="Page-1" stroke="none" stroke-width="1" fill="none" fill-rule="evenodd">
        <g id="v0.3---Form" transform="translate(-1220.000000, -14.000000)">
            <g id="Twitter" transform="translate(1220.000000, 14.000000)">
                <polygon id="Polygon-Copy-5" fill="#1DA1F2" points="14.5 -3.55271368e-14 29 8.3715789 29 25.1147367 14.5 33.4863156 2.91766611e-13 25.1147367 2.82884827e-13 8.3715789"></polygon>
                <path d="M21.27008,13.8895789 C21.27008,13.7386189 21.27008,13.5883389 21.25988,13.4387389 C21.9424853,12.9449983 22.5317217,12.3336569 23,11.6333389 C22.3634378,11.9154041 21.6881639,12.1003824 20.99672,12.1820989 C21.7248259,11.7462067 22.269764,11.0606239 22.53012,10.2529389 C21.8454671,10.6592086 21.0964393,10.9455271 20.31536,11.0995389 C19.2342163,9.94992705 17.5162892,9.6685555 16.1248935,10.4132013 C14.7334978,11.1578471 14.014667,12.7433204 14.37148,14.2805789 C11.5670891,14.1399886 8.95424353,12.8153988 7.1832,10.6364589 C6.25746347,12.2301374 6.73031176,14.2689234 8.26304,15.2924189 C7.70798402,15.2759681 7.16502997,15.1262359 6.68,14.8558589 L6.68,14.9000589 C6.68045433,16.5603422 7.85079101,17.9903429 9.4782,18.3190989 C8.96471132,18.4591382 8.4259548,18.4796091 7.90332,18.3789389 C8.36024459,19.7997465 9.6696707,20.773072 11.16188,20.8010989 C9.92681983,21.7717527 8.40112047,22.2986818 6.83028,22.2970989 C6.55277443,22.2965662 6.27553876,22.279764 6,22.2467789 C7.59503245,23.270367 9.45094111,23.8133064 11.34616,23.8107789 C17.76128,23.8134989 21.27008,18.4986189 21.27008,13.8895789 Z" id="Shape" fill="#FFFFFF" fill-rule="nonzero"></path>
            </g>
        </g>
    </g>
</svg>