<?xml version="1.0" encoding="utf-8"?>
<!-- Generator: Adobe Illustrator 18.1.0, SVG Export Plug-In . SVG Version: 6.00 Build 0)  -->
<svg version="1.1" id="Layer_1" xmlns="http://www.w3.org/2000/svg" xmlns:xlink="http://www.w3.org/1999/xlink" x="0px" y="0px"
	 viewBox="0 0 100.9 84" enable-background="new 0 0 100.9 84" xml:space="preserve">
<path fill="#FFFFFF" d="M0.1,20.3l9.6,13c5,6.8,16.5,8.5,23.3,3.5c0.2-0.2,0.3-0.5,0.1-0.8l-9.3-12.5c-0.8-1-0.5-3,0.6-3.8l1.3-1
	l39.2,53l1,5.8c0,0.1,0,0.2,0.1,0.2l4.5,6c0.2,0.2,0.5,0.3,0.8,0.1l6.5-4.8c0.2-0.2,0.3-0.5,0.1-0.8l-47-63.5l0.9-0.6
	c0.1-0.1,0.2-0.2,0.2-0.3l1.4-4.4c0.1-0.2,0-0.3-0.1-0.5l-6.4-8.6c-0.2-0.2-0.5-0.3-0.8-0.1l-3.9,2.9l-2.2-3
	c-0.2-0.2-0.4-0.3-0.7-0.2l-5,2.3c-0.1,0.1-0.3,0.2-0.3,0.4c0,0.2,0,0.3,0.1,0.5l2.9,3.9L0.2,19.5C0,19.7-0.1,20,0.1,20.3z
	 M21.4,3.9l-3.5,2.6l-2.5-3.4l4-1.9L21.4,3.9z M65.9,71.4c0-0.1,0-0.2-0.1-0.2l-0.5-0.7l4.2-1.5l7.1,9.6L71,82.7l-4.1-5.5L65.9,71.4
	z M54.2,48.2l1.2,1.7l-4.2,1.5L50,49.8L54.2,48.2z M49.3,48.9L26.5,18.1l3.5-2.6l23.5,31.8L49.3,48.9z M56.1,50.8l1.2,1.7L53.1,54
	l-1.2-1.7L56.1,50.8z M58,53.4l1.2,1.7l-4.2,1.5l-1.2-1.7L58,53.4z M59.9,56l1.2,1.7L57,59.2l-1.2-1.7L59.9,56z M61.9,58.6l1.2,1.7
	l-4.2,1.5l-1.2-1.7L61.9,58.6z M63.8,61.2l1.2,1.7l-4.2,1.5l-1.2-1.7L63.8,61.2z M65.7,63.8l1.2,1.7L62.7,67l-1.2-1.7L65.7,63.8z
	 M67.6,66.4l1.2,1.7l-4.2,1.5l-1.2-1.7L67.6,66.4z M23,24.1l7,9.5c-3.7,2.1-13,2.2-16.8-2.9L3.9,18.2L18.1,7.6l4.3-3.2l3.9-2.9
	l5.9,8l-1.3,4l-1.2,0.9l-4.3,3.2l-1.7,1.3C22.2,20,21.8,22.6,23,24.1z M1.3,20.1L3,18.8l9.3,12.5c4.2,5.7,14.3,5.5,18.3,3.1l1.3,1.7
	c-6.3,4.2-16.9,2.5-21.3-3.6L1.3,20.1z"/>
<g>
	<line fill="none" stroke="#FFFFFF" stroke-linecap="round" stroke-linejoin="round" x1="67.6" y1="23.2" x2="73.3" y2="15.7"/>
	<line fill="none" stroke="#FFFFFF" stroke-linecap="round" stroke-linejoin="round" x1="63.2" y1="21.3" x2="70.2" y2="12"/>
	<path fill="none" stroke="#FFFFFF" stroke-miterlimit="10" d="M70.2,12l2.7-3.5c-0.1-0.5-0.1-0.8-0.1-1.4l0,0
		c-0.1-0.5-0.1-0.8-0.1-1.4L73.2,5c0.5-0.1,0.8-0.1,1.4-0.2l0.2,0.1c0.4,0,0.8,0,1.2,0l3.8-3c1.4,1.1,0,0,1.4,1.1l-1.8,4.4
		c0.1,0.4,0.2,0.7,0.3,1.1L80,8.9c0.1,0.5,0.1,0.8,0.1,1.4L79.6,11c-0.5,0.1-0.8,0.1-1.4,0.2L78,11c-0.5,0.1-0.8,0.1-1.4,0.2
		L74,14.8"/>
	<line fill="none" stroke="#FFFFFF" stroke-linecap="round" stroke-linejoin="round" x1="74" y1="14.8" x2="73.3" y2="15.7"/>
	<path fill="#FF6969" stroke="#FFFFFF" stroke-miterlimit="10" d="M63.2,21.3L18.8,80.1c0.1,0.5,0.1,0.8,0.1,1.4l1.1,0.8l1.1,0.8
		c0.5-0.1,0.8-0.1,1.4-0.2l44.4-58.8"/>
	<line fill="none" stroke="#FFFFFF" stroke-linecap="round" stroke-linejoin="round" x1="67.6" y1="23.2" x2="66.9" y2="24.1"/>
	<path fill="none" stroke="#FFFFFF" stroke-linecap="round" stroke-linejoin="round" d="M67.9,24.8c5.7,4.3,6.8,12.3,2.5,18
		c8.2,6.2,20,4.6,26.2-3.7c6.2-8.2,4.6-20-3.7-26.2c-4.3,5.7-12.3,6.8-18,2.5h0"/>
	<polyline fill="none" stroke="#FFFFFF" stroke-linecap="round" stroke-linejoin="round" points="67.9,24.8 67.9,24.8 67.6,23.2 	
		"/>
	<polyline fill="none" stroke="#FFFFFF" stroke-linecap="round" stroke-linejoin="round" points="73.3,15.7 73.3,15.7 67.6,23.2 
		67.6,23.2 	"/>
	<line fill="none" stroke="#FFFFFF" stroke-linecap="round" stroke-linejoin="round" x1="73.3" y1="15.7" x2="74.9" y2="15.5"/>
	<line fill="none" stroke="#FFFFFF" stroke-linecap="round" stroke-linejoin="round" x1="74" y1="14.8" x2="74.9" y2="15.5"/>
	<polyline fill="none" stroke="#FFFFFF" stroke-linecap="round" stroke-linejoin="round" points="63.2,21.3 62.1,20.4 58.3,10.3 
		69.1,11.1 70.2,12 	"/>
	<line fill="none" stroke="#FFFFFF" stroke-linecap="round" stroke-linejoin="round" x1="70.2" y1="12" x2="74" y2="14.8"/>
	<polyline fill="none" stroke="#FFFFFF" stroke-linecap="round" stroke-linejoin="round" points="69.4,25.8 69.8,26.2 73.3,21.5 
		76.8,16.8 76.4,16.5 	"/>
	<line fill="none" stroke="#FFFFFF" stroke-linecap="round" stroke-linejoin="round" x1="67.9" y1="24.8" x2="66.9" y2="24.1"/>
	<line fill="none" stroke="#FFFFFF" stroke-linecap="round" stroke-linejoin="round" x1="63.2" y1="21.3" x2="66.9" y2="24.1"/>
	<path fill="none" stroke="#FFFFFF" stroke-miterlimit="10" d="M92,14.5c7.4,5.6,8.9,16.2,3.3,23.6c-5.6,7.4-16.2,8.9-23.6,3.3"/>
</g>
</svg>
