<?xml version="1.0" encoding="utf-8"?>
<!-- Generator: Adobe Illustrator 18.1.0, SVG Export Plug-In . SVG Version: 6.00 Build 0)  -->
<svg version="1.1" id="Layer_1" xmlns="http://www.w3.org/2000/svg" xmlns:xlink="http://www.w3.org/1999/xlink" x="0px" y="0px"
	 viewBox="0 0 960 560" enable-background="new 0 0 960 560" xml:space="preserve">
<g>
	<path fill="#FFFFFF" d="M790.3,80c-4.3,0-6.5,2.2-10.8,2.2C760,86.5,757.8,80,773,64.9c6.5-6.5,13-13,17.3-21.6
		c10.8-17.3,2.2-23.8-17.3-17.3c-6.5,2.2-13,6.5-19.5,8.6c-19.5,6.5-47.6-4.3-64.9-15.1C667,6.5,641.1-2.2,613-2.2
		c-38.9,0-71.4,13-99.5,41.1c-28.1,28.1-41.1,60.5-41.1,99.5c0,4.3,0,10.8,0,17.3c0,8.6-15.1,15.1-34.6,13
		c-43.2-6.5-86.5-19.5-125.4-38.9c-36.8-19.5-71.4-45.4-101.6-75.7c-15.1-15.1-34.6-13-38.9,6.5c-4.3,10.8-6.5,23.8-6.5,36.8
		c0,23.8,6.5,47.6,17.3,67c6.5,10.8,13,19.5,19.5,28.1c13,13,13,21.6-6.5,17.3c-17.3-4.3-30.3-13-30.3-13l0,0
		c0,34.6,10.8,64.9,32.4,90.8c13,15.1,28.1,28.1,45.4,36.8c19.5,8.6,25.9,15.1,17.3,15.1c-6.5,0-13,2.2-19.5,2.2c-4.3,0-8.6,0-13,0
		c-6.5,0-8.6,15.1,2.2,32.4c8.6,13,19.5,25.9,34.6,36.8s30.3,17.3,45.4,23.8c19.5,6.5,23.8,15.1,6.5,25.9
		c-43.2,23.8-93,36.8-144.9,36.8c-6.5,0-10.8,0-17.3,0c-8.6,0-2.2,8.6,15.1,17.3c56.2,30.3,118.9,45.4,183.8,45.4
		c49.7,0,97.3-8.6,140.5-23.8c43.2-15.1,82.2-36.8,112.4-64.9c30.3-25.9,58.4-58.4,80-93c21.6-34.6,38.9-71.4,49.7-108.1
		c15.1-36.8,19.5-75.7,19.5-112.4c0-4.3,0-6.5,0-8.6c0-4.3,13-19.5,28.1-32.4c6.5-6.5,13-13,19.5-19.5C816.2,80,811.9,73.5,790.3,80
		z"/>
</g>
</svg>
