<?xml version="1.0" encoding="utf-8"?>
<!-- Generator: Adobe Illustrator 18.1.0, SVG Export Plug-In . SVG Version: 6.00 Build 0)  -->
<svg version="1.1" id="Layer_1" xmlns="http://www.w3.org/2000/svg" xmlns:xlink="http://www.w3.org/1999/xlink" x="0px" y="0px"
	 viewBox="0 0 95.6 95.6" enable-background="new 0 0 95.6 95.6" xml:space="preserve">
<g>
	<path fill="none" stroke="#FFFFFF" stroke-miterlimit="10" d="M78.9,77.6L77,75.8L75.8,77l1.8,1.8c-2.3,2.2-4.8,4.2-7.6,5.8
		l-1.3-2.2l-1.5,0.9l1.3,2.2c-2.8,1.5-5.7,2.8-8.8,3.6l-0.7-2.5l-1.7,0.4l0.7,2.5c-2.4,0.6-4.8,1-7.4,1.1l-3-5.9l-3,5.9
		c-2.5-0.2-5-0.6-7.4-1.1l0.7-2.5l-1.7-0.4l-0.7,2.5c-3.1-0.9-6-2.1-8.8-3.6l1.3-2.2l-1.5-0.9l-1.3,2.2c-2.7-1.7-5.3-3.6-7.6-5.8
		l1.8-1.8l-1.2-1.2l-1.8,1.8c-2.2-2.3-4.2-4.8-5.8-7.6l2.2-1.3l-0.9-1.5l-2.2,1.3c-1.5-2.8-2.8-5.7-3.6-8.8l2.5-0.7l-0.4-1.7L6,58.1
		c-0.6-2.4-1-4.8-1.1-7.4l5.9-3l-5.9-3c0.2-2.5,0.6-5,1.1-7.4l2.5,0.7l0.4-1.7l-2.5-0.7c0.9-3.1,2.1-6,3.6-8.8l2.2,1.3l0.9-1.5
		l-2.2-1.3c1.7-2.7,3.6-5.3,5.8-7.6l1.8,1.8l1.2-1.2L18,16.7c2.3-2.2,4.8-4.2,7.6-5.8l1.3,2.2l1.5-0.9L27,10.1
		c2.8-1.5,5.7-2.8,8.8-3.6l0.7,2.5l1.7-0.4L37.5,6c2.4-0.6,4.8-1,7.4-1.1l3,5.9l3-5.9c2.5,0.2,5,0.6,7.4,1.1l-0.7,2.5l1.7,0.4
		l0.7-2.5c3.1,0.9,6,2.1,8.8,3.6l-1.3,2.2l1.5,0.9l1.3-2.2c2.7,1.7,5.3,3.6,7.6,5.8l-1.8,1.8l1.2,1.2l1.8-1.8
		c2.2,2.3,4.2,4.8,5.8,7.6l-2.2,1.3l0.9,1.5l2.2-1.3c1.5,2.8,2.8,5.7,3.6,8.8l-2.5,0.7l0.4,1.7l2.5-0.7c0.6,2.4,1,4.8,1.1,7.4
		l-5.9,3l5.9,3c-0.2,2.5-0.6,5-1.1,7.4l-2.5-0.7l-0.4,1.7l2.5,0.7c-0.9,3.1-2.1,6-3.6,8.8l-2.2-1.3l-0.9,1.5l2.2,1.3
		C83,72.8,81.1,75.3,78.9,77.6z"/>
	<path fill="none" stroke="#FFFFFF" stroke-miterlimit="10" d="M54.1,37.5c-0.9-0.6-2-1-3.1-1.3l-2.7-11.7l-2.7,11.7
		c-1.7,0.4-3.3,1.2-4.6,2.3l-4-2.7l2.7,4c-1.1,1.3-1.9,2.9-2.3,4.6l-11.7,2.7L37.3,50c0.3,1.1,0.7,2.1,1.3,3.1L25.6,69.9L42.5,57
		c0.9,0.6,2,1,3.1,1.3l2.7,11.7L51,58.3c1.7-0.4,3.3-1.2,4.6-2.3l4,2.7l-2.7-4c1.1-1.3,1.9-2.9,2.3-4.6L71,47.3l-11.7-2.7
		c-0.3-1.1-0.7-2.1-1.3-3.1L71,24.6L54.1,37.5z M40,52.2c-0.7-1.3-1.1-2.9-1.1-4.5c0-5.4,4.4-9.8,9.8-9.8c1.6,0,3.1,0.4,4.5,1.1
		l-4.5,3.4c-2.9,0-5.3,2.4-5.3,5.3L40,52.2z M51.1,47.3c0,1.5-1.2,2.7-2.7,2.7c-1.5,0-2.7-1.2-2.7-2.7c0-1.5,1.2-2.7,2.7-2.7
		S51.1,45.8,51.1,47.3z M57.7,46.8c0,5.4-4.4,9.8-9.8,9.8c-1.6,0-3.1-0.4-4.5-1.1l4.5-3.4c2.9,0,5.3-2.4,5.3-5.3l3.4-4.5
		C57.3,43.7,57.7,45.2,57.7,46.8z"/>
	<circle fill="none" stroke="#FFFFFF" stroke-miterlimit="10" cx="47.8" cy="47.8" r="47.3"/>
</g>
</svg>
