<?xml version="1.0" encoding="utf-8"?>
<!-- Generator: Adobe Illustrator 18.1.0, SVG Export Plug-In . SVG Version: 6.00 Build 0)  -->
<svg version="1.1" id="Layer_1" xmlns="http://www.w3.org/2000/svg" xmlns:xlink="http://www.w3.org/1999/xlink" x="0px" y="0px"
	 viewBox="0 0 80.2 89.4" enable-background="new 0 0 80.2 89.4" xml:space="preserve">
<g>
	<g>
		<g>
			<polyline fill="none" stroke="#FFFFFF" stroke-miterlimit="10" points="44.8,0.1 45.8,10.6 47.6,10.7 48.9,0.1 			"/>
			<path fill="none" stroke="#FFFFFF" stroke-miterlimit="10" d="M18.9,11.7c-0.1,0.1-0.3,0.3-0.4,0.4c-4.5,4-8.4,8.9-11.3,14.4
				l6.6,4.5l-0.9,1.6l-7.4-2.5c-2.7,6.2-4.2,13-4.4,20.2l7.9,1.1l-0.1,1.9l-8.8,0.9 M18.9,11.7 M19.4,11.2 M19.4,11.2 M19.8,10.9
				 M19.8,10.9 M20.1,10.6 M20.3,10.5 M20.7,10.2 M44.8,0.7c-8.4,0.7-16.3,3.8-23,8.7 M44.8,0.7 M46.8,0.5 M48.8,0.5
				c-0.2,0-0.3,0-0.5,0 M0.6,54.3C1,63.3,3.7,70.7,7.5,77.6l9.9-5.3L16,51.9c0.2-19,13.8-34.4,31.1-34.4c7,0,13.5,2.5,18.7,6.8
				l10.3-13.7c-7.6-6.2-17-9.9-27.3-10 M21.6,8.8l4.6,8.8l0,0l-1.5,1.1l-6.5-7.1l0.5,0.5"/>
		</g>
	</g>
	<line fill="none" stroke="#FFFFFF" stroke-miterlimit="10" x1="58.8" y1="19.9" x2="55.5" y2="28"/>
	<line fill="none" stroke="#FFFFFF" stroke-miterlimit="10" x1="24.7" y1="48.3" x2="16.2" y2="48.3"/>
	<g>
		<path fill="none" stroke="#FFFFFF" stroke-miterlimit="10" d="M76.3,78.2l-2.9-0.6l-2.9-2.8V62l-8-0.8l-4-4.6V53H73l2.2,17
			c0,0.1,0.1,0.3,0.1,0.4l2.4,4.3l0.4,0L76,48c-2.4-5.5-5.2-9.7-8.5-13c-3.4-3.4-7.4-5.8-11.8-7c-1.9-0.5-3.8-0.8-5.8-0.8
			c-1.9,0-3.8,0.2-5.6,0.7l-2.9,0.9c-7.7,2.9-13.8,9.8-16.6,19.5v20.1l-3.1,6.3v4.4v1.1h12.8l3.7-3.5V66.2l4.3-3.6h7.1l6,13.7v3.2
			l8.5,7.4l3.2,2.1h12.1L76.3,78.2z"/>
		<path fill="none" stroke="#FFFFFF" stroke-miterlimit="10" d="M42.8,28.1L38.5,25c-0.4,0.2-0.5,0.2-0.9,0.4l-0.5,5.3l1.4-0.6
			c0.9-0.5,1.8-0.9,2.7-1.2L42.8,28.1z"/>
		<path fill="none" stroke="#FFFFFF" stroke-miterlimit="10" d="M34.4,32.3l-5.1-1.5c-0.3,0.3-0.4,0.4-0.7,0.7l1.2,5.2L34.4,32.3z"
			/>
		<path fill="none" stroke="#FFFFFF" stroke-miterlimit="10" d="M28.4,39.1l-5.3,0.4c-0.2,0.4-0.2,0.5-0.4,0.9l3,4.4L28.4,39.1z"/>
		<path fill="none" stroke="#FFFFFF" stroke-miterlimit="10" d="M52.7,27.1l-2.6-4.6c-0.4,0-0.5,0-1,0l-2.7,4.6l1.5,0c1-0.1,2,0,3,0
			L52.7,27.1z"/>
	</g>
</g>
</svg>
