<?xml version="1.0" encoding="utf-8"?>
<!-- Generator: Adobe Illustrator 16.0.4, SVG Export Plug-In . SVG Version: 6.00 Build 0)  -->
<!DOCTYPE svg PUBLIC "-//W3C//DTD SVG 1.1//EN" "http://www.w3.org/Graphics/SVG/1.1/DTD/svg11.dtd">
<svg version="1.1" id="Layer_1" xmlns="http://www.w3.org/2000/svg" xmlns:xlink="http://www.w3.org/1999/xlink" x="0px" y="0px"
	 width="73.487px" height="73.54px" viewBox="287.346 346.834 73.487 73.54" enable-background="new 287.346 346.834 73.487 73.54"
	 xml:space="preserve">
<g>
	<polygon fill="#FFFFFF" points="360.833,357.833 350.833,357.833 350.833,347.833 345.833,347.833 345.833,357.833 
		335.833,357.833 335.833,362.833 345.833,362.833 345.833,372.833 350.833,372.833 350.833,362.833 360.833,362.833 	"/>
</g>
<g>
	<path fill="#FFFFFF" d="M325.333,388.917c-2.009-1.508-6.382-4.598-6.382-6.672c0-2.432,0.692-3.629,4.353-6.486
		c3.75-2.931,6.405-6.793,6.405-11.585c0-5.221-2.135-9.957-6.15-12.257h5.69l4.844-5.083c0,0-16.007,0-21.677,0
		c-11,0-20.166,8.11-20.166,17.032c0,9.117,6.023,16.384,16.367,16.384c0.719,0,1.418-0.037,2.102-0.086
		c-0.67,1.287-1.149,2.721-1.149,4.225c0,2.533,1.393,3.979,3.116,5.654c-1.303,0-2.561,0.035-3.932,0.035
		c-12.593,0-21.408,8.666-21.408,16.984c0,8.188,10.626,13.312,23.219,13.312c14.355,0,23.186-8.146,23.186-16.338
		C333.75,397.47,332.333,394.167,325.333,388.917z M312.807,376.937c-5.844-0.176-11.396-5.536-12.404-13.207
		c-1.008-7.674,2.909-13.545,8.75-13.372c5.842,0.175,10.839,6.47,11.848,14.142C322.008,372.173,318.646,377.11,312.807,376.937z
		 M310.518,416.753c-8.704,0-14.99-5.51-14.99-12.129c0-6.486,7.375-12.082,16.081-11.986c2.03,0.021,3.924,0.348,5.643,0.904
		c4.725,3.285,8.536,5.338,9.493,9.082c0.179,0.758,0.277,1.539,0.277,2.338C327.021,411.581,322.756,416.753,310.518,416.753z"/>
</g>
</svg>
