<?xml version="1.0" encoding="utf-8"?>
<!-- Generator: Adobe Illustrator 19.0.0, SVG Export Plug-In . SVG Version: 6.00 Build 0)  -->
<svg version="1.1" id="Layer_1" xmlns="http://www.w3.org/2000/svg" xmlns:xlink="http://www.w3.org/1999/xlink" x="0px" y="0px"
	 viewBox="283 -349 999 999" style="enable-background:new 283 -349 999 999;" xml:space="preserve">
<style type="text/css">
	.st0{fill:#FFFFFF;}
</style>
<g id="XMLID_2_">
</g>
<g id="XMLID_4_">
</g>
<g id="XMLID_5_">
</g>
<g id="XMLID_6_">
</g>
<g id="XMLID_7_">
</g>
<g id="XMLID_8_">
</g>
<path class="st0" d="M1215.1-99.2L782.5-349L350-99.3v499.5L782.5,650l432.6-249.7V-99.2z M941,141h-36.2c2.6,10.2,4.2,21,4.2,32
	c0,70.8-57.3,128.1-128.1,128.1c-70.7,0-128.1-57.3-128.1-128.1c0-11.1,1.6-21.8,4.2-32h-36.2v176.1c0,8.8,7.2,16,16,16H925
	c8.9,0,16-7.2,16-16V141z M941,28.9c0-8.8-7.2-16-16-16h-48c-8.8,0-16,7.2-16,16v48c0,8.8,7.2,16,16,16h48c8.9,0,16-7.2,16-16V28.9z
	 M780.9,93c-44.2,0-80.1,35.8-80.1,80.1c0,44.2,35.8,80.1,80.1,80.1S861,217.2,861,173C861,128.8,825.1,93,780.9,93 M941,381.2
	H620.8c-26.5,0-48-21.5-48-48V12.9c0-26.5,21.5-48,48-48H941c26.5,0,48,21.5,48,48v320.2C989,359.6,967.5,381.2,941,381.2"/>
</svg>
