<?xml version="1.0" encoding="utf-8"?>
<!-- Generator: Adobe Illustrator 19.0.0, SVG Export Plug-In . SVG Version: 6.00 Build 0)  -->
<svg version="1.1" id="Layer_1" xmlns="http://www.w3.org/2000/svg" xmlns:xlink="http://www.w3.org/1999/xlink" x="0px" y="0px"
	 viewBox="429 -430.3 1000 1000" style="enable-background:new 429 -430.3 1000 1000;" xml:space="preserve">
<style type="text/css">
	.st0{fill:#FFFFFF;}
</style>
<path class="st0" d="M728.3-260C657.2-260,599-201.8,599-130.8v401.1c0,71.1,58.2,129.2,129.2,129.2h401.1
	c71.1,0,129.2-58.1,129.2-129.2v-401.1c0-71.1-58.1-129.2-129.2-129.2H728.3L728.3-260z M760.8-151.2c34.1,0,55.1,22.4,55.7,51.8
	c0,28.8-21.6,51.8-56.4,51.8h-0.6c-33.4,0-55-23-55-51.8C704.4-128.8,726.7-151.2,760.8-151.2L760.8-151.2z M1054.4-13.7
	c65.5,0,114.7,42.8,114.7,134.9V293h-99.6V132.7c0-40.3-14.4-67.8-50.5-67.8c-27.5,0-43.9,18.5-51.1,36.4
	c-2.6,6.4-3.3,15.3-3.3,24.3V293H865c0,0,1.3-271.6,0-299.7h99.6v42.4C977.9,15.3,1001.6-13.7,1054.4-13.7L1054.4-13.7z M710.3-6.7
	h99.6V293h-99.6V-6.7L710.3-6.7z"/>
</svg>
