<?xml version="1.0" encoding="utf-8"?>
<!-- Generator: Adobe Illustrator 16.0.4, SVG Export Plug-In . SVG Version: 6.00 Build 0)  -->
<!DOCTYPE svg PUBLIC "-//W3C//DTD SVG 1.1//EN" "http://www.w3.org/Graphics/SVG/1.1/DTD/svg11.dtd">
<svg version="1.1" id="Layer_1" xmlns="http://www.w3.org/2000/svg" xmlns:xlink="http://www.w3.org/1999/xlink" x="0px" y="0px"
	 width="446.336px" height="464.279px" viewBox="82.832 163.813 446.336 464.279"
	 enable-background="new 82.832 163.813 446.336 464.279" xml:space="preserve">
<g>
	<path fill="#FFFFFF" d="M202.538,594.279c-0.279,0-0.558,0-0.558,0l-29.212-8.994c-0.837-0.279-1.395-1.115-1.673-1.883
		c0-0.836,0.279-1.673,1.115-2.161l38.206-20.218c0.558-0.279,1.116-0.279,1.673-0.279l29.212,8.994
		c0.837,0.278,1.395,1.115,1.673,1.882c0,0.837-0.279,1.674-1.115,2.161L203.653,594
		C203.026,594.279,202.747,594.279,202.538,594.279z M179.043,582.496l23.216,7.111l32.768-17.22l-23.216-7.111L179.043,582.496z"/>
</g>
<g>
	<path fill="#FFFFFF" d="M252.735,581.172c-0.558,0-1.116-0.279-1.395-0.558l-22.379-20.776c-0.558-0.278-0.837-0.837-0.837-1.673
		l-1.673-43.156c0-0.836,0.558-1.673,1.395-2.161c0.837-0.278,1.673-0.278,2.44,0.279l22.379,20.775
		c0.558,0.279,0.836,0.837,0.836,1.674l1.395,43.435c0,0.837-0.558,1.673-1.395,2.161
		C253.293,581.172,253.014,581.172,252.735,581.172z M232.517,557.119l17.778,16.384l-1.394-36.881l-17.778-16.384L232.517,557.119z
		"/>
</g>
<g>
	<path fill="#FFFFFF" d="M159.382,519.122L159.382,519.122l-43.156-1.673c-0.558,0-1.115-0.279-1.673-0.837l-20.707-22.31
		c-0.558-0.558-0.836-1.673-0.279-2.44c0.279-0.836,1.115-1.394,2.161-1.394l43.156,1.673c0.558,0,1.115,0.279,1.673,0.837
		l20.497,22.101c0.558,0.278,0.836,1.115,0.836,1.673C161.543,518.355,160.707,519.401,159.382,519.122L159.382,519.122z
		 M117.342,513.127l36.881,1.395l-16.384-17.778l-36.881-1.395L117.342,513.127z"/>
</g>
<g>
	<path fill="#FFFFFF" d="M123.338,332.905c-0.836,0-1.673-0.558-1.882-1.115l-20.218-38.206c-0.279-0.558-0.279-1.116-0.279-1.673
		l9.272-29.212c0.279-0.837,1.116-1.395,1.882-1.673c0.837,0,1.673,0.279,2.161,1.115l20.219,38.206
		c0.279,0.558,0.279,1.115,0.279,1.673l-8.994,29.212C125.22,332.347,124.384,332.905,123.338,332.905
		C123.617,332.905,123.338,332.905,123.338,332.905z M105.56,292.538l17.22,32.768l7.111-23.216l-17.221-32.768L105.56,292.538z"/>
</g>
<g>
	<path fill="#FFFFFF" d="M178.485,251.822c-0.279,0-0.558,0-0.837-0.278c-0.836-0.279-1.394-1.116-1.394-2.162l1.673-43.156
		c0-0.558,0.279-1.115,0.837-1.673l22.379-20.776c0.558-0.558,1.673-0.836,2.44-0.279c0.836,0.279,1.394,1.116,1.394,2.162
		l-1.882,43.155c0,0.558-0.279,1.116-0.836,1.673l-22.449,20.776C179.601,251.543,179.043,251.822,178.485,251.822z M182.32,207.342
		l-1.395,36.881l17.778-16.384l1.394-36.881L182.32,207.342z"/>
</g>
<g>
	<path fill="#FFFFFF" d="M204.42,278.873c-0.279,0-0.836,0-1.116-0.279l-38.206-20.218c-0.836-0.558-1.394-1.395-1.115-2.161
		c0-0.837,0.836-1.673,1.673-1.882l29.212-8.994c0.558-0.279,1.115,0,1.673,0.279l38.206,20.218
		c0.836,0.558,1.394,1.395,1.115,2.161c0,0.837-0.836,1.673-1.673,1.882l-28.933,8.715
		C204.978,278.873,204.699,278.873,204.42,278.873z M171.932,256.981l32.768,17.221l23.216-7.111l-32.768-17.22L171.932,256.981z"/>
</g>
<g>
	<path fill="#FFFFFF" d="M151.435,559.001c-0.558,0-0.837,0-1.116-0.278l-25.377-16.663c-0.836-0.558-1.115-1.395-1.115-2.161
		c0.279-0.837,0.836-1.673,1.673-1.673l42.319-8.715c0.558,0,1.115,0,1.673,0.278l25.377,16.384
		c0.836,0.558,1.115,1.395,1.115,2.161c-0.279,0.837-0.836,1.674-1.673,1.674l-42.319,8.715
		C151.713,559.001,151.435,559.001,151.435,559.001z M131.495,541.014l20.218,13.387l36.044-7.67l-20.218-13.386L131.495,541.014z"
		/>
</g>
<g>
	<path fill="#FFFFFF" d="M203.305,560.117c-0.836,0-1.394-0.279-1.882-1.116l-15.826-26.214c-0.279-0.558-0.279-1.115-0.279-1.673
		l10.388-42.04c0.279-0.837,0.837-1.674,1.882-1.674c0.837-0.278,1.673,0.279,2.162,1.116l15.826,26.214
		c0.279,0.558,0.279,1.115,0.279,1.673l-10.318,42.04c-0.279,0.837-0.837,1.674-1.883,1.674
		C203.584,560.117,203.305,560.117,203.305,560.117z M189.919,531.463l12.549,20.775l8.715-35.765l-12.549-20.776L189.919,531.463z"
		/>
</g>
<g>
	<path fill="#FFFFFF" d="M147.321,285.984c-0.279,0-0.279,0-0.558,0c-0.836-0.279-1.673-0.836-1.673-1.673l-8.715-42.319
		c0-0.558,0-1.115,0.279-1.673l16.663-25.377c0.558-0.836,1.395-1.115,2.161-1.115c0.837,0.279,1.673,0.836,1.673,1.673
		l8.715,42.319c0,0.558,0,1.115-0.279,1.673l-16.663,25.377C148.715,285.706,148.158,285.984,147.321,285.984z M141.046,241.992
		l7.39,36.044l13.386-20.218l-7.669-36.044L141.046,241.992z"/>
</g>
<g>
	<path fill="#FFFFFF" d="M179.322,305.854c-0.279,0-0.279,0-0.558,0l-42.04-10.388c-0.837-0.279-1.673-0.837-1.673-1.882
		c0-0.837,0.279-1.673,1.115-2.162l26.214-15.826c0.558-0.279,1.115-0.279,1.673-0.279l42.04,10.388
		c0.836,0.279,1.673,0.836,1.673,1.882c0,0.837-0.279,1.673-1.116,2.162l-26.214,15.826
		C180.089,305.854,179.81,305.854,179.322,305.854z M142.999,292.538l35.766,8.715l20.776-12.549l-35.766-8.715L142.999,292.538z"/>
</g>
<g>
	<path fill="#FFFFFF" d="M222.687,223.168c-0.558,0-1.115-0.279-1.394-0.558c-0.558-0.558-0.837-1.673-0.558-2.44l13.665-40.994
		c0.279-0.558,0.558-1.116,1.115-1.395l27.33-13.665c0.279-0.558,1.395-0.279,1.882,0.278c0.558,0.558,0.837,1.673,0.558,2.44
		L251.62,207.83c-0.279,0.558-0.558,1.116-1.115,1.395l-27.33,13.665C223.244,222.89,222.965,223.168,222.687,223.168z
		 M238.024,181.337l-11.503,34.999l21.543-10.946l11.503-34.929L238.024,181.337z"/>
</g>
<g>
	<path fill="#FFFFFF" d="M240.465,256.215c-0.558,0-1.116-0.279-1.673-0.558l-31.094-29.77c-0.558-0.558-0.837-1.673-0.558-2.44
		c0.279-0.837,1.115-1.395,1.882-1.395l30.606-0.836c0.558,0,1.116,0.279,1.673,0.558l31.164,29.77
		c0.558,0.558,0.837,1.673,0.558,2.44c-0.279,0.836-1.116,1.394-1.883,1.394L240.465,256.215L240.465,256.215z M214.53,226.445
		l26.771,25.377l24.332-0.558l-26.842-25.377L214.53,226.445z"/>
</g>
<g>
	<path fill="#FFFFFF" d="M409.462,594.279c-0.278,0-0.837,0-1.115-0.279l-38.206-20.219c-0.836-0.558-1.395-1.394-1.115-2.161
		c0-0.836,0.837-1.673,1.673-1.882l29.212-8.994c0.559-0.278,1.116,0,1.674,0.279l38.205,20.218
		c0.837,0.558,1.395,1.395,1.116,2.161c0,0.837-0.837,1.674-1.674,1.883l-29.212,8.994
		C410.02,594.279,409.741,594.279,409.462,594.279z M376.974,572.388l32.768,17.22l23.216-7.111l-32.768-17.22L376.974,572.388z"/>
</g>
<g>
	<path fill="#FFFFFF" d="M359.265,581.172c-0.278,0-0.558,0-0.837-0.279c-0.836-0.278-1.394-1.115-1.394-2.161l1.673-43.155
		c0-0.558,0.279-1.115,0.837-1.674l22.379-20.775c0.558-0.558,1.674-0.837,2.44-0.279c0.837,0.279,1.395,1.115,1.395,2.161
		l-1.674,43.156c0,0.558-0.278,1.115-0.836,1.673l-22.38,20.776C360.311,580.893,359.822,581.172,359.265,581.172z M363.1,536.9
		l-1.395,36.881l17.778-16.384l1.394-36.881L363.1,536.9z"/>
</g>
<g>
	<path fill="#FFFFFF" d="M452.617,519.122c-0.836,0-1.673-0.558-1.882-1.394c-0.279-0.837-0.279-1.674,0.278-2.44l20.776-22.38
		c0.279-0.558,0.837-0.836,1.673-0.836l43.156-1.674c0.837,0,1.673,0.558,2.161,1.395c0.279,0.837,0.279,1.673-0.279,2.44
		l-20.775,22.449c-0.279,0.558-0.837,0.836-1.674,0.836L452.617,519.122L452.617,519.122z M474.23,496.743l-16.384,17.778
		l36.881-1.395l16.384-17.778L474.23,496.743z"/>
</g>
<g>
	<path fill="#FFFFFF" d="M445.506,531.184c-0.836,0-1.673-0.558-1.882-1.115l-20.219-38.206c-0.278-0.558-0.278-1.115-0.278-1.673
		l8.993-29.212c0.279-0.837,1.116-1.395,1.883-1.673c0.837,0,1.673,0.278,2.161,1.115l20.219,38.205
		c0.278,0.558,0.278,1.116,0.278,1.674l-8.993,29.212C447.458,530.626,446.622,531.184,445.506,531.184
		C445.785,531.184,445.785,531.184,445.506,531.184z M427.798,490.747l17.221,32.768l7.111-23.216l-17.221-32.768L427.798,490.747z"
		/>
</g>
<g>
	<path fill="#FFFFFF" d="M488.383,332.905L488.383,332.905c-1.115,0-1.882-0.836-2.161-1.673l-8.993-29.212
		c-0.279-0.558,0-1.115,0.278-1.673l20.219-38.206c0.558-0.836,1.395-1.394,2.161-1.115c0.837,0,1.673,0.836,1.882,1.673
		l8.994,29.212c0.279,0.558,0,1.115-0.279,1.673l-20.218,38.206C490.057,332.626,489.22,332.905,488.383,332.905z M481.83,301.811
		l7.11,23.216l17.221-32.768l-7.111-23.216L481.83,301.811z"/>
</g>
<g>
	<path fill="#FFFFFF" d="M433.515,251.822c-0.558,0-1.115-0.278-1.395-0.558l-22.379-20.776c-0.558-0.279-0.837-0.836-0.837-1.673
		l-1.674-43.155c0-0.837,0.559-1.673,1.395-2.162c0.837-0.279,1.674-0.279,2.44,0.279l22.38,20.776
		c0.558,0.279,0.836,0.836,0.836,1.673l1.674,43.156c0,0.836-0.558,1.673-1.395,2.162
		C434.072,251.543,433.794,251.822,433.515,251.822z M413.297,227.77l17.777,16.384l-1.394-36.881l-17.709-16.314L413.297,227.77z"
		/>
</g>
<g>
	<path fill="#FFFFFF" d="M407.301,278.873c-0.279,0-0.558,0-0.558,0l-29.212-9.063c-0.837-0.278-1.395-1.115-1.674-1.882
		c-0.278-0.837,0.279-1.673,1.116-2.162l38.205-20.218c0.558-0.279,1.115-0.279,1.674-0.279l29.212,8.994
		c0.836,0.279,1.394,1.115,1.673,1.882c0,0.836-0.279,1.673-1.115,2.161l-38.206,20.218
		C408.138,278.594,407.858,278.873,407.301,278.873z M384.084,267.091l23.217,7.111l32.768-17.221l-23.216-7.042L384.084,267.091z"
		/>
</g>
<g>
	<path fill="#FFFFFF" d="M460.565,559.001c-0.278,0-0.278,0-0.558,0l-42.319-8.714c-0.836-0.279-1.673-0.837-1.673-1.674
		c-0.279-0.837,0.278-1.673,1.115-2.161l25.378-16.663c0.558-0.278,1.115-0.558,1.673-0.278l42.319,8.715
		c0.837,0.278,1.673,0.836,1.673,1.673s-0.278,1.674-1.115,2.161l-25.378,16.663C461.402,558.723,460.845,559.001,460.565,559.001z
		 M423.963,547.01l36.045,7.669l20.219-13.386l-36.045-7.669L423.963,547.01z"/>
</g>
<g>
	<path fill="#FFFFFF" d="M408.695,560.117h-0.279c-0.837,0-1.673-0.837-1.882-1.674l-10.389-42.04c-0.278-0.558,0-1.115,0.279-1.673
		l15.826-26.214c0.558-0.837,1.395-1.116,2.161-1.116s1.673,0.837,1.882,1.674l10.389,42.04c0.278,0.558,0,1.115-0.279,1.673
		l-15.826,26.214C410.02,559.838,409.462,560.117,408.695,560.117z M400.747,516.403l8.715,35.766l12.55-20.776l-8.715-35.695
		L400.747,516.403z"/>
</g>
<g>
	<path fill="#FFFFFF" d="M464.679,285.984c-0.837,0-1.395-0.279-1.882-1.115l-16.663-25.377c-0.279-0.558-0.558-1.116-0.279-1.673
		l8.715-42.319c0.279-0.836,0.837-1.673,1.674-1.673c0.836-0.279,1.673,0.279,2.161,1.115l16.662,25.377
		c0.279,0.558,0.559,1.116,0.279,1.673l-8.715,42.319c-0.279,0.836-0.837,1.673-1.673,1.673H464.679z M450.178,257.818
		l13.386,20.218l7.669-36.044l-13.386-20.218L450.178,257.818z"/>
</g>
<g>
	<path fill="#FFFFFF" d="M432.678,305.854c-0.278,0-0.836,0-1.115-0.279l-26.214-15.826c-0.837-0.558-1.115-1.395-1.115-2.162
		c0-0.836,0.836-1.673,1.673-1.882l42.04-10.388c0.558-0.279,1.115,0,1.674,0.279l26.214,15.826
		c0.836,0.558,1.115,1.395,1.115,2.162c0,0.836-0.837,1.673-1.673,1.882l-42.04,10.388
		C432.957,305.854,432.678,305.854,432.678,305.854z M412.251,288.704l20.775,12.549l35.766-8.715l-20.775-12.549L412.251,288.704z"
		/>
</g>
<g>
	<path fill="#FFFFFF" d="M389.313,223.168c-0.279,0-0.558,0-1.115-0.279l-27.33-13.665c-0.558-0.279-0.837-0.836-1.115-1.395
		l-13.665-40.994c-0.278-0.837,0-1.882,0.558-2.44c1.116-0.558,1.883-0.836,2.72-0.279l27.329,13.665
		c0.558,0.279,0.837,0.836,1.115,1.394l13.665,40.995c0.279,0.836,0,1.882-0.558,2.44
		C390.359,222.89,389.802,223.168,389.313,223.168z M363.866,205.39l21.543,10.946l-11.504-34.929l-21.543-10.946L363.866,205.39z"
		/>
</g>
<g>
	<path fill="#FFFFFF" d="M371.535,256.215L371.535,256.215l-30.606-0.558c-0.837,0-1.673-0.558-1.882-1.395
		c-0.279-0.837,0-1.882,0.558-2.44l31.164-29.77c0.558-0.279,1.115-0.558,1.673-0.558l30.606,0.558c0.837,0,1.673,0.558,1.883,1.395
		c0.278,0.836,0,1.882-0.558,2.44l-31.165,29.77C372.65,255.936,372.093,256.215,371.535,256.215z M346.437,251.265l24.332,0.558
		l26.771-25.377l-24.332-0.558L346.437,251.265z"/>
</g>
<g>
	<path fill="#FFFFFF" d="M166.215,531.184L166.215,531.184c-1.116,0-1.882-0.836-2.161-1.673l-8.994-29.212
		c-0.279-0.558,0-1.116,0.279-1.674l20.218-38.205c0.558-0.837,1.394-1.395,2.161-1.115c0.836,0,1.673,0.836,1.882,1.673
		l8.994,29.212c0.279,0.558,0,1.115-0.279,1.673l-20.218,38.206C167.818,530.905,166.981,531.184,166.215,531.184z M159.661,500.02
		l7.111,23.217l17.221-32.768l-7.111-23.217L159.661,500.02z"/>
</g>
<g>
	<path fill="#FFFFFF" d="M149.552,343.851h-32.001c-0.836,0-1.673-0.558-1.882-1.394c-0.279-0.837-0.279-1.673,0.279-2.44
		l19.382-21.055c0.279-0.558,0.836-0.837,1.673-0.837l43.155-1.673c0.837,0,1.673,0.558,2.162,1.395
		c0.279,0.837,0.279,1.673-0.279,2.44l-20.776,22.379c-0.279,0.558-0.836,0.836-1.673,0.836L149.552,343.851L149.552,343.851z
		 M122.78,339.458h26.772l9.272-0.279l16.384-17.778l-36.881,1.395L122.78,339.458z"/>
</g>
<g>
	<path fill="#FFFFFF" d="M130.658,474.921c-0.279,0-0.558,0-0.836,0l-40.925-13.665c-0.558-0.278-1.115-0.558-1.394-1.115
		l-4.393-8.436c-0.279-0.837-0.279-1.395,0-2.161c0.279-0.768,1.116-1.116,1.883-1.116h34.162c0.837,0,1.673,0.559,1.882,1.116
		l11.225,22.101c0.279,0.837,0.279,1.673-0.279,2.44C131.774,474.643,131.216,474.921,130.658,474.921z M91.128,457.422
		l34.929,11.504l-8.227-16.105H88.897L91.128,457.422z"/>
</g>
<g>
	<path fill="#FFFFFF" d="M133.935,488.307c-0.279,0-0.558,0-0.836-0.278c-0.836-0.279-1.395-1.115-1.395-1.883l-0.558-30.606
		c0-0.558,0.279-1.115,0.558-1.673l4.95-5.159c0.558-0.558,1.115-0.558,1.673-0.558h25.656c1.115,0,2.161,1.115,2.161,2.161v4.393
		c0,0.558-0.279,1.115-0.558,1.673l-29.7,31.095C135.33,488.307,134.493,488.307,133.935,488.307z M135.608,456.655l0.558,24.331
		l25.377-26.771v-1.395h-22.379L135.608,456.655z"/>
</g>
<g>
	<path fill="#FFFFFF" d="M111.834,343.851H85.062c-0.558,0-1.115-0.279-1.673-0.836c-0.279-0.279-0.558-1.116-0.558-1.673
		l1.673-28.097c0-0.836,0.558-1.673,1.395-1.882c0.836-0.279,1.882,0,2.44,0.558l25.099,28.096c0.558,0.558,0.836,1.673,0.279,2.44
		C113.508,343.293,112.671,343.851,111.834,343.851z M87.573,339.458h19.66l-18.336-20.497L87.573,339.458z"/>
</g>
<g>
	<path fill="#FFFFFF" d="M494.448,343.851h-31.931l-10.109-0.279c-0.558,0-1.115-0.279-1.673-0.836l-20.776-22.38
		c-0.558-0.558-0.837-1.673-0.278-2.44c0.278-0.836,1.115-1.395,2.161-1.395l43.155,1.673c0.558,0,1.115,0.279,1.674,0.836
		l19.381,21.055c0.558,0.558,0.837,1.673,0.279,2.44C496.052,343.293,495.216,343.851,494.448,343.851z M453.454,338.901
		l9.272,0.279h26.772l-15.548-16.663l-36.881-1.395L453.454,338.901z"/>
</g>
<g>
	<path fill="#FFFFFF" d="M481.342,474.921c-0.558,0-1.395-0.278-1.674-0.836c-0.558-0.559-0.836-1.674-0.278-2.44l11.225-22.101
		c0.278-0.837,1.115-1.116,1.882-1.116h34.162c0.837,0,1.395,0.279,1.883,1.116c0.278,0.558,0.558,1.394,0,2.161l-4.393,8.436
		c-0.278,0.558-0.837,0.837-1.395,1.115l-40.994,13.665C481.83,474.921,481.551,474.921,481.342,474.921z M493.891,452.82
		l-8.227,16.105l34.929-11.504l2.161-4.671h-28.863V452.82z"/>
</g>
<g>
	<path fill="#FFFFFF" d="M478.064,488.307c-0.558,0-1.115-0.278-1.673-0.558l-29.77-31.094c-0.279-0.558-0.558-1.116-0.558-1.674
		v-4.392c0-1.116,1.115-2.162,2.161-2.162h25.656c0.558,0,1.115,0.279,1.673,0.559l4.95,5.159c0.279,0.558,0.558,1.115,0.558,1.673
		l-0.558,30.606c0,0.837-0.558,1.673-1.395,1.882C478.273,488.307,478.064,488.307,478.064,488.307z M450.178,454.146l25.377,26.771
		l0.558-24.262l-3.556-3.835h-22.379V454.146L450.178,454.146z"/>
</g>
<g>
	<path fill="#FFFFFF" d="M526.938,343.851h-26.772c-0.836,0-1.673-0.558-1.882-1.394c-0.209-0.837-0.279-1.673,0.278-2.44
		l25.099-28.096c0.559-0.558,1.674-0.837,2.44-0.558c0.837,0.279,1.395,1.116,1.395,1.882l1.673,28.097
		c0,0.558-0.278,1.116-0.558,1.673C527.983,343.572,527.426,343.851,526.938,343.851z M505.046,339.458h19.66l-1.115-20.497
		L505.046,339.458z"/>
</g>
<g>
	<path fill="#FFFFFF" d="M342.044,323.632h-72.088c-1.115,0-2.161-1.115-2.161-2.161V306.97c-2.162-0.836-3.834-2.998-3.834-5.438
		c0-3.277,2.719-5.996,5.996-5.996s5.996,2.719,5.996,5.996c0,1.115-0.279,2.161-1.115,3.277l7.111,7.111h11.991l7.111-7.111
		c-0.558-1.116-1.115-2.162-1.115-3.277c0-3.277,2.719-5.996,5.996-5.996s5.996,2.719,5.996,5.996c0,1.115-0.278,2.161-1.115,3.277
		l7.111,7.111h11.991l7.111-7.111c-0.558-1.116-1.115-2.162-1.115-3.277c0-3.277,2.719-5.996,5.996-5.996
		c3.276,0,5.995,2.719,5.995,5.996c0,2.44-1.673,4.671-3.834,5.438v14.501C344.206,322.796,343.16,323.632,342.044,323.632z
		 M272.117,319.24h67.697v-10.946l-7.32,7.39c-0.558,0.558-1.116,0.558-1.674,0.558h-13.664c-0.558,0-1.395-0.279-1.674-0.836
		l-9.272-9.273l-0.279-0.279l-0.279,0.279l-9.272,9.273c-0.558,0.558-1.116,0.558-1.673,0.558h-13.665
		c-0.558,0-1.395-0.279-1.673-0.836l-7.39-7.391L272.117,319.24z M306,299.858c-0.836,0-1.673,0.558-1.673,1.673
		c0,0.558,0.279,1.115,0.837,1.395c0.279,0.279,0.558,0.279,0.836,0.558c0.279-0.279,0.558-0.558,0.837-0.558
		c0.558-0.279,0.836-0.837,0.836-1.395C307.395,300.695,306.837,299.858,306,299.858z M342.044,299.858
		c-0.836,0-1.673,0.558-1.673,1.673c0,0.558,0.279,1.115,0.837,1.395l0.278,0.279h0.279c0.837,0,1.673-0.558,1.673-1.673
		C343.718,300.695,342.881,299.858,342.044,299.858z M269.956,299.858c-0.836,0-1.673,0.558-1.673,1.673
		c0,0.836,0.558,1.673,1.673,1.673h0.279l0.279-0.279c0.558-0.279,0.837-0.837,0.837-1.395
		C271.35,300.695,270.792,299.858,269.956,299.858z"/>
</g>
<g>
	<path fill="#FFFFFF" d="M304.885,557.956c-1.116,0-2.162-1.116-2.162-2.162v-8.505c0-1.116,1.116-2.162,2.162-2.162
		c1.045,0,2.161,1.116,2.161,2.162v8.436C307.115,557.119,306,557.956,304.885,557.956z"/>
</g>
<g>
	<path fill="#FFFFFF" d="M304.885,593.163c-1.116,0-2.162-1.115-2.162-2.161v-24.89c0-1.115,1.116-2.161,2.162-2.161
		c1.045,0,2.161,1.115,2.161,2.161v24.82C307.115,592.048,306,593.163,304.885,593.163z"/>
</g>
<g>
	<path fill="#FFFFFF" d="M283.062,593.163h-6.274c-1.116,0-2.161-1.115-2.161-2.161c0-1.115,1.115-2.161,2.161-2.161h6.274
		c1.116,0,2.162,1.115,2.162,2.161S284.457,593.163,283.062,593.163z"/>
</g>
<g>
	<path fill="#FFFFFF" d="M332.771,593.163h-6.274c-1.115,0-2.161-1.115-2.161-2.161c0-1.115,1.115-2.161,2.161-2.161h6.274
		c1.116,0,2.162,1.115,2.162,2.161S333.888,593.163,332.771,593.163z"/>
</g>
<g>
	<path fill="#FFFFFF" d="M304.885,620.98c-1.116,0-2.162-1.115-2.162-2.161v-6.274c0-1.115,1.116-2.161,2.162-2.161
		c1.045,0,2.161,1.115,2.161,2.161v6.274C307.115,619.936,306,620.98,304.885,620.98z"/>
</g>
<g>
	<path fill="#FFFFFF" d="M278.392,566.67c-0.558,0-1.116-0.278-1.673-0.558l-5.438-5.438c-0.836-0.837-0.836-2.161,0-2.998
		s2.161-0.837,2.998,0l5.438,5.438c0.836,0.836,0.836,2.161,0,2.997C279.507,566.67,278.949,566.67,278.392,566.67z"/>
</g>
<g>
	<path fill="#FFFFFF" d="M269.677,564.509c-0.558,0-1.115-0.278-1.673-0.558l-6.553-6.554c-0.837-0.836-0.837-2.161,0-2.997
		l6.553-6.554c0.837-0.837,2.162-0.837,2.998,0l6.553,6.554c0.837,0.836,0.837,2.161,0,2.997l-6.553,6.554
		C270.792,564.509,270.234,564.509,269.677,564.509z M266.4,555.725l3.556,3.556l3.556-3.556l-3.556-3.556L266.4,555.725z"/>
</g>
<g>
	<path fill="#FFFFFF" d="M331.099,566.67c-0.558,0-1.115-0.278-1.673-0.558c-0.837-0.836-0.837-2.161,0-2.997l5.438-5.438
		c0.837-0.837,2.161-0.837,2.998,0s0.837,2.161,0,2.998l-5.368,5.438C332.214,566.67,331.656,566.67,331.099,566.67z"/>
</g>
<g>
	<path fill="#FFFFFF" d="M339.883,564.509L339.883,564.509c-0.558,0-1.115-0.278-1.673-0.558l-6.554-6.554
		c-0.837-0.836-0.837-2.161,0-2.997l6.554-6.554c0.558-0.558,1.115-0.558,1.673-0.558l0,0c0.558,0,1.116,0.278,1.674,0.558
		l6.553,6.554c0.559,0.558,0.559,1.115,0.559,1.673s-0.279,1.115-0.559,1.673l-6.553,6.554
		C340.929,564.23,340.44,564.509,339.883,564.509z M336.327,555.725l3.556,3.556l3.556-3.556l-3.556-3.556L336.327,555.725z"/>
</g>
<g>
	<path fill="#FFFFFF" d="M314.227,628.092h-18.824c-0.279,0-0.836,0-1.116-0.278l-16.384-9.272
		c-0.279-0.279-0.558-0.558-0.836-0.837l-9.272-16.384c-0.279-0.279-0.279-0.837-0.279-1.115v-18.824c0-0.278,0-0.837,0.279-1.115
		l9.272-16.384c0.279-0.279,0.558-0.558,0.836-0.837l16.384-9.272c0.279-0.278,0.837-0.278,1.116-0.278h18.824
		c0.279,0,0.837,0,1.115,0.278l16.384,9.272c0.279,0.279,0.559,0.558,0.837,0.837l9.272,16.384c0.279,0.278,0.279,0.837,0.279,1.115
		v18.824c0,0.278,0,0.837-0.279,1.115l-9.342,16.384c-0.279,0.279-0.558,0.558-0.837,0.837l-16.384,9.272
		C314.994,628.092,314.436,628.092,314.227,628.092z M295.891,623.77h17.5l15.268-8.715l8.715-15.269v-17.499l-8.715-15.269
		l-15.268-8.714h-17.5l-15.268,8.714l-8.785,15.199v17.499l8.715,15.269L295.891,623.77z"/>
</g>
<g>
	<path fill="#FFFFFF" d="M312.274,557.956h-14.989c-0.836,0-1.673-0.559-1.882-1.116l-7.669-13.106
		c-0.279-0.837-0.279-1.674,0-2.161l7.669-13.107c0.279-0.837,1.116-1.115,1.882-1.115h14.989c0.837,0,1.674,0.558,1.883,1.115
		l7.669,13.107c0.278,0.836,0.278,1.673,0,2.161l-7.669,13.106C313.948,557.677,313.111,557.956,312.274,557.956z M298.61,553.563
		h12.549l6.274-10.946l-6.274-10.945H298.61l-6.275,10.945L298.61,553.563z"/>
</g>
<g>
	<path fill="#FFFFFF" d="M421.523,345.175H187.758c-1.116,0-2.161-1.115-2.161-2.161s1.115-2.161,2.161-2.161h233.766
		c1.115,0,2.161,1.115,2.161,2.161S422.569,345.175,421.523,345.175z"/>
</g>
<g>
	<path fill="#FFFFFF" d="M422.848,448.986H189.152c-1.116,0-2.162-1.116-2.162-2.162c0-1.045,1.116-2.161,2.162-2.161h233.766
		c1.115,0,2.161,1.116,2.161,2.161C425.079,447.87,423.963,448.986,422.848,448.986z"/>
</g>
<g>
	<g>
		<path fill="#FFFFFF" d="M112.671,415.939l-9.551-18.824H93.011v18.824h-4.671v-42.598h16.384c7.39,0,12.549,4.393,12.549,11.713
			c0,6.275-3.834,10.388-9.272,11.503l10.109,19.382H112.671L112.671,415.939z M104.235,377.455H93.011v15.547h11.503
			c4.95,0,8.436-2.44,8.436-7.669C112.671,380.174,109.116,377.455,104.235,377.455z"/>
	</g>
	<g>
		<path fill="#FFFFFF" d="M141.604,416.219c-8.436,0-14.78-5.996-14.78-14.502v-28.375h4.671v28.097
			c0,6.553,4.113,10.666,10.388,10.666c6.274,0,10.388-4.392,10.388-10.666v-28.097h4.393v28.375
			C156.664,410.223,150.319,416.219,141.604,416.219z"/>
	</g>
	<g>
		<path fill="#FFFFFF" d="M195.427,415.939l-22.658-34.162v34.162h-4.671v-42.598h4.392l22.659,33.883v-33.883h4.671v42.598H195.427
			L195.427,415.939z"/>
	</g>
	<g>
		<path fill="#FFFFFF" d="M251.689,415.939l-3.277-9.552h-18.545l-3.277,9.552h-4.95l15.547-42.598h3.834l15.547,42.598H251.689z
			 M239.07,379.895l-7.878,22.379h15.547L239.07,379.895z"/>
	</g>
	<g>
		<path fill="#FFFFFF" d="M290.453,415.939l-22.658-34.162v34.162h-4.671v-42.598h4.393l22.658,33.883v-33.883h4.671v42.598H290.453
			L290.453,415.939z"/>
	</g>
	<g>
		<path fill="#FFFFFF" d="M321.826,415.939v-42.598h26.493v4.114h-21.822v14.989h18.545v4.113h-18.545v15.269h21.822v4.113H321.826
			L321.826,415.939z"/>
	</g>
	<g>
		<path fill="#FFFFFF" d="M389.592,415.939v-32.489l-11.782,25.657h-3.834l-11.713-25.657v32.209h-4.671v-42.319h4.671
			l13.943,30.048l13.386-30.048h4.672v42.598H389.592L389.592,415.939z"/>
	</g>
	<g>
		<path fill="#FFFFFF" d="M422.081,398.44h-11.225v17.499h-4.671v-42.598h15.826c7.669,0,13.106,4.95,13.106,12.549
			C435.118,393.49,429.959,398.44,422.081,398.44z M421.802,377.455h-10.945v16.941h10.945c5.159,0,8.994-2.719,8.994-8.436
			S426.961,377.455,421.802,377.455z"/>
	</g>
	<g>
		<path fill="#FFFFFF" d="M443.902,415.939v-42.598h4.672v42.598H443.902L443.902,415.939z"/>
	</g>
	<g>
		<path fill="#FFFFFF" d="M485.106,415.939l-9.552-18.824h-10.388v18.824h-4.671v-42.598h16.384c7.39,0,12.549,4.393,12.549,11.713
			c0,6.275-3.834,10.388-9.272,11.503l10.109,19.382H485.106L485.106,415.939z M476.67,377.455h-11.503v15.547h11.503
			c4.95,0,8.437-2.44,8.437-7.669C485.106,380.174,481.551,377.455,476.67,377.455z"/>
	</g>
	<g>
		<path fill="#FFFFFF" d="M499.887,415.939v-42.598h26.493v4.114h-21.822v14.989h18.545v4.113h-18.545v15.269h21.822v4.113H499.887
			L499.887,415.939z"/>
	</g>
</g>
</svg>
