<?xml version="1.0" encoding="utf-8"?>
<!-- Generator: Adobe Illustrator 18.1.0, SVG Export Plug-In . SVG Version: 6.00 Build 0)  -->
<svg version="1.1" id="Layer_1" xmlns="http://www.w3.org/2000/svg" xmlns:xlink="http://www.w3.org/1999/xlink" x="0px" y="0px"
	 viewBox="0 216.2 960 93.6" enable-background="new 0 216.2 960 93.6" xml:space="preserve">
<g>
	<path fill="#FFFFFF" d="M53.7,309.4l-21.3-41.2H10.1v41.2H0v-93.1h35.9c16,0,27.6,9.6,27.6,25.7c0,13.6-8.2,22.3-20.4,25.2
		l22.3,42.2L53.7,309.4L53.7,309.4z M34.8,225H10.1v34h24.7c10.6,0,18.4-5.8,18.4-17C53.7,230.8,46,225,34.8,225z"/>
	<path fill="#FFFFFF" d="M117.2,309.9c-18.9,0-32.4-13.1-32.4-31.5v-62.1h9.6v61.6c0,14.1,8.7,23.3,22.3,23.3
		c13.6,0,22.8-9.2,22.8-23.3v-61.6h10.1v62.5C149.6,297.2,136.1,309.9,117.2,309.9z"/>
	<path fill="#FFFFFF" d="M235,309.4l-49.9-74.6v74.6H175v-93.1h9.2l49.4,74.6v-74.6h10.1v93H235V309.4z"/>
	<path fill="#FFFFFF" d="M358.1,309.4l-7.2-20.8h-40.7l-7.2,20.8h-10.6l34.5-93h8.2l34,93H358.1z M330.4,230.3l-17.5,48.9h34.8
		L330.4,230.3z"/>
	<path fill="#FFFFFF" d="M442.8,309.4l-49.4-74.6v74.6h-10.1v-93.1h9.2l49.4,74.6v-74.6h10.1v93h-9.2V309.4z"/>
	<path fill="#FFFFFF" d="M512.1,309.4v-93.1h57.6v8.7h-48v32.9h40.7v8.7h-40.7v33.4h48v8.7h-57.6L512.1,309.4L512.1,309.4z"/>
	<path fill="#FFFFFF" d="M660.5,309.4v-70.7l-25.7,56.1H626l-25.7-56.3v70.7h-10.1v-93h10.1l30.5,65.9l29.5-65.9h10.1v93h-10V309.4z
		"/>
	<path fill="#FFFFFF" d="M732.2,271.1h-24.7v38.3h-10.1v-93.1h34.8c17,0,28.6,10.6,28.6,27.1C760.7,260,749.2,271.1,732.2,271.1z
		 M731.2,225h-23.7v36.9h23.7c11.7,0,19.9-6.3,19.9-18.4C750.6,231.3,742.8,225,731.2,225z"/>
	<path fill="#FFFFFF" d="M779.7,309.4v-93.1h10.1v93h-10.1V309.4z"/>
	<path fill="#FFFFFF" d="M870.3,309.4L849,268.2h-22.3v41.2h-10.1v-93.1h35.9c16,0,27.6,9.6,27.6,25.7c0,13.6-8.2,22.3-20.4,25.2
		l22.3,42.2L870.3,309.4L870.3,309.4z M851.4,225h-24.7v34h24.7c10.6,0,18.4-5.8,18.4-17S862.1,225,851.4,225z"/>
	<path fill="#FFFFFF" d="M902.2,309.4v-93.1h57.6v8.7H912v32.9h40.7v8.7H912v33.4h48v8.7h-57.6v0.5H902.2z"/>
</g>
</svg>
