<?xml version="1.0" encoding="utf-8"?>
<!-- Generator: Adobe Illustrator 18.1.0, SVG Export Plug-In . SVG Version: 6.00 Build 0)  -->
<svg version="1.1" id="Layer_1" xmlns="http://www.w3.org/2000/svg" xmlns:xlink="http://www.w3.org/1999/xlink" x="0px" y="0px"
	 viewBox="0 0 198.1 19.4" enable-background="new 0 0 198.1 19.4" xml:space="preserve">
<g>
	<path fill="#4D4D4D" d="M11,19.2l-4.4-8.5H2.1v8.5H0V0h7.4c3.3,0,5.7,2,5.7,5.3c0,2.8-1.7,4.6-4.2,5.2l4.6,8.7H11z M7.2,1.8H2.1v7
		h5.1c2.2,0,3.8-1.2,3.8-3.5C11,3,9.4,1.8,7.2,1.8z"/>
	<path fill="#4D4D4D" d="M24.1,19.4c-3.9,0-6.7-2.7-6.7-6.5V0h2.1v12.7c0,2.9,1.8,4.8,4.6,4.8s4.7-1.9,4.7-4.8V0h2.1v12.9
		C30.9,16.7,28,19.4,24.1,19.4z"/>
	<path fill="#4D4D4D" d="M48.4,19.2L38.2,3.8v15.4h-2.1V0h1.9l10.2,15.4V0h2.1v19.2H48.4z"/>
	<path fill="#4D4D4D" d="M73.8,19.2l-1.5-4.3h-8.4l-1.5,4.3h-2.2L67.3,0H69l7,19.2H73.8z M68.1,2.9l-3.6,10.1h7.2L68.1,2.9z"/>
	<path fill="#4D4D4D" d="M91.4,19.2L81.2,3.8v15.4h-2.1V0h1.9l10.2,15.4V0h2.1v19.2H91.4z"/>
	<path fill="#4D4D4D" d="M105.6,19.2V0h11.9v1.8h-9.9v6.8h8.4v1.8h-8.4v6.9h9.9v1.8H105.6z"/>
	<path fill="#4D4D4D" d="M136.2,19.2V4.6L131,16.2h-1.8l-5.3-11.6v14.6h-2.1V0h2.1l6.3,13.6L136.2,0h2.1v19.2H136.2z"/>
	<path fill="#4D4D4D" d="M151,11.3h-5.1v7.9h-2.1V0h7.2c3.5,0,5.9,2.2,5.9,5.6S154.5,11.3,151,11.3z M150.8,1.8h-4.9v7.6h4.9
		c2.4,0,4.1-1.3,4.1-3.8C154.9,3.1,153.2,1.8,150.8,1.8z"/>
	<path fill="#4D4D4D" d="M160.9,19.2V0h2.1v19.2H160.9z"/>
	<path fill="#4D4D4D" d="M179.5,19.2l-4.4-8.5h-4.6v8.5h-2.1V0h7.4c3.3,0,5.7,2,5.7,5.3c0,2.8-1.7,4.6-4.2,5.2l4.6,8.7H179.5z
		 M175.7,1.8h-5.1v7h5.1c2.2,0,3.8-1.2,3.8-3.5C179.5,3,177.9,1.8,175.7,1.8z"/>
	<path fill="#4D4D4D" d="M186.2,19.2V0h11.9v1.8h-9.9v6.8h8.4v1.8h-8.4v6.9h9.9v1.8H186.2z"/>
</g>
</svg>
