<?xml version="1.0" encoding="utf-8"?>
<!-- Generator: Adobe Illustrator 19.0.0, SVG Export Plug-In . SVG Version: 6.00 Build 0)  -->
<svg version="1.1" id="Layer_1" xmlns="http://www.w3.org/2000/svg" xmlns:xlink="http://www.w3.org/1999/xlink" x="0px" y="0px"
	 width="999px" height="999px" viewBox="0 0 999 999" enable-background="new 0 0 999 999" xml:space="preserve">
<path id="XMLID_6_" fill="#FFFFFF" d="M769.2746,351.95013c-19.89526,8.8157-41.24249,14.79443-63.67175,17.46359
	c22.90179-13.7142,40.4325-35.46689,48.74127-61.30725c-21.48242,12.70026-45.19501,21.92227-70.4613,26.92145
	C663.65021,313.44394,634.87128,300,602.95062,300c-61.23926,0-110.89291,49.65366-110.89291,110.85938
	c0,8.68057,0.97952,17.15887,2.87143,25.26624c-92.14594-4.6282-173.85449-48.7757-228.54092-115.85944
	c-9.55942,16.34897-14.99759,35.3989-14.99759,55.73395c0,38.47348,19.59137,72.42032,49.31625,92.2811
	c-18.17285-0.60767-35.26462-5.60687-50.22777-13.91647v1.38492c0,53.70688,38.23677,98.53006,88.93709,108.7316
	c-9.28912,2.49957-19.08438,3.88458-29.2179,3.88458c-7.16052,0-14.08521-0.70929-20.87476-2.06067
	c14.11877,44.08038,55.05829,76.13531,103.56372,77.0141c-37.93292,29.72491-85.7627,47.39081-137.71281,47.39081
	c-8.95085,0-17.76746-0.54059-26.44804-1.52008c49.07956,31.51526,107.34668,49.89038,169.97089,49.89038
	c203.98483,0,315.4863-168.95782,315.4863-315.4863l-0.37189-14.35547C735.59802,393.69958,754.44568,374.17621,769.2746,351.95013z
	 M932.07953,749.25006L499.49985,998.99994l-432.57959-249.75l0.00005-499.5L499.49997,0.00003l432.57962,249.75005
	L932.07953,749.25006z"/>
<g id="XMLID_2_">
</g>
<g id="XMLID_7_">
</g>
<g id="XMLID_8_">
</g>
<g id="XMLID_9_">
</g>
<g id="XMLID_10_">
</g>
<g id="XMLID_11_">
</g>
</svg>
